<?xml version="1.0" encoding="utf-8"?>
<!-- Generator: Adobe Illustrator 22.1.0, SVG Export Plug-In . SVG Version: 6.00 Build 0)  -->
<svg version="1.1" id="Layer_1" xmlns="http://www.w3.org/2000/svg" xmlns:xlink="http://www.w3.org/1999/xlink" x="0px" y="0px"
	 viewBox="0 0 1920 530.8" style="enable-background:new 0 0 1920 530.8;" xml:space="preserve">
<style type="text/css">
	.st0{fill:#FFFFFF;}
</style>
<g>
	<path class="st0" d="M925.7,436c-8.6,12.8-18.9,25-31,36.4c-12.1,11.4-26.2,21.5-42.1,30.2c-15.9,8.7-33.5,15.6-52.8,20.7
		c-19.3,5.1-40.3,7.6-63.1,7.6c-38.1,0-73.3-6.7-105.6-20c-32.4-13.3-60.2-31.8-83.5-55.3c-23.3-23.5-41.5-51.5-54.6-83.8
		c-13.1-32.3-19.6-67.8-19.6-106.3c0-38.5,6.7-74,20-106.3c13.3-32.3,31.8-60.3,55.3-83.8c23.5-23.5,51.4-42,83.5-55.3
		C664.2,6.7,699.1,0,736.6,0c18.6,0,36.7,1.9,54.6,5.8c17.8,3.9,34.6,9.3,50.3,16.3c15.7,7,30,15.4,42.8,25.2
		c12.8,9.8,23.5,20.9,32.1,33.3L873.6,112c-5.2-8.1-12.3-16.2-21-24.3c-8.8-8.1-19.2-15.2-31-21.4c-11.9-6.2-24.9-11.2-38.9-15
		c-14-3.8-29.1-5.7-45.3-5.7c-32.8,0-62.2,5.9-88.1,17.8c-25.9,11.9-47.9,27.9-66,48c-18.1,20.2-31.9,43.5-41.4,70.1
		c-9.5,26.6-14.3,54.5-14.3,83.9c0,29.4,4.9,57.4,14.6,83.9c9.7,26.6,23.7,49.9,41.7,70c18.1,20.2,40.1,36.2,66,48
		c25.9,11.9,55.1,17.8,87.4,17.8c29,0,56.6-5.9,82.8-17.8c26.2-11.9,48-30.9,65.6-57.1L925.7,436z"/>
	<path class="st0" d="M1207.1,530.8h-51.4V45.7H986.6V0h389.6v45.7h-169.1V530.8z"/>
	<path class="st0" d="M1920,265.4c0,38.5-6.7,74-20,106.3c-13.3,32.4-31.8,60.3-55.3,83.8c-23.5,23.5-51.4,42-83.5,55.3
		c-32.1,13.3-67,20-104.5,20c-37.6,0-72.4-6.7-104.5-20c-32.1-13.3-59.9-31.8-83.5-55.3c-23.5-23.5-42-51.5-55.3-83.8
		c-13.3-32.3-20-67.8-20-106.3c0-38.5,6.7-74,20-106.3c13.3-32.3,31.8-60.3,55.3-83.8c23.5-23.5,51.4-42,83.5-55.3
		c32.1-13.3,66.9-20,104.5-20c37.6,0,72.4,6.7,104.5,20c32.1,13.3,59.9,31.8,83.5,55.3c23.5,23.5,42,51.5,55.3,83.8
		C1913.3,191.5,1920,226.9,1920,265.4z M1865.8,265.8c0-29.4-4.8-57.5-14.3-84.1c-9.5-26.6-23.3-50-41.4-70.2
		c-18.1-20.2-40.1-36.2-66-48.1c-25.9-11.9-55.1-17.8-87.4-17.8c-32.4,0-61.5,5.9-87.4,17.8c-25.9,11.9-47.9,27.9-66,48.1
		c-18.1,20.2-31.9,43.6-41.4,70.2c-9.5,26.6-14.3,54.6-14.3,84.1c0,29.5,4.7,57.5,14.3,84.1c9.5,26.6,23.3,49.9,41.4,69.8
		c18.1,19.9,40.1,35.9,66,47.7c25.9,11.9,55.1,17.8,87.4,17.8c32.3,0,61.5-5.9,87.4-17.8c25.9-11.9,47.9-27.8,66-47.7
		c18.1-19.9,31.9-43.2,41.4-69.8C1861,323.3,1865.8,295.2,1865.8,265.8z"/>
	<polygon class="st0" points="351,265.4 234,0 117,265.4 0,530.8 53.9,530.8 234,122.2 414.1,530.8 467.9,530.8 	"/>
</g>
</svg>
