<?xml version="1.0" encoding="utf-8"?>
<svg version="1.1" id="Capa_1" xmlns="http://www.w3.org/2000/svg" xmlns:xlink="http://www.w3.org/1999/xlink" x="0px" y="0px" viewBox="5 0 120.8 39.5" xml:space="preserve">
<style type="text/css">
	.st0{fill:#FFFFFF;}
</style>
<g>
	<path class="st0" d="M58.4,29.9c-0.5,0.7-1.1,1.4-1.8,2.1c-0.7,0.7-1.5,1.2-2.4,1.7c-0.9,0.5-1.9,0.9-3,1.2
		c-1.1,0.3-2.3,0.4-3.6,0.4c-2.2,0-4.2-0.4-6-1.1c-1.9-0.8-3.4-1.8-4.8-3.2c-1.3-1.3-2.4-2.9-3.1-4.8c-0.7-1.9-1.1-3.9-1.1-6.1
		c0-2.2,0.4-4.2,1.1-6.1c0.8-1.9,1.8-3.5,3.2-4.8c1.3-1.3,2.9-2.4,4.8-3.2c1.8-0.8,3.8-1.1,6-1.1c1.1,0,2.1,0.1,3.1,0.3
		c1,0.2,2,0.5,2.9,0.9c0.9,0.4,1.7,0.9,2.5,1.4c0.7,0.6,1.3,1.2,1.8,1.9l-2.5,1.8c-0.3-0.5-0.7-0.9-1.2-1.4
		c-0.5-0.5-1.1-0.9-1.8-1.2c-0.7-0.4-1.4-0.6-2.2-0.9c-0.8-0.2-1.7-0.3-2.6-0.3c-1.9,0-3.6,0.3-5,1c-1.5,0.7-2.7,1.6-3.8,2.8
		c-1,1.2-1.8,2.5-2.4,4c-0.5,1.5-0.8,3.1-0.8,4.8c0,1.7,0.3,3.3,0.8,4.8c0.6,1.5,1.4,2.9,2.4,4c1,1.2,2.3,2.1,3.8,2.8
		c1.5,0.7,3.2,1,5,1c1.7,0,3.2-0.3,4.7-1c1.5-0.7,2.8-1.8,3.8-3.3L58.4,29.9z"/>
	<path class="st0" d="M74.5,35.4h-2.9V7.6h-9.7V5h22.3v2.6h-9.7V35.4z"/>
	<path class="st0" d="M115.4,20.2c0,2.2-0.4,4.2-1.1,6.1c-0.8,1.9-1.8,3.5-3.2,4.8c-1.3,1.3-2.9,2.4-4.8,3.2c-1.8,0.8-3.8,1.1-6,1.1
		c-2.2,0-4.1-0.4-6-1.1c-1.8-0.8-3.4-1.8-4.8-3.2c-1.3-1.3-2.4-2.9-3.2-4.8c-0.8-1.9-1.1-3.9-1.1-6.1c0-2.2,0.4-4.2,1.1-6.1
		c0.8-1.9,1.8-3.5,3.2-4.8c1.3-1.3,2.9-2.4,4.8-3.2c1.8-0.8,3.8-1.1,6-1.1c2.2,0,4.1,0.4,6,1.1c1.8,0.8,3.4,1.8,4.8,3.2
		s2.4,3,3.2,4.8C115,15.9,115.4,18,115.4,20.2z M112.2,20.2c0-1.7-0.3-3.3-0.8-4.8c-0.5-1.5-1.3-2.9-2.4-4c-1-1.2-2.3-2.1-3.8-2.8
		c-1.5-0.7-3.2-1-5-1c-1.9,0-3.5,0.3-5,1c-1.5,0.7-2.7,1.6-3.8,2.8c-1,1.2-1.8,2.5-2.4,4c-0.5,1.5-0.8,3.1-0.8,4.8
		c0,1.7,0.3,3.3,0.8,4.8c0.5,1.5,1.3,2.9,2.4,4c1,1.1,2.3,2.1,3.8,2.7c1.5,0.7,3.2,1,5,1c1.9,0,3.5-0.3,5-1c1.5-0.7,2.7-1.6,3.8-2.7
		c1-1.1,1.8-2.5,2.4-4C112,23.5,112.2,21.9,112.2,20.2z"/>
	<polygon class="st0" points="25.5,20.2 18.8,5 12.1,20.2 5.4,35.4 8.4,35.4 18.8,12 29.1,35.4 32.2,35.4 	"/>
</g>
</svg>