<?xml version="1.0" encoding="utf-8"?>
<!-- Generator: Adobe Illustrator 22.1.0, SVG Export Plug-In . SVG Version: 6.00 Build 0)  -->
<svg version="1.1" id="Layer_3" xmlns="http://www.w3.org/2000/svg" xmlns:xlink="http://www.w3.org/1999/xlink" x="0px" y="0px"
	 viewBox="0 0 42.5 33" style="enable-background:new 0 0 42.5 33;" xml:space="preserve">
<style type="text/css">
	.particle0{fill:#FFFFFF;}
</style>
<g>
	<g>
		<path class="particle0" d="M21.8,2.2C13.1,1,5.3,5.4,4.4,12C4,15.2,5.2,18.5,8,21.2c1,1,2.3,1.9,3.6,2.6c0,1.2-1,2.7-1.5,3.8
			c-0.6,1.1-1.1,1.8-0.6,2.5c0.1,0.2,0.4,0.4,0.9,0.4c0.1,0,0.3,0,0.5-0.1c1-0.3,4.1-1.3,6.8-4.6c0.3,0.1,0.6,0.1,0.9,0.1
			c0.9,0.1,1.9,0.2,2.8,0.2c7.5,0,13.8-4.1,14.6-10C36.9,9.7,30.6,3.4,21.8,2.2z M34.2,16c-0.7,5.5-7.6,9.2-15.3,8.1
			c-0.5-0.1-1-0.1-1.5-0.3c-0.3-0.1-0.6,0-0.8,0.3c-0.3,0.3-0.6,0.7-1.1,1.2c0,0,0,0,0,0c-0.1,0.1-0.1,0.1-0.2,0.2l0,0
			c-0.9,0.9-1.9,1.6-2.7,2c-0.2,0.1-0.3-0.1-0.2-0.2c0.5-0.8,0.9-1.7,1-2.7l0,0c0.1-0.3,0.2-0.9,0.2-1.6c0-0.4-0.4-0.6-0.5-0.7
			c0,0-0.1,0-0.1-0.1c-1.4-0.7-2.7-1.6-3.8-2.6c-2.3-2.2-3.4-4.9-3-7.5C6.9,7.4,12.4,4,19,4c0.8,0,1.7,0.1,2.6,0.2
			c7.2,1,12.7,5.7,12.7,10.9C34.2,15.3,34.2,15.7,34.2,16z"/>
	</g>
	<g>
		<path class="particle0" d="M9.3,14c-0.1,0-0.1,0-0.2,0c-0.3-0.1-0.5-0.4-0.4-0.7c0.7-2.5,4.7-7.7,11.6-7c0.3,0,0.5,0.3,0.5,0.6
			c0,0.3-0.3,0.5-0.6,0.5c-6.3-0.6-9.8,4-10.5,6.2C9.7,13.9,9.5,14,9.3,14z"/>
	</g>
</g>
</svg>
