<?xml version="1.0" encoding="utf-8"?>
<!-- Generator: Adobe Illustrator 22.1.0, SVG Export Plug-In . SVG Version: 6.00 Build 0)  -->
<svg version="1.1" id="Layer_7" xmlns="http://www.w3.org/2000/svg" xmlns:xlink="http://www.w3.org/1999/xlink" x="0px" y="0px"
	 viewBox="0 0 168.7 215.7" style="enable-background:new 0 0 168.7 215.7;" xml:space="preserve">
<style type="text/css">
	.particle0{opacity:0.12;}
	.particle1{fill:#3398FF;}
	.particle2{opacity:0.44;}
	.particle3{opacity:0.21;}
	.particle4{fill:#335171;}
	.particle5{opacity:0.31;}
	.particle6{opacity:0.28;}
	.particle7{opacity:0.74;}
</style>
<g>
	<g class="particle0">
		<path class="particle1" d="M84.3,170.1c17.4,0,17.4-27,0-27C67,143.1,66.9,170.1,84.3,170.1L84.3,170.1z"/>
	</g>
	<g class="particle0">
		<path class="particle1" d="M107.3,151.1c17.4,0,17.4-27,0-27C90,124.1,89.9,151.1,107.3,151.1L107.3,151.1z"/>
	</g>
	<g class="particle0">
		<path class="particle1" d="M131.3,126.1c17.4,0,17.4-27,0-27C114,99.1,113.9,126.1,131.3,126.1L131.3,126.1z"/>
	</g>
	<g class="particle0">
		<path class="particle1" d="M135.3,58.1c17.4,0,17.4-27,0-27C118,31.1,117.9,58.1,135.3,58.1L135.3,58.1z"/>
	</g>
	<g class="particle0">
		<path class="particle1" d="M48.3,48.1c17.4,0,17.4-27,0-27C31,21.1,30.9,48.1,48.3,48.1L48.3,48.1z"/>
	</g>
	<g class="particle0">
		<path class="particle1" d="M39.3,102.1c17.4,0,17.4-27,0-27C22,75.1,21.9,102.1,39.3,102.1L39.3,102.1z"/>
	</g>
	<g class="particle0">
		<path class="particle1" d="M16.3,103.1c17.4,0,17.4-27,0-27C-1,76.1-1.1,103.1,16.3,103.1L16.3,103.1z"/>
	</g>
	<g class="particle0">
		<path class="particle1" d="M20.3,57.1c17.4,0,17.4-27,0-27C3,30.1,2.9,57.1,20.3,57.1L20.3,57.1z"/>
	</g>
	<g class="particle0">
		<path class="particle1" d="M89.3,213.1c17.4,0,17.4-27,0-27C72,186.1,71.9,213.1,89.3,213.1L89.3,213.1z"/>
	</g>
	<g class="particle0">
		<path class="particle1" d="M80.3,30.1c17.4,0,17.4-27,0-27C63,3.1,62.9,30.1,80.3,30.1L80.3,30.1z"/>
	</g>
</g>
<g>
	<g class="particle2">
		<path class="particle1" d="M111.1,127c7.7,0,7.7-12,0-12C103.4,115,103.4,127,111.1,127L111.1,127z"/>
	</g>
	<g class="particle2">
		<path class="particle1" d="M151,89.2c7.7,0,7.7-12,0-12C143.3,77.2,143.3,89.2,151,89.2L151,89.2z"/>
	</g>
	<g class="particle2">
		<path class="particle1" d="M128.9,42.8c7.7,0,7.7-12,0-12C121.2,30.8,121.1,42.8,128.9,42.8L128.9,42.8z"/>
	</g>
	<g class="particle2">
		<path class="particle1" d="M44.9,44.9c7.7,0,7.7-12,0-12C37.2,32.9,37.2,44.9,44.9,44.9L44.9,44.9z"/>
	</g>
	<g class="particle2">
		<path class="particle1" d="M83.6,165.3c7.7,0,7.7-12,0-12C75.9,153.3,75.9,165.3,83.6,165.3L83.6,165.3z"/>
	</g>
	<g class="particle2">
		<path class="particle1" d="M84.9,205.2c7.7,0,7.7-12,0-12C77.2,193.2,77.2,205.2,84.9,205.2L84.9,205.2z"/>
	</g>
	<g class="particle2">
		<path class="particle1" d="M26.7,96.8c7.7,0,7.7-12,0-12C19,84.8,18.9,96.8,26.7,96.8L26.7,96.8z"/>
	</g>
	<g class="particle2">
		<path class="particle1" d="M84.3,33.6c7.7,0,7.7-12,0-12C76.6,21.6,76.6,33.6,84.3,33.6L84.3,33.6z"/>
	</g>
</g>
<g>
	<g class="particle3">
		<path class="particle1" d="M89.2,189.1c7.7,0,7.7-12,0-12C81.5,177.1,81.5,189.1,89.2,189.1L89.2,189.1z"/>
	</g>
	<g class="particle3">
		<path class="particle1" d="M73,200.6c7.7,0,7.7-12,0-12C65.3,188.6,65.3,200.6,73,200.6L73,200.6z"/>
	</g>
	<g class="particle3">
		<path class="particle1" d="M96,158.4c7.7,0,7.7-12,0-12C88.3,146.4,88.3,158.4,96,158.4L96,158.4z"/>
	</g>
	<g class="particle3">
		<path class="particle1" d="M126.5,130.3c7.7,0,7.7-12,0-12C118.8,118.3,118.8,130.3,126.5,130.3L126.5,130.3z"/>
	</g>
	<g class="particle3">
		<path class="particle1" d="M157.8,102.4c7.7,0,7.7-12,0-12C150.1,90.4,150.1,102.4,157.8,102.4L157.8,102.4z"/>
	</g>
	<g class="particle3">
		<path class="particle1" d="M136.6,84.2c7.7,0,7.7-12,0-12C128.9,72.2,128.9,84.2,136.6,84.2L136.6,84.2z"/>
	</g>
	<g class="particle3">
		<path class="particle1" d="M130.1,53.7c7.7,0,7.7-12,0-12C122.4,41.7,122.4,53.7,130.1,53.7L130.1,53.7z"/>
	</g>
	<g class="particle3">
		<path class="particle1" d="M21.3,77.9c7.7,0,7.7-12,0-12C13.6,65.9,13.6,77.9,21.3,77.9L21.3,77.9z"/>
	</g>
	<g class="particle3">
		<path class="particle1" d="M10.9,97.5c0.5,0.1,1.1,0.1,1.6,0.2c0.8,0,1.6-0.1,2.3-0.5c0.7-0.2,1.4-0.7,1.9-1.2c1-1,1.8-2.7,1.8-4.2
			c-0.1-1.6-0.6-3.2-1.8-4.2c-0.4-0.3-0.8-0.6-1.2-0.9c-0.9-0.5-1.9-0.8-3-0.8c-0.5-0.1-1.1-0.1-1.6-0.2c-0.8,0-1.6,0.1-2.3,0.5
			c-0.7,0.2-1.4,0.7-1.9,1.2c-1,1-1.8,2.7-1.8,4.2c0.1,1.6,0.6,3.2,1.8,4.2C7,96,7.4,96.3,7.8,96.6C8.8,97.2,9.8,97.5,10.9,97.5
			L10.9,97.5z"/>
	</g>
	<g class="particle3">
		<path class="particle1" d="M20.8,60.5c7.7,0,7.7-12,0-12C13.1,48.5,13.1,60.5,20.8,60.5L20.8,60.5z"/>
	</g>
	<g class="particle3">
		<path class="particle1" d="M39.6,62.6c7.7,0,7.7-12,0-12C31.9,50.6,31.9,62.6,39.6,62.6L39.6,62.6z"/>
	</g>
	<g class="particle3">
		<path class="particle1" d="M68.2,29.3c7.7,0,7.7-12,0-12C60.5,17.3,60.5,29.3,68.2,29.3L68.2,29.3z"/>
	</g>
	<g class="particle3">
		<path class="particle1" d="M133.1,101.2c7.7,0,7.7-12,0-12C125.4,89.2,125.3,101.2,133.1,101.2L133.1,101.2z"/>
	</g>
	<g class="particle3">
		<path class="particle1" d="M109.2,26.5c7.7,0,7.7-12,0-12C101.4,14.5,101.4,26.5,109.2,26.5L109.2,26.5z"/>
	</g>
</g>
<g>
	<g>
		<path class="particle4" d="M17.2,87.9c1.9,0,1.9-3,0-3C15.3,84.9,15.3,87.9,17.2,87.9L17.2,87.9z"/>
	</g>
	<g>
		<path class="particle4" d="M26.3,59.1c1.9,0,1.9-3,0-3C24.3,56.1,24.3,59.1,26.3,59.1L26.3,59.1z"/>
	</g>
	<g>
		<path class="particle4" d="M62.1,20.8c1.9,0,1.9-3,0-3C60.1,17.8,60.1,20.8,62.1,20.8L62.1,20.8z"/>
	</g>
	<g>
		<path class="particle4" d="M145.4,31c1.9,0,1.9-3,0-3C143.5,28,143.5,31,145.4,31L145.4,31z"/>
	</g>
	<g>
		<path class="particle4" d="M148.7,112.6c1.9,0,1.9-3,0-3C146.8,109.6,146.8,112.6,148.7,112.6L148.7,112.6z"/>
	</g>
	<g>
		<path class="particle4" d="M130.9,56.7c1.9,0,1.9-3,0-3C129,53.7,129,56.7,130.9,56.7L130.9,56.7z"/>
	</g>
	<g>
		<path class="particle4" d="M97.1,26.4c1.9,0,1.9-3,0-3C95.1,23.4,95.1,26.4,97.1,26.4L97.1,26.4z"/>
	</g>
	<g>
		<path class="particle4" d="M126.1,121.7c1.9,0,1.9-3,0-3C124.2,118.7,124.2,121.7,126.1,121.7L126.1,121.7z"/>
	</g>
	<g>
		<path class="particle4" d="M82.8,145.8c1.9,0,1.9-3,0-3C80.9,142.8,80.9,145.8,82.8,145.8L82.8,145.8z"/>
	</g>
	<g>
		<path class="particle4" d="M75.2,162.3c1.9,0,1.9-3,0-3C73.2,159.3,73.2,162.3,75.2,162.3L75.2,162.3z"/>
	</g>
	<g>
		<path class="particle4" d="M72.6,207.6c1.9,0,1.9-3,0-3C70.6,204.6,70.6,207.6,72.6,207.6L72.6,207.6z"/>
	</g>
</g>
<g class="particle5">
	<path class="particle1" d="M107,134c7.7,0,7.7-12,0-12C99.3,122,99.3,134,107,134L107,134z"/>
</g>
<g>
	<g class="particle6">
		<path class="particle1" d="M74,191.6c7.7,0,7.7-12,0-12C66.3,179.6,66.3,191.6,74,191.6L74,191.6z"/>
	</g>
	<g class="particle6">
		<path class="particle1" d="M145.7,70.3c7.7,0,7.7-12,0-12C137.9,58.3,137.9,70.3,145.7,70.3L145.7,70.3z"/>
	</g>
</g>
<g>
	<g class="particle7">
		<path class="particle1" d="M130,114.6c3.9,0,3.9-6,0-6C126.1,108.6,126.1,114.6,130,114.6L130,114.6z"/>
	</g>
	<g class="particle7">
		<path class="particle1" d="M94.7,155.9c3.9,0,3.9-6,0-6C90.8,149.9,90.8,155.9,94.7,155.9L94.7,155.9z"/>
	</g>
	<g class="particle7">
		<path class="particle1" d="M87.3,165.2c3.9,0,3.9-6,0-6C83.5,159.2,83.5,165.2,87.3,165.2L87.3,165.2z"/>
	</g>
	<g class="particle7">
		<path class="particle1" d="M108.7,144.6c3.9,0,3.9-6,0-6C104.8,138.6,104.8,144.6,108.7,144.6L108.7,144.6z"/>
	</g>
	<g class="particle7">
		<path class="particle1" d="M78,151.9c3.9,0,3.9-6,0-6C74.1,145.9,74.1,151.9,78,151.9L78,151.9z"/>
	</g>
	<g class="particle7">
		<path class="particle1" d="M140.7,73.2c3.9,0,3.9-6,0-6C136.8,67.2,136.8,73.2,140.7,73.2L140.7,73.2z"/>
	</g>
	<g class="particle7">
		<path class="particle1" d="M118,49.9c3.9,0,3.9-6,0-6C114.1,43.9,114.1,49.9,118,49.9L118,49.9z"/>
	</g>
	<g class="particle7">
		<path class="particle1" d="M119.3,37.2c3.9,0,3.9-6,0-6C115.5,31.2,115.5,37.2,119.3,37.2L119.3,37.2z"/>
	</g>
	<g class="particle7">
		<path class="particle1" d="M107.3,37.2c3.9,0,3.9-6,0-6C103.5,31.2,103.5,37.2,107.3,37.2L107.3,37.2z"/>
	</g>
	<g class="particle7">
		<path class="particle1" d="M104,22.6c3.9,0,3.9-6,0-6C100.1,16.6,100.1,22.6,104,22.6L104,22.6z"/>
	</g>
	<g class="particle7">
		<path class="particle1" d="M76.7,23.2c3.9,0,3.9-6,0-6C72.8,17.2,72.8,23.2,76.7,23.2L76.7,23.2z"/>
	</g>
	<g class="particle7">
		<path class="particle1" d="M56,38.6c3.9,0,3.9-6,0-6C52.1,32.6,52.1,38.6,56,38.6L56,38.6z"/>
	</g>
	<g class="particle7">
		<path class="particle1" d="M38,53.9c3.9,0,3.9-6,0-6C34.1,47.9,34.1,53.9,38,53.9L38,53.9z"/>
	</g>
	<g class="particle7">
		<path class="particle1" d="M24,62.6c3.9,0,3.9-6,0-6C20.1,56.6,20.1,62.6,24,62.6L24,62.6z"/>
	</g>
	<g class="particle7">
		<path class="particle1" d="M20,71.9c3.9,0,3.9-6,0-6C16.1,65.9,16.1,71.9,20,71.9L20,71.9z"/>
	</g>
	<g class="particle7">
		<path class="particle1" d="M12,94.6c3.9,0,3.9-6,0-6C8.1,88.6,8.1,94.6,12,94.6L12,94.6z"/>
	</g>
	<g class="particle7">
		<path class="particle1" d="M33.3,77.2c3.9,0,3.9-6,0-6C29.5,71.2,29.5,77.2,33.3,77.2L33.3,77.2z"/>
	</g>
	<g class="particle7">
		<path class="particle1" d="M24.7,83.9c3.9,0,3.9-6,0-6C20.8,77.9,20.8,83.9,24.7,83.9L24.7,83.9z"/>
	</g>
	<g class="particle7">
		<path class="particle1" d="M70,41.2c3.9,0,3.9-6,0-6C66.1,35.2,66.1,41.2,70,41.2L70,41.2z"/>
	</g>
	<g class="particle7">
		<path class="particle1" d="M37.3,45.2c3.9,0,3.9-6,0-6C33.5,39.2,33.5,45.2,37.3,45.2L37.3,45.2z"/>
	</g>
	<g class="particle7">
		<path class="particle1" d="M119.3,134.6c3.9,0,3.9-6,0-6C115.5,128.6,115.5,134.6,119.3,134.6L119.3,134.6z"/>
	</g>
	<g class="particle7">
		<path class="particle1" d="M116.7,118.6c3.9,0,3.9-6,0-6C112.8,112.6,112.8,118.6,116.7,118.6L116.7,118.6z"/>
	</g>
	<g class="particle7">
		<path class="particle1" d="M145.3,95.2c3.9,0,3.9-6,0-6C141.5,89.2,141.5,95.2,145.3,95.2L145.3,95.2z"/>
	</g>
	<g class="particle7">
		<path class="particle1" d="M134,92.6c3.9,0,3.9-6,0-6C130.1,86.6,130.1,92.6,134,92.6L134,92.6z"/>
	</g>
	<g class="particle7">
		<path class="particle1" d="M88.7,193.2c3.9,0,3.9-6,0-6C84.8,187.2,84.8,193.2,88.7,193.2L88.7,193.2z"/>
	</g>
	<g class="particle7">
		<path class="particle1" d="M78.7,194.6c3.9,0,3.9-6,0-6C74.8,188.6,74.8,194.6,78.7,194.6L78.7,194.6z"/>
	</g>
	<g class="particle7">
		<path class="particle1" d="M83.3,203.2c3.9,0,3.9-6,0-6C79.5,197.2,79.5,203.2,83.3,203.2L83.3,203.2z"/>
	</g>
	<g class="particle7">
		<path class="particle1" d="M76,203.9c3.9,0,3.9-6,0-6C72.1,197.9,72.1,203.9,76,203.9L76,203.9z"/>
	</g>
	<g class="particle7">
		<path class="particle1" d="M101.3,137.2c3.9,0,3.9-6,0-6C97.5,131.2,97.5,137.2,101.3,137.2L101.3,137.2z"/>
	</g>
</g>
<g>
	<g class="particle3">
		<path class="particle1" d="M133.2,111.5c3.9,0,3.9-6,0-6C129.4,105.5,129.4,111.5,133.2,111.5L133.2,111.5z"/>
	</g>
	<g class="particle3">
		<path class="particle1" d="M144.6,106.2c3.9,0,3.9-6,0-6C140.8,100.2,140.8,106.2,144.6,106.2L144.6,106.2z"/>
	</g>
	<g class="particle3">
		<path class="particle1" d="M149,89.3c3.9,0,3.9-6,0-6C145.1,83.3,145.1,89.3,149,89.3L149,89.3z"/>
	</g>
	<g class="particle3">
		<path class="particle1" d="M140.1,80c3.9,0,3.9-6,0-6C136.2,74,136.2,80,140.1,80L140.1,80z"/>
	</g>
	<g class="particle3">
		<path class="particle1" d="M130,59c3.9,0,3.9-6,0-6C126.2,53,126.2,59,130,59L130,59z"/>
	</g>
	<g class="particle3">
		<path class="particle1" d="M107.9,34.9c3.9,0,3.9-6,0-6C104,28.9,104,34.9,107.9,34.9L107.9,34.9z"/>
	</g>
	<g class="particle3">
		<path class="particle1" d="M90,38.7c3.9,0,3.9-6,0-6C86.2,32.7,86.2,38.7,90,38.7L90,38.7z"/>
	</g>
	<g class="particle3">
		<path class="particle1" d="M67.4,41.1c3.9,0,3.9-6,0-6C63.5,35.1,63.5,41.1,67.4,41.1L67.4,41.1z"/>
	</g>
	<g class="particle3">
		<path class="particle1" d="M53.5,32.1c3.9,0,3.9-6,0-6C49.6,26.1,49.6,32.1,53.5,32.1L53.5,32.1z"/>
	</g>
	<g class="particle3">
		<path class="particle1" d="M46.2,52.9c3.9,0,3.9-6,0-6C42.3,46.9,42.3,52.9,46.2,52.9L46.2,52.9z"/>
	</g>
	<g class="particle3">
		<path class="particle1" d="M32.5,49.7c3.9,0,3.9-6,0-6C28.6,43.7,28.6,49.7,32.5,49.7L32.5,49.7z"/>
	</g>
	<g class="particle3">
		<path class="particle1" d="M30.2,70.1c3.9,0,3.9-6,0-6C26.3,64.1,26.3,70.1,30.2,70.1L30.2,70.1z"/>
	</g>
	<g class="particle3">
		<path class="particle1" d="M17.1,82.7c3.9,0,3.9-6,0-6C13.3,76.7,13.3,82.7,17.1,82.7L17.1,82.7z"/>
	</g>
	<g class="particle3">
		<path class="particle1" d="M34.2,78c3.9,0,3.9-6,0-6C30.4,72,30.4,78,34.2,78L34.2,78z"/>
	</g>
	<g class="particle3">
		<path class="particle1" d="M96.9,162.1c3.9,0,3.9-6,0-6C93,156.1,93,162.1,96.9,162.1L96.9,162.1z"/>
	</g>
	<g class="particle3">
		<path class="particle1" d="M113.1,143.2c3.9,0,3.9-6,0-6C109.2,137.2,109.2,143.2,113.1,143.2L113.1,143.2z"/>
	</g>
	<g class="particle3">
		<path class="particle1" d="M95.2,140.4c3.9,0,3.9-6,0-6C91.3,134.4,91.3,140.4,95.2,140.4L95.2,140.4z"/>
	</g>
	<g class="particle3">
		<path class="particle1" d="M128.2,119.3c3.9,0,3.9-6,0-6C124.4,113.3,124.4,119.3,128.2,119.3L128.2,119.3z"/>
	</g>
	<g class="particle3">
		<path class="particle1" d="M143.6,100.3c3.9,0,3.9-6,0-6C139.8,94.3,139.8,100.3,143.6,100.3L143.6,100.3z"/>
	</g>
	<g class="particle3">
		<path class="particle1" d="M134.5,100.1c3.9,0,3.9-6,0-6C130.7,94.1,130.7,100.1,134.5,100.1L134.5,100.1z"/>
	</g>
	<g class="particle3">
		<path class="particle1" d="M140.4,114c3.9,0,3.9-6,0-6C136.6,108,136.6,114,140.4,114L140.4,114z"/>
	</g>
	<g class="particle3">
		<path class="particle1" d="M151.3,76.3c3.9,0,3.9-6,0-6C147.4,70.3,147.4,76.3,151.3,76.3L151.3,76.3z"/>
	</g>
	<g class="particle3">
		<path class="particle1" d="M132.4,67.5c3.9,0,3.9-6,0-6C128.5,61.5,128.5,67.5,132.4,67.5L132.4,67.5z"/>
	</g>
	<g class="particle3">
		<path class="particle1" d="M136.9,56.4c3.9,0,3.9-6,0-6C133.1,50.4,133.1,56.4,136.9,56.4L136.9,56.4z"/>
	</g>
	<g class="particle3">
		<path class="particle1" d="M125,51.8c3.9,0,3.9-6,0-6C121.2,45.8,121.2,51.8,125,51.8L125,51.8z"/>
	</g>
	<g class="particle3">
		<path class="particle1" d="M109,46.7c3.9,0,3.9-6,0-6C105.2,40.7,105.2,46.7,109,46.7L109,46.7z"/>
	</g>
	<g class="particle3">
		<path class="particle1" d="M92.1,28.2c3.9,0,3.9-6,0-6C88.2,22.2,88.2,28.2,92.1,28.2L92.1,28.2z"/>
	</g>
	<g class="particle3">
		<path class="particle1" d="M95.1,37.6c3.9,0,3.9-6,0-6C91.3,31.6,91.3,37.6,95.1,37.6L95.1,37.6z"/>
	</g>
	<g class="particle3">
		<path class="particle1" d="M120,23c3.9,0,3.9-6,0-6C116.1,17,116.1,23,120,23L120,23z"/>
	</g>
	<g class="particle3">
		<path class="particle1" d="M94.1,17.6c3.9,0,3.9-6,0-6C90.2,11.6,90.2,17.6,94.1,17.6L94.1,17.6z"/>
	</g>
	<g class="particle3">
		<path class="particle1" d="M57.7,39.2c3.9,0,3.9-6,0-6C53.8,33.2,53.8,39.2,57.7,39.2L57.7,39.2z"/>
	</g>
	<g class="particle3">
		<path class="particle1" d="M72.2,168.5c3.9,0,3.9-6,0-6C68.3,162.5,68.3,168.5,72.2,168.5L72.2,168.5z"/>
	</g>
	<g class="particle3">
		<path class="particle1" d="M81.5,151.3c3.9,0,3.9-6,0-6C77.7,145.3,77.7,151.3,81.5,151.3L81.5,151.3z"/>
	</g>
	<g class="particle3">
		<path class="particle1" d="M94.2,164.3c3.9,0,3.9-6,0-6C90.3,158.3,90.3,164.3,94.2,164.3L94.2,164.3z"/>
	</g>
	<g class="particle3">
		<path class="particle1" d="M91.3,182.2c3.9,0,3.9-6,0-6C87.5,176.2,87.5,182.2,91.3,182.2L91.3,182.2z"/>
	</g>
	<g class="particle3">
		<path class="particle1" d="M78.6,192.4c3.9,0,3.9-6,0-6C74.7,186.4,74.7,192.4,78.6,192.4L78.6,192.4z"/>
	</g>
	<g class="particle3">
		<path class="particle1" d="M77.8,206.4c3.9,0,3.9-6,0-6C74,200.4,74,206.4,77.8,206.4L77.8,206.4z"/>
	</g>
	<g class="particle3">
		<path class="particle1" d="M85.1,208.1c3.9,0,3.9-6,0-6C81.3,202.1,81.2,208.1,85.1,208.1L85.1,208.1z"/>
	</g>
	<g class="particle3">
		<path class="particle1" d="M75.5,212.8c3.9,0,3.9-6,0-6C71.6,206.8,71.6,212.8,75.5,212.8L75.5,212.8z"/>
	</g>
	<g class="particle3">
		<path class="particle1" d="M72.2,204.9c3.9,0,3.9-6,0-6C68.3,198.9,68.3,204.9,72.2,204.9L72.2,204.9z"/>
	</g>
	<g class="particle3">
		<path class="particle1" d="M89.1,194.4c3.9,0,3.9-6,0-6C85.3,188.4,85.3,194.4,89.1,194.4L89.1,194.4z"/>
	</g>
	<g class="particle3">
		<path class="particle1" d="M100.1,155.9c3.9,0,3.9-6,0-6C96.2,149.9,96.2,155.9,100.1,155.9L100.1,155.9z"/>
	</g>
	<g class="particle3">
		<path class="particle1" d="M98.3,149.9c3.9,0,3.9-6,0-6C94.4,143.9,94.4,149.9,98.3,149.9L98.3,149.9z"/>
	</g>
</g>
<g class="particle2">
	<path class="particle1" d="M105.9,146.7c1.9,0,1.9-3,0-3C104,143.7,104,146.7,105.9,146.7L105.9,146.7z"/>
</g>
</svg>
