<?xml version="1.0" encoding="utf-8"?>
<!-- Generator: Adobe Illustrator 22.1.0, SVG Export Plug-In . SVG Version: 6.00 Build 0)  -->
<svg version="1.1" id="Layer_2" xmlns="http://www.w3.org/2000/svg" xmlns:xlink="http://www.w3.org/1999/xlink" x="0px" y="0px"
	 viewBox="0 0 13.9 14.5" style="enable-background:new 0 0 13.9 14.5;" xml:space="preserve">
<style type="text/css">
	.particle0{fill:#00264D;}
</style>
<g>
	<path class="particle0" d="M12.9,11.7L9.4,8.9c-0.1,0-0.1-0.1-0.2-0.1c0.8-0.9,1.3-2,1.3-3.3c0-2.7-2.2-4.9-4.9-4.9S0.7,2.9,0.7,5.6
		c0,2.7,2.2,4.9,4.9,4.9c1.1,0,2.1-0.4,2.9-1c0,0.1,0.1,0.1,0.1,0.2l2.8,3.6c0.2,0.2,0.5,0.3,0.8,0.3c0.3,0,0.6-0.1,0.8-0.3
		C13.4,12.9,13.4,12.2,12.9,11.7z M5.6,8.8c-1.8,0-3.2-1.4-3.2-3.2c0-1.8,1.4-3.2,3.2-3.2s3.2,1.4,3.2,3.2C8.8,7.3,7.3,8.8,5.6,8.8z
		"/>
</g>
</svg>
