<?xml version="1.0" encoding="utf-8"?>
<!-- Generator: Adobe Illustrator 22.1.0, SVG Export Plug-In . SVG Version: 6.00 Build 0)  -->
<svg version="1.1" id="Layer_4" xmlns="http://www.w3.org/2000/svg" xmlns:xlink="http://www.w3.org/1999/xlink" x="0px" y="0px"
	 viewBox="0 0 28.5 40" style="enable-background:new 0 0 28.5 40;" xml:space="preserve">
<style type="text/css">
	.particle0{fill:#FFFFFF;}
</style>
<g>
	<g>
		<path class="particle0" d="M22.8,4.2H5.3c-1.4,0-2.5,1.1-2.5,2.5v27.3c0,1.4,1.1,2.5,2.5,2.5h17.6c1.4,0,2.5-1.1,2.5-2.5V6.7
			C25.3,5.3,24.2,4.2,22.8,4.2z M23.8,33.9c0,0.5-0.4,1-1,1H5.3c-0.6,0-1-0.5-1-1v-2.6h19.6V33.9z M23.8,30.3H4.3V10.4h19.6V30.3z
			 M23.8,9.4H4.3V6.7c0-0.5,0.4-1,1-1h17.6c0.6,0,1,0.5,1,1V9.4z"/>
	</g>
	<g>
		<rect x="11.6" y="7.2" class="particle0" width="4.9" height="1"/>
	</g>
	<g>
		<rect x="13.2" y="32.5" class="particle0" width="1.7" height="1"/>
	</g>
</g>
</svg>
