<?xml version="1.0" encoding="utf-8"?>
<!-- Generator: Adobe Illustrator 22.1.0, SVG Export Plug-In . SVG Version: 6.00 Build 0)  -->
<svg version="1.1" id="Layer_5" xmlns="http://www.w3.org/2000/svg" xmlns:xlink="http://www.w3.org/1999/xlink" x="0px" y="0px"
	 viewBox="0 0 39 29.5" style="enable-background:new 0 0 39 29.5;" xml:space="preserve">
<style type="text/css">
	.particle0{fill:#FFFFFF;}
</style>
<g>
	<path class="particle0" d="M32.7,3.9H6.8C5.1,3.9,3.7,5.3,3.7,7v14.1c0,1.7,1.4,3.1,3.1,3.1h25.9c1.7,0,3.1-1.4,3.1-3.1V7
		C35.9,5.3,34.5,3.9,32.7,3.9z M6.8,5.4h25.9c0.9,0,1.6,0.7,1.6,1.6l-13.9,10c-0.4,0.3-0.9,0.3-1.3,0L5.2,6.8C5.3,6,6,5.4,6.8,5.4z
		 M5.2,8.6l6.9,5L5.2,19V8.6z M34.4,21.1c0,0.9-0.7,1.6-1.6,1.6H6.8c-0.9,0-1.6-0.7-1.6-1.6v-0.2l8.2-6.4l5,3.6
		c0.5,0.3,1,0.5,1.5,0.5s1.1-0.2,1.5-0.5l4.9-3.5L34.4,21.1L34.4,21.1z M34.4,19.1l-6.9-5.4l6.9-5V19.1z"/>
</g>
</svg>
