<?xml version="1.0" encoding="utf-8"?>
<!-- Generator: Adobe Illustrator 22.1.0, SVG Export Plug-In . SVG Version: 6.00 Build 0)  -->
<svg version="1.1" id="Layer_1" xmlns="http://www.w3.org/2000/svg" xmlns:xlink="http://www.w3.org/1999/xlink" x="0px" y="0px"
	 viewBox="0 0 1920 1080" style="enable-background:new 0 0 1920 1080;" xml:space="preserve">
<style type="text/css">
	.st0{opacity:0.14;fill:#007EFF;}
	.st1{opacity:0.8;}
	.st2{clip-path:url(#SVGID_2_);}
	.st3{fill:#FFFFFF;}
	.st4{font-family:'LibreFranklin-Bold';}
	.st5{font-size:9.3818px;}
	.st6{clip-path:url(#SVGID_4_);}
	.st7{clip-path:url(#SVGID_6_);}
	.st8{clip-path:url(#SVGID_8_);}
	.st9{clip-path:url(#SVGID_10_);}
	.st10{clip-path:url(#SVGID_12_);}
	.st11{clip-path:url(#SVGID_14_);}
	.st12{fill:none;stroke:#FFFFFF;stroke-miterlimit:10;}
	.st13{fill:#001021;}
	.st14{fill:#CCD4DB;}
	.st15{fill:#007EFF;}
	.st16{fill:none;stroke:#007EFF;stroke-miterlimit:10;stroke-dasharray:12.015,12.015;}
	.st17{opacity:0.37;}
	.st18{clip-path:url(#SVGID_16_);fill:#007EFF;}
</style>
<path class="st0" d="M209.5,666.4C397.2,661,493.7,921,689.3,852.7s284.1-238.6,410.1-245.3s173,230.2,288.2,225.2
	c92.5-4,226.3-263.6,333.7-254.6c99.3,8.3,129.8,89,144.5,117c18.5,35.3,45.6,61.9,54.2,70.5c0,14.8,0.6,206.3,0,314.6L0.5,1080.5
	c0,0,0-282.3,0-314.2C75.2,710,150.5,668,209.5,666.4"/>
<path class="st0" d="M0,765.4c31.5,24.5,195.2,87.3,253.7,47.1c94.4-64.9,108.6-183.6,191.7-132.7c40.7,25,105.5,154.3,182.3,162.2
	c79.9,8.2,97.8-92.5,155.5-142.1s153.6-47.8,256,128.7c63,108.6,210.4-40.2,260-92.5c49.6-52.3,160.6-56.1,243.9,77.7
	c84.3,135.4,259.3,64.4,307.9,18.2c22.4-21.3,64.9-62.4,69.1-66.3c0,114.8,0,314.2,0,314.2L0,1080L0,765.4z"/>
<g class="st1">
	<g>
		<defs>
			<rect id="SVGID_1_" x="226.9" y="1036.8" width="11.2" height="10.5"/>
		</defs>
		<clipPath id="SVGID_2_">
			<use xlink:href="#SVGID_1_"  style="overflow:visible;"/>
		</clipPath>
		<g class="st2">
			<text transform="matrix(1 0 0 1 226.8933 1044.9973)" class="st3 st4 st5">14</text>
		</g>
	</g>
</g>
<g class="st1">
	<g>
		<defs>
			<rect id="SVGID_3_" x="422.6" y="1036.8" width="11.1" height="10.5"/>
		</defs>
		<clipPath id="SVGID_4_">
			<use xlink:href="#SVGID_3_"  style="overflow:visible;"/>
		</clipPath>
		<g class="st6">
			<text transform="matrix(1 0 0 1 422.571 1044.9973)" class="st3 st4 st5">15</text>
		</g>
	</g>
</g>
<g class="st1">
	<g>
		<defs>
			<rect id="SVGID_5_" x="657.1" y="1036.8" width="11.2" height="10.5"/>
		</defs>
		<clipPath id="SVGID_6_">
			<use xlink:href="#SVGID_5_"  style="overflow:visible;"/>
		</clipPath>
		<g class="st7">
			<text transform="matrix(1 0 0 1 657.1159 1044.9973)" class="st3 st4 st5">16</text>
		</g>
	</g>
</g>
<g class="st1">
	<g>
		<defs>
			<rect id="SVGID_7_" x="895.7" y="1036.8" width="10.6" height="10.5"/>
		</defs>
		<clipPath id="SVGID_8_">
			<use xlink:href="#SVGID_7_"  style="overflow:visible;"/>
		</clipPath>
		<g class="st8">
			<text transform="matrix(1 0 0 1 895.6823 1044.9973)" class="st3 st4 st5">17</text>
		</g>
	</g>
</g>
<g class="st1">
	<g>
		<defs>
			<rect id="SVGID_9_" x="1128.9" y="1036.8" width="11.2" height="10.5"/>
		</defs>
		<clipPath id="SVGID_10_">
			<use xlink:href="#SVGID_9_"  style="overflow:visible;"/>
		</clipPath>
		<g class="st9">
			<text transform="matrix(1 0 0 1 1128.8875 1044.9973)" class="st3 st4 st5">18</text>
		</g>
	</g>
</g>
<g class="st1">
	<g>
		<defs>
			<rect id="SVGID_11_" x="1364.8" y="1036.8" width="11.2" height="10.5"/>
		</defs>
		<clipPath id="SVGID_12_">
			<use xlink:href="#SVGID_11_"  style="overflow:visible;"/>
		</clipPath>
		<g class="st10">
			<text transform="matrix(1 0 0 1 1364.7732 1044.9973)" class="st3 st4 st5">19</text>
		</g>
	</g>
</g>
<g class="st1">
	<g>
		<defs>
			<rect id="SVGID_13_" x="1600.7" y="1036.8" width="12.7" height="10.5"/>
		</defs>
		<clipPath id="SVGID_14_">
			<use xlink:href="#SVGID_13_"  style="overflow:visible;"/>
		</clipPath>
		<g class="st11">
			<text transform="matrix(1 0 0 1 1600.658 1044.9973)" class="st3 st4 st5">20</text>
		</g>
	</g>
</g>
<circle class="st12" cx="633.7" cy="840" r="4.7"/>
<rect x="621" y="812.5" class="st13" width="26.8" height="13.4"/>
<rect x="630.4" y="819.2" transform="matrix(0.707 -0.7072 0.7072 0.707 -396.308 689.8227)" class="st13" width="8" height="8"/>
<path class="st14" d="M631.9,818.6h-0.4c0.3-0.8,0.7-1.5,1.2-2c0.5-0.5,0.9-0.7,1.3-0.7c0.4,0,0.7,0.1,0.9,0.4
	c0.2,0.3,0.4,0.9,0.6,1.9c0.8-1,1.3-1.6,1.6-1.9c0.3-0.3,0.6-0.4,0.9-0.4c0.2,0,0.4,0.1,0.5,0.2c0.1,0.1,0.2,0.3,0.2,0.5
	c0,0.2-0.1,0.4-0.2,0.5c-0.1,0.1-0.3,0.2-0.4,0.2c-0.2,0-0.4-0.1-0.5-0.2c-0.2-0.1-0.3-0.2-0.3-0.2c-0.1,0-0.2,0-0.3,0.1
	c-0.1,0.1-0.3,0.3-0.6,0.6c-0.3,0.4-0.6,0.7-0.8,1.1c0.3,1.5,0.5,2.5,0.6,2.9c0.1,0.4,0.3,0.6,0.5,0.6c0.2,0,0.4-0.2,0.7-0.5
	c0.3-0.3,0.5-0.8,0.8-1.3h0.4c-0.4,0.9-0.8,1.6-1.2,2c-0.5,0.4-0.9,0.6-1.3,0.6c-0.5,0-0.9-0.2-1.2-0.6c-0.2-0.4-0.4-1.1-0.6-2.1
	l-1.2,1.5c-0.6,0.8-1.1,1.2-1.6,1.2c-0.2,0-0.4-0.1-0.6-0.2c-0.2-0.2-0.2-0.3-0.2-0.6c0-0.2,0.1-0.3,0.2-0.5
	c0.1-0.1,0.3-0.2,0.5-0.2c0.2,0,0.4,0.1,0.6,0.2c0.1,0.1,0.2,0.2,0.3,0.2c0.1,0,0.2,0,0.3-0.1c0.1-0.1,0.3-0.3,0.6-0.7
	c0.4-0.4,0.7-0.9,1-1.3l-0.4-2.1c-0.1-0.6-0.3-1-0.5-1C633,816.7,632.5,817.3,631.9,818.6"/>
<circle class="st12" cx="413.9" cy="672.4" r="4.7"/>
<rect x="401.2" y="645" class="st13" width="26.8" height="13.4"/>
<rect x="410.6" y="651.7" transform="matrix(0.707 -0.7072 0.7072 0.707 -342.228 485.2952)" class="st13" width="8" height="8"/>
<path class="st14" d="M412.1,651h-0.4c0.3-0.8,0.7-1.5,1.2-2c0.5-0.5,0.9-0.7,1.3-0.7c0.4,0,0.7,0.1,0.9,0.4
	c0.2,0.3,0.4,0.9,0.6,1.9c0.8-1,1.3-1.6,1.6-1.9c0.3-0.3,0.6-0.4,0.9-0.4c0.2,0,0.4,0.1,0.5,0.2c0.1,0.1,0.2,0.3,0.2,0.5
	c0,0.2-0.1,0.4-0.2,0.5c-0.1,0.1-0.3,0.2-0.4,0.2c-0.2,0-0.4-0.1-0.5-0.2c-0.2-0.1-0.3-0.2-0.3-0.2c-0.1,0-0.2,0-0.3,0.1
	c-0.1,0.1-0.3,0.3-0.6,0.6c-0.3,0.4-0.6,0.7-0.8,1.1c0.3,1.5,0.5,2.5,0.6,2.9c0.1,0.4,0.3,0.6,0.5,0.6c0.2,0,0.4-0.2,0.7-0.5
	c0.3-0.3,0.5-0.8,0.8-1.3h0.4c-0.4,0.9-0.8,1.6-1.2,2c-0.5,0.4-0.9,0.6-1.3,0.6c-0.5,0-0.9-0.2-1.2-0.6c-0.2-0.4-0.4-1.1-0.6-2.1
	l-1.2,1.5c-0.6,0.8-1.1,1.2-1.6,1.2c-0.2,0-0.4-0.1-0.6-0.2c-0.2-0.2-0.2-0.3-0.2-0.6c0-0.2,0.1-0.3,0.2-0.5
	c0.1-0.1,0.3-0.2,0.5-0.2c0.2,0,0.4,0.1,0.6,0.2c0.1,0.1,0.2,0.2,0.3,0.2c0.1,0,0.2,0,0.3-0.1c0.1-0.1,0.3-0.3,0.6-0.7
	c0.4-0.4,0.7-0.9,1-1.3l-0.4-2.1c-0.1-0.6-0.3-1-0.5-1C413.2,649.2,412.7,649.8,412.1,651"/>
<circle class="st12" cx="928.6" cy="694.5" r="4.7"/>
<circle class="st12" cx="212.9" cy="667.1" r="4.7"/>
<rect x="188.3" y="639.6" class="st15" width="50.5" height="13.4"/>
<rect x="209.5" y="646.3" transform="matrix(0.707 -0.7072 0.7072 0.707 -397.3375 341.5506)" class="st15" width="8" height="8"/>
<path class="st16" d="M1918.7,633.5c-39.6-84.8-198.7-387.4-443.9-380.5c-285.5,8-510.4,448.7-679.5,582.3
	C629,966.6,279.5,960.3,150,858.1C64.6,790.6,12.8,668.2,1.3,637.7"/>
<g class="st17">
	<g>
		<defs>
			<rect id="SVGID_15_" x="904" y="667.1" width="50.5" height="16.4"/>
		</defs>
		<clipPath id="SVGID_16_">
			<use xlink:href="#SVGID_15_"  style="overflow:visible;"/>
		</clipPath>
		<polygon class="st18" points="954.5,667.1 904,667.1 904,680.5 926.2,680.5 929.2,683.5 932.2,680.5 954.5,680.5 		"/>
	</g>
</g>
<g>
	<g>
		<path class="st3" d="M193.9,642.9c0.1,0,0.1,0,0.1,0.1l-0.8,5.7c0,0.1,0,0.1,0,0.1c0,0-0.1,0-0.1,0h-0.7c-0.1,0-0.1-0.1-0.1-0.2
			l0.8-5.7c0,0,0-0.1,0-0.1c0,0,0,0,0.1,0H193.9z"/>
	</g>
	<g>
		<path class="st3" d="M194.5,648.7l0.6-4c0,0,0-0.1,0-0.1c0,0,0,0,0.1,0h0.7c0.1,0,0.1,0,0.1,0.1l-0.1,0.4v0c0,0,0,0,0,0
			c0,0,0,0,0.1,0c0.5-0.4,1-0.6,1.5-0.6c0.4,0,0.6,0.1,0.9,0.3c0.2,0.2,0.3,0.4,0.3,0.8c0,0,0,0.1,0,0.2l-0.4,3c0,0,0,0.1,0,0.1
			c0,0-0.1,0-0.1,0h-0.6c-0.1,0-0.1-0.1-0.1-0.2l0.4-2.8c0-0.1,0-0.1,0-0.2c0-0.4-0.2-0.6-0.6-0.6c-0.2,0-0.4,0-0.6,0.1
			c-0.2,0.1-0.4,0.3-0.7,0.5l-0.4,3c0,0,0,0.1,0,0.1c0,0-0.1,0-0.1,0h-0.6C194.5,648.9,194.5,648.8,194.5,648.7z"/>
	</g>
	<g>
		<path class="st3" d="M202.2,648.9C202.2,648.9,202.2,648.9,202.2,648.9c-0.1-0.1-0.1-0.1-0.1-0.1l0-0.3v0c0,0,0,0,0,0
			c0,0,0,0-0.1,0c-0.4,0.4-0.8,0.5-1.3,0.5c-0.5,0-0.8-0.1-1.1-0.4c-0.3-0.3-0.4-0.7-0.4-1.3c0-0.5,0.1-0.9,0.3-1.3
			c0.2-0.4,0.4-0.8,0.8-1c0.3-0.3,0.7-0.4,1.1-0.4c0.2,0,0.4,0,0.6,0.1c0.2,0.1,0.3,0.2,0.4,0.3c0,0,0.1,0,0.1,0
			c0,0,0.1-0.1,0.1-0.2l0.3-1.9c0,0,0-0.1,0-0.1c0,0,0,0,0.1,0h0.7c0.1,0,0.1,0,0.1,0.1l-0.8,5.7c0,0,0,0.1,0,0.1c0,0-0.1,0-0.1,0
			H202.2z M202.5,645.6c-0.1-0.2-0.3-0.3-0.4-0.4s-0.3-0.1-0.5-0.1c-0.3,0-0.6,0.1-0.8,0.3c-0.2,0.2-0.4,0.5-0.5,0.8
			c-0.1,0.3-0.2,0.7-0.2,1c0,0.4,0.1,0.6,0.3,0.8c0.2,0.2,0.4,0.3,0.7,0.3c0.2,0,0.4,0,0.6-0.1c0.2-0.1,0.3-0.2,0.4-0.4
			c0.1-0.1,0.2-0.3,0.2-0.4L202.5,645.6z"/>
	</g>
	<g>
		<path class="st3" d="M204.9,648.7c0,0.1,0,0.1,0,0.1c0,0-0.1,0-0.1,0h-0.5c-0.1,0-0.1,0-0.1,0c0,0,0-0.1,0-0.1l0.6-4
			c0,0,0-0.1,0-0.1c0,0,0,0,0.1,0h0.7c0,0,0.1,0,0.1,0c0,0,0,0.1,0,0.1L204.9,648.7z M205.7,643.8c0,0.1,0,0.1,0,0.1
			c0,0-0.1,0-0.1,0h-0.6c-0.1,0-0.1-0.1-0.1-0.2l0.1-0.7c0-0.1,0.1-0.1,0.1-0.1h0.7c0,0,0.1,0,0.1,0c0,0,0,0.1,0,0.1L205.7,643.8z"
			/>
	</g>
	<g>
		<path class="st3" d="M209.5,644.8c0.3,0.2,0.4,0.5,0.5,0.8l0,0c0,0,0,0-0.1,0.1l-0.6,0.1h0c0,0-0.1,0-0.1-0.1
			c-0.1-0.2-0.2-0.4-0.4-0.5c-0.1-0.1-0.3-0.1-0.5-0.1c-0.3,0-0.6,0.1-0.8,0.3c-0.2,0.2-0.4,0.5-0.5,0.8c-0.1,0.3-0.2,0.6-0.2,1
			c0,0.4,0.1,0.7,0.3,0.9c0.2,0.2,0.4,0.3,0.8,0.3c0.3,0,0.5-0.1,0.7-0.2c0.2-0.1,0.4-0.3,0.6-0.6c0,0,0,0,0.1,0c0,0,0,0,0.1,0
			l0.4,0.1c0,0,0.1,0,0.1,0.1l0,0.1c-0.2,0.3-0.5,0.6-0.8,0.8c-0.3,0.2-0.7,0.3-1.1,0.3c-0.4,0-0.7-0.1-0.9-0.2
			c-0.3-0.2-0.5-0.4-0.6-0.6c-0.1-0.3-0.2-0.6-0.2-1c0-0.4,0.1-0.9,0.3-1.3c0.2-0.4,0.5-0.7,0.8-1c0.4-0.2,0.8-0.4,1.2-0.4
			C208.9,644.5,209.2,644.6,209.5,644.8z"/>
	</g>
	<g>
		<path class="st3" d="M211.5,649c-0.4,0-0.7-0.1-0.9-0.3c-0.2-0.2-0.3-0.4-0.3-0.7c0-0.5,0.2-0.9,0.7-1.2c0.5-0.3,1-0.4,1.7-0.4
			l0.5,0c0,0,0.1,0,0.1,0c0,0,0-0.1,0.1-0.1l0-0.2c0,0,0-0.1,0-0.2c0-0.2-0.1-0.4-0.2-0.5s-0.3-0.2-0.6-0.2c-0.5,0-0.9,0.2-1.2,0.6
			c0,0-0.1,0.1-0.1,0l-0.5-0.2c0,0-0.1,0-0.1-0.1c0,0,0-0.1,0-0.1c0.2-0.3,0.5-0.5,0.8-0.6c0.3-0.1,0.7-0.2,1.1-0.2
			c0.5,0,0.9,0.1,1.1,0.3c0.3,0.2,0.4,0.5,0.4,0.8c0,0.1,0,0.1,0,0.2l-0.4,2.8c0,0.1,0,0.1,0,0.1c0,0,0,0-0.1,0h-0.5
			c-0.1,0-0.1-0.1-0.1-0.2l0-0.3c0,0,0-0.1,0-0.1c0,0-0.1,0-0.1,0.1C212.6,648.8,212.1,649,211.5,649z M213.3,646.9L213.3,646.9
			C213.3,646.8,213.3,646.8,213.3,646.9C213.2,646.8,213.2,646.7,213.3,646.9l-0.6-0.1c-0.4,0-0.8,0.1-1.1,0.3
			c-0.3,0.2-0.5,0.4-0.5,0.7c0,0.2,0.1,0.3,0.2,0.4c0.1,0.1,0.3,0.1,0.5,0.1c0.2,0,0.3,0,0.5-0.1c0.2-0.1,0.3-0.1,0.4-0.2
			c0.1-0.1,0.2-0.2,0.3-0.3c0.1-0.1,0.1-0.2,0.1-0.3L213.3,646.9z"/>
	</g>
	<g>
		<path class="st3" d="M217.9,648.9C217.9,648.9,217.8,648.9,217.9,648.9c-0.1-0.1-0.1-0.1-0.1-0.1l0-0.3v0c0,0,0,0,0,0
			c0,0,0,0-0.1,0c-0.4,0.4-0.8,0.5-1.3,0.5c-0.5,0-0.8-0.1-1.1-0.4c-0.3-0.3-0.4-0.7-0.4-1.3c0-0.5,0.1-0.9,0.3-1.3
			c0.2-0.4,0.4-0.8,0.8-1c0.3-0.3,0.7-0.4,1.1-0.4c0.2,0,0.4,0,0.6,0.1c0.2,0.1,0.3,0.2,0.4,0.3c0,0,0.1,0,0.1,0
			c0,0,0.1-0.1,0.1-0.2l0.3-1.9c0,0,0-0.1,0-0.1c0,0,0,0,0.1,0h0.7c0.1,0,0.1,0,0.1,0.1l-0.8,5.7c0,0,0,0.1,0,0.1c0,0-0.1,0-0.1,0
			H217.9z M218.2,645.6c-0.1-0.2-0.3-0.3-0.4-0.4s-0.3-0.1-0.5-0.1c-0.3,0-0.6,0.1-0.8,0.3c-0.2,0.2-0.4,0.5-0.5,0.8
			c-0.1,0.3-0.2,0.7-0.2,1c0,0.4,0.1,0.6,0.3,0.8c0.2,0.2,0.4,0.3,0.7,0.3c0.2,0,0.4,0,0.6-0.1c0.2-0.1,0.3-0.2,0.4-0.4
			c0.1-0.1,0.2-0.3,0.2-0.4L218.2,645.6z"/>
	</g>
	<g>
		<path class="st3" d="M220.6,648.7c-0.3-0.2-0.5-0.4-0.6-0.6c-0.1-0.3-0.2-0.6-0.2-1c0-0.5,0.1-0.9,0.3-1.3
			c0.2-0.4,0.5-0.7,0.9-0.9c0.4-0.2,0.8-0.3,1.2-0.3c0.4,0,0.7,0.1,1,0.2c0.3,0.2,0.5,0.4,0.6,0.7c0.1,0.3,0.2,0.6,0.2,1
			c0,0.5-0.1,0.9-0.3,1.3c-0.2,0.4-0.5,0.7-0.9,0.9c-0.4,0.2-0.8,0.3-1.2,0.3C221.2,649,220.9,648.9,220.6,648.7z M222.4,648.1
			c0.2-0.2,0.4-0.4,0.5-0.7c0.1-0.3,0.2-0.7,0.2-1.1c0-0.4-0.1-0.6-0.3-0.8c-0.2-0.2-0.4-0.3-0.7-0.3c-0.3,0-0.5,0.1-0.8,0.3
			c-0.2,0.2-0.4,0.4-0.5,0.7c-0.1,0.3-0.2,0.7-0.2,1.1c0,0.4,0.1,0.6,0.3,0.8c0.2,0.2,0.4,0.3,0.7,0.3
			C221.9,648.4,222.1,648.3,222.4,648.1z"/>
	</g>
	<g>
		<path class="st3" d="M224.6,648.8c0,0,0-0.1,0-0.1l0.6-4c0,0,0-0.1,0-0.1c0,0,0,0,0.1,0h0.6c0.1,0,0.1,0,0.1,0.1l-0.1,0.4v0
			c0,0,0,0,0,0c0,0,0,0,0.1,0c0.2-0.2,0.4-0.4,0.7-0.5s0.4-0.2,0.6-0.2c0.2,0,0.3,0,0.3,0.1l-0.1,0.6c0,0,0,0.1,0,0.1c0,0,0,0,0,0
			c-0.1,0-0.3,0-0.4,0c-0.2,0-0.3,0-0.5,0.1c-0.2,0.1-0.3,0.2-0.5,0.3c-0.1,0.1-0.2,0.3-0.2,0.4l-0.4,2.6c0,0,0,0.1,0,0.1
			c0,0-0.1,0-0.1,0h-0.6C224.6,648.9,224.6,648.9,224.6,648.8z"/>
	</g>
	<g>
		<path class="st3" d="M229.2,648.8c0,0,0-0.1,0-0.1l2.9-5.7c0,0,0-0.1,0.1-0.1c0,0,0.1,0,0.1,0h0.8c0.1,0,0.1,0.1,0.2,0.2l1.2,5.7
			l0,0c0,0.1,0,0.1-0.1,0.1h-0.8c-0.1,0-0.1,0-0.1-0.1l-0.3-1.4c0,0,0,0,0,0c0,0,0,0-0.1,0h-2.2c0,0-0.1,0-0.1,0c0,0,0,0,0,0.1
			l-0.7,1.5c0,0,0,0,0,0.1c0,0,0,0-0.1,0L229.2,648.8C229.2,648.9,229.2,648.9,229.2,648.8z M233,646.5c0.1,0,0.1,0,0.1-0.1
			l-0.5-2.4c0,0,0-0.1,0-0.1c0,0,0,0-0.1,0.1l-1.2,2.4c0,0,0,0.1,0,0.1c0,0,0,0,0.1,0H233z"/>
	</g>
</g>
<g>
	<path class="st3" d="M908.5,670.1c0.1,0,0.1,0,0.1,0.1l-0.8,5.7c0,0.1,0,0.1,0,0.1c0,0-0.1,0-0.1,0H907c-0.1,0-0.1-0.1-0.1-0.2
		l0.8-5.7c0,0,0-0.1,0-0.1c0,0,0,0,0.1,0H908.5z"/>
	<path class="st3" d="M909.1,675.9l0.6-4c0,0,0-0.1,0-0.1c0,0,0,0,0.1,0h0.7c0.1,0,0.1,0,0.1,0.1l-0.1,0.4v0c0,0,0,0,0,0
		c0,0,0,0,0.1,0c0.5-0.4,1-0.6,1.5-0.6c0.4,0,0.6,0.1,0.9,0.3c0.2,0.2,0.3,0.4,0.3,0.8c0,0,0,0.1,0,0.2l-0.4,3c0,0,0,0.1,0,0.1
		c0,0-0.1,0-0.1,0H912c-0.1,0-0.1-0.1-0.1-0.2l0.4-2.8c0-0.1,0-0.1,0-0.2c0-0.4-0.2-0.6-0.6-0.6c-0.2,0-0.4,0-0.6,0.1
		c-0.2,0.1-0.4,0.3-0.7,0.5l-0.4,3c0,0,0,0.1,0,0.1c0,0-0.1,0-0.1,0h-0.6C909.1,676.1,909.1,676,909.1,675.9z"/>
	<path class="st3" d="M916.8,676.1C916.8,676.1,916.8,676.1,916.8,676.1c-0.1-0.1-0.1-0.1-0.1-0.1l0-0.3v0c0,0,0,0,0,0
		c0,0,0,0-0.1,0c-0.4,0.4-0.8,0.5-1.3,0.5c-0.5,0-0.8-0.1-1.1-0.4c-0.3-0.3-0.4-0.7-0.4-1.3c0-0.5,0.1-0.9,0.3-1.3
		c0.2-0.4,0.4-0.8,0.8-1c0.3-0.3,0.7-0.4,1.1-0.4c0.2,0,0.4,0,0.6,0.1c0.2,0.1,0.3,0.2,0.4,0.3c0,0,0.1,0,0.1,0c0,0,0.1-0.1,0.1-0.2
		l0.3-1.9c0,0,0-0.1,0-0.1c0,0,0,0,0.1,0h0.7c0.1,0,0.1,0,0.1,0.1l-0.8,5.7c0,0,0,0.1,0,0.1c0,0-0.1,0-0.1,0H916.8z M917.2,672.8
		c-0.1-0.2-0.3-0.3-0.4-0.4c-0.1-0.1-0.3-0.1-0.5-0.1c-0.3,0-0.6,0.1-0.8,0.3c-0.2,0.2-0.4,0.5-0.5,0.8c-0.1,0.3-0.2,0.7-0.2,1
		c0,0.4,0.1,0.6,0.3,0.8c0.2,0.2,0.4,0.3,0.7,0.3c0.2,0,0.4,0,0.6-0.1c0.2-0.1,0.3-0.2,0.4-0.4c0.1-0.1,0.2-0.3,0.2-0.4L917.2,672.8
		z"/>
	<path class="st3" d="M919.5,675.9c0,0.1,0,0.1,0,0.1c0,0-0.1,0-0.1,0h-0.5c-0.1,0-0.1,0-0.1,0c0,0,0-0.1,0-0.1l0.6-4
		c0,0,0-0.1,0-0.1c0,0,0,0,0.1,0h0.7c0,0,0.1,0,0.1,0c0,0,0,0.1,0,0.1L919.5,675.9z M920.3,671c0,0.1,0,0.1,0,0.1c0,0-0.1,0-0.1,0
		h-0.6c-0.1,0-0.1-0.1-0.1-0.2l0.1-0.7c0-0.1,0.1-0.1,0.1-0.1h0.7c0,0,0.1,0,0.1,0c0,0,0,0.1,0,0.1L920.3,671z"/>
	<path class="st3" d="M924.1,672c0.3,0.2,0.4,0.5,0.5,0.8l0,0c0,0,0,0-0.1,0.1L924,673h0c0,0-0.1,0-0.1-0.1
		c-0.1-0.2-0.2-0.4-0.4-0.5c-0.1-0.1-0.3-0.1-0.5-0.1c-0.3,0-0.6,0.1-0.8,0.3c-0.2,0.2-0.4,0.5-0.5,0.8c-0.1,0.3-0.2,0.6-0.2,1
		c0,0.4,0.1,0.7,0.3,0.9c0.2,0.2,0.4,0.3,0.8,0.3c0.3,0,0.5-0.1,0.7-0.2c0.2-0.1,0.4-0.3,0.6-0.6c0,0,0,0,0.1,0c0,0,0,0,0.1,0
		l0.4,0.1c0,0,0.1,0,0.1,0.1l0,0.1c-0.2,0.3-0.5,0.6-0.8,0.8c-0.3,0.2-0.7,0.3-1.1,0.3c-0.4,0-0.7-0.1-0.9-0.2
		c-0.3-0.2-0.5-0.4-0.6-0.6c-0.1-0.3-0.2-0.6-0.2-1c0-0.4,0.1-0.9,0.3-1.3c0.2-0.4,0.5-0.7,0.8-1c0.4-0.2,0.8-0.4,1.2-0.4
		C923.5,671.7,923.8,671.8,924.1,672z"/>
	<path class="st3" d="M926.1,676.2c-0.4,0-0.7-0.1-0.9-0.3c-0.2-0.2-0.3-0.4-0.3-0.7c0-0.5,0.2-0.9,0.7-1.2c0.5-0.3,1-0.4,1.7-0.4
		l0.5,0c0,0,0.1,0,0.1,0c0,0,0-0.1,0.1-0.1l0-0.2c0,0,0-0.1,0-0.2c0-0.2-0.1-0.4-0.2-0.5c-0.1-0.1-0.3-0.2-0.6-0.2
		c-0.5,0-0.9,0.2-1.2,0.6c0,0-0.1,0.1-0.1,0l-0.5-0.2c0,0-0.1,0-0.1-0.1c0,0,0-0.1,0-0.1c0.2-0.3,0.5-0.5,0.8-0.6
		c0.3-0.1,0.7-0.2,1.1-0.2c0.5,0,0.9,0.1,1.1,0.3c0.3,0.2,0.4,0.5,0.4,0.8c0,0.1,0,0.1,0,0.2l-0.4,2.8c0,0.1,0,0.1,0,0.1
		c0,0,0,0-0.1,0h-0.5c-0.1,0-0.1-0.1-0.1-0.2l0-0.3c0,0,0-0.1,0-0.1c0,0-0.1,0-0.1,0.1C927.2,676,926.7,676.2,926.1,676.2z
		 M927.9,674L927.9,674C927.9,674,927.9,674,927.9,674C927.8,673.9,927.8,673.9,927.9,674l-0.6-0.1c-0.4,0-0.8,0.1-1.1,0.3
		c-0.3,0.2-0.5,0.4-0.5,0.7c0,0.2,0.1,0.3,0.2,0.4c0.1,0.1,0.3,0.1,0.5,0.1c0.2,0,0.3,0,0.5-0.1c0.2-0.1,0.3-0.1,0.4-0.2
		c0.1-0.1,0.2-0.2,0.3-0.3c0.1-0.1,0.1-0.2,0.1-0.3L927.9,674z"/>
	<path class="st3" d="M932.5,676.1C932.5,676.1,932.4,676.1,932.5,676.1c-0.1-0.1-0.1-0.1-0.1-0.1l0-0.3v0c0,0,0,0,0,0
		c0,0,0,0-0.1,0c-0.4,0.4-0.8,0.5-1.3,0.5c-0.5,0-0.8-0.1-1.1-0.4c-0.3-0.3-0.4-0.7-0.4-1.3c0-0.5,0.1-0.9,0.3-1.3
		c0.2-0.4,0.4-0.8,0.8-1c0.3-0.3,0.7-0.4,1.1-0.4c0.2,0,0.4,0,0.6,0.1c0.2,0.1,0.3,0.2,0.4,0.3c0,0,0.1,0,0.1,0c0,0,0.1-0.1,0.1-0.2
		l0.3-1.9c0,0,0-0.1,0-0.1c0,0,0,0,0.1,0h0.7c0.1,0,0.1,0,0.1,0.1l-0.8,5.7c0,0,0,0.1,0,0.1c0,0-0.1,0-0.1,0H932.5z M932.8,672.8
		c-0.1-0.2-0.3-0.3-0.4-0.4c-0.1-0.1-0.3-0.1-0.5-0.1c-0.3,0-0.6,0.1-0.8,0.3c-0.2,0.2-0.4,0.5-0.5,0.8c-0.1,0.3-0.2,0.7-0.2,1
		c0,0.4,0.1,0.6,0.3,0.8c0.2,0.2,0.4,0.3,0.7,0.3c0.2,0,0.4,0,0.6-0.1c0.2-0.1,0.3-0.2,0.4-0.4c0.1-0.1,0.2-0.3,0.2-0.4L932.8,672.8
		z"/>
	<path class="st3" d="M935.2,675.9c-0.3-0.2-0.5-0.4-0.6-0.6c-0.1-0.3-0.2-0.6-0.2-1c0-0.5,0.1-0.9,0.3-1.3c0.2-0.4,0.5-0.7,0.9-0.9
		c0.4-0.2,0.8-0.3,1.2-0.3c0.4,0,0.7,0.1,1,0.2c0.3,0.2,0.5,0.4,0.6,0.7c0.1,0.3,0.2,0.6,0.2,1c0,0.5-0.1,0.9-0.3,1.3
		s-0.5,0.7-0.9,0.9c-0.4,0.2-0.8,0.3-1.2,0.3C935.8,676.2,935.5,676.1,935.2,675.9z M937,675.3c0.2-0.2,0.4-0.4,0.5-0.7
		c0.1-0.3,0.2-0.7,0.2-1.1c0-0.4-0.1-0.6-0.3-0.8c-0.2-0.2-0.4-0.3-0.7-0.3c-0.3,0-0.5,0.1-0.8,0.3c-0.2,0.2-0.4,0.4-0.5,0.7
		c-0.1,0.3-0.2,0.7-0.2,1.1c0,0.4,0.1,0.6,0.3,0.8c0.2,0.2,0.4,0.3,0.7,0.3C936.5,675.6,936.7,675.5,937,675.3z"/>
	<path class="st3" d="M939.2,676c0,0,0-0.1,0-0.1l0.6-4c0,0,0-0.1,0-0.1c0,0,0,0,0.1,0h0.6c0.1,0,0.1,0,0.1,0.1l-0.1,0.4v0
		c0,0,0,0,0,0c0,0,0,0,0.1,0c0.2-0.2,0.4-0.4,0.7-0.5c0.2-0.1,0.4-0.2,0.6-0.2c0.2,0,0.3,0,0.3,0.1l-0.1,0.6c0,0,0,0.1,0,0.1
		c0,0,0,0,0,0c-0.1,0-0.3,0-0.4,0c-0.2,0-0.3,0-0.5,0.1c-0.2,0.1-0.3,0.2-0.5,0.3c-0.1,0.1-0.2,0.3-0.2,0.4L940,676c0,0,0,0.1,0,0.1
		c0,0-0.1,0-0.1,0h-0.6C939.2,676.1,939.2,676.1,939.2,676z"/>
	<path class="st3" d="M944.2,675.9l0.8-5.7c0-0.1,0-0.1,0.1-0.1h1.9c0.7,0,1.2,0.1,1.6,0.3c0.4,0.2,0.5,0.6,0.5,1
		c0,0.4-0.1,0.7-0.3,1c-0.2,0.3-0.5,0.4-0.9,0.6c0,0-0.1,0-0.1,0c0,0,0,0,0,0c0.7,0.2,1,0.6,1,1.2c0,0.6-0.2,1.1-0.7,1.4
		c-0.5,0.3-1.1,0.4-1.8,0.4h-2.1C944.2,676.1,944.2,676,944.2,675.9z M946.4,675.4c0.4,0,0.8-0.1,1.1-0.3c0.3-0.2,0.5-0.5,0.5-0.9
		c0-0.3-0.1-0.5-0.3-0.6c-0.2-0.1-0.5-0.2-0.9-0.2h-1.1c0,0-0.1,0-0.1,0c0,0,0,0,0,0.1l-0.2,1.8l0,0c0,0,0,0.1,0.1,0.1H946.4z
		 M946.8,672.7c0.4,0,0.7-0.1,1-0.3c0.3-0.2,0.4-0.5,0.4-0.8c0-0.3-0.1-0.5-0.3-0.6c-0.2-0.1-0.5-0.2-0.9-0.2h-1
		c-0.1,0-0.1,0-0.1,0.1l-0.2,1.7l0,0c0,0,0,0,0,0c0,0,0,0,0.1,0H946.8z"/>
</g>
</svg>
