<?xml version="1.0" encoding="utf-8"?>
<svg version="1.1" id="Layer_8" xmlns="http://www.w3.org/2000/svg" xmlns:xlink="http://www.w3.org/1999/xlink" x="0px" y="0px" viewBox="0 0 513 378" xml:space="preserve">
<style type="text/css">
	.st0{fill:#1F8EFF;}
	.st1{fill:none;stroke:#1F8EFF;stroke-linecap:round;stroke-miterlimit:10;}
</style>
<g>
	<path class="st0" d="M49.2,95.1c9.7,0,9.7-15,0-15C39.6,80.1,39.6,95.1,49.2,95.1"/>
	<path class="st0" d="M353.7,308.1c9.7,0,9.7-15,0-15C344.1,293.1,344.1,308.1,353.7,308.1"/>
	<path class="st0" d="M472.2,86.1c9.7,0,9.7-15,0-15C462.6,71.1,462.5,86.1,472.2,86.1"/>
	<path class="st0" d="M256.2,144.6c3.9,0,3.9-6,0-6C252.4,138.6,252.4,144.6,256.2,144.6"/>
	<path class="st0" d="M182.7,231.6c3.9,0,3.9-6,0-6C178.9,225.6,178.9,231.6,182.7,231.6"/>
	<path class="st0" d="M469.2,234.6c3.9,0,3.9-6,0-6C465.4,228.6,465.4,234.6,469.2,234.6"/>
	<path class="st0" d="M313.2,188.1c3.9,0,3.9-6,0-6C309.4,182.1,309.4,188.1,313.2,188.1"/>
	<path class="st0" d="M143.7,47.1c3.9,0,3.9-6,0-6C139.9,41.1,139.9,47.1,143.7,47.1"/>
	<path class="st0" d="M44.7,227.1c3.9,0,3.9-6,0-6C40.9,221.1,40.9,227.1,44.7,227.1"/>
	<path class="st0" d="M392.7,239.1c1.9,0,1.9-3,0-3C390.8,236.1,390.8,239.1,392.7,239.1"/>
	<path class="st0" d="M130.2,180.6c1.9,0,1.9-3,0-3C128.3,177.6,128.3,180.6,130.2,180.6"/>
	<path class="st0" d="M343.2,81.6c1.9,0,1.9-3,0-3C341.3,78.6,341.3,81.6,343.2,81.6"/>
	<path class="st0" d="M427.2,326.1c1.9,0,1.9-3,0-3C425.3,323.1,425.3,326.1,427.2,326.1"/>
	<path class="st0" d="M61.2,335.1c1.9,0,1.9-3,0-3C59.3,332.1,59.3,335.1,61.2,335.1"/>
	<line class="st1" x1="422.8" y1="91.9" x2="297" y2="125.6"/>
</g>
</svg>