<?xml version="1.0" encoding="utf-8"?>
<svg version="1.1" id="Layer_4" xmlns="http://www.w3.org/2000/svg" xmlns:xlink="http://www.w3.org/1999/xlink" x="0px" y="0px" viewBox="0 0 125.5 51" xml:space="preserve">
<style type="text/css">
	.st0{opacity:0.4;}
	.st1{clip-path:url(#SVGID_2_);fill:#FFFFFF;}
</style>
<g class="st0">
	<g>
		<defs>
			<rect id="SVGID_1_" x="1.7" y="0.9" width="122.9" height="48.7"/>
		</defs>
		<clipPath id="SVGID_2_">
			<use xlink:href="#SVGID_1_"  style="overflow:visible;"/>
		</clipPath>
		<path class="st1" d="M64.5,37.8c-1,0.1-2,0.1-2.9,0c0-0.1,0-0.2,0-0.2c0-0.1,0-0.3,0-0.4c0-4.4,0-8.9,0-13.3c0-0.1,0-0.2,0-0.3
			c0-0.2,0-0.4,0.2-0.6c0.2-0.1,0.3-0.3,0.2-0.6c0-0.2,0-0.5,0-0.7c0-0.1,0-0.2,0-0.3c-0.1,0-0.2,0-0.3,0c-1.3,0-2.6,0-3.9,0
			c-0.1,0-0.1,0-0.2,0c0,0.1,0,0.2,0,0.3c0,0.3,0,0.6,0,0.8c0,0.2,0.1,0.3,0.2,0.5c0.1,0,0.1,0.1,0.2,0.2c0.1,0.1,0.1,0.2,0.1,0.3
			c0,0.1,0,0.2,0,0.3c0,4.3,0,8.6,0,12.8c0,0.2,0,0.3,0,0.5c-0.1,0-0.2,0-0.3,0c-0.8-0.2-2.1-0.8-2.6-1c-0.1-0.1,0-0.3,0-0.5
			c0-1.6,0-3.3,0-4.9v-6.8c0-0.1,0-0.2,0-0.3c0-0.2,0.1-0.3,0.2-0.4c0.1-0.1,0.1-0.1,0.2-0.2c0-0.1,0.1-0.2,0.1-0.3
			c0-0.4,0-0.7,0-1.1c0,0,0-0.1,0-0.1c-0.3-0.1-3.7-0.1-4.3,0c0,0.1-0.1,0.1-0.1,0.2c0,0.3,0,0.6,0,0.9c0,0.2,0,0.3,0.2,0.4
			c0.1,0,0.1,0.1,0.1,0.2c0.1,0.1,0.1,0.2,0.1,0.3c0,0.1,0,0.2,0,0.3c0,3.2,0,6.3,0,9.5c0,0.1,0,0.3,0,0.5c-0.4-0.2-0.6-0.5-0.9-0.7
			c-1.6-1.5-2.9-3.2-3.9-5.2c-1-1.9-1.6-3.9-1.9-6c-0.3-2.1-0.2-4.1,0.2-6.2c1.8-8.5,9.3-14.8,18.1-14.8c8.7,0,16.4,6.1,18.1,14.9
			c0.8,4.3,0.2,8.3-1.8,12.2c-1.1,2.2-3.9,5.4-5,5.9c-0.1,0-0.1-0.1-0.1-0.2c0-0.1,0-0.2,0-0.3v-9.6c0-0.1,0-0.2,0-0.3
			c0-0.2,0-0.3,0.2-0.4c0.2-0.2,0.3-0.4,0.3-0.7c0-0.3,0-0.6,0-0.9c-0.1,0-0.2-0.1-0.3-0.1c-1.3,0-2.6,0-3.9,0c-0.1,0-0.1,0-0.2,0
			c0,0.1,0,0.2,0,0.3c0,0.3,0,0.6,0,0.8c0,0.2,0,0.3,0.2,0.5c0.1,0,0.1,0.1,0.1,0.2c0.1,0.1,0.1,0.2,0.1,0.3c0,0.1,0,0.2,0,0.3v11.9
			v0.4c-0.3,0.3-1.1,0.6-2.2,0.9c-0.2,0.1-0.5,0.2-0.8,0.2C67.9,37,68,36.8,68,36.6c0-2.6,0-5.2,0-7.7v-5.1c0-0.1,0-0.2,0-0.3
			c0-0.2,0-0.4,0.2-0.5c0.2-0.2,0.3-0.4,0.3-0.7c0-0.3,0-0.6,0-0.9c-0.1,0-0.2-0.1-0.2-0.1c-1.3,0-2.6,0-4,0c-0.1,0-0.1,0-0.2,0
			c0,0.1,0,0.2,0,0.3c0,0.3,0,0.6,0,0.8c0,0.2,0.1,0.4,0.2,0.5c0,0,0.1,0.1,0.1,0.1c0.1,0.1,0.1,0.2,0.1,0.3c0,0.1,0,0.2,0,0.3v13.5
			V37.8z M63,16.4c4.8,0,9.7,0,14.5,0c0.1,0,0.3,0,0.4,0c0.1,0,0.2,0,0.3,0c0.4-0.1,0.5-0.7,0.2-1c-0.1-0.1-0.2-0.1-0.3-0.2
			c-0.3-0.1-0.5-0.3-0.8-0.4c-2.2-1.2-4.4-2.4-6.5-3.6c-2.2-1.2-4.3-2.4-6.5-3.6c-0.3-0.2-0.6-0.3-0.9-0.5c-0.2-0.1-0.5-0.1-0.7,0
			c0,0-0.1,0.1-0.1,0.1c-1.6,0.9-3.2,1.8-4.8,2.7c-3,1.6-5.9,3.3-8.9,4.9c-0.4,0.2-0.7,0.4-1.1,0.6c-0.3,0.2-0.4,0.4-0.3,0.7
			c0.1,0.3,0.3,0.4,0.5,0.4c0.2,0,0.3,0,0.5,0C53.3,16.4,58.1,16.4,63,16.4 M63,20.1h12.6c0.1,0,0.3,0,0.4,0c0.4,0,0.6-0.2,0.6-0.6
			c0-0.4,0-0.8,0-1.1c0-0.4-0.2-0.6-0.6-0.6c-0.1,0-0.3,0-0.4,0H50.4c-0.1,0-0.2,0-0.3,0c-0.1,0-0.1,0-0.2,0
			c-0.3,0.1-0.4,0.2-0.5,0.5c0,0.5,0,0.9,0,1.4c0,0.3,0.2,0.5,0.5,0.5c0.2,0,0.3,0,0.5,0C54.6,20.1,58.8,20.1,63,20.1"/>
		<path class="st1" d="M119.4,41.8c0.5,1,1,2,1.5,3c0.1,0,0.2-0.1,0.2-0.2c0.4-0.8,0.8-1.6,1.2-2.4c0-0.1,0.1-0.2,0.2-0.3
			c0.3-0.1,1.5-0.1,2,0c0.1,0,0.1,0,0.2,0.1c-0.1,0.2-0.2,0.3-0.2,0.4c-0.7,1.3-1.4,2.5-2.2,3.8c0,0.1-0.1,0.1-0.1,0.2
			c-0.1,0.2-0.2,0.5-0.2,0.7c0,0.7,0,1.3,0,2c0,0.1,0,0.3,0,0.4c-0.3,0.1-0.7,0-1,0.1c-0.3,0-0.6,0-1,0c0-0.1,0-0.2,0-0.3
			c0-0.7,0-1.4,0-2.2c0-0.2,0-0.4-0.2-0.6c-0.8-1.3-1.5-2.7-2.3-4c-0.1-0.1-0.1-0.2-0.3-0.4c-0.1,0.2,0,0.3,0,0.5c0,0.2,0,0.3,0,0.5
			c0,0.2,0,0.3,0,0.5c-0.1,0-0.2,0-0.3,0c-0.5,0-1,0-1.4,0c-0.1,0-0.3,0-0.4,0c-0.1,0.2-0.1,0.3-0.1,0.5c0,1.4,0,2.8,0,4.2
			c0,0.3,0,0.6,0,0.9c0,0.1,0,0.2,0,0.3c-0.3,0.1-1.4,0.1-1.9,0c-0.1-0.1-0.1-0.3-0.1-0.4c0-1.1,0-2.3,0-3.4c0-0.5,0-1,0-1.6
			c0-0.1,0-0.3-0.1-0.4c-0.1-0.1-0.2-0.1-0.4-0.1c-0.5,0-0.9,0-1.4,0c-0.1,0-0.3,0-0.4,0c-0.1-0.3-0.1-1.2,0-1.6
			c0.1-0.1,0.3-0.1,0.4-0.1c0.6,0,1.2,0,1.9,0h3.4h2.5H119.4z"/>
		<path class="st1" d="M43.2,49.3c-0.3,0.1-1.3,0.1-1.8,0c-0.1-0.1-0.1-0.3-0.1-0.4c0-1.1,0-2.2,0-3.3c0-1.1,0-2.3,0-3.4
			c0-0.1,0-0.3,0-0.4c0.3-0.1,1.6-0.1,2,0c0.8,1.5,1.7,3,2.5,4.5c0.1,0,0.1-0.1,0.1-0.2c0-0.8,0-1.7,0-2.5c0-0.5,0-0.9,0-1.4
			c0-0.1,0-0.3,0-0.4c0.3-0.1,1.5-0.1,1.8,0c0.1,0.3,0.1,7.1,0,7.5c-0.3,0.1-1.3,0.1-2,0c-0.4-0.7-0.8-1.5-1.3-2.3
			c-0.4-0.8-0.8-1.5-1.3-2.3c-0.1,0.5,0,1-0.1,1.5c0,0.5,0,1,0,1.5C43.2,48.3,43.3,48.8,43.2,49.3"/>
		<path class="st1" d="M69.7,41.8c0.9,1.5,1.7,3,2.6,4.5c0-0.1,0.1-0.1,0.1-0.2c0-0.1,0-0.3,0-0.4c0-1.1,0-2.3,0-3.4
			c0-0.2,0-0.3,0-0.4c0.3-0.1,1.3-0.1,1.8,0c0,0.1,0,0.2,0,0.3c0,0.5,0,1,0,1.5c0,1.8,0,3.5,0,5.3c0,0.2,0,0.3,0,0.5
			c-0.3,0.1-1.5,0.1-2,0c-0.9-1.5-1.7-3-2.5-4.5c-0.1,0-0.1,0-0.1,0c0,0,0,0,0,0c0,0,0,0.1,0,0.1c0,0.1,0,0.1,0,0.2v3.9
			c0,0,0,0.1,0,0.1c0,0,0,0,0,0c0,0,0,0.1,0,0.1c0,0,0,0,0,0.1c-0.3,0.1-0.6,0-0.9,0c-0.3,0-0.6,0-0.9,0c0-0.1,0-0.2,0-0.2
			c0-2.4,0-4.9,0-7.3c0.4-0.1,0.7,0,1,0C69,41.8,69.4,41.7,69.7,41.8"/>
		<path class="st1" d="M22.9,45.9C22.9,45.9,22.9,45.9,22.9,45.9c0.5,0.3,0.8,0.8,0.9,1.3c0,0.2,0.1,0.3,0.1,0.5
			c0,0.3,0,0.6,0.1,0.9c0,0.3,0.1,0.6,0.1,0.8c-0.3,0.1-1.3,0.1-1.9,0c-0.1-0.1-0.1-0.2-0.1-0.4c0-0.3-0.1-0.5-0.1-0.8
			c0-0.3,0-0.5-0.1-0.8c-0.1-0.5-0.4-0.8-1-0.8c-0.5,0-0.9,0-1.4,0c0,0.1,0,0.2,0,0.3c0,0.6,0,1.3,0,1.9c0,0.1,0,0.3,0,0.4
			c-0.2,0.1-0.4,0-0.6,0c-0.2,0-0.4,0-0.6,0c-0.2,0-0.4,0-0.6,0c-0.1-0.2-0.1-0.4-0.1-0.5c0-1.7,0-3.3,0-5c0-0.6,0-1.1,0-1.7
			c0-0.1,0-0.3,0.1-0.4c0.1,0,0.2,0,0.2,0c1.2,0,2.4,0,3.7,0c0.4,0,0.8,0.1,1.2,0.2c1.1,0.4,1.4,1.4,1.3,2.3
			c-0.1,0.6-0.4,1.1-0.9,1.4C22.9,45.8,22.9,45.8,22.9,45.9 M19.5,43.4c-0.1,0.5-0.1,1.4,0,1.7c0,0,0.1,0,0.2,0c0.5,0,0.9,0,1.4,0
			c0.1,0,0.3,0,0.4-0.1c0.3-0.1,0.4-0.3,0.5-0.5c0.2-0.7-0.2-1.1-0.9-1.2c0,0-0.1,0-0.1,0c-0.4,0-0.8,0-1.2,0
			C19.6,43.4,19.6,43.4,19.5,43.4"/>
		<path class="st1" d="M25.2,49.4c-0.1-0.4-0.1-5.7,0-7.3c0-0.1,0-0.2,0-0.3c0.1,0,0.2,0,0.3,0c1,0,2,0,3,0c0.4,0,0.8,0.1,1.2,0.2
			c1.1,0.3,1.9,1.1,2.2,2.2c0.3,1.1,0.3,2.2-0.1,3.2c-0.3,0.8-0.9,1.4-1.8,1.7c-0.4,0.1-0.8,0.2-1.2,0.2c-1.1,0-2.2,0-3.3,0
			C25.3,49.4,25.3,49.4,25.2,49.4 M27.2,47.7c0.6,0,1.2,0.1,1.8-0.1c0.5-0.1,0.9-0.5,1-1c0.2-0.5,0.2-1,0.1-1.6
			c-0.1-0.8-0.6-1.3-1.5-1.5c-0.4-0.1-0.8-0.1-1.2-0.1c-0.1,0-0.2,0-0.2,0C27.1,43.9,27.1,47.2,27.2,47.7"/>
		<path class="st1" d="M99.7,49.4h-1.9c-0.1-0.2-0.2-0.3-0.2-0.5c0-0.3-0.1-0.6-0.1-0.8c0-0.3-0.1-0.5-0.2-0.8
			c-0.1-0.3-0.3-0.5-0.6-0.6c-0.1,0-0.3,0-0.4,0c-0.4,0-0.9,0-1.3,0c0,0.3,0,0.6,0,0.9c0,0.3,0,0.6,0,0.8v0.9
			c-0.1,0-0.1,0.1-0.2,0.1c-0.5,0-1.1,0-1.6,0c0,0-0.1,0-0.1,0c0-0.1,0-0.2,0-0.2c0-0.3,0-0.5,0-0.8c0-2,0-4,0-6c0-0.2,0-0.3,0-0.5
			c0.1,0,0.2,0,0.3,0c1.2,0,2.3,0,3.5,0c0.5,0,0.9,0.1,1.3,0.3c0.8,0.3,1.2,1,1.3,1.8c0,0.3,0,0.5-0.1,0.8c-0.1,0.4-0.3,0.7-0.7,1
			c-0.1,0.1-0.2,0.1-0.2,0.2c0,0.1,0.1,0.1,0.2,0.2c0.3,0.2,0.4,0.4,0.6,0.7c0.1,0.3,0.2,0.6,0.2,0.9c0,0.2,0,0.3,0,0.5
			c0,0.2,0,0.5,0.1,0.7C99.6,48.9,99.6,49.1,99.7,49.4 M95,43.4c0,0.3,0,0.6,0,0.9c0,0.3-0.1,0.6,0,0.8c0.1,0,0.1,0,0.1,0
			c0.5,0,0.9,0,1.4,0c0.1,0,0.2,0,0.3,0c0.3-0.1,0.5-0.3,0.6-0.6c0.1-0.6-0.2-1-0.8-1.1c-0.1,0-0.2,0-0.3,0c-0.3,0-0.5,0-0.8,0
			C95.4,43.4,95.3,43.4,95,43.4"/>
		<path class="st1" d="M32.8,45.7c0-1,0.2-1.8,0.7-2.6c0.5-0.7,1.1-1.1,1.9-1.3c0.8-0.2,1.6-0.2,2.3,0c0.8,0.2,1.4,0.7,1.9,1.4
			c0.9,1.3,0.8,3.4,0.2,4.6c-0.6,1.1-1.6,1.7-2.8,1.8c-0.5,0-1,0-1.5-0.1c-1.2-0.4-2-1.2-2.4-2.4C32.9,46.6,32.8,46,32.8,45.7
			 M34.8,45.5c0,0.5,0.1,1,0.3,1.4c0.3,0.6,0.8,0.9,1.5,0.9c0.7,0,1.2-0.3,1.4-0.9c0.4-0.9,0.4-1.8,0-2.6c-0.2-0.4-0.4-0.7-0.8-0.8
			c-0.6-0.2-1.6-0.2-2.1,0.8C34.9,44.7,34.8,45.1,34.8,45.5"/>
		<path class="st1" d="M49.3,41.8c1.9,0,3.8,0,5.7,0c0.1,0,0.1,0,0.2,0c0.1,0.3,0.1,1,0,1.5c-0.1,0.1-0.3,0.1-0.4,0.1
			c-1,0-2,0-3.1,0c-0.2,0-0.3,0-0.5,0c-0.1,0.3-0.1,0.9,0,1.3c0.4,0,0.8,0,1.2,0c0.4,0,0.8,0,1.2,0c0.4,0,0.8,0,1.2,0
			c0.1,0.5,0,1,0,1.4c-0.1,0.1-0.3,0.1-0.4,0.1c-0.9,0-1.8,0-2.7,0h-0.5c-0.1,0.2-0.1,0.5-0.1,0.7c0,0.2,0,0.4,0,0.7
			c0.2,0.1,0.3,0,0.5,0c1,0,2.1,0,3.1,0c0.2,0,0.3,0,0.5,0c0.1,0.3,0.1,1.3,0,1.6c-0.3,0.1-5.6,0.1-6,0c0-0.1,0-0.2,0-0.2
			c0-0.2,0-0.4,0-0.6c0-2.1,0-4.1,0-6.2C49.2,42.2,49.2,42,49.3,41.8"/>
		<path class="st1" d="M87.8,43.4c0,0.5,0,0.9,0,1.3c0.1,0,0.3,0,0.4,0c0.9,0,1.9,0,2.8,0h0.4c0.1,0.3,0.1,1.1,0,1.5
			c-0.1,0.1-0.3,0-0.4,0c-0.9,0-1.8,0-2.7,0c-0.2,0-0.3,0-0.5,0c-0.1,0.3-0.1,0.8-0.1,1.4c0.1,0.1,0.3,0.1,0.4,0.1
			c1.1,0,2.2,0,3.2,0c0.2,0,0.3,0,0.5,0c0.1,0.3,0.1,1.1,0,1.6c-0.1,0.1-0.2,0.1-0.4,0.1c-0.8,0-1.7,0-2.5,0c-0.9,0-1.8,0-2.7,0
			c-0.1,0-0.3,0-0.4,0c0-0.1,0-0.2,0-0.3c0-0.2,0-0.4,0-0.6c0-2.1,0-4.2,0-6.2c0-0.2,0-0.3,0-0.5c0.1,0,0.2,0,0.3,0
			c2.4,0,5.2,0,5.6,0c0.1,0.3,0.1,1.2,0,1.5c-0.3,0.1-0.6,0-1,0c-0.3,0-0.7,0-1,0c-0.3,0-0.7,0-1,0C88.5,43.4,88.2,43.3,87.8,43.4"
			/>
		<path class="st1" d="M106.6,44c-0.4,0.1-1.6,0.1-1.9,0c0-0.1,0-0.1-0.1-0.2c-0.1-0.3-0.3-0.5-0.6-0.6c-0.4-0.1-0.7-0.1-1.1,0
			c-0.1,0-0.2,0.1-0.3,0.2c-0.3,0.2-0.3,0.6,0,0.8c0.2,0.1,0.4,0.2,0.6,0.3c0.4,0.1,0.7,0.2,1.1,0.3c0.4,0.1,0.9,0.2,1.3,0.4
			c0.2,0.1,0.3,0.2,0.5,0.3c0.4,0.3,0.6,0.7,0.7,1.2c0.1,1.1-0.3,2.1-1.5,2.6c-0.3,0.1-0.7,0.2-1,0.3c-0.9,0.1-1.7,0.1-2.5-0.3
			c-1-0.4-1.5-1.2-1.5-2.2c0-0.1,0-0.1,0-0.2c0.3-0.1,1.3-0.1,1.9,0c0,0.1,0.1,0.2,0.1,0.3c0.1,0.4,0.4,0.7,0.8,0.8
			c0.4,0.1,0.8,0.1,1.2,0c0.2,0,0.3-0.1,0.4-0.3c0.3-0.3,0.2-0.7-0.1-0.9c-0.1-0.1-0.3-0.2-0.4-0.2c-0.4-0.1-0.7-0.2-1.1-0.3
			c-0.4-0.1-0.9-0.2-1.3-0.4c-0.1-0.1-0.3-0.1-0.4-0.2c-1.2-0.7-1.2-2.5-0.2-3.3c0.3-0.2,0.6-0.4,0.9-0.5c0.9-0.3,1.8-0.3,2.8,0
			c0.5,0.2,1,0.4,1.3,0.9C106.5,43,106.7,43.5,106.6,44"/>
		<path class="st1" d="M59.8,41.8c0.1,0,0.1,0,0.2,0c0.5,0,1,0,1.6,0c0,0,0.1,0,0.1,0.1c0,0.1,0,0.3,0,0.4c0,1.3,0,2.6,0,3.9
			c0,0.2,0,0.5,0,0.7c0.1,0.6,0.4,0.9,1.1,1c0.2,0,0.5,0,0.7,0c0.4-0.1,0.7-0.4,0.8-0.8c0.1-0.3,0.1-0.5,0.1-0.8c0-1.3,0-2.6,0-3.9
			c0-0.2,0-0.3,0-0.5c0.4-0.1,1.6-0.1,1.9,0c0,0.1,0,0.2,0,0.3c0,1.4,0,2.8,0,4.2c0,0.5,0,0.9-0.2,1.3c-0.2,0.8-0.7,1.4-1.5,1.7
			c-0.3,0.1-0.7,0.2-1,0.2c-0.6,0-1.1,0-1.6-0.1c-1.1-0.2-1.8-0.9-2.1-2c-0.1-0.3-0.1-0.6-0.1-1c0-1.5,0-3,0-4.5
			C59.8,42,59.8,41.9,59.8,41.8"/>
		<path class="st1" d="M8.9,44.5c-0.4,0.1-1.5,0.1-1.9,0c0-0.1-0.1-0.2-0.1-0.3c-0.2-0.5-0.5-0.7-1-0.8c-0.2,0-0.3,0-0.5,0
			c-0.7,0-1.2,0.4-1.5,1.1c-0.3,0.8-0.3,1.6,0,2.4c0.4,0.9,1.3,1.3,2.2,1c0.4-0.2,0.7-0.5,0.8-0.9C7,46.8,7,46.7,7,46.5
			c0.3-0.1,0.6,0,1,0c0.3,0,0.6,0,1,0c0,0.6-0.2,1.1-0.5,1.6c-0.4,0.6-1,1.1-1.7,1.3c-0.8,0.3-1.7,0.3-2.6,0c-1-0.3-1.8-1-2.2-2
			c-0.5-1.3-0.5-2.6,0.2-3.9c0.5-0.9,1.3-1.5,2.3-1.8c1.2-0.3,2.2-0.1,3.2,0.6c0.7,0.5,1.1,1.1,1.2,1.9c0,0.1,0,0.1,0,0.2
			C9,44.4,8.9,44.4,8.9,44.5"/>
		<path class="st1" d="M12,41.8c0.7,0,1.3,0,2,0c1,2.5,1.9,5,2.8,7.6c-0.4,0.1-1.7,0.1-2.1,0c-0.2-0.4-0.3-0.9-0.5-1.3
			c-0.4-0.1-2.1-0.1-2.6,0c-0.2,0.4-0.3,0.9-0.5,1.3c-0.4,0.1-1.6,0.1-2,0c0-0.1,0-0.2,0.1-0.3c0.4-1.1,0.8-2.2,1.2-3.3
			c0.4-1.1,0.8-2.2,1.2-3.3C11.9,42.2,12,42,12,41.8 M13.8,46.5c0,0,0-0.1,0-0.1c-0.2-0.8-0.5-1.5-0.7-2.3c0,0,0,0-0.1-0.1
			c-0.1,0.2-0.1,0.4-0.2,0.6c-0.1,0.2-0.1,0.4-0.2,0.6c-0.1,0.2-0.1,0.4-0.2,0.6c-0.1,0.2-0.2,0.4-0.1,0.6
			C12.6,46.6,13.5,46.6,13.8,46.5"/>
		<path class="st1" d="M78.1,41.8c0.3-0.1,1.4-0.1,2,0c0.1,0.1,0.1,0.2,0.2,0.3c0.4,1.5,0.8,3,1.2,4.5c0.1,0.2,0.1,0.4,0.2,0.7
			c0.2-0.5,0.3-0.9,0.4-1.4c0.1-0.5,0.2-0.9,0.4-1.4c0.1-0.5,0.2-0.9,0.4-1.4c0.1-0.4,0.2-0.9,0.4-1.3c0.4-0.1,1.7-0.1,2,0
			c0,0.1,0,0.3-0.1,0.4c-0.3,0.9-0.6,1.8-0.9,2.7c-0.4,1.3-0.8,2.5-1.2,3.8c-0.1,0.2-0.1,0.4-0.2,0.6c-0.3,0.1-0.5,0-0.8,0.1
			c-0.2,0-0.5,0-0.7,0h-0.8c0-0.1-0.1-0.2-0.1-0.3c-0.5-1.5-0.9-2.9-1.4-4.4c-0.2-0.8-0.5-1.6-0.8-2.4C78.2,42.2,78.2,42,78.1,41.8"
			/>
		<path class="st1" d="M107.8,41.8c0.3-0.1,1.5-0.1,1.9,0c0,0,0,0.1,0,0.2c0,2.4,0,4.9,0,7.4c-0.3,0.1-0.7,0-1,0.1
			c-0.3,0-0.6,0-0.9,0c0-0.1,0-0.2,0-0.3c0-0.2,0-0.4,0-0.6c0-2.1,0-4.1,0-6.2C107.7,42.2,107.7,42,107.8,41.8"/>
		<path class="st1" d="M75.6,41.8c0.3-0.1,1.5-0.1,1.9,0c0,0,0,0.1,0,0.2c0,2.4,0,4.9,0,7.4c-0.3,0.1-0.7,0-1,0.1
			c-0.3,0-0.6,0-0.9,0c0-0.1,0-0.2,0-0.3c0-0.2,0-0.4,0-0.6c0-2.1,0-4.2,0-6.2C75.6,42.2,75.6,42,75.6,41.8"/>
	</g>
</g>
</svg>