<?xml version="1.0" encoding="utf-8"?>
<!-- Generator: Adobe Illustrator 22.1.0, SVG Export Plug-In . SVG Version: 6.00 Build 0)  -->
<svg version="1.1" id="Layer_1" xmlns="http://www.w3.org/2000/svg" xmlns:xlink="http://www.w3.org/1999/xlink" x="0px" y="0px"
	 viewBox="0 0 69.6 72" style="enable-background:new 0 0 69.6 72;" xml:space="preserve">
<style type="text/css">
	.st0{fill:#FFFFFF;}
</style>
<g id="Layer_1_1_">
</g>
<g>
	<path class="st0" d="M68.6,33.2c-0.6-0.5-2.4-1.2-5.5,1.9c-0.4,0.4-0.6,0.6-0.8,0.9c-0.5,0.5-0.9,1.1-3.2,2.9
		c-2.3,1.9-6.2,4.3-7.9,5.3c-0.3-0.4-0.6-0.7-1.1-1.1c-4.9-3.5-25.7-4.3-25.9-4.3c-2.3,0-5.3,0.7-7.1,2.3c-1.2,1.2-3.3,3.2-5,4.8
		l-0.7,0.7l-2.4-2.4L0,53.3L18.7,72l9.1-9.1l-2.7-2.7c0.8-0.7,1.6-1.2,2.7-1.2l0.1,0c2.2,0,8.2-0.1,17.6,0
		c5.6,0,17.7-10.4,22.7-19.4C69.9,36.7,70,34.2,68.6,33.2z M18.7,69.5L2.5,53.3l6.6-6.6l16.3,16.3L18.7,69.5z M66.8,38.7
		c-4.9,8.9-16.7,18.5-21.2,18.5c-9.3-0.1-15.4,0-17.6,0l-0.1,0c-1.6,0-2.9,0.7-3.9,1.7L12.7,47.8l0.7-0.6c1.7-1.6,3.8-3.6,5-4.9
		c1.3-1.2,3.9-1.9,5.9-1.9c1.6,0,20.7,1,24.9,4c1,0.7,1,1.2,0.6,2c-0.5,1.1-1.6,1.4-2.5,1.4H32.4v1.7h14.8c1.9,0,3.4-0.9,4.1-2.4
		c0.2-0.5,0.3-0.9,0.3-1.3c1.8-0.9,6.1-3.7,8.6-5.7c2.4-1.9,2.9-2.6,3.4-3.2c0.2-0.2,0.4-0.4,0.7-0.8c1.7-1.7,2.9-2,3.3-1.7
		C68,34.9,68,36.4,66.8,38.7z M19,65.7c1.7,0,3.2-1.4,3.2-3.2c0-1.7-1.4-3.2-3.2-3.2c-1.7,0-3.2,1.4-3.2,3.2
		C15.8,64.3,17.2,65.7,19,65.7z M19,61.2c0.8,0,1.4,0.6,1.4,1.4c0,0.8-0.6,1.4-1.4,1.4s-1.4-0.6-1.4-1.4
		C17.6,61.8,18.2,61.2,19,61.2z M44.4,38.6c10.6,0,19.3-8.7,19.3-19.3C63.7,8.7,55,0,44.4,0C33.8,0,25.1,8.7,25.1,19.3
		C25.1,30,33.8,38.6,44.4,38.6z M44.4,1.7C54.1,1.7,62,9.6,62,19.3s-7.9,17.6-17.6,17.6S26.8,29,26.8,19.3S34.7,1.7,44.4,1.7z"/>
	<polygon class="st0" points="55.3,22.1 44,22.1 38.3,15.8 39.8,14.5 44.9,20.1 55.3,20.1 	"/>
</g>
</svg>
