<?xml version="1.0" encoding="utf-8"?>
<!-- Generator: Adobe Illustrator 22.1.0, SVG Export Plug-In . SVG Version: 6.00 Build 0)  -->
<svg version="1.1" id="Layer_1" xmlns="http://www.w3.org/2000/svg" xmlns:xlink="http://www.w3.org/1999/xlink" x="0px" y="0px"
	 viewBox="0 0 73.8 75.2" style="enable-background:new 0 0 73.8 75.2;" xml:space="preserve">
<style type="text/css">
	.st0{fill:#FFFFFF;}
	.st1{fill:none;stroke:#FFFFFF;stroke-width:2;stroke-miterlimit:10;}
</style>
<path class="st0" d="M60,30.8v-2.6h-2.3v-1.8H11.2v23.8h1.7v2.4h2.6v2.6h46.9V30.8H60z M12.5,27.7h43.9v21.2H12.5V27.7z M14.2,50.2
	h43.5V29.5h1v21.9H14.2V50.2z M61.1,54H16.8v-1.3H60V32.1h1.1V54z M13.5,28.7h5.3V30h-4v3.6h-1.3V28.7z M50.1,28.7h5.3v4.9h-1.3V30
	h-4L50.1,28.7z M54.1,43.1h1.3V48h-5.3v-1.3h4L54.1,43.1z M14.8,46.7h4V48h-5.3v-4.9h1.3L14.8,46.7L14.8,46.7z M34.4,30.7
	c-4.2,0-7.5,3.4-7.5,7.5s3.4,7.5,7.5,7.5c4.2,0,7.5-3.4,7.5-7.5S38.6,30.7,34.4,30.7z M34.4,44.5c-3.4,0-6.2-2.8-6.2-6.2
	c0-3.4,2.8-6.2,6.2-6.2c3.4,0,6.2,2.8,6.2,6.2C40.7,41.7,37.9,44.5,34.4,44.5z"/>
<g id="Layer_1_1_">
</g>
<g>
	<g>
		<path class="st1" d="M46,3.6c15.4,4,26.7,18,26.7,34.7c0,19.8-16.1,35.9-35.9,35.9S1,58.1,1,38.3C1,22.9,10.6,9.9,24.2,4.7"/>
		<g>
			<polygon class="st0" points="21.4,15 19.5,14.2 23.5,5.2 14.2,1.9 14.9,0 26.2,4 			"/>
		</g>
	</g>
</g>
</svg>
