<?xml version="1.0" encoding="utf-8"?>
<!-- Generator: Adobe Illustrator 22.1.0, SVG Export Plug-In . SVG Version: 6.00 Build 0)  -->
<svg version="1.1" id="Layer_1" xmlns="http://www.w3.org/2000/svg" xmlns:xlink="http://www.w3.org/1999/xlink" x="0px" y="0px"
	 viewBox="0 0 43.1 60" style="enable-background:new 0 0 43.1 60;" xml:space="preserve">
<style type="text/css">
	.st0{fill:#FFFFFF;}
	.st1{fill:none;stroke:#FFFFFF;stroke-width:2;stroke-linecap:round;stroke-miterlimit:10;}
</style>
<g>
	<path class="st0" d="M38.8,32.3c2.9-3.6,4.4-7.9,4.4-12.4C43.1,9,34.3,0,23.4,0c0,0,0,0,0,0C20.5,0,6.7,0.8,4.8,17
		c0,0.1-0.3,1.9-4.3,8.1c-0.1,0.1-0.7,1-0.4,2.1c0.1,0.5,0.4,1.2,1.4,1.8c1.2,0.7,2.6,1.3,3.4,1.7c-0.1,1.5-0.4,5.3,0,7.4
		c0.5,2.7,4.9,3.1,7.5,3.1c0.4,0,0.7,0,0.7,0l0.1,0c0.4,0,0.6,0.1,0.7,0.1v2.5h-1.6c-1.9,0-3.4,1.5-3.4,3.4c0,1,0.4,1.9,1.1,2.5
		c-0.7,0.6-1.1,1.5-1.1,2.5c0,1.9,1.5,3.4,3.4,3.4h3.2c0,2.4,2,4.3,4.4,4.3h6.8c2.4,0,4.3-1.9,4.4-4.3h3.2c1.9,0,3.4-1.5,3.4-3.4
		c0-1-0.4-1.9-1.1-2.5c0.7-0.6,1.1-1.5,1.1-2.5c0-1.6-1.1-3-2.7-3.3v-0.8C35,39.2,36.3,35.4,38.8,32.3z M26.7,58.2h-6.8
		c-1.4,0-2.5-1.1-2.6-2.5h11.9C29.2,57.1,28,58.2,26.7,58.2z M35.8,47.2c0,0.9-0.7,1.6-1.6,1.6h-2.3c-0.5,0-0.9,0.4-0.9,0.9
		s0.4,0.9,0.9,0.9h2.3c0.9,0,1.6,0.7,1.6,1.6c0,0.9-0.7,1.6-1.6,1.6h-4.1H16.4h-4.1c-0.9,0-1.6-0.7-1.6-1.6c0-0.9,0.7-1.6,1.6-1.6
		h11c0.5,0,0.9-0.4,0.9-0.9s-0.4-0.9-0.9-0.9h-11c-0.9,0-1.6-0.7-1.6-1.6c0-0.9,0.7-1.6,1.6-1.6h2.5h19.3h0.1
		C35.1,45.6,35.8,46.3,35.8,47.2z M33.2,43.1v0.7H15.7v-2.6c0-0.9-0.7-1.9-2.5-1.9c-0.1,0-0.2,0-0.2,0c0,0-0.2,0-0.6,0
		c-3.2,0-5.5-0.7-5.7-1.6c-0.5-2.5,0.1-7.5,0.1-7.6c0-0.4-0.2-0.8-0.6-0.9c0,0-2.1-0.8-3.8-1.8c-0.3-0.2-0.5-0.4-0.5-0.6
		C1.8,26.5,2,26.1,2,26.1c4.3-6.7,4.6-8.7,4.6-8.9C8.3,2.9,19.7,1.8,23.3,1.8c0,0,0,0,0,0c9.9,0,18,8.1,18,18.1
		c0,4.2-1.4,8.1-4,11.3C34.7,34.5,33.2,38.8,33.2,43.1z"/>
	<line class="st1" x1="20.6" y1="43.8" x2="16.3" y2="19.5"/>
	<line class="st1" x1="29.7" y1="19.5" x2="25.4" y2="43.8"/>
	<path class="st1" d="M17.5,23.7c4.4,0,12.1-7.4,5.7-7.4s1.4,7.4,5.7,7.4"/>
</g>
</svg>
