<?xml version="1.0" encoding="utf-8"?>
<!-- Generator: Adobe Illustrator 22.1.0, SVG Export Plug-In . SVG Version: 6.00 Build 0)  -->
<svg version="1.1" id="Layer_1" xmlns="http://www.w3.org/2000/svg" xmlns:xlink="http://www.w3.org/1999/xlink" x="0px" y="0px"
	 viewBox="0 0 68 53.2" style="enable-background:new 0 0 68 53.2;" xml:space="preserve">
<style type="text/css">
	.st0{fill:none;stroke:#FFFFFF;stroke-width:2;stroke-linecap:round;stroke-miterlimit:10;}
</style>
<g>
	<path class="st0" d="M52.7,42.7H16c-2.6,0-4.8,2.1-4.8,4.8v0c0,2.6,2.1,4.8,4.8,4.8h36.8c2.6,0,4.8-2.1,4.8-4.8v0
		C57.5,44.9,55.4,42.7,52.7,42.7z"/>
	<path class="st0" d="M17.5,42.7v-8.3c0-10.3,1.8-18.7,16.8-18.7s16.8,8.4,16.8,18.7v8.3"/>
	<path class="st0" d="M24.5,32.7C24.9,26,25.4,21,34.3,21"/>
	<line class="st0" x1="34.7" y1="10.4" x2="34.7" y2="1"/>
	<line class="st0" x1="14.9" y1="19" x2="8.3" y2="12.3"/>
	<line class="st0" x1="10.4" y1="36.5" x2="1" y2="36.5"/>
	<line class="st0" x1="53" y1="19" x2="59.7" y2="12.3"/>
	<line class="st0" x1="57.6" y1="36.5" x2="67" y2="36.5"/>
</g>
</svg>
