<?xml version="1.0" encoding="utf-8"?>
<!-- Generator: Adobe Illustrator 22.1.0, SVG Export Plug-In . SVG Version: 6.00 Build 0)  -->
<svg version="1.1" id="Layer_1" xmlns="http://www.w3.org/2000/svg" xmlns:xlink="http://www.w3.org/1999/xlink" x="0px" y="0px"
	 viewBox="0 0 65 65" style="enable-background:new 0 0 65 65;" xml:space="preserve">
<style type="text/css">
	.st0{fill:#FFFFFF;}
	.st1{fill-rule:evenodd;clip-rule:evenodd;fill:#FFFFFF;}
</style>
<g>
	<path class="st0" d="M26,65c-0.1,0-0.2,0-0.3-0.1c-0.6-0.2-0.8-0.8-0.7-1.3l1.4-4.2l-2.2-8.1c0-0.2,0-0.3,0-0.5l1-4.2
		c0.1-0.6,0.7-0.9,1.3-0.8c0.6,0.1,0.9,0.7,0.8,1.3L26.3,51l2.2,8.1c0.1,0.2,0,0.4,0,0.6L27,64.2C26.8,64.7,26.4,65,26,65z
		 M19.5,64.9c-0.4,0-0.8-0.3-1-0.7L16.9,60c-0.1-0.2-0.1-0.5,0-0.7l2.4-8.2l-1.4-3.8c-0.2-0.5,0.1-1.1,0.6-1.3
		c0.5-0.2,1.1,0.1,1.3,0.6l1.5,4.1c0.1,0.2,0.1,0.4,0,0.7l-2.4,8.2l1.6,4c0.2,0.5-0.1,1.1-0.6,1.4C19.8,64.9,19.7,64.9,19.5,64.9z"
		/>
	<path class="st0" d="M22.5,65c-7.6,0-15.2-1.1-21.8-3.4C0.3,61.4,0,61,0,60.5c0.2-8.9,4.8-14.4,14-17c0.6-0.2,1.1,0.2,1.3,0.7
		c0.2,0.6-0.2,1.1-0.7,1.3c-8.1,2.3-12,6.8-12.4,14.3c12.5,4.1,28.3,4.1,40.8,0c-0.3-9.2-7-12.8-12.7-14.2c-0.6-0.1-0.9-0.7-0.8-1.3
		c0.1-0.6,0.7-0.9,1.3-0.8c9.2,2.3,14.3,8.4,14.3,17c0,0.4-0.3,0.8-0.7,1C37.7,63.8,30.1,65,22.5,65z"/>
	<path class="st0" d="M22.5,48.5C22.5,48.5,22.4,48.5,22.5,48.5c-7.4,0-13.7-5.9-13.7-12.5v-4.7c0-0.6,0.5-1,1-1c0.6,0,1,0.5,1,1V36
		c0,5.4,5.5,10.3,11.6,10.4c2.3,0,4.6-0.7,6.6-2.1c3.1-2,4.9-5.2,4.9-8.3v-4.7c0-0.6,0.5-1,1-1c0.6,0,1,0.5,1,1V36
		c0,3.9-2.2,7.6-5.8,10.1C27.9,47.6,25.1,48.5,22.5,48.5z"/>
	<path class="st0" d="M24.4,32.3c-3.9,0-5.5-1.3-7.1-3.5c-1.4,2.3-2.4,3.5-5.5,3.5h-2c-0.6,0-1-0.5-1-1l-0.1-3.1
		c-0.1-3.6,2.2-9.3,7.1-10.4c2.2-2.3,6.7-2.9,11.1-1.3c5.7,2,9.2,6.7,9.2,12.4v2.3c0,0.6-0.5,1-1,1L24.4,32.3z M35,31.3L35,31.3
		L35,31.3z M17.3,25.9c0.4,0,0.7,0.2,0.9,0.5c1.8,2.8,2.7,3.9,6.2,3.9l9.6,0v-1.3c0-7.2-5.9-9.8-7.8-10.5c-3.7-1.3-7.5-0.9-9,1
		c-0.2,0.2-0.4,0.3-0.6,0.4c-4.1,0.7-5.8,5.8-5.7,8.3l0,2.1h0.9c2.2,0,2.5-0.6,4-2.9c0.2-0.3,0.4-0.6,0.6-1
		C16.6,26,16.9,25.9,17.3,25.9C17.3,25.9,17.3,25.9,17.3,25.9z"/>
	<path class="st0" d="M42.9,33.2c-0.7,0-1.3-0.1-2-0.2c-0.5-0.1-1.2-0.2-1.5-0.9c-0.2-0.7,0.2-1.2,0.6-1.6c0.3-0.4,0.8-0.9,1.4-1.8
		c0.2-0.3,0.6-1,0.9-2.1c-3.9-2.7-6.4-7.2-6.4-12C36,6.5,42.5,0,50.5,0S65,6.5,65,14.5c0,7.8-6.1,14.1-13.8,14.5
		C49.8,31.8,46.3,33.2,42.9,33.2z M42.3,31c2.8,0.1,6.3-0.8,7.2-3.4c0.1-0.4,0.5-0.7,1-0.7c6.8,0,12.4-5.6,12.4-12.4
		S57.3,2.1,50.5,2.1S38.1,7.7,38.1,14.5c0,4.3,2.3,8.4,6,10.6c0.4,0.2,0.6,0.7,0.5,1.1c-0.4,1.8-1.1,2.9-1.4,3.5
		C42.9,30.3,42.6,30.7,42.3,31z"/>
	<path class="st1" d="M51.4,19.4v1.1c0,0.8-0.8,1.1-1.5,0.7c-0.3-0.2-0.4-0.5-0.4-0.8v-1.1l-0.3-0.1c-0.9-0.2-1.5-0.7-2.1-1.4
		c-0.2-0.3-0.3-0.6-0.3-0.9c0-0.3,0.2-0.5,0.4-0.7c0.2-0.1,0.5-0.2,0.7-0.1c0.3,0.1,0.6,0.3,0.8,0.6l0,0l0,0
		c0.4,0.5,1.1,0.8,1.7,0.7c0.5-0.1,1-0.3,1.2-0.8c0.2-0.5-0.1-0.9-0.5-1.2c-0.2-0.1-0.3-0.2-0.5-0.3c-0.4-0.2-0.7-0.3-1.1-0.4
		c-0.6-0.1-1.2-0.2-1.7-0.6c-0.6-0.3-0.8-0.9-0.9-1.5c-0.1-0.8,0-1.6,0.4-2.3c0.4-0.7,1-1.2,1.7-1.4L49.5,9V7.7
		c0-0.8,1.1-0.9,1.6-0.5c0.2,0.2,0.3,0.4,0.3,0.6V9l0.3,0.1c0.5,0.1,1,0.4,1.4,0.7l0,0c0.3,0.3,0.5,0.6,0.5,1.1
		c0,0.3-0.1,0.6-0.4,0.8c-0.4,0.3-0.9,0.1-1.2-0.2c-0.3-0.2-0.7-0.4-1-0.5c-0.4-0.1-1-0.2-1.4,0.1c-0.3,0.2-0.4,0.5-0.4,0.8
		c0,0.1,0,0.3,0.1,0.4c0.2,0.5,0.9,0.6,1.4,0.7c0.4,0.1,0.7,0.1,1.1,0.2c1.2,0.4,2.3,1.3,2.5,2.6c0.1,0.9-0.2,1.8-0.8,2.4
		c-0.5,0.5-1,0.8-1.7,1L51.4,19.4z"/>
</g>
</svg>
