<?xml version="1.0" encoding="utf-8"?>
<!-- Generator: Adobe Illustrator 22.1.0, SVG Export Plug-In . SVG Version: 6.00 Build 0)  -->
<svg version="1.1" id="Layer_1" xmlns="http://www.w3.org/2000/svg" xmlns:xlink="http://www.w3.org/1999/xlink" x="0px" y="0px"
	 viewBox="0 0 51.2 28.9" style="enable-background:new 0 0 51.2 28.9;" xml:space="preserve">
<style type="text/css">
	.st0{fill:#FFFFFF;}
</style>
<path class="st0" d="M48.8,4.4V1.8h-2.3V0H0v23.8h1.7v2.4h2.6v2.6h46.9V4.4H48.8z M1.3,1.3h43.9v21.2H1.3V1.3z M3,23.8h43.5V3.1h1
	V25H3V23.8z M49.9,27.6H5.6v-1.3h43.2V5.7h1.1V27.6z M2.3,2.4h5.3v1.3h-4v3.6H2.3V2.4z M38.9,2.4h5.3v4.9h-1.3V3.7h-4L38.9,2.4z
	 M42.9,16.7h1.3v4.9h-5.3v-1.3h4V16.7z M3.6,20.3h4v1.3H2.3v-4.9h1.3L3.6,20.3L3.6,20.3z M23.2,4.4c-4.2,0-7.5,3.4-7.5,7.5
	s3.4,7.5,7.5,7.5c4.2,0,7.5-3.4,7.5-7.5S27.4,4.4,23.2,4.4z M23.2,18.1c-3.4,0-6.2-2.8-6.2-6.2s2.8-6.2,6.2-6.2s6.2,2.8,6.2,6.2
	S26.7,18.1,23.2,18.1z"/>
<g id="Layer_1_1_">
</g>
</svg>
