<?xml version="1.0" encoding="utf-8"?>
<!-- Generator: Adobe Illustrator 22.1.0, SVG Export Plug-In . SVG Version: 6.00 Build 0)  -->
<svg version="1.1" id="Layer_1" xmlns="http://www.w3.org/2000/svg" xmlns:xlink="http://www.w3.org/1999/xlink" x="0px" y="0px"
	 viewBox="0 0 69.6 67.2" style="enable-background:new 0 0 69.6 67.2;" xml:space="preserve">
<style type="text/css">
	.st0{fill:#FFFFFF;}
	.st1{fill:none;stroke:#FFFFFF;stroke-width:2;stroke-miterlimit:10;}
</style>
<g id="Layer_1_1_">
</g>
<g>
	<path class="st0" d="M68.6,28.4c-0.6-0.5-2.4-1.2-5.5,1.9c-0.4,0.4-0.6,0.6-0.8,0.9c-0.5,0.5-0.9,1.1-3.2,2.9
		c-2.3,1.9-6.2,4.3-7.9,5.3c-0.3-0.4-0.6-0.7-1.1-1.1C45.2,34.8,24.4,34,24.2,34c-2.3,0-5.3,0.7-7.1,2.3c-1.2,1.2-3.3,3.2-5,4.8
		l-0.7,0.7l-2.4-2.4L0,48.5l18.7,18.7l9.1-9.1l-2.7-2.7c0.8-0.7,1.6-1.2,2.7-1.2l0.1,0c2.2,0,8.2-0.1,17.6,0
		c5.6,0,17.7-10.4,22.7-19.4C69.9,31.9,70,29.4,68.6,28.4z M18.7,64.8L2.5,48.5l6.6-6.6l16.3,16.3L18.7,64.8z M66.8,34
		c-4.9,8.9-16.7,18.5-21.2,18.5c-9.3-0.1-15.4,0-17.6,0l-0.1,0c-1.6,0-2.9,0.7-3.9,1.7L12.7,43l0.7-0.6c1.7-1.6,3.8-3.6,5-4.9
		c1.3-1.2,3.9-1.9,5.9-1.9c1.6,0,20.7,1,24.9,4c1,0.7,1,1.2,0.6,2c-0.5,1.1-1.6,1.4-2.5,1.4H32.4v1.7h14.8c1.9,0,3.4-0.9,4.1-2.4
		c0.2-0.5,0.3-0.9,0.3-1.3c1.8-0.9,6.1-3.7,8.6-5.7c2.4-1.9,2.9-2.6,3.4-3.2c0.2-0.2,0.4-0.4,0.7-0.8c1.7-1.7,2.9-2,3.3-1.7
		C68,30.1,68,31.6,66.8,34z M19,61c1.7,0,3.2-1.4,3.2-3.2c0-1.7-1.4-3.2-3.2-3.2c-1.7,0-3.2,1.4-3.2,3.2C15.8,59.6,17.2,61,19,61z
		 M19,56.4c0.8,0,1.4,0.6,1.4,1.4s-0.6,1.4-1.4,1.4s-1.4-0.6-1.4-1.4S18.2,56.4,19,56.4z"/>
	<path class="st1" d="M38.6,6.2c1-3,4-5.2,7.6-5.2c4.4,0,8,3.2,8,7.2c0,12-15.6,19.7-15.6,19.7S23,20.2,23,8.2c0-4,3.6-7.2,8-7.2
		C34.6,1,37.7,3.2,38.6,6.2z"/>
</g>
</svg>
