<?xml version="1.0" encoding="utf-8"?>
<!-- Generator: Adobe Illustrator 22.1.0, SVG Export Plug-In . SVG Version: 6.00 Build 0)  -->
<svg version="1.1" id="Layer_1" xmlns="http://www.w3.org/2000/svg" xmlns:xlink="http://www.w3.org/1999/xlink" x="0px" y="0px"
	 viewBox="0 0 68 71.7" style="enable-background:new 0 0 68 71.7;" xml:space="preserve">
<style type="text/css">
	.st0{fill:#FFFFFF;}
</style>
<g id="Layer_1_1_">
</g>
<g>
	<path class="st0" d="M65.7,34.7h-2.4c-0.2-0.9-0.4-1.8-0.7-2.7l2.1-1.2c0.5-0.3,0.9-0.8,1.1-1.4c0.2-0.6,0.1-1.2-0.2-1.8l-1.8-3.2
		c-0.3-0.5-0.8-0.9-1.4-1.1c-0.6-0.2-1.2-0.1-1.8,0.2l-2.1,1.2c-0.6-0.7-1.3-1.4-2-2l1.2-2.1c0.3-0.5,0.4-1.2,0.2-1.8
		c-0.2-0.6-0.5-1.1-1.1-1.4l-3.2-1.8c-1.1-0.6-2.5-0.3-3.2,0.8l-1.2,2.1c-0.9-0.3-1.8-0.5-2.7-0.7v-2.4c0-1.3-1-2.3-2.3-2.3h-3.7
		c-1.3,0-2.3,1-2.3,2.3V18c-0.9,0.2-1.8,0.4-2.7,0.7l-1.2-2.1c-0.6-1.1-2.1-1.5-3.2-0.8c-0.5,0.3-0.7,1-0.4,1.5
		c0.3,0.5,1,0.7,1.5,0.4c0.1,0,0.1,0,0.2,0l1.6,2.8c0.3,0.5,0.8,0.7,1.3,0.5c1.3-0.5,2.7-0.9,4-1.1c0.5-0.1,0.9-0.5,0.9-1.1v-3.3
		c0-0.1,0.1-0.1,0.1-0.1h3.7c0.1,0,0.1,0.1,0.1,0.1v3.3c0,0.5,0.4,1,0.9,1.1c1.4,0.2,2.7,0.6,4,1.1c0.5,0.2,1.1,0,1.3-0.5l1.6-2.8
		c0-0.1,0.1-0.1,0.2,0l3.2,1.8c0.1,0,0.1,0.1,0,0.2l-1.6,2.9c-0.3,0.5-0.2,1.1,0.3,1.4c1.1,0.9,2.1,1.9,3,3c0.3,0.4,0.9,0.5,1.4,0.3
		l2.9-1.6c0.1,0,0.2,0,0.2,0l1.8,3.2c0,0.1,0,0.2-0.1,0.2l-2.8,1.6c-0.5,0.3-0.7,0.8-0.5,1.3c0.5,1.3,0.9,2.7,1.1,4
		c0.1,0.5,0.5,0.9,1.1,0.9h3.3c0.1,0,0.1,0.1,0.1,0.1v3.7c0,0.1-0.1,0.1-0.1,0.1h-3.3c-0.5,0-1,0.4-1.1,0.9c-0.2,1.4-0.6,2.7-1.1,4
		c-0.2,0.5,0,1.1,0.5,1.3l2.8,1.6c0.1,0,0.1,0.1,0.1,0.2l-1.8,3.2c0,0.1-0.1,0.1-0.2,0l-2.9-1.6c-0.5-0.3-1.1-0.2-1.4,0.3
		c-0.9,1.1-1.9,2.1-3,3c-0.4,0.3-0.5,0.9-0.3,1.4l1.6,2.9c0,0.1,0,0.1,0,0.2L52.6,60c-0.1,0-0.2,0-0.2,0l-1.6-2.8
		c-0.3-0.5-0.8-0.7-1.3-0.5c-1.3,0.5-2.7,0.9-4,1.1c-0.5,0.1-0.9,0.5-0.9,1.1V62c0,0.1-0.1,0.1-0.1,0.1h-3.7c-0.1,0-0.1-0.1-0.1-0.1
		v-3.3c0-0.5-0.4-1-0.9-1.1c-1.4-0.2-2.7-0.6-4-1.1c-0.5-0.2-1.1,0-1.3,0.5l-1.6,2.8c0,0.1-0.1,0.1-0.2,0l-3.2-1.8
		c-0.1,0-0.1-0.1-0.1-0.2l1.6-2.9c0.3-0.5,0.1-1.2-0.4-1.5c-0.5-0.3-1.2-0.1-1.5,0.4l-1.6,2.9C27,57.4,26.9,58,27,58.6
		c0.2,0.6,0.5,1.1,1.1,1.4l3.2,1.8c1.1,0.6,2.5,0.3,3.2-0.8l1.2-2.1c0.9,0.3,1.8,0.5,2.7,0.7V62c0,1.3,1,2.3,2.3,2.3h3.7
		c1.3,0,2.3-1,2.3-2.3v-2.4c0.9-0.2,1.8-0.4,2.7-0.7l1.2,2.1c0.3,0.5,0.8,0.9,1.4,1.1c0.6,0.2,1.2,0.1,1.8-0.2l3.2-1.8
		c0.5-0.3,0.9-0.8,1.1-1.4c0.2-0.6,0.1-1.2-0.2-1.8l-1.2-2.1c0.7-0.6,1.4-1.3,2-2l2.1,1.2c0.5,0.3,1.2,0.4,1.8,0.2
		c0.6-0.2,1.1-0.5,1.4-1.1l1.8-3.2c0.6-1.1,0.3-2.5-0.8-3.2l-2.1-1.2c0.3-0.9,0.5-1.8,0.7-2.7h2.4c1.3,0,2.3-1,2.3-2.3V37
		C68,35.7,67,34.7,65.7,34.7z"/>
	<path class="st0" d="M31.4,47.7c-0.4,0.4-0.5,1.1-0.1,1.5c2.9,3.1,6.9,4.8,11.1,4.8c8.4,0,15.2-6.8,15.2-15.2
		c0-8.4-6.8-15.2-15.2-15.2c-2.9,0-5.7,0.8-8.1,2.3c-0.5,0.3-0.7,1-0.3,1.5c0.3,0.5,1,0.7,1.5,0.3c2.1-1.3,4.5-2,6.9-2
		c7.2,0,13,5.8,13,13c0,7.2-5.8,13-13,13c-3.6,0-7.1-1.5-9.5-4.1C32.5,47.3,31.8,47.3,31.4,47.7z"/>
	<path class="st0" d="M42.5,28.5c-0.6,0-1.1,0.5-1.1,1.1v1c-2.3,0.5-4,2.3-4,4.6c0,2.3,1.3,4.7,5.1,4.7c1.9,0,2.9,0.9,2.9,2.5
		c0,1.4-1.3,2.5-2.9,2.5c-1.2,0-2.3-0.7-2.7-1.7c-0.2-0.6-0.9-0.8-1.4-0.6c-0.6,0.2-0.8,0.9-0.6,1.4c0.6,1.5,2,2.5,3.6,2.9v1
		c0,0.6,0.5,1.1,1.1,1.1c0.6,0,1.1-0.5,1.1-1.1v-1c2.3-0.5,4-2.3,4-4.6c0-2.3-1.3-4.7-5.1-4.7c-1.9,0-2.9-0.9-2.9-2.5
		c0-1.4,1.3-2.5,2.9-2.5c1.2,0,2.3,0.7,2.7,1.7c0.2,0.6,0.9,0.8,1.4,0.6c0.6-0.2,0.8-0.9,0.6-1.4c-0.6-1.5-2-2.5-3.6-2.9v-1
		C43.6,29,43.1,28.5,42.5,28.5z"/>
	<path class="st0" d="M15.4,13.2c3.6,0,6.6-3,6.6-6.6C22,3,19,0,15.4,0S8.8,3,8.8,6.6C8.8,10.2,11.8,13.2,15.4,13.2z M15.4,2.2
		c2.4,0,4.4,2,4.4,4.4c0,2.4-2,4.4-4.4,4.4C13,11,11,9,11,6.6C11,4.2,13,2.2,15.4,2.2z"/>
	<path class="st0" d="M30.8,41.8V23.4c0-4.1-3.3-7.4-7.4-7.4h-16C3.3,16,0,19.3,0,23.4v18.4C0,44.1,1.9,46,4.2,46
		c0.8,0,1.5-0.2,2.1-0.6v21.2c0,2.8,2.3,5.1,5.1,5.1c1.6,0,3.1-0.8,4-1.9c0.9,1.2,2.4,1.9,4,1.9c2.8,0,5.1-2.3,5.1-5.1V45.4
		c0.6,0.3,1.3,0.6,2.1,0.6C28.9,46,30.8,44.1,30.8,41.8z M22.3,66.6c0,1.6-1.3,2.9-2.9,2.9s-2.9-1.3-2.9-2.9V47.8
		c0-0.6-0.5-1.1-1.1-1.1c-0.6,0-1.1,0.5-1.1,1.1v18.9c0,1.6-1.3,2.9-2.9,2.9c-1.6,0-2.9-1.3-2.9-2.9v-23h13.9V66.6z M24.5,41.8V24.5
		c0-0.6-0.5-1.1-1.1-1.1c-0.6,0-1.1,0.5-1.1,1.1v16.9H8.5V24.5c0-0.6-0.5-1.1-1.1-1.1c-0.6,0-1.1,0.5-1.1,1.1v17.3
		c0,1.1-0.9,2.1-2.1,2.1c-1.1,0-2.1-0.9-2.1-2.1V23.4c0-2.9,2.3-5.2,5.2-5.2h6.9v1.3c0,0.6,0.5,1.1,1.1,1.1c0.6,0,1.1-0.5,1.1-1.1
		v-1.3h6.9c2.9,0,5.2,2.3,5.2,5.2v18.4c0,1.1-0.9,2.1-2.1,2.1C25.4,43.8,24.5,42.9,24.5,41.8z"/>
	<path class="st0" d="M15.4,22.6c-0.6,0-1.1,0.5-1.1,1.1v12.8c0,0.6,0.5,1.1,1.1,1.1c0.6,0,1.1-0.5,1.1-1.1V23.7
		C16.5,23.1,16,22.6,15.4,22.6z"/>
</g>
</svg>
