<?xml version="1.0" encoding="utf-8"?>
<!-- Generator: Adobe Illustrator 22.1.0, SVG Export Plug-In . SVG Version: 6.00 Build 0)  -->
<svg version="1.1" id="Layer_1" xmlns="http://www.w3.org/2000/svg" xmlns:xlink="http://www.w3.org/1999/xlink" x="0px" y="0px"
	 viewBox="0 0 60 60" style="enable-background:new 0 0 60 60;" xml:space="preserve">
<style type="text/css">
	.st0{fill:#FFFFFF;}
</style>
<g>
	<g>
		<path class="st0" d="M41,35l0.5,0.5c-0.3,0.9-0.4,1.8-0.4,2.8c0,0,0,0.1,0,0.1l0.1,0.6c0.2,2.4,1.2,4.6,3,6.3
			c1.8,1.7,4.1,2.6,6.5,2.6c1.4,0,2.8-0.3,4.1-0.9c0.3-0.1,0.4-0.4,0.5-0.6c0-0.3,0-0.6-0.2-0.8l-5.7-5.7c0,0,0,0,0,0
			c-0.2-0.2-0.4-0.5-0.4-0.7c0,0,0,0,0,0c-0.3-0.8-0.1-1.6,0.4-2.1c0.4-0.4,0.9-0.6,1.4-0.6c0.2,0,0.5,0,0.7,0.1c0,0,0,0,0,0
			c0.3,0.1,0.5,0.3,0.7,0.4c0,0,0,0,0,0l5.7,5.7c0.2,0.2,0.5,0.3,0.8,0.2c0.3,0,0.5-0.2,0.6-0.5c0.6-1.3,1-2.7,1-4.1
			c0-2.4-0.9-4.7-2.6-6.5c-1.6-1.7-3.9-2.8-6.3-3l-0.6-0.1c0,0-0.1,0-0.1,0c-0.9,0-1.8,0.1-2.7,0.4l-0.7-0.7
			c0.5-1.2,0.2-2.7-0.7-3.7l-0.1-0.1c-0.7-0.7-1.6-1-2.6-1c0-0.9-0.3-1.9-1-2.6L42.6,21c-0.7-0.7-1.6-1-2.6-1c0-0.9-0.3-1.9-1-2.6
			l-0.1-0.1c-0.7-0.7-1.6-1-2.6-1c0-0.9-0.3-1.9-1-2.6l-0.1-0.1c-1-1-2.4-1.2-3.7-0.8l-0.7-0.7c0.3-0.9,0.4-1.8,0.4-2.7
			c0,0,0-0.1,0-0.1l-0.1-0.6c-0.1-1.4-0.5-2.6-1.1-3.8c-0.2-0.4-0.8-0.6-1.2-0.4c-0.4,0.2-0.6,0.8-0.4,1.2c0.5,1,0.8,2,0.9,3.1
			c0,0,0,0,0,0l0.1,0.5c0,0.8-0.2,1.7-0.5,2.6c-0.1,0.3,0,0.7,0.2,0.9l0.9,0.9l-3.8,3.8l-0.9-0.9c-0.2-0.2-0.6-0.3-0.9-0.2
			c-0.9,0.3-1.8,0.5-2.6,0.5l-0.5-0.1c0,0,0,0,0,0c-4-0.3-7.2-3.6-7.2-7.7c0-0.7,0.1-1.4,0.3-2.1l4.8,4.8c0.3,0.4,0.8,0.6,1.3,0.8
			c0.4,0.2,0.9,0.3,1.3,0.3c1,0,1.9-0.4,2.6-1.1c1-1,1.4-2.6,0.9-4c0,0,0,0,0,0c-0.2-0.4-0.4-0.9-0.9-1.3l-4.8-4.8
			c0.7-0.2,1.4-0.3,2.1-0.3c1.8,0,3.4,0.6,4.8,1.7c0.4,0.3,0.9,0.2,1.2-0.1c0.3-0.4,0.2-0.9-0.1-1.2C26,0.7,24,0,21.8,0
			c-1.4,0-2.8,0.3-4.1,1c-0.3,0.1-0.4,0.4-0.5,0.6c0,0.3,0,0.6,0.2,0.8l5.7,5.7c0,0,0,0,0,0c0.2,0.2,0.3,0.4,0.4,0.7
			c0.3,0.7,0.1,1.6-0.5,2.1c-0.4,0.4-0.9,0.6-1.4,0.6c-0.2,0-0.4,0-0.7-0.1c-0.3-0.1-0.5-0.3-0.7-0.4c0,0,0,0,0,0l-5.7-5.7
			c-0.2-0.2-0.5-0.3-0.8-0.2c-0.3,0-0.5,0.2-0.6,0.5c-0.6,1.3-0.9,2.7-0.9,4.1c0,2.4,0.9,4.7,2.6,6.5c1.3,1.4,3.1,2.4,5,2.8
			c-0.7,1.6-0.4,3.4,0.8,4.7l-2,2c-0.8,0.8-1.2,1.8-1.2,2.9c0,1,0.4,1.9,1,2.7l-3.2,3.2l-1.9-1.9c-0.3-0.3-0.9-0.3-1.2,0L7.4,37
			c0,0,0,0,0,0l-7.1,7.1c-0.3,0.3-0.3,0.9,0,1.2l14.3,14.3c0.2,0.2,0.4,0.3,0.6,0.3c0.2,0,0.5-0.1,0.6-0.3l7.1-7.1c0,0,0,0,0,0
			l4.7-4.7c0.2-0.2,0.3-0.4,0.3-0.6s-0.1-0.5-0.3-0.6l-1.4-1.4l3.2-3.2c1.4,0.9,3.2,0.9,4.5-0.1L41,35z M33,40.4
			c-0.9,0.7-2.1,0.6-2.9-0.2c-0.2-0.2-0.4-0.3-0.6-0.3c-0.2,0-0.5,0.1-0.6,0.3L25,44l-8.5-8.5l3.8-3.8c0.3-0.3,0.3-0.9,0-1.2
			L19.8,30c-0.4-0.4-0.7-1-0.7-1.6s0.2-1.2,0.7-1.6l2.7-2.7c0,0,0,0,0,0s0,0,0,0l4.4-4.4c0,0,0,0,0,0s0,0,0,0l4.7-4.7
			c0.1-0.1,0.1-0.1,0.2-0.2c0.6-0.4,1.5-0.4,2.1,0.2l0.1,0.1c0.6,0.6,0.6,1.4,0.2,2.1c-0.1,0.1-0.1,0.2-0.2,0.2c0,0,0,0,0,0
			l-5.2,5.2c-0.3,0.3-0.3,0.9,0,1.2c0.2,0.2,0.4,0.3,0.6,0.3c0.2,0,0.4-0.1,0.6-0.3l5.2-5.2c0,0,0,0,0,0c0.1-0.1,0.1-0.1,0.2-0.2
			c0.6-0.4,1.5-0.4,2.1,0.2l0.1,0.1c0.6,0.6,0.6,1.4,0.2,2.1c-0.1,0.1-0.1,0.2-0.2,0.2c0,0,0,0,0,0l-5.2,5.2c-0.3,0.3-0.3,0.9,0,1.2
			c0.2,0.2,0.4,0.3,0.6,0.3s0.4-0.1,0.6-0.3l5.2-5.2c0,0,0,0,0,0c0.1-0.1,0.1-0.1,0.2-0.2c0.6-0.4,1.5-0.4,2.1,0.2l0.1,0.1
			c0.6,0.6,0.6,1.4,0.2,2.1c-0.1,0.1-0.1,0.2-0.2,0.2c0,0,0,0,0,0l-5.2,5.2c-0.3,0.3-0.3,0.9,0,1.2c0.2,0.2,0.4,0.3,0.6,0.3
			s0.4-0.1,0.6-0.3l5.2-5.2c0,0,0,0,0,0c0.1-0.1,0.1-0.1,0.2-0.2c0.6-0.4,1.5-0.4,2.1,0.2l0.1,0.1c0.6,0.6,0.6,1.4,0.2,2.1
			c-0.1,0.1-0.1,0.2-0.2,0.2l-9.7,9.7L33,40.4z M2.1,44.8l6.6-6.6l13.1,13.1l-6.6,6.6L2.1,44.8z M24.4,45.8
			C24.4,45.8,24.4,45.8,24.4,45.8C24.4,45.8,24.4,45.8,24.4,45.8l1.4,1.4l-2.8,2.8L9.9,36.9l2.8-2.8l1.9,1.9c0,0,0,0,0,0
			c0,0,0,0,0,0L24.4,45.8z M21.9,22.2c-0.8-0.9-0.8-2.3-0.1-3.2c0,0,0.1,0,0.1,0c0.9,0,1.8-0.1,2.7-0.4L25,19L21.9,22.2z M57.9,40.3
			l-4.8-4.8c-0.3-0.4-0.8-0.6-1.3-0.9c-0.4-0.2-0.9-0.3-1.3-0.3c-1,0-1.9,0.4-2.6,1.1c-1,1-1.4,2.6-0.9,3.9c0.2,0.5,0.5,1,0.9,1.4
			l4.8,4.8c-0.7,0.2-1.4,0.3-2.1,0.3c-4,0-7.4-3.2-7.7-7.2c0,0,0,0,0,0l0-0.5c0-0.9,0.2-1.8,0.5-2.6c0.1-0.3,0-0.7-0.2-0.9l-0.9-0.9
			l3.8-3.8l0.9,0.9c0.2,0.2,0.6,0.3,0.9,0.2c0.9-0.3,1.8-0.5,2.6-0.5l0.5,0.1c0,0,0,0,0,0c4,0.3,7.2,3.7,7.2,7.7
			C58.2,38.9,58.1,39.6,57.9,40.3z"/>
	</g>
</g>
</svg>
