<?xml version="1.0" encoding="utf-8"?>
<!-- Generator: Adobe Illustrator 22.1.0, SVG Export Plug-In . SVG Version: 6.00 Build 0)  -->
<svg version="1.1" id="Layer_1" xmlns="http://www.w3.org/2000/svg" xmlns:xlink="http://www.w3.org/1999/xlink" x="0px" y="0px"
	 viewBox="0 0 62 62" style="enable-background:new 0 0 62 62;" xml:space="preserve">
<style type="text/css">
	.st0{fill:none;stroke:#FFFFFF;stroke-width:2;stroke-miterlimit:10;}
</style>
<g>
	<path class="st0" d="M45.7,28.6C46.4,20.3,44.3,8.4,31,1"/>
	<path class="st0" d="M31,1c16.6,0,30,12.4,30,27.6c0,0-6.3-6.7-15.3,0c-7.7-8.4-14.7,0-14.7,0s-7-8.4-14.7,0
		c-9.1-6.7-15.3,0-15.3,0C1,13.4,14.4,1,31,1z"/>
	<path class="st0" d="M16.3,28.6C15.6,20.3,17.7,8.4,31,1"/>
	<path class="st0" d="M31,1v54.3c0,8.2-10.7,6.8-10.7,0"/>
</g>
</svg>
