<?xml version="1.0" encoding="utf-8"?>
<!-- Generator: Adobe Illustrator 22.1.0, SVG Export Plug-In . SVG Version: 6.00 Build 0)  -->
<svg version="1.1" id="Layer_1" xmlns="http://www.w3.org/2000/svg" xmlns:xlink="http://www.w3.org/1999/xlink" x="0px" y="0px"
	 viewBox="0 0 46.8 60" style="enable-background:new 0 0 46.8 60;" xml:space="preserve">
<style type="text/css">
	.st0{fill:#FFFFFF;}
</style>
<g>
	<path class="st0" d="M46.8,60H0v-6.5h46.8V60z M2,58.1h42.8v-2.6H2V58.1z"/>
	<path class="st0" d="M46.8,6.5H0V0h46.8V6.5z M2,4.5h42.8V1.9H2V4.5z"/>
	<path class="st0" d="M41.3,54.5h-2c0-11.6-9.2-19.6-18.1-27.3C13.3,20.3,5.9,13.9,5.9,5.5h2c0,7.5,7.1,13.7,14.7,20.2
		C31.4,33.4,41.3,42,41.3,54.5z"/>
	<path class="st0" d="M7.9,54.5h-2c0-12.5,10-21.1,18.8-28.8C32.2,19.2,39.3,13,39.3,5.5h2c0,8.4-7.4,14.8-15.3,21.7
		C17.1,34.9,7.9,42.9,7.9,54.5z"/>
	<polygon class="st0" points="7.6,54.1 6.2,52.7 23.6,37.6 41,52.7 39.6,54.1 23.6,40.2 	"/>
</g>
</svg>
