<?xml version="1.0" encoding="utf-8"?>
<!-- Generator: Adobe Illustrator 22.1.0, SVG Export Plug-In . SVG Version: 6.00 Build 0)  -->
<svg version="1.1" id="Layer_1" xmlns="http://www.w3.org/2000/svg" xmlns:xlink="http://www.w3.org/1999/xlink" x="0px" y="0px"
	 viewBox="0 0 60 67" style="enable-background:new 0 0 60 67;" xml:space="preserve">
<style type="text/css">
	.st0{fill:#FFFFFF;}
</style>
<g>
	<path class="st0" d="M54.8,12.8c-0.3-0.3-0.7-0.4-1.1-0.2c-0.3,0.1-6.7,2.5-8.9,7.4c-1-0.5-2.1-1-3.2-1.4c0.8-1.7,1.3-3.7,1.3-5.6
		C42.9,5.8,37.1,0,30,0c-7.1,0-12.9,5.8-12.9,12.9c0,2,0.4,3.9,1.3,5.6c-1.1,0.4-2.1,0.9-3.2,1.4c-2.2-4.8-8.6-7.2-8.9-7.4
		c-0.4-0.1-0.8,0-1.1,0.2c-0.3,0.3-7.8,7.6-4.4,14.6c0.8,1.7,1.7,3,2.7,4.1c-1,2.4-1.6,4.9-1.6,7.5c0,5.7,2.6,10.9,7,14.8
		c-0.6,3.2-0.6,7.9,2.3,12.6c0.2,0.3,0.5,0.5,0.9,0.5l7.6,0.1h0c0.3,0,0.6-0.1,0.8-0.3c0.1-0.1,1.8-2.2,2.5-5.9
		c2.3,0.5,4.6,0.7,7.1,0.7c2.5,0,4.8-0.3,7.1-0.7c0.7,3.8,2.4,5.8,2.5,5.9c0.2,0.2,0.5,0.3,0.8,0.3h0l7.6-0.1c0.3,0,0.7-0.2,0.9-0.5
		c2.9-4.7,2.9-9.4,2.3-12.6c4.3-4,7-9.1,7-14.8c0-2.6-0.6-5.2-1.6-7.5c1-1.1,1.8-2.4,2.7-4.1C62.5,20.4,55.1,13.1,54.8,12.8z
		 M19.1,12.9C19.1,6.9,24,2,30,2c6,0,10.9,4.9,10.9,10.9c0,1.7-0.4,3.4-1.2,5c-1.8-0.5-3.6-0.9-5.5-1.1c0.1-0.3,0.1-0.6,0.1-0.9
		c0-2.4-1.7-4-4.3-4c-1.5,0-2.2-0.6-2.2-1.9c0-1.1,1-1.9,2.2-1.9c0.9,0,1.8,0.5,2.1,1.3c0.2,0.5,0.8,0.8,1.3,0.5
		C33.9,9.6,34.2,9,34,8.5c-0.5-1.2-1.6-2.1-2.9-2.4V5.4c0-0.6-0.5-1-1-1c-0.6,0-1,0.5-1,1v0.7c-1.9,0.4-3.2,2-3.2,3.8
		c0,1.9,1.1,4,4.3,4c1.5,0,2.2,0.6,2.2,1.9c0,0.2-0.1,0.5-0.2,0.7c-0.7,0-1.4-0.1-2.1-0.1c-3.4,0-6.6,0.5-9.7,1.4
		C19.5,16.4,19.1,14.7,19.1,12.9z M2.7,26.5c-2.3-4.8,2-10.2,3.5-11.8c1.6,0.7,5.8,2.8,7.2,6.2c-3.8,2.2-6.9,5.2-8.9,8.7
		C3.9,28.8,3.3,27.8,2.7,26.5z M19.1,65l-6.5-0.1c-1.9-3.4-2.2-6.9-1.9-9.5c2.9,2.2,6.3,3.9,10.2,4.9C20.5,62.7,19.6,64.3,19.1,65z
		 M47.4,64.9L40.9,65c-0.5-0.7-1.4-2.2-1.8-4.7c3.8-1.1,7.3-2.8,10.2-4.9C49.6,58,49.3,61.4,47.4,64.9z M30,59.5
		C15.6,59.5,4,50.3,4,39c0-11.3,11.7-20.5,26-20.5c14.4,0,26,9.2,26,20.5C56,50.3,44.4,59.5,30,59.5z M57.3,26.5
		c-0.6,1.3-1.2,2.2-1.8,3c-2-3.5-5.1-6.4-8.9-8.7c1.5-3.3,5.7-5.5,7.2-6.2C55.3,16.3,59.6,21.7,57.3,26.5z"/>
	<path class="st0" d="M30,39.1c-5.3,0-9.7,3.4-9.7,7.5c0,4.1,4.3,7.5,9.7,7.5c5.3,0,9.7-3.4,9.7-7.5C39.7,42.4,35.3,39.1,30,39.1z
		 M30,52.1c-4.2,0-7.6-2.5-7.6-5.5c0-3,3.4-5.5,7.6-5.5c4.2,0,7.6,2.5,7.6,5.5C37.6,49.6,34.2,52.1,30,52.1z"/>
	<path class="st0" d="M27.3,45.5c-0.6,0-1.1,0.5-1.1,1.1c0,0.6,0.5,1.1,1.1,1.1c0.6,0,1.1-0.5,1.1-1.1C28.4,46,27.9,45.5,27.3,45.5z
		"/>
	<path class="st0" d="M32.7,45.5c-0.6,0-1.1,0.5-1.1,1.1c0,0.6,0.5,1.1,1.1,1.1c0.6,0,1.1-0.5,1.1-1.1C33.8,46,33.3,45.5,32.7,45.5z
		"/>
	<path class="st0" d="M25.9,30.7c0-3.2-2.2-5.3-5.6-5.3c-3.4,0-5.6,2.1-5.6,5.3c0,3.5,2.5,6.4,5.6,6.4
		C23.4,37.1,25.9,34.3,25.9,30.7z M20.3,35.1c-2,0-3.6-2-3.6-4.4c0-2.9,2.2-3.3,3.6-3.3s3.6,0.4,3.6,3.3
		C23.8,33.1,22.2,35.1,20.3,35.1z"/>
	<path class="st0" d="M21.3,29.6c-0.6,0-1.1,0.5-1.1,1.1c0,0.6,0.5,1.1,1.1,1.1c0.6,0,1.1-0.5,1.1-1.1
		C22.4,30.1,21.9,29.6,21.3,29.6z"/>
	<path class="st0" d="M39.7,25.4c-3.4,0-5.6,2.1-5.6,5.3c0,3.5,2.5,6.4,5.6,6.4c3.1,0,5.6-2.9,5.6-6.4
		C45.4,27.5,43.2,25.4,39.7,25.4z M39.7,35.1c-2,0-3.6-2-3.6-4.4c0-2.9,2.2-3.3,3.6-3.3c1.3,0,3.6,0.4,3.6,3.3
		C43.3,33.1,41.7,35.1,39.7,35.1z"/>
	<path class="st0" d="M40.8,29.6c-0.6,0-1.1,0.5-1.1,1.1c0,0.6,0.5,1.1,1.1,1.1c0.6,0,1.1-0.5,1.1-1.1
		C41.9,30.1,41.4,29.6,40.8,29.6z"/>
</g>
</svg>
