<?xml version="1.0" encoding="utf-8"?>
<!-- Generator: Adobe Illustrator 22.1.0, SVG Export Plug-In . SVG Version: 6.00 Build 0)  -->
<svg version="1.1" id="Layer_1" xmlns="http://www.w3.org/2000/svg" xmlns:xlink="http://www.w3.org/1999/xlink" x="0px" y="0px"
	 viewBox="0 0 65 64.9" style="enable-background:new 0 0 65 64.9;" xml:space="preserve">
<style type="text/css">
	.st0{fill:#FFFFFF;}
</style>
<g>
	<path class="st0" d="M1,56c-0.5,0-1,0.4-1,1v7c0,0.5,0.4,1,1,1s1-0.4,1-1v-7C2,56.4,1.5,56,1,56z"/>
	<path class="st0" d="M10,48.1c-0.5,0-1,0.4-1,1V64c0,0.5,0.4,1,1,1c0.5,0,1-0.4,1-1V49.1C11,48.6,10.5,48.1,10,48.1z"/>
	<path class="st0" d="M19,40.3c-0.5,0-1,0.4-1,1V64c0,0.5,0.4,1,1,1c0.5,0,1-0.4,1-1V41.2C20,40.7,19.5,40.3,19,40.3z"/>
	<path class="st0" d="M28,34.4c-0.5,0-1,0.4-1,1V64c0,0.5,0.4,1,1,1c0.5,0,1-0.4,1-1V35.3C29,34.8,28.5,34.4,28,34.4z"/>
	<path class="st0" d="M37,34.4c-0.5,0-1,0.4-1,1V64c0,0.5,0.4,1,1,1c0.5,0,1-0.4,1-1V35.3C38,34.8,37.5,34.4,37,34.4z"/>
	<path class="st0" d="M45,35.3v8c0,0.5,0.4,1,1,1c0.5,0,1-0.4,1-1v-8c0-0.5-0.4-1-1-1C45.4,34.4,45,34.8,45,35.3z"/>
	<path class="st0" d="M54,26.5v13.9c0,0.5,0.4,1,1,1c0.5,0,1-0.4,1-1V26.5c0-0.5-0.4-1-1-1C54.4,25.5,54,25.9,54,26.5z"/>
	<path class="st0" d="M63,26.5v15.8c0,0.5,0.4,1,1,1c0.5,0,1-0.4,1-1V26.5c0-0.5-0.4-1-1-1C63.4,25.5,63,25.9,63,26.5z"/>
	<path class="st0" d="M58.4,14.2l4.9,4.9c0.3,0.3,0.7,0.4,1.1,0.2c0.4-0.2,0.6-0.5,0.6-0.9V1c0-0.5-0.4-1-1-1H46.5
		c-0.4,0-0.8,0.2-0.9,0.6c-0.2,0.4-0.1,0.8,0.2,1.1l4.9,4.9L39.3,18H20.4c-1.4,0-2.8,0.6-3.8,1.6L0.3,35.8C0.1,36,0,36.3,0,36.5
		v12.5c0,0.4,0.2,0.8,0.6,0.9C0.7,50,0.9,50,1,50c0.3,0,0.5-0.1,0.7-0.3l21-21h18.9c1.4,0,2.8-0.6,3.8-1.6L58.4,14.2z M41.6,26.8
		H22.3c-0.3,0-0.5,0.1-0.7,0.3L2,46.7v-9.7l16-16c0.7-0.7,1.5-1,2.4-1h19.3c0.3,0,0.5-0.1,0.7-0.3L52.8,7.3c0.2-0.2,0.3-0.4,0.3-0.7
		c0-0.3-0.1-0.5-0.3-0.7L48.9,2H63v14.1l-3.9-3.9c-0.4-0.4-1-0.4-1.4,0L44,25.8C43.4,26.5,42.5,26.8,41.6,26.8z"/>
	<path class="st0" d="M55.1,55.6c-1.5,0-2.2-0.6-2.2-1.9c0-1.1,1-1.9,2.2-1.9c0.9,0,1.8,0.5,2.1,1.3c0.2,0.5,0.8,0.7,1.3,0.5
		c0.5-0.2,0.7-0.8,0.5-1.3c-0.5-1.2-1.6-2.1-2.9-2.3v-0.7c0-0.5-0.4-1-1-1c-0.5,0-1,0.4-1,1v0.7c-1.8,0.4-3.2,1.9-3.2,3.8
		c0,1.9,1.1,3.9,4.2,3.9c1.5,0,2.2,0.6,2.2,1.9c0,1.1-1,1.9-2.2,1.9c-0.9,0-1.8-0.5-2.1-1.3c-0.2-0.5-0.8-0.7-1.3-0.5
		c-0.5,0.2-0.7,0.8-0.5,1.3c0.5,1.2,1.6,2.1,2.9,2.3V64c0,0.5,0.4,1,1,1c0.5,0,1-0.4,1-1v-0.7c1.8-0.4,3.2-1.9,3.2-3.8
		C59.3,57.1,57.6,55.6,55.1,55.6z"/>
	<path class="st0" d="M64.8,49c-2.3-3-5.9-4.7-9.7-4.7c-6.8,0-12.3,5.5-12.3,12.3c0,3,1.1,5.8,3,8c0.2,0.2,0.5,0.3,0.7,0.3
		c0.2,0,0.5-0.1,0.6-0.2c0.4-0.4,0.5-1,0.1-1.4c-1.6-1.9-2.5-4.3-2.5-6.7c0-5.7,4.6-10.3,10.3-10.3c3.2,0,6.2,1.5,8.2,4
		c0.3,0.4,1,0.5,1.4,0.2C65,50,65.1,49.4,64.8,49z"/>
</g>
</svg>
