<?xml version="1.0" encoding="utf-8"?>
<!-- Generator: Adobe Illustrator 22.1.0, SVG Export Plug-In . SVG Version: 6.00 Build 0)  -->
<svg version="1.1" id="Layer_1" xmlns="http://www.w3.org/2000/svg" xmlns:xlink="http://www.w3.org/1999/xlink" x="0px" y="0px"
	 viewBox="0 0 62.7 65" style="enable-background:new 0 0 62.7 65;" xml:space="preserve">
<style type="text/css">
	.st0{fill:#FFFFFF;}
</style>
<g>
	<path class="st0" d="M57.5,12.1c-0.3-0.4-0.9-0.5-1.3-0.2c-0.4,0.3-0.5,0.9-0.2,1.3c2.9,3.8,4.6,8.4,4.8,13.1L48,23
		c0.5-3.4,0.7-6.8,0.6-10.2c-0.1-2-0.3-4-0.5-5.9c1.8,0.9,3.5,2,5,3.4c0.4,0.3,1,0.3,1.3-0.1c0.3-0.4,0.3-1-0.1-1.3
		c-2.5-2.2-5.4-3.9-8.5-4.9l0.9-2.6c0.2-0.5-0.1-1-0.6-1.2c-0.5-0.2-1,0.1-1.2,0.6l-1,2.7c-10.8-2.7-22.1,2.2-27.5,12
		c-0.1,0.1-0.1,0.3-0.1,0.5l0.3,5c0.1,0.9,0.7,1.7,1.6,2l9.4,2.5c0.9,0.2,1.9-0.1,2.4-0.9l1.2-1.8l0.1,2.2c0.1,0.9,0.7,1.7,1.6,2
		l3.8,1l-5.3,19.9l-8.9,0h0c-0.5,0-1,0.4-1,0.9c0,0.5,0.4,1,0.9,1l18.6,0.1h0c0.9,0,1.8-0.4,2.5-1l6.7-6.8c1.4-1.4,3.5-1.9,5.4-1.3
		l2,0.7L45.2,53.9c-0.5,0.5-1.3,0.8-2,0.8H6.4c-0.1-1.4,0.3-2.9,1.3-3.9c0.9-0.9,2-1.3,3.2-1.3h0l7.3,0h0c0.5,0,0.9-0.4,1-0.9
		c0-0.5-0.4-1-0.9-1l-7.3,0c-1.7,0-3.4,0.7-4.6,1.9c-1.5,1.5-1.9,3.7-1.9,5.8c0,0.7,0.6,1.3,1.3,1.3h2.3l-2,4.3
		c-0.3,0.7-0.3,1.5-0.1,2.1H1c-0.5,0-1,0.4-1,1c0,0.5,0.4,1,1,1h58.6c0.5,0,1-0.4,1-1c0-0.5-0.4-1-1-1h-8.9c0.2-0.7,0.2-1.4-0.1-2.1
		l-3-6.6L60,41.8c0.7-0.7,0.4-1.9-0.5-2.2l-2.9-1c-2.6-0.9-5.4-0.2-7.3,1.8l-6.7,6.8c-0.3,0.3-0.7,0.5-1.1,0.5h0l-7.8,0l5.2-19.4
		l3.8,1c0.9,0.2,1.9-0.1,2.4-0.9l1.2-1.8l0.1,2.2c0.1,0.9,0.7,1.7,1.6,2l9.4,2.5c0.9,0.2,1.9-0.1,2.4-0.9l2.8-4.1
		c0.1-0.1,0.2-0.3,0.2-0.5C62.8,22.1,61,16.6,57.5,12.1L57.5,12.1z M8.7,63.1c-0.1,0-0.3,0-0.4-0.1c-0.5-0.2-0.7-0.8-0.5-1.3
		l2.3-5.1h2.1l-2.7,5.9C9.4,62.9,9.1,63.1,8.7,63.1L8.7,63.1z M27.5,63.1H11.4l2.9-6.5h14.8L27.5,63.1z M29.4,63.1l1.7-6.5h11.1
		l2.9,6.5H29.4z M48.8,61.7c0.2,0.5,0,1-0.5,1.3c-0.1,0.1-0.3,0.1-0.4,0.1c-0.4,0-0.7-0.2-0.9-0.6l-2.7-6c0.6-0.1,1.2-0.4,1.7-0.8
		L48.8,61.7z M28.6,23.3c-0.1,0.1-0.2,0.2-0.3,0.1l-9.4-2.5c-0.1,0-0.2-0.1-0.2-0.3L18.3,17l12.3,3.3L28.6,23.3z M31.5,18.6
		l-12.8-3.4C23.4,7.9,31.7,3.8,40.1,4.6c-1.5,1.6-2.8,3.3-4.1,5.2C34.2,12.5,32.7,15.5,31.5,18.6L31.5,18.6z M43.4,27.3
		c-0.1,0.1-0.2,0.2-0.3,0.1l-9.4-2.5c-0.1,0-0.2-0.1-0.2-0.3L33.2,21l12.3,3.3L43.4,27.3z M46.2,22.5l-12.8-3.4
		c1.1-2.9,2.5-5.7,4.2-8.3c1.4-2.1,3-4.1,4.8-5.9c1.2,0.2,2.5,0.6,3.6,1c0.4,2.3,0.6,4.6,0.7,6.9C46.9,16.1,46.7,19.3,46.2,22.5
		L46.2,22.5z M58.2,31.3c-0.1,0.1-0.2,0.2-0.3,0.1l-9.4-2.5c-0.1,0-0.2-0.1-0.2-0.3L48,25l12.3,3.3L58.2,31.3z"/>
</g>
</svg>
