<?xml version="1.0" encoding="utf-8"?>
<!-- Generator: Adobe Illustrator 22.1.0, SVG Export Plug-In . SVG Version: 6.00 Build 0)  -->
<svg version="1.1" id="Layer_1" xmlns="http://www.w3.org/2000/svg" xmlns:xlink="http://www.w3.org/1999/xlink" x="0px" y="0px"
	 viewBox="0 0 66.3 70" style="enable-background:new 0 0 66.3 70;" xml:space="preserve">
<style type="text/css">
	.st0{fill:#FFFFFF;}
</style>
<g>
	<path class="st0" d="M11.6,21.2c-0.6-1-1.4-1.9-2.3-2.8c-1.9-1.9-2.4-4.1-1.4-6.6c2.1-5.2,9.6-9.6,13.4-9.7c0.5,0,1.1,0,1.5,0
		c0.5,0,0.7,0.5,0.7,0.6c0,0.1,0.1,0.6-0.3,0.9c-1.5,1.1-3.4,3.1-3.5,7c0,2.5-0.6,7.4-1.7,12.2c-1.7,7.2-3.3,9.1-4,9.5
		c-0.4,0.3-0.6,0.2-0.8,0.2c-0.4-0.1-0.5-0.2-0.2-2.1c0.2-1.2,0.5-2.7,0.3-4.5C13.3,24.4,12.1,22.2,11.6,21.2z M11.3,26.2
		c0.2,1.5,0,2.7-0.2,3.9c-0.3,1.6-0.6,3.7,1.6,4.4c0.2,0.1,0.5,0.1,0.8,0.1c0.5,0,1.1-0.1,1.8-0.6c0.1,0,0.1-0.1,0.2-0.1
		c0.1,1.4,0.7,2.7,1.7,3.7c0,0,0,0,0,0l6.6,6.4c0.1,0.1,0.3,0.3,0.5,0.4c-4.5,1.4-7.3,6-6.4,10.7l1.2,6.7h-1c-0.9,0-1.7,0.2-2.4,0.6
		l0,0c-1.7-0.2-3.1-1.2-4-2.6c-0.9-1.4-1.1-3.2-0.5-4.8c0.8-1.9,0.6-4.1-0.4-5.8c0,0,0,0,0,0l-0.2-0.3c-0.2-0.3-0.6-0.5-1-0.5
		c-2.6,0.3-5,1.6-6.7,3.5c-1.7,1.9-2.7,4.4-2.8,7c0,2.1,0.4,5.1,2.8,7.5c2.4,2.4,6.1,3.6,11,3.6h44.1c0.6,0,1-0.5,1-1v-1.8
		c0-2.9-2.4-5.3-5.3-5.3h-1l1.2-6.7c0.9-4.7-1.9-9.2-6.3-10.7c0.2-0.2,0.4-0.4,0.6-0.6l6.3-6.3c1-1,1.6-2.3,1.7-3.7
		c0.1,0.1,0.2,0.2,0.3,0.2c0.5,0.3,1,0.5,1.6,0.5c0.3,0,0.6,0,0.8-0.1c2.2-0.7,1.9-2.8,1.6-4.4c-0.4-2.5-1-6,3.2-10.2
		c2.5-2.5,3.2-5.6,1.9-8.8l0,0c-1.4-3.6-4.8-6.3-6.7-7.6c-3-2-6.2-3.3-8.6-3.4c-0.6,0-1.2,0-1.7,0c-1.1,0.1-2,0.7-2.5,1.7
		c-6.8-2.4-14.1-2.4-20.9,0c-0.4-1-1.4-1.6-2.5-1.7c-0.5,0-1.1,0-1.7,0c-2.4,0.1-5.6,1.3-8.6,3.4c-1.9,1.3-5.3,4-6.7,7.6
		c-1.3,3.3-0.6,6.3,1.9,8.8c0.8,0.8,1.5,1.6,2,2.5C10.8,23.6,11.3,26.2,11.3,26.2z M12.7,67.2v0.7c-3.8-0.2-6.7-1.2-8.5-3
		c-1.9-1.9-2.2-4.3-2.2-6c0-2.1,0.8-4.1,2.3-5.7c1.3-1.4,2.9-2.4,4.8-2.7c0.6,1.2,0.6,2.6,0.1,3.8c0,0,0,0,0,0
		c-0.8,2.2-0.5,4.6,0.7,6.5c0.9,1.5,2.3,2.6,3.9,3.2C13.1,64.9,12.7,66,12.7,67.2z M33.2,68c0.3-0.6,0.5-1.3,0.5-2V55.5
		c0-1.1,0.9-2,2-2s2,0.9,2,2v10.4c0,0.7,0.2,1.4,0.5,2H33.2z M43.9,68h-2c-1.1,0-2-0.9-2-2V55.5c0-2.2-1.8-4.1-4.1-4.1
		s-4.1,1.8-4.1,4.1v10.4c0,1.1-0.9,2-2,2h-2V54.5c0-0.6-0.5-1-1-1s-1,0.5-1,1V68H14.7v-0.7c0-1.8,1.5-3.3,3.3-3.3h2.2
		c0.3,0,0.6-0.1,0.8-0.4c0.2-0.2,0.3-0.5,0.2-0.8l-1.5-7.9c-0.7-3.9,1.7-7.6,5.5-8.5l0.4,0v3.5c0,0.6,0.5,1,1,1s1-0.5,1-1v-2.9
		c2.5,1.3,5.3,2,8.2,2c2.8,0,5.6-0.7,8-1.9L43.9,68z M51.8,54.8l-1.5,7.9c-0.1,0.3,0,0.6,0.2,0.8c0.2,0.2,0.5,0.4,0.8,0.4h2.2
		c1.8,0,3.3,1.5,3.3,3.3V68H45.9V46.2l0.4,0C50.1,47.2,52.5,50.9,51.8,54.8z M50.2,15.5c0.5,3.8,1.3,7.8,2.2,10.9
		c0.6,1.9,1.2,3.5,1.8,4.7v2.3c0,1-0.4,2-1.1,2.7l-6.3,6.3c-2.9,2.9-6.7,4.5-10.8,4.5c-4,0-7.8-1.5-10.7-4.3l-6.6-6.4
		c-0.7-0.7-1.1-1.7-1.1-2.7v-2.3c0.9-1.9,1.8-4.5,2.6-7.9c1.1-4.9,1.7-10,1.8-12.6c0-1.9,0.6-3.4,1.6-4.5c0.2,1.4,1,2.9,2.7,3.8
		c1.5,0.9,2.9,0.6,4.1,0.4c1.1-0.2,2-0.4,3,0.3c2.1,1.3,2.1,7,1.7,10.8c-1,0.1-1.9,0.3-2.9,0.6c-0.3,0.1-0.6,0.4-0.7,0.7
		c-0.1,0.3,0,0.7,0.3,1l3.2,3.2v5c0,0.9-0.8,1.7-1.7,1.7h-2.7c-0.9,0-1.7-0.8-1.7-1.7c0-0.6-0.5-1-1-1s-1,0.5-1,1
		c0,2.1,1.7,3.8,3.8,3.8H32v0.4c0,2.1,1.7,3.8,3.8,3.8s3.8-1.7,3.8-3.8v-0.4h1.7c2.1,0,3.8-1.7,3.8-3.8c0-0.6-0.5-1-1-1
		c-0.6,0-1,0.5-1,1c0,0.9-0.8,1.7-1.7,1.7h-2.7c-0.9,0-1.7-0.8-1.7-1.7v-5l3.2-3.2c0.3-0.3,0.4-0.6,0.3-1c-0.1-0.3-0.3-0.6-0.7-0.7
		c-0.9-0.3-1.8-0.5-2.8-0.6c0.3-3,0.8-10.4-2.6-12.5c-1.7-1-3.2-0.8-4.4-0.5c-1,0.2-1.9,0.3-2.8-0.2c-1.1-0.6-1.7-1.5-1.7-2.8
		c0-0.6,0-1.1,0.1-1.4c0,0,0,0,0-0.1c6.7-2.5,14-2.5,20.7,0c0.2,0.6,0.6,1,1.1,1.4c1.7,1.1,2.5,3,2.6,5.4
		C49.7,12.5,50,14.4,50.2,15.5z M51.8,10.7c-0.1-3.9-1.9-6-3.5-7c-0.4-0.3-0.3-0.8-0.3-0.9c0-0.1,0.2-0.6,0.7-0.6c0.5,0,1,0,1.5,0
		c3.8,0.1,11.3,4.5,13.4,9.7c1,2.5,0.5,4.7-1.4,6.6l0,0c-5,5-4.3,9.4-3.8,12c0.3,1.9,0.2,2-0.2,2.1c-0.2,0.1-0.4,0.1-0.7-0.1
		c-1.5-1-2.8-4.9-3.3-6.6c-0.9-3-1.6-6.9-2.1-10.6C52.2,15.3,52,13,51.8,10.7z M35.8,25.1l-1.5-1.5c1-0.1,2-0.1,3,0L35.8,25.1z
		 M37.5,35.7v0.5c0,0.9-0.8,1.7-1.7,1.7s-1.7-0.8-1.7-1.7v-0.5c0.7-0.2,1.3-0.6,1.7-1C36.2,35.1,36.8,35.5,37.5,35.7z"/>
	<circle class="st0" cx="31.6" cy="30.6" r="1"/>
	<circle class="st0" cx="40" cy="30.6" r="1"/>
	<circle class="st0" cx="43.2" cy="17.3" r="2.3"/>
	<circle class="st0" cx="28.3" cy="17.3" r="2.3"/>
</g>
</svg>
