<?xml version="1.0" encoding="utf-8"?>
<!-- Generator: Adobe Illustrator 22.1.0, SVG Export Plug-In . SVG Version: 6.00 Build 0)  -->
<svg version="1.1" id="Layer_1" xmlns="http://www.w3.org/2000/svg" xmlns:xlink="http://www.w3.org/1999/xlink" x="0px" y="0px"
	 viewBox="0 0 71 71" style="enable-background:new 0 0 71 71;" xml:space="preserve">
<style type="text/css">
	.st0{fill:#FFFFFF;}
</style>
<g>
	<g>
		<rect x="5.9" y="50.3" class="st0" width="3" height="3"/>
	</g>
	<g>
		<g>
			<g>
				<g>
					<path class="st0" d="M35.5,32.5c-7.3,0-13.3-6-13.3-13.3v-5.9C22.2,6,28.2,0,35.5,0s13.3,6,13.3,13.3v5.9
						C48.8,26.6,42.8,32.5,35.5,32.5z M35.5,3c-5.7,0-10.4,4.6-10.4,10.4v5.9c0,5.7,4.6,10.4,10.4,10.4s10.4-4.6,10.4-10.4v-5.9
						C45.9,7.6,41.2,3,35.5,3z"/>
				</g>
				<g>
					<path class="st0" d="M48.1,16.1l-1.5-2.5l6.2-3.7l-2.5-4.7c-1.7-1.6-4.4-1.5-6.1,0.1l-0.3,0.3l-2.1-2.1l0.3-0.3
						c2.9-2.9,7.6-2.9,10.5,0c0.1,0.1,0.2,0.2,0.3,0.4L56,9.7c0.4,0.7,0.1,1.5-0.6,2L48.1,16.1z"/>
				</g>
				<g>
					<path class="st0" d="M22.9,16.1l-7.4-4.4c-0.7-0.4-0.9-1.3-0.6-2l3.2-6.2c0.1-0.1,0.2-0.3,0.3-0.4c2.9-2.9,7.6-2.9,10.5,0
						l0.3,0.3l-2.1,2.1l-0.3-0.3c-1.7-1.7-4.4-1.7-6.1-0.1l-2.5,4.7l6.2,3.7L22.9,16.1z"/>
				</g>
				<g>
					<path class="st0" d="M31.1,26.6c-3.3,0-5.9-2.7-5.9-5.9s2.7-5.9,5.9-5.9s5.9,2.7,5.9,5.9S34.3,26.6,31.1,26.6z M31.1,17.8
						c-1.6,0-3,1.3-3,3s1.3,3,3,3s3-1.3,3-3S32.7,17.8,31.1,17.8z"/>
				</g>
				<g>
					<path class="st0" d="M39.9,26.6c-3.3,0-5.9-2.7-5.9-5.9s2.7-5.9,5.9-5.9s5.9,2.7,5.9,5.9S43.2,26.6,39.9,26.6z M39.9,17.8
						c-1.6,0-3,1.3-3,3s1.3,3,3,3s3-1.3,3-3S41.6,17.8,39.9,17.8z"/>
				</g>
				<g>
					<circle class="st0" cx="35.5" cy="17.8" r="3"/>
				</g>
				<g>
					<rect x="29.6" y="10.4" class="st0" width="3" height="3"/>
				</g>
				<g>
					<rect x="38.5" y="10.4" class="st0" width="3" height="3"/>
				</g>
			</g>
			<g>
				<g>
					<path class="st0" d="M44.4,59.2H31.1v-3h13.3c0.8,0,1.5-0.7,1.5-1.5c0-0.8-0.7-1.5-1.5-1.5H34c-0.8,0-1.5-0.7-1.5-1.5v-1.5
						c0-0.8-0.7-1.5-1.5-1.5H18.4l-4,4l-2.1-2.1l4.4-4.4c0.3-0.3,0.7-0.4,1-0.4h13.3c2.4,0,4.4,2,4.4,4.4h8.9c2.4,0,4.4,2,4.4,4.4
						C48.8,57.2,46.8,59.2,44.4,59.2z"/>
				</g>
				<g>
					<path class="st0" d="M39.9,71c-0.1,0-0.1,0-0.2,0l-26.6-3l0.3-2.9L39.8,68l27-8c0.7-0.3,1.3-1,1.3-1.8c0-1.1-0.9-2-2-2H47.3v-3
						h18.7c2.7,0,4.9,2.2,4.9,4.9c0,2.1-1.3,4-3.3,4.7l-27.3,8.1C40.2,71,40.1,71,39.9,71z"/>
				</g>
				<g>
					<path class="st0" d="M10.4,71H1.5C0.7,71,0,70.3,0,69.5V45.9c0-0.8,0.7-1.5,1.5-1.5h8.9c2.4,0,4.4,2,4.4,4.4v17.8
						C14.8,69,12.8,71,10.4,71z M3,68h7.4c0.8,0,1.5-0.7,1.5-1.5V48.8c0-0.8-0.7-1.5-1.5-1.5H3V68z"/>
				</g>
			</g>
			<g>
				
					<rect x="12.5" y="35.5" transform="matrix(0.3012 -0.9535 0.9535 0.3012 -18.9417 48.1097)" class="st0" width="21.7" height="3"/>
			</g>
			<g>
				
					<rect x="47.3" y="25.9" transform="matrix(0.9536 -0.3011 0.3011 0.9536 -9.9834 16.5871)" class="st0" width="3" height="29.5"/>
			</g>
			<g>
				<rect x="26.6" y="39.9" class="st0" width="3" height="7.4"/>
			</g>
			<g>
				<rect x="41.4" y="39.9" class="st0" width="3" height="11.8"/>
			</g>
		</g>
		<g>
			<path class="st0" d="M35.5,38.5c-4.5,0-8.9-1.7-12.2-4.8l2-2.2c2.8,2.6,6.4,4,10.1,4c3.8,0,7.4-1.4,10.2-4l2,2.2
				C44.4,36.7,40,38.5,35.5,38.5z"/>
		</g>
	</g>
</g>
</svg>
