<?xml version="1.0" encoding="utf-8"?>
<!-- Generator: Adobe Illustrator 22.1.0, SVG Export Plug-In . SVG Version: 6.00 Build 0)  -->
<svg version="1.1" id="Layer_1" xmlns="http://www.w3.org/2000/svg" xmlns:xlink="http://www.w3.org/1999/xlink" x="0px" y="0px"
	 viewBox="0 0 67.9 67.9" style="enable-background:new 0 0 67.9 67.9;" xml:space="preserve">
<style type="text/css">
	.st0{fill:#FFFFFF;}
</style>
<g>
	<path class="st0" d="M0,60.5c0-2.1,0.7-3.9,2.2-5.4l17.6-17.6c-1.9-3.7-2.9-7.7-2.9-11.9c0-7,2.5-13,7.4-18S35.3,0,42.4,0
		s13.1,2.5,18.1,7.5c4.9,4.9,7.4,10.9,7.4,18c0,7.1-2.5,13.1-7.4,18c-4.9,4.9-10.9,7.3-18.1,7.4c-4.3,0-8.2-1-11.9-2.9L12.8,65.6
		c-1.5,1.5-3.3,2.2-5.4,2.2c-2.1,0-3.8-0.7-5.3-2.2C0.7,64.2,0,62.5,0,60.5z M3.7,60.4c0,1,0.4,1.9,1.1,2.6c0.7,0.8,1.6,1.1,2.7,1.1
		c1,0,1.9-0.4,2.7-1.2l17.1-17.1c-2-1.5-3.8-3.3-5.3-5.3L4.9,57.7C4.1,58.4,3.7,59.3,3.7,60.4z M21.2,25.4c0,5.8,2.1,10.8,6.2,15
		c4.1,4.2,9.1,6.2,15,6.2s10.9-2.1,15-6.2c4.1-4.1,6.2-9.1,6.2-15s-2.1-10.9-6.2-15c-4.1-4.1-9.1-6.1-15-6.2c-5.9,0-10.9,2-15,6.2
		C23.3,14.6,21.2,19.6,21.2,25.4z M27.5,25.4c0-4.1,1.5-7.6,4.4-10.4c2.9-2.9,6.4-4.4,10.4-4.4c0.7,0,1.1,0.4,1.1,1.1
		s-0.4,1.1-1.1,1.1c-3.5,0-6.5,1.2-9,3.7c-2.5,2.4-3.7,5.4-3.7,9c0,0.7-0.4,1.1-1.1,1.1C27.9,26.5,27.5,26.2,27.5,25.4z"/>
</g>
</svg>
