<?xml version="1.0" encoding="utf-8"?>
<!-- Generator: Adobe Illustrator 22.1.0, SVG Export Plug-In . SVG Version: 6.00 Build 0)  -->
<svg version="1.1" id="Layer_1" xmlns="http://www.w3.org/2000/svg" xmlns:xlink="http://www.w3.org/1999/xlink" x="0px" y="0px"
	 viewBox="0 0 90 49.9" style="enable-background:new 0 0 90 49.9;" xml:space="preserve">
<style type="text/css">
	.st0{fill:#FFFFFF;}
</style>
<path class="st0" d="M79.5,2.5L66.4,7.4l0.8,2.4l-8,2.7l0.5,1.4L50,11.7c-1.9-0.4-4-0.7-6.2,0.3l-2.6,1.2c-3.9-0.8-8.2-0.8-10.6-0.7
	l0.6-1.7l-7.8-3.5L24,5.5L10.8,0L0,28.6l13.3,5.3l1.1-2.9l8.1,4l1.1-2.6c0.3,0.3,0.7,0.5,1.1,0.8c-0.3,0.6-0.5,1.4-0.4,2.1
	c0.1,1.1,0.6,2.1,1.5,2.8c0.3,0.3,0.7,0.5,1,0.6c0,0.2,0,0.4,0,0.6c0.1,1.2,0.6,2.3,1.6,3.1c0.9,0.7,1.9,1.1,3,1.1
	c0.2,0.5,0.6,1,1,1.4c0.8,0.8,1.9,1.2,3.1,1.2c0,0,0,0,0,0c0.2,0.5,0.6,0.9,0.9,1.3c1.4,1.3,3.5,1.6,5.2,0.6l0.4,0.4
	c0.9,0.8,2,1.3,3.2,1.3c0.5,0,1-0.1,1.5-0.2c0.8-0.3,1.5-0.8,2.1-1.4c0.3,0.1,0.6,0.1,0.9,0.1c1.5,0.1,3.7-0.4,5.4-2.9
	c0.4,0,0.7-0.1,1.1-0.1c1.8-0.4,3.2-1.6,4-3.1c0,0,0.1,0,0.1,0c1.6-0.3,2.9-1.5,3.5-3.1c0.3-0.7,0.3-1.5,0.2-2.3l3.1-1l0.4,1
	l8.3-3.6l1,2.4L90,30L79.5,2.5z M2.1,27.7l9.6-25.5l10.1,4.2l-0.6,1.6l0,0l-8.1,21.5l-0.8,2.2L2.1,27.7z M22.5,30.8l-0.8,1.9
	L15,29.5l7.8-20.7l6.4,2.9L22.5,30.8z M26,35.2c0-0.3,0-0.6,0.1-0.9l2.5,2.2l-1,0.7c-0.3-0.1-0.5-0.2-0.7-0.4
	C26.4,36.5,26,35.9,26,35.2z M29.5,41.2c-0.6-0.5-0.9-1.2-1-2c0-0.2,0-0.4,0-0.6l1.3-1l3.2,2.8l-1.4,1.4
	C30.9,42,30.1,41.7,29.5,41.2z M33.6,43.8c-0.3-0.2-0.5-0.5-0.6-0.9l1.3-1.3l2.4,2.1l-0.9,0.8C35,44.6,34.2,44.3,33.6,43.8z
	 M37.7,46.3c-0.2-0.2-0.4-0.5-0.5-0.8l0.8-0.7l2.4,2.1C39.4,47.2,38.4,47,37.7,46.3z M62.3,38.6c-0.4,1-1.2,1.7-2.3,2l-9.5-10.4
	l-1.2,1.1l9.4,10.3c-0.6,1.1-1.6,1.8-2.8,2.1c-0.2,0.1-0.5,0.1-0.8,0.1L43.9,32l-1.2,1.1l11,11.6c-1,1.4-2.3,2-3.8,2
	c-0.3,0-0.6-0.1-0.8-0.2l-9.1-10l-1.2,1.1l8.8,9.7c-0.3,0.3-0.7,0.6-1.2,0.7c-1.1,0.4-2.2,0.1-3-0.7L41.8,46l0,0L27,33l0,0l-0.7-0.5
	c-0.8-0.6-1.5-1.2-2.1-1.6L30,14.1c1.8-0.1,5.3-0.2,8.9,0.3l-0.8,0.5L38,15c-2.8,2.3-4.2,6.4-4.7,8.1c-0.2,0.7-0.1,1.4,0.3,1.9
	c0.6,0.9,1.9,1.2,3,0.7c8.2-3.8,12.2-3.9,13.3-3.9l12.3,14.5l0,0l0.1,0.3C62.5,37.2,62.5,37.9,62.3,38.6z M63.3,35.3L63.3,35.3
	l-11.7-14l-0.9-1.1l-0.3-0.1c-0.2,0-4.3-0.7-14.5,4c-0.3,0.1-0.7,0.1-0.9-0.2c-0.1-0.2-0.1-0.3-0.1-0.5c0.4-1.5,1.6-5.2,4.1-7.2
	l2.7-1.6l2.8-1.3c1.8-0.8,3.5-0.5,5.2-0.2l10.6,2.5l6.2,18.4L63.3,35.3z M68.3,34.5l-7-20.9l6.4-2.2l0.2,0.7l0.8-0.3L68,12.1
	l7.3,19.6l-6.9,2.9L68.3,34.5z M77.1,31.9l-7.6-20.3l-1-3.1l10.1-3.8l9.3,24.5l-10.1,4.3L77.1,31.9z"/>
</svg>
