<?xml version="1.0" encoding="utf-8"?>
<!-- Generator: Adobe Illustrator 22.1.0, SVG Export Plug-In . SVG Version: 6.00 Build 0)  -->
<svg version="1.1" id="Layer_1" xmlns="http://www.w3.org/2000/svg" xmlns:xlink="http://www.w3.org/1999/xlink" x="0px" y="0px"
	 viewBox="0 0 91 64.7" style="enable-background:new 0 0 91 64.7;" xml:space="preserve">
<style type="text/css">
	.st0{fill:#FFFFFF;}
	.st1{fill:none;stroke:#FFFFFF;stroke-width:2;stroke-miterlimit:10;}
</style>
<g>
	<path class="st0" d="M26.6,31.8l8.3,1.6l-1.2,6.3L7,34.7c-1.6-0.3-2.4-1.3-2.2-2.7l0.9-4.6c0.1-0.6,0.4-1.1,0.8-1.3
		c0.4-0.3,1-0.3,1.6-0.2c0.1,0,0.1,0,0.2,0c0,0,0,0,0,0c0,0,2,0.4,2,0.4c0.5,0.1,0.9,0.5,1.4,1.3c0.6,0.8,1.2,1.7,2.4,1.9
		c0,0,0,0,0,0l7.7,1.4L26.6,31.8z M31.4,59.4l4.3,0.8c1.8,0.3,3.4-0.3,4.9-1.8L53.2,47l4.2,15.6c0.3,1,1,1.7,2.1,1.9
		c0.5,0.1,1,0.1,1.4-0.1c1-0.3,2.1-1.1,2.1-2.7l-4.1-16.1l0.7-3.8L60,42c0.5,0.3,1.1,0.5,1.7,0.7l3.8,0.7c1.2,0.2,2.4-0.6,2.6-1.8
		l1.2-6.2c0.2-1.2-0.6-2.4-1.8-2.6l-3.8-0.7c-0.6-0.1-1.2-0.1-1.9,0l-0.4,0.1l0.8-4.2c0.1-0.6,0.1-1.1-0.1-1.6l0,0
		c-0.2-1-0.9-1.8-1.8-2.2l-0.1-0.1l-1-4.5l0.2-0.1c0.6-0.3,1-0.8,1.1-1.5l0.3-1.9c0.2-1-0.4-2-1.6-2.4l-5.3-2l0,0l0,0
		c-0.1,0-0.2-0.1-0.3-0.1c-0.4-0.1-0.8,0-1.2,0.2c-0.6,0.3-1,0.9-1.1,1.5l-0.5,2.9c-0.2,1.1,0.5,2.3,1.7,2.5l4.9,0.9l1,4.1l-6-1.1
		c-1.9-0.3-3.1,0.8-3.4,2.2c-0.3,1.4,0.4,3.1,2.3,3.5l4.6,1.1L55,33.9l-0.4-0.4c-0.7-0.8-1.7-1.4-2.9-2c-1.4-0.7-3.1-1.2-4.9-1.6
		c-4.7-0.9-8.9-0.2-11.2,1.9l-0.1,0.1l-8.7-1.6l-4.8-0.9l-7.7-1.4l0,0c-0.5-0.1-0.9-0.6-1.4-1.3c-0.6-0.8-1.2-1.7-2.4-1.9l-1.9-0.4
		l0,0c-0.1,0-0.2,0-0.3-0.1c-1.1-0.2-2.1,0-2.8,0.4c-0.5,0.3-1.2,1-1.5,2.4l-0.9,4.6c-0.4,2.2,1,4.1,3.5,4.6l7.7,1.4l-0.8,2l-0.2,0
		c-2.6-0.4-5.2-0.2-7.4,0.5c-2.5,0.8-4.3,2.4-5.3,4.4c-0.8,1.6-0.9,2.8-0.4,3.6c0.1,0.3,0.3,0.5,0.6,0.6L1,48.9l-0.1,0.2
		c-0.3,0.7-0.5,1.4-0.6,2.1c-1.1,6.1,2.9,12.1,9.1,13.2c5.2,1,10.4-1.8,12.5-6.7l0.1-0.2l5.2,1L31.4,59.4z M27.4,57l-13.1-2.4
		l0.3-0.4c0.2-0.3,0.3-0.5,0.4-0.8l0.7-1.5l18.8,3.5c1.6,0.3,2.4,0.1,3.5-1l10.8-10.2l4.3,0.8L39.5,57.2c0,0,0,0,0,0
		c-1.6,1.7-2.9,1.4-3.4,1.3l-4.3-0.8L27.4,57z M61.1,34.1l0.1-0.1c0.7-0.3,1.4-0.4,2.2-0.3l3.8,0.7c0.3,0.1,0.5,0.4,0.5,0.7
		l-1.2,6.2c-0.1,0.3-0.4,0.5-0.7,0.5L62,41.1c-0.7-0.1-1.4-0.5-1.9-1L60,39.9L61.1,34.1z M58.8,17.9c0,0.3-0.3,0.4-0.6,0.4
		c0,0-5.5-1-5.5-1c-0.3,0-0.4-0.3-0.4-0.6l0.5-2.9c0-0.2,0.2-0.3,0.2-0.3l0.1-0.1l5.4,2.1c0.3,0.1,0.6,0.3,0.5,0.6L58.8,17.9z
		 M2.3,47.6c0,0-0.1,0-0.1,0c-0.3-0.1-0.5-0.2-0.5-0.3c-0.1-0.3,0-1,0.5-2.1c1.5-3,5.7-4.7,10.4-4.1l0.4,0.1L9.7,49L2.3,47.6
		C2.3,47.6,2.3,47.6,2.3,47.6z M16.5,56.8l0.1-0.2l3.7,0.7l-0.2,0.3c-1.9,3.9-6.2,6-10.5,5.2c-5.3-1-8.7-6.1-7.8-11.3
		c0.1-0.7,0.3-1.4,0.6-2l0.1-0.2l3.7,0.7l-0.2,0.4c-0.3,0.6-0.5,1.2-0.7,1.8c-0.6,3.3,1.6,6.5,4.9,7.1
		C12.7,59.8,15.1,58.8,16.5,56.8z M14.9,56.3l-0.4,0.4c-1,0.9-2.4,1.3-3.8,1.1c-2.4-0.5-4-2.8-3.6-5.2c0.1-0.7,0.5-1.4,1-2l0.1-0.1
		l0.9,0.2L8.9,51c-0.8,2.2,0.3,3.9,1.8,4.4c0.1,0,0.2,0.1,0.3,0.1l0,0l0,0c0.1,0,0.1,0.1,0.2,0.1L14.9,56.3z M13.5,52.7L13.5,52.7
		c-0.4,1.1-1.3,1.4-2,1.3c-0.1,0-0.2,0-0.3-0.1c-0.2-0.1-1.4-0.6-0.8-2.3L16.1,38l3.5,0.7L18,42.3c0,0,0,0,0,0L13.5,52.7z
		 M21.5,51.2l-5.2-1l2.8-6.4l0.3,0.3c1.5,1.3,2.5,3.1,2.9,5c0.1,0.6,0.2,1.4,0.1,2l0,0.3L21.5,51.2z M23.5,47.2
		c-0.7-1.8-1.9-3.4-3.5-4.7l-0.2-0.1l1.5-3.3l11.2,2.1l-8.7,6.5L23.5,47.2z M36.9,53.2c-0.7,0.7-0.9,0.8-2.1,0.6l-1.7-0.3l0-0.2
		c0-0.2,0-0.5,0.1-0.7c0.1-0.6,0.5-1.1,1-1.4c0.5-0.4,1.2-0.5,1.8-0.4c0.8,0.2,1.5,0.7,1.8,1.4l0.1,0.2L36.9,53.2z M44.7,45.7
		l-6.8-1.3c-0.4-0.1-0.9,0.2-1,0.7s0.2,0.9,0.7,1l5.6,1.1l-4.2,4l-0.2-0.3c-0.6-0.9-1.5-1.5-2.6-1.7c-1.1-0.2-2.2,0-3.1,0.7
		c-0.8,0.6-1.4,1.4-1.6,2.3c-0.1,0.2-0.1,0.5-0.1,0.7l0,0.3l-7.4-1.4l0-0.3c0.1-0.7,0-1.5,0-2l0-0.2l10.5-7.8l12.3,2.3L44.7,45.7z
		 M53.3,43.3l-18-3.4l1.3-6.8l0.1-0.1c1.8-1.7,5.6-2.4,9.8-1.6c1.6,0.3,3.2,0.8,4.5,1.4c1.2,0.6,3.8,2.1,3.5,4.2L53.3,43.3z
		 M54.5,45.6l3.1-16.5c0.1-0.4-0.2-0.8-0.6-0.9l-5.3-1.3c-0.9-0.2-1.2-1-1.1-1.6c0.1-0.6,0.6-1.1,1.5-0.9l7.2,1.4
		c0.6,0.1,1.1,0.6,1.2,1.2c0,0,0,0.1,0,0.1c0.1,0.2,0.1,0.5,0,0.8l-3.3,17.8c0,0.1,0,0.2,0,0.4l0.9,3.6c0,0,0,0.1,0,0.1l3,11.7
		c0.3,1.1-0.4,1.5-0.8,1.6c-0.2,0.1-0.5,0.1-0.7,0c-0.4-0.1-0.7-0.3-0.8-0.7L54.5,45.6z"/>
	<circle class="st1" cx="79.1" cy="52.7" r="11"/>
	<circle class="st1" cx="79.1" cy="52.7" r="5.1"/>
	<path class="st1" d="M42.7,18c0-1.8-1.1-3.4-2.7-4c1.4-1.4,2.2-3.3,2.2-5.4c0-4.2-3.4-7.6-7.6-7.6S27,4.4,27,8.6
		c0,4.2,3.4,7.6,7.5,7.6c-0.2,0.5-0.4,1.1-0.4,1.8c0,1.8,1.1,3.3,2.7,4c-0.2,0.4-0.3,0.8-0.3,1.2c0,1.4,1.1,2.5,2.5,2.5
		s2.5-1.1,2.5-2.5c0-0.6-0.2-1.2-0.6-1.6C42,20.8,42.7,19.5,42.7,18z"/>
</g>
</svg>
