<?xml version="1.0" encoding="utf-8"?>
<!-- Generator: Adobe Illustrator 22.1.0, SVG Export Plug-In . SVG Version: 6.00 Build 0)  -->
<svg version="1.1" id="Layer_1" xmlns="http://www.w3.org/2000/svg" xmlns:xlink="http://www.w3.org/1999/xlink" x="0px" y="0px"
	 viewBox="0 0 73.2 70.7" style="enable-background:new 0 0 73.2 70.7;" xml:space="preserve">
<style type="text/css">
	.st0{fill:#FFFFFF;}
</style>
<g>
	<path class="st0" d="M41,8.5c0.6,0,1.1-0.5,1.1-1.1V1.1C42.1,0.5,41.6,0,41,0c-0.6,0-1.1,0.5-1.1,1.1v6.3C39.8,8,40.3,8.5,41,8.5z"
		/>
	<path class="st0" d="M48.3,10.3c0.3,0,0.5-0.1,0.8-0.3l4.6-4.3c0.4-0.4,0.5-1.1,0.1-1.6c-0.4-0.4-1.1-0.5-1.6-0.1l-4.6,4.3
		c-0.4,0.4-0.5,1.1-0.1,1.6C47.8,10.2,48,10.3,48.3,10.3z"/>
	<path class="st0" d="M32.8,10c0.2,0.2,0.5,0.3,0.8,0.3c0.3,0,0.6-0.1,0.8-0.4c0.4-0.4,0.4-1.2-0.1-1.6l-4.6-4.3
		c-0.4-0.4-1.1-0.4-1.6,0.1c-0.4,0.4-0.4,1.1,0.1,1.6L32.8,10z"/>
	<path class="st0" d="M69.8,40.9l-8.1-3.5l-4-14.5c-0.7-2.4-2.9-4-5.3-4h-5.6l-1.2-4.3c-0.6-2-2.5-3.5-4.6-3.5c-2.1,0-4,1.4-4.6,3.5
		l-1.2,4.3H4.4c-2.4,0-4.4,2-4.4,4.4v34c0,3.1,2.5,5.5,5.5,5.5h3.5c0.5,4.4,4.3,7.8,8.8,7.8s8.2-3.4,8.8-7.8h14.2c0,0,0,0,0,0
		c0,0,0,0,0,0H47c0.5,4.4,4.3,7.8,8.8,7.8c4.5,0,8.2-3.4,8.8-7.8h3.1c3.1,0,5.5-2.5,5.5-5.5V46C73.2,43.8,71.9,41.8,69.8,40.9z
		 M52.4,21.1c1.5,0,2.8,1,3.2,2.4l3.8,13.6H42v-16H52.4z M17.9,68.5c-3.7,0-6.7-3-6.7-6.7c0-3.7,3-6.7,6.7-6.7c3.7,0,6.7,3,6.7,6.7
		C24.5,65.5,21.5,68.5,17.9,68.5z M39.8,60.7H26.7c-0.5-4.4-4.3-7.8-8.8-7.8s-8.2,3.4-8.8,7.8H5.5c-1.8,0-3.3-1.5-3.3-3.3v-34
		c0-1.2,1-2.2,2.2-2.2h35.3V60.7z M37.5,18.9l1-3.7c0.3-1.1,1.3-1.9,2.5-1.9c1.1,0,2.2,0.8,2.5,1.9l1,3.7H37.5z M55.7,68.5
		c-3.7,0-6.7-3-6.7-6.7c0-3.7,3-6.7,6.7-6.7c3.7,0,6.7,3,6.7,6.7C62.4,65.5,59.4,68.5,55.7,68.5z M71,57.4c0,1.8-1.5,3.3-3.3,3.3
		h-3.1c-0.5-4.4-4.3-7.8-8.8-7.8c-4.5,0-8.2,3.4-8.8,7.8h-5V39.4h18.6l8.3,3.6c1.2,0.5,2,1.7,2,3.1V57.4z"/>
	<path class="st0" d="M50.8,42.1h-4.6c-0.6,0-1.1,0.5-1.1,1.1c0,0.6,0.5,1.1,1.1,1.1h4.6c0.6,0,1.1-0.5,1.1-1.1
		C51.9,42.6,51.4,42.1,50.8,42.1z"/>
	<path class="st0" d="M13.8,42h3.4v3.4c0,1.4,1.2,2.6,2.6,2.6h2.3c1.4,0,2.6-1.2,2.6-2.6V42h3.4c1.4,0,2.6-1.2,2.6-2.6v-2.3
		c0-1.4-1.2-2.6-2.6-2.6h-3.4v-3.4c0-1.4-1.2-2.6-2.6-2.6h-2.3c-1.4,0-2.6,1.2-2.6,2.6v3.4h-3.4c-1.4,0-2.6,1.2-2.6,2.6v2.3
		C11.2,40.8,12.4,42,13.8,42z M13.4,37.1c0-0.2,0.2-0.4,0.4-0.4h4.5c0.6,0,1.1-0.5,1.1-1.1v-4.5c0-0.2,0.2-0.4,0.4-0.4h2.3
		c0.2,0,0.4,0.2,0.4,0.4v4.5c0,0.6,0.5,1.1,1.1,1.1h4.5c0.2,0,0.4,0.2,0.4,0.4v2.3c0,0.2-0.2,0.4-0.4,0.4h-4.5
		c-0.6,0-1.1,0.5-1.1,1.1v4.5c0,0.2-0.2,0.4-0.4,0.4h-2.3c-0.2,0-0.4-0.2-0.4-0.4v-4.5c0-0.6-0.5-1.1-1.1-1.1h-4.5
		c-0.2,0-0.4-0.2-0.4-0.4V37.1z"/>
	<path class="st0" d="M17.9,60.7c-0.6,0-1.1,0.5-1.1,1.1s0.5,1.1,1.1,1.1c0.6,0,1.1-0.5,1.1-1.1S18.5,60.7,17.9,60.7z"/>
	<path class="st0" d="M55.7,60.7c-0.6,0-1.1,0.5-1.1,1.1s0.5,1.1,1.1,1.1c0.6,0,1.1-0.5,1.1-1.1S56.4,60.7,55.7,60.7z"/>
</g>
</svg>
