<?xml version="1.0" encoding="utf-8"?>
<!-- Generator: Adobe Illustrator 22.1.0, SVG Export Plug-In . SVG Version: 6.00 Build 0)  -->
<svg version="1.1" id="Layer_1" xmlns="http://www.w3.org/2000/svg" xmlns:xlink="http://www.w3.org/1999/xlink" x="0px" y="0px"
	 viewBox="0 0 60 60" style="enable-background:new 0 0 60 60;" xml:space="preserve">
<style type="text/css">
	.particle0{fill:#FFFFFF;}
</style>
<g>
	<path class="particle0" d="M54.1,48.1c-2.1-1.1-4.4-2-6.9-2.9c-1.2-0.4-2.2-0.7-3.1-0.9c-1.3-0.4-2.6-0.7-3.8-0.9c-1.2-1.3-2-2.8-2.3-4.6
		c3-2.3,5.2-5.8,6.4-10c0.5,0,1.1-0.2,1.6-0.6c1-0.8,1.7-2.4,1.9-4.2c0.1-1.4-0.1-2.6-0.6-3.6c0.3-1.4,0.5-2.8,0.5-4.3
		C47.6,6.3,40.7,0,30,0C19.3,0,12.4,6.3,12.4,16.1c0,1.4,0.2,2.9,0.4,4.2c-0.5,1-0.7,2.2-0.6,3.7c0.2,1.8,0.9,3.4,1.9,4.2
		c0.5,0.4,1,0.6,1.6,0.6c1.2,4.2,3.5,7.7,6.4,10c-0.4,1.3-1.7,3.5-2.5,4.8C17.4,44,16,44.3,16,44.3c-1,0.2-1.9,0.5-3.1,0.9
		C10.3,46.1,8,47,5.9,48.1C2.3,50,0,53.8,0,57.9v1.2C0,59.6,0.4,60,0.9,60c0.5,0,0.9-0.4,0.9-0.9v-1.2c0-3.4,1.9-6.6,5-8.2
		c2-1,4.2-2,6.6-2.8c1.1-0.4,2.1-0.7,3-0.9c0,0,1.4-0.3,3.6-0.7l9.1,9.6v4.1c0,0.5,0.4,0.9,0.9,0.9c0.5,0,0.9-0.4,0.9-0.9V55
		l9.2-9.8c1.2,0.2,2.3,0.5,3.4,0.8c0.9,0.2,1.9,0.5,3,0.9c2.4,0.8,4.7,1.7,6.6,2.8c3.1,1.6,5,4.7,5,8.2v1.2c0,0.5,0.4,0.9,0.9,0.9
		c0.5,0,0.9-0.4,0.9-0.9v-1.2C60,53.8,57.7,50,54.1,48.1z M30,1.8c9.7,0,15.8,5.5,15.8,14.3c0,0.9-0.1,1.8-0.2,2.7
		c-0.2-0.1-0.3-0.2-0.5-0.2c-0.7-0.2-1.3-0.1-1.8,0c-0.3-0.8-0.7-2.1-1.5-4.4c-0.5-1.5-1.7-2.6-3.4-3.2c-2.5-0.9-5.5-0.4-8.1,1.2
		c-4.7,2.9-11,1.5-11.1,1.5c-0.5-0.1-0.9,0.1-1.1,0.6c-0.8,2.3-1.2,3.6-1.5,4.4c-0.5-0.1-1.1-0.2-1.8,0c-0.2,0-0.3,0.1-0.4,0.2
		c-0.1-0.9-0.2-1.7-0.2-2.6C14.2,7.3,20.3,1.8,30,1.8z M17.2,27.5c-0.1-0.3-0.2-0.5-0.5-0.6c-0.1-0.1-0.3-0.1-0.4-0.1
		c-0.1,0-0.3,0-0.4,0.1c-0.1,0-0.1,0-0.2,0c-0.2,0-0.3-0.1-0.5-0.2c-0.5-0.4-1.1-1.4-1.2-3c-0.2-1.9,0.5-3.3,1.3-3.5
		c0.6-0.2,1.1,0.1,1.3,0.2c0.1,0.1,0.2,0.1,0.3,0.1c0.3,0.1,0.6,0,0.8-0.1c0.2-0.2,0.3-0.4,0.4-0.6c0.1-0.4,0.8-2.4,1.5-4.4
		c2,0.3,7.3,0.9,11.7-1.8c2.1-1.3,4.6-1.7,6.5-1c1.2,0.4,2,1.2,2.3,2.1c0,0,0,0,0,0c0.8,2.2,1.6,4.7,1.7,5.1c0,0.3,0.2,0.5,0.4,0.6
		c0.2,0.2,0.5,0.2,0.8,0.1c0.1,0,0.2-0.1,0.3-0.1c0.3-0.1,0.7-0.4,1.3-0.2c0.8,0.2,1.5,1.6,1.3,3.5c-0.1,1.6-0.7,2.6-1.2,3
		c-0.2,0.2-0.4,0.2-0.5,0.2c-0.1,0-0.1,0-0.2,0c-0.2-0.1-0.5-0.1-0.8,0c-0.2,0.1-0.4,0.3-0.5,0.6c-1.1,4.3-3.3,7.9-6.3,10.1
		c-4,2.9-9,2.9-13,0C20.5,35.4,18.3,31.8,17.2,27.5z M30,53.3l-8.6-9.1c0.6-1,1.7-2.8,2.3-4.3c2,1.2,4.2,1.8,6.4,1.8
		c2.2,0,4.3-0.6,6.3-1.8c0.4,1.6,1.2,3.1,2.3,4.4L30,53.3z"/>
	<path class="particle0" d="M18.7,54.5H16v-2.7c0-0.5-0.4-0.9-0.9-0.9c-0.5,0-0.9,0.4-0.9,0.9v2.7h-2.7c-0.5,0-0.9,0.4-0.9,0.9
		c0,0.5,0.4,0.9,0.9,0.9h2.7v2.7c0,0.5,0.4,0.9,0.9,0.9c0.5,0,0.9-0.4,0.9-0.9v-2.7h2.7c0.5,0,0.9-0.4,0.9-0.9
		C19.6,54.9,19.2,54.5,18.7,54.5z"/>
	<path class="particle0" d="M49.7,53.6H38.8c-0.5,0-0.9,0.4-0.9,0.9v4.5c0,0.5,0.4,0.9,0.9,0.9h10.9c0.5,0,0.9-0.4,0.9-0.9v-4.5
		C50.7,54,50.2,53.6,49.7,53.6z M48.8,58.2h-9.1v-2.7h9.1V58.2z"/>
</g>
</svg>
