<?xml version="1.0" encoding="utf-8"?>
<!-- Generator: Adobe Illustrator 22.1.0, SVG Export Plug-In . SVG Version: 6.00 Build 0)  -->
<svg version="1.1" id="Layer_1" xmlns="http://www.w3.org/2000/svg" xmlns:xlink="http://www.w3.org/1999/xlink" x="0px" y="0px"
	 viewBox="0 0 60 72.3" style="enable-background:new 0 0 60 72.3;" xml:space="preserve">
<style type="text/css">
	.particle0{fill:#FFFFFF;}
</style>
<g>
	<path class="particle0" d="M59.1,70.5h-1.8V25.9c0-0.5-0.4-0.9-0.9-0.9H39.7c-0.5,0-0.9,0.4-0.9,0.9c0,0.5,0.4,0.9,0.9,0.9h15.8v43.6
		H39.7v-4h13c0.5,0,0.9-0.4,0.9-0.9c0-0.5-0.4-0.9-0.9-0.9h-13V53.3h7V62c0,0.5,0.4,0.9,0.9,0.9c0.5,0,0.9-0.4,0.9-0.9v-8.7h4.2
		c0.5,0,0.9-0.4,0.9-0.9c0-0.5-0.4-0.9-0.9-0.9h-4.2V40.1h4.2c0.5,0,0.9-0.4,0.9-0.9c0-0.5-0.4-0.9-0.9-0.9h-4.2v-8.7
		c0-0.5-0.4-0.9-0.9-0.9c-0.5,0-0.9,0.4-0.9,0.9v8.7h-7v-8.7c0-0.5-0.4-0.9-0.9-0.9c-0.5,0-0.9,0.4-0.9,0.9v8.7h-7v-8.7
		c0-0.5-0.4-0.9-0.9-0.9c-0.5,0-0.9,0.4-0.9,0.9v8.7h-7v-8.7c0-0.5-0.4-0.9-0.9-0.9c-0.5,0-0.9,0.4-0.9,0.9v8.7h-7v-8.7
		c0-0.5-0.4-0.9-0.9-0.9c-0.5,0-0.9,0.4-0.9,0.9v8.7H7.3c-0.5,0-0.9,0.4-0.9,0.9c0,0.5,0.4,0.9,0.9,0.9h4.2v11.4H7.3
		c-0.5,0-0.9,0.4-0.9,0.9c0,0.5,0.4,0.9,0.9,0.9h4.2V62c0,0.5,0.4,0.9,0.9,0.9c0.5,0,0.9-0.4,0.9-0.9v-8.7h7v11.4h-13
		c-0.5,0-0.9,0.4-0.9,0.9c0,0.5,0.4,0.9,0.9,0.9h13v4H4.5V26.8h16.4c0.5,0,0.9-0.4,0.9-0.9c0-0.5-0.4-0.9-0.9-0.9H3.6
		c-0.5,0-0.9,0.4-0.9,0.9v44.5H0.9c-0.5,0-0.9,0.4-0.9,0.9c0,0.5,0.4,0.9,0.9,0.9h2.7h17.6h17.6h17.6h2.7c0.5,0,0.9-0.4,0.9-0.9
		C60,70.9,59.6,70.5,59.1,70.5z M20.3,51.5h-7V40.1h7V51.5z M22.1,40.1h7v11.4h-7V40.1z M30.9,40.1h7v11.4h-7V40.1z M39.7,40.1h7
		v11.4h-7V40.1z M22.1,53.3h7v17.2h-7V53.3z M30.9,70.5V53.3h7v17.2H30.9z"/>
	<path class="particle0" d="M22.5,18.7h3.8v3.8c0,1.4,1.1,2.5,2.5,2.5h2.4c1.4,0,2.5-1.1,2.5-2.5v-3.8h3.8c1.4,0,2.5-1.1,2.5-2.5v-2.4
		c0-1.4-1.1-2.5-2.5-2.5h-3.8V7.5c0-1.4-1.1-2.5-2.5-2.5h-2.4c-1.4,0-2.5,1.1-2.5,2.5v3.8h-3.8c-1.4,0-2.5,1.1-2.5,2.5v2.4
		C20,17.6,21.1,18.7,22.5,18.7z M21.8,13.8c0-0.4,0.3-0.7,0.7-0.7h4.7c0.5,0,0.9-0.4,0.9-0.9V7.5c0-0.4,0.3-0.7,0.7-0.7h2.4
		c0.4,0,0.7,0.3,0.7,0.7v4.7c0,0.5,0.4,0.9,0.9,0.9h4.7c0.4,0,0.7,0.3,0.7,0.7v2.4c0,0.4-0.3,0.7-0.7,0.7h-4.7
		c-0.5,0-0.9,0.4-0.9,0.9v4.7c0,0.4-0.3,0.7-0.7,0.7h-2.4c-0.4,0-0.7-0.3-0.7-0.7v-4.7c0-0.5-0.4-0.9-0.9-0.9h-4.7
		c-0.4,0-0.7-0.3-0.7-0.7V13.8z"/>
	<path class="particle0" d="M30,30c-8.3,0-15-6.7-15-15c0-8.3,6.7-15,15-15s15,6.7,15,15C45,23.3,38.3,30,30,30z M30,1.5
		c-7.4,0-13.5,6.1-13.5,13.5c0,7.4,6.1,13.5,13.5,13.5S43.5,22.4,43.5,15C43.5,7.6,37.4,1.5,30,1.5z"/>
</g>
</svg>
