<?xml version="1.0" encoding="utf-8"?>
<!-- Generator: Adobe Illustrator 22.1.0, SVG Export Plug-In . SVG Version: 6.00 Build 0)  -->
<svg version="1.1" id="Layer_1" xmlns="http://www.w3.org/2000/svg" xmlns:xlink="http://www.w3.org/1999/xlink" x="0px" y="0px"
	 viewBox="0 0 60 47.7" style="enable-background:new 0 0 60 47.7;" xml:space="preserve">
<style type="text/css">
	.particle0{fill:#FFFFFF;}
</style>
<g>
	<path class="particle0" d="M5.1,39.5V12.8c0-0.5-0.4-0.9-0.9-0.9c-0.5,0-0.9,0.4-0.9,0.9v26.7C1.4,39.9,0,41.5,0,43.5
		c0,2.3,1.9,4.2,4.2,4.2s4.2-1.9,4.2-4.2C8.4,41.5,7,39.9,5.1,39.5z M4.2,45.9c-1.3,0-2.4-1.1-2.4-2.4c0-1.3,1.1-2.4,2.4-2.4
		c1.3,0,2.4,1.1,2.4,2.4C6.6,44.9,5.5,45.9,4.2,45.9z"/>
	<path class="particle0" d="M56.7,39.5V19.5c0-0.5-0.4-0.9-0.9-0.9c-0.5,0-0.9,0.4-0.9,0.9v19.9c-1.9,0.4-3.3,2.1-3.3,4.1
		c0,2.3,1.9,4.2,4.2,4.2c2.3,0,4.2-1.9,4.2-4.2C60,41.5,58.6,39.9,56.7,39.5z M55.8,45.9c-1.3,0-2.4-1.1-2.4-2.4
		c0-1.3,1.1-2.4,2.4-2.4c1.3,0,2.4,1.1,2.4,2.4C58.2,44.9,57.1,45.9,55.8,45.9z"/>
	<path class="particle0" d="M8.4,20.3L20.7,28c0,0,0.1,0,0.1,0c0,0,0.1,0,0.1,0c0.1,0,0.2,0.1,0.3,0.1h0l0,0h30c0.5,0,0.9-0.4,0.9-0.9
		c0-0.5-0.4-0.9-0.9-0.9H21.4L9.4,18.8c-0.4-0.3-1-0.1-1.3,0.3C7.8,19.5,8,20,8.4,20.3z"/>
	<path class="particle0" d="M13.9,18.7l5.9,3.7c0.2,0.1,0.3,0.1,0.5,0.1c0.3,0,0.6-0.2,0.8-0.4c0.3-0.4,0.1-1-0.3-1.3l-5.9-3.7
		c-0.4-0.3-1-0.1-1.3,0.3C13.3,17.9,13.5,18.5,13.9,18.7z"/>
	<path class="particle0" d="M52,37v-5c0-0.5-0.4-0.9-0.9-0.9H8.9C8.4,31.1,8,31.5,8,32v5c0,0.5,0.4,0.9,0.9,0.9c0.5,0,0.9-0.4,0.9-0.9
		v-4.1h40.4V37c0,0.5,0.4,0.9,0.9,0.9C51.6,37.9,52,37.5,52,37z"/>
	<path class="particle0" d="M48.3,42.6H11.7c-0.5,0-0.9,0.4-0.9,0.9c0,0.5,0.4,0.9,0.9,0.9h36.6c0.5,0,0.9-0.4,0.9-0.9
		C49.2,43,48.8,42.6,48.3,42.6z"/>
	<path class="particle0" d="M23.2,13.7H27v3.8c0,1.4,1.1,2.5,2.5,2.5h2.4c1.4,0,2.5-1.1,2.5-2.5v-3.8h3.8c1.4,0,2.5-1.1,2.5-2.5V8.8
		c0-1.4-1.1-2.5-2.5-2.5h-3.8V2.5c0-1.4-1.1-2.5-2.5-2.5h-2.4C28.1,0,27,1.1,27,2.5v3.8h-3.8c-1.4,0-2.5,1.1-2.5,2.5v2.4
		C20.7,12.6,21.8,13.7,23.2,13.7z M22.5,8.8c0-0.4,0.3-0.7,0.7-0.7h4.7c0.5,0,0.9-0.4,0.9-0.9V2.5c0-0.4,0.3-0.7,0.7-0.7h2.4
		c0.4,0,0.7,0.3,0.7,0.7v4.7c0,0.5,0.4,0.9,0.9,0.9h4.7c0.4,0,0.7,0.3,0.7,0.7v2.4c0,0.4-0.3,0.7-0.7,0.7h-4.7
		c-0.5,0-0.9,0.4-0.9,0.9v4.7c0,0.4-0.3,0.7-0.7,0.7h-2.4c-0.4,0-0.7-0.3-0.7-0.7v-4.7c0-0.5-0.4-0.9-0.9-0.9h-4.7
		c-0.4,0-0.7-0.3-0.7-0.7V8.8z"/>
</g>
</svg>
