<?xml version="1.0" encoding="utf-8"?>
<!-- Generator: Adobe Illustrator 22.1.0, SVG Export Plug-In . SVG Version: 6.00 Build 0)  -->
<svg version="1.1" id="Layer_1" xmlns="http://www.w3.org/2000/svg" xmlns:xlink="http://www.w3.org/1999/xlink" x="0px" y="0px"
	 viewBox="0 0 71.3 71.3" style="enable-background:new 0 0 71.3 71.3;" xml:space="preserve">
<style type="text/css">
	.st0{fill:none;stroke:#FFFFFF;stroke-width:2;stroke-linejoin:round;stroke-miterlimit:10;}
</style>
<g>
	<g>
		<g>
			<g>
				<circle class="st0" cx="22.1" cy="8.5" r="3"/>
				<path class="st0" d="M26.6,17.6h-9v-3c0-1.7,1.3-3,3-3l3,0c1.7,0,3,1.3,3,3V17.6z"/>
			</g>
			<rect x="13" y="1" class="st0" width="18.1" height="21.1"/>
		</g>
		<g>
			<g>
				<circle class="st0" cx="49.2" cy="8.5" r="3"/>
				<path class="st0" d="M53.7,17.6h-9v-3c0-1.7,1.3-3,3-3l3,0c1.7,0,3,1.3,3,3V17.6z"/>
			</g>
			<rect x="40.2" y="1" class="st0" width="18.1" height="21.1"/>
		</g>
	</g>
	<g>
		<g>
			<circle class="st0" cx="10" cy="56.7" r="3"/>
			<path class="st0" d="M14.6,65.7h-9v-3c0-1.7,1.3-3,3-3h3c1.7,0,3,1.3,3,3V65.7z"/>
		</g>
		<rect x="1" y="49.2" class="st0" width="18.1" height="21.1"/>
	</g>
	<g>
		<g>
			<circle class="st0" cx="35.6" cy="56.7" r="3"/>
			<path class="st0" d="M40.2,65.7h-9v-3c0-1.7,1.3-3,3-3h3c1.7,0,3,1.3,3,3V65.7z"/>
		</g>
		<rect x="26.6" y="49.2" class="st0" width="18.1" height="21.1"/>
	</g>
	<g>
		<g>
			<circle class="st0" cx="61.2" cy="56.7" r="3"/>
			<path class="st0" d="M65.7,65.7h-9v-3c0-1.7,1.3-3,3-3h3c1.7,0,3,1.3,3,3V65.7z"/>
		</g>
		<rect x="52.2" y="49.2" class="st0" width="18.1" height="21.1"/>
	</g>
	<path class="st0" d="M10,49.2v-6c0-1.7,1.3-3,3-3h45.2c1.7,0,3,1.3,3,3v6"/>
	<path class="st0" d="M22.1,22.1v6c0,1.7,1.3,3,3,3h21.1c1.7,0,3-1.3,3-3v-6"/>
	<line class="st0" x1="35.6" y1="31.1" x2="35.6" y2="49.2"/>
</g>
</svg>
