<?xml version="1.0" encoding="utf-8"?>
<!-- Generator: Adobe Illustrator 22.1.0, SVG Export Plug-In . SVG Version: 6.00 Build 0)  -->
<svg version="1.1" id="Layer_1" xmlns="http://www.w3.org/2000/svg" xmlns:xlink="http://www.w3.org/1999/xlink" x="0px" y="0px"
	 viewBox="0 0 69.6 73.7" style="enable-background:new 0 0 69.6 73.7;" xml:space="preserve">
<style type="text/css">
	.st0{fill:#FFFFFF;}
</style>
<g>
	<path class="st0" d="M61.8,4.4V1.8h-2.3V0H13v23.8h1.7v2.4h2.6v2.6h46.9V4.4H61.8z M14.3,1.3h43.9v21.2H14.3V1.3z M16,23.8h43.5
		V3.1h1V25H16V23.8z M62.9,27.6H18.6v-1.3h43.2V5.7h1.1V27.6z M15.3,2.4h5.3v1.3h-4v3.6h-1.3V2.4z M51.9,2.4h5.3v4.9h-1.3V3.7h-4
		L51.9,2.4z M55.9,16.7h1.3v4.9h-5.3v-1.3h4V16.7z M16.6,20.3h4v1.3h-5.3v-4.9h1.3L16.6,20.3L16.6,20.3z M36.3,4.4
		c-4.2,0-7.5,3.4-7.5,7.5s3.4,7.5,7.5,7.5c4.2,0,7.5-3.4,7.5-7.5S40.4,4.4,36.3,4.4z M36.3,18.1c-3.4,0-6.2-2.8-6.2-6.2
		s2.8-6.2,6.2-6.2c3.4,0,6.2,2.8,6.2,6.2S39.7,18.1,36.3,18.1z"/>
	<g>
		<path class="st0" d="M68.6,34.9c-0.6-0.5-2.4-1.2-5.5,1.9c-0.4,0.4-0.6,0.6-0.8,0.9c-0.5,0.5-0.9,1.1-3.2,2.9
			c-2.3,1.9-6.2,4.3-7.9,5.3c-0.3-0.4-0.6-0.7-1.1-1.1c-4.9-3.5-25.7-4.3-25.9-4.3c-2.3,0-5.3,0.7-7.1,2.3c-1.2,1.2-3.3,3.2-5,4.8
			l-0.7,0.7l-2.4-2.4L0,55l18.7,18.7l9.1-9.1l-2.7-2.7c0.8-0.7,1.6-1.2,2.7-1.2l0.1,0c2.2,0,8.2-0.1,17.6,0
			c5.6,0,17.7-10.4,22.7-19.4C69.9,38.3,70,35.9,68.6,34.9z M18.7,71.2L2.5,55l6.6-6.6l16.3,16.3L18.7,71.2z M66.8,40.4
			c-4.9,8.9-16.7,18.5-21.2,18.5c-9.3-0.1-15.4,0-17.6,0l-0.1,0c-1.6,0-2.9,0.7-3.9,1.7L12.7,49.5l0.7-0.6c1.7-1.6,3.8-3.6,5-4.9
			c1.3-1.2,3.9-1.9,5.9-1.9c1.6,0,20.7,1,24.9,4c1,0.7,1,1.2,0.6,2c-0.5,1.1-1.6,1.4-2.5,1.4H32.4v1.7h14.8c1.9,0,3.4-0.9,4.1-2.4
			c0.2-0.5,0.3-0.9,0.3-1.3c1.8-0.9,6.1-3.7,8.6-5.7c2.4-1.9,2.9-2.6,3.4-3.2c0.2-0.2,0.4-0.4,0.7-0.8c1.7-1.7,2.9-2,3.3-1.7
			C68,36.6,68,38.1,66.8,40.4z M19,67.4c1.7,0,3.2-1.4,3.2-3.2c0-1.7-1.4-3.2-3.2-3.2c-1.7,0-3.2,1.4-3.2,3.2
			C15.8,66,17.2,67.4,19,67.4z M19,62.9c0.8,0,1.4,0.6,1.4,1.4c0,0.8-0.6,1.4-1.4,1.4s-1.4-0.6-1.4-1.4C17.6,63.5,18.2,62.9,19,62.9
			z"/>
	</g>
</g>
</svg>
