<?xml version="1.0" encoding="utf-8"?>
<!-- Generator: Adobe Illustrator 22.1.0, SVG Export Plug-In . SVG Version: 6.00 Build 0)  -->
<svg version="1.1" id="Layer_1" xmlns="http://www.w3.org/2000/svg" xmlns:xlink="http://www.w3.org/1999/xlink" x="0px" y="0px"
	 viewBox="0 0 79.6 76.9" style="enable-background:new 0 0 79.6 76.9;" xml:space="preserve">
<style type="text/css">
	.st0{fill:none;stroke:#FFFFFF;stroke-width:2;stroke-miterlimit:10;}
</style>
<g>
	<line class="st0" x1="54.8" y1="5.9" x2="24.4" y2="5.9"/>
	<path class="st0" d="M20.3,5.9H10.2C5.1,5.9,1,10.1,1,15.2v4.7h76.9v-4.7c0-5.1-4.1-9.2-9.2-9.2H58.6"/>
	<path class="st0" d="M5.2,19.9v47.9c0,4.5,3.7,8.2,8.2,8.2h52c4.5,0,8.2-3.7,8.2-8.2V19.9H5.2z"/>
	<line class="st0" x1="5.2" y1="33.9" x2="73.7" y2="33.9"/>
	<line class="st0" x1="5.2" y1="47.9" x2="73.7" y2="47.9"/>
	<line class="st0" x1="5.2" y1="61.9" x2="73.7" y2="61.9"/>
	<line class="st0" x1="56.6" y1="19.5" x2="56.6" y2="75.9"/>
	<line class="st0" x1="39.5" y1="19.5" x2="39.5" y2="75.9"/>
	<line class="st0" x1="22.3" y1="19.5" x2="22.3" y2="75.9"/>
	<polyline class="st0" points="61.7,51.8 64.7,57.2 79,46 	"/>
	<rect x="20.3" y="1" class="st0" width="4.1" height="8.8"/>
	<rect x="54.5" y="1" class="st0" width="4.1" height="8.8"/>
</g>
</svg>
