<?xml version="1.0" encoding="utf-8"?>
<!-- Generator: Adobe Illustrator 22.1.0, SVG Export Plug-In . SVG Version: 6.00 Build 0)  -->
<svg version="1.1" id="Layer_1" xmlns="http://www.w3.org/2000/svg" xmlns:xlink="http://www.w3.org/1999/xlink" x="0px" y="0px"
	 viewBox="0 0 70.3 72" style="enable-background:new 0 0 70.3 72;" xml:space="preserve">
<style type="text/css">
	.st0{fill:#FFFFFF;}
</style>
<g>
	<path class="st0" d="M5.4,56.6c-1.4,0-2.8-0.6-3.8-1.6c-1-1-1.6-2.4-1.6-3.8V39.6c0-1.4,0.6-2.8,1.6-3.8c1-1,2.4-1.6,3.8-1.6H9
		c1.4,0,2.8,0.6,3.8,1.6c1,1,1.6,2.4,1.6,3.8v11.7c0,1.4-0.6,2.8-1.6,3.8c-1,1-2.4,1.6-3.8,1.6H5.4z M5.4,36.3c-0.9,0-1.7,0.3-2.3,1
		c-0.6,0.6-1,1.4-1,2.3v11.7c0,0.9,0.3,1.7,1,2.3c0.6,0.6,1.4,1,2.3,1H9c0.9,0,1.7-0.3,2.3-1c0.6-0.6,1-1.4,1-2.3V39.6
		c0-0.9-0.3-1.7-1-2.3c-0.6-0.6-1.4-1-2.3-1H5.4z"/>
	<path class="st0" d="M61.3,56.6c-1.4,0-2.8-0.6-3.8-1.6s-1.6-2.4-1.6-3.8V39.6c0-1.4,0.6-2.8,1.6-3.8c1-1,2.4-1.6,3.8-1.6h3.7
		c1.4,0,2.8,0.6,3.8,1.6c1,1,1.6,2.4,1.6,3.8v11.7c0,1.4-0.6,2.8-1.6,3.8c-1,1-2.4,1.6-3.8,1.6H61.3z M61.3,36.3
		c-0.9,0-1.7,0.3-2.3,1s-1,1.4-1,2.3v11.7c0,0.9,0.3,1.7,1,2.3c0.6,0.6,1.4,1,2.3,1h3.7c0.9,0,1.7-0.3,2.3-1c0.6-0.6,1-1.4,1-2.3
		V39.6c0-0.9-0.3-1.7-1-2.3c-0.6-0.6-1.4-1-2.3-1H61.3z"/>
	<path class="st0" d="M62.5,34.8v-7.3c0-6.8-2.7-13.1-7.5-18c-4.8-4.8-11.2-7.5-18-7.5h-3.4c-6.8,0-13.1,2.7-18,7.5
		c-4.8,4.8-7.5,11.2-7.5,18v7.3H6.2v-7.3c0-7.3,2.9-14.2,8.1-19.4C19.4,2.9,26.3,0,33.7,0h3.4c7.3,0,14.2,2.9,19.4,8.1
		c5.2,5.2,8.1,12.1,8.1,19.4v7.3H62.5z"/>
	<path class="st0" d="M40.8,72c-1.8,0-3.7-0.1-5.8-0.3c-0.3,0-0.5-0.2-0.7-0.4c-0.2-0.2-0.3-0.5-0.2-0.8c0.1-0.5,0.5-0.9,1-0.9
		c0,0,0.1,0,0.1,0c2,0.2,3.9,0.3,5.6,0.3c5.3,0,9.5-0.9,12.6-2.7c4-2.3,6.2-6.3,6.7-11.7c0-0.5,0.5-1,1-1c0,0,0.1,0,0.1,0
		c0.6,0,1,0.5,0.9,1.1c-0.5,6.1-3.1,10.6-7.7,13.3C51.1,71,46.5,72,40.8,72C40.8,72,40.8,72,40.8,72z"/>
	<path class="st0" d="M25.6,36.3h-7V17.1h33.2v19.2H33.9l-4.2,7.3L25.6,36.3z M29.7,39.4l3-5.2h16.9v-15H20.6v15h6.1L29.7,39.4z"/>
</g>
</svg>
