<?xml version="1.0" encoding="utf-8"?>
<!-- Generator: Adobe Illustrator 22.1.0, SVG Export Plug-In . SVG Version: 6.00 Build 0)  -->
<svg version="1.1" id="Layer_1" xmlns="http://www.w3.org/2000/svg" xmlns:xlink="http://www.w3.org/1999/xlink" x="0px" y="0px"
	 viewBox="0 0 80.4 79.6" style="enable-background:new 0 0 80.4 79.6;" xml:space="preserve">
<style type="text/css">
	.st0{fill:none;stroke:#FFFFFF;stroke-width:2;stroke-miterlimit:10;}
</style>
<g>
	<line class="st0" x1="47.5" y1="68.9" x2="33.7" y2="68.9"/>
	<path class="st0" d="M25.7,68.5C21.8,67.5,19,64,19,59.8V25.1c0-5,4.1-9.1,9.1-9.1h24.3c5,0,9.1,4.1,9.1,9.1v34.7
		c0,3.9-2.4,7.1-5.8,8.5"/>
	<circle class="st0" cx="29.7" cy="68.9" r="4.1"/>
	<circle class="st0" cx="51.6" cy="68.9" r="4.1"/>
	<g>
		<line class="st0" x1="51.5" y1="24.4" x2="51.5" y2="60.5"/>
		<line class="st0" x1="40.2" y1="24.4" x2="40.2" y2="60.5"/>
		<line class="st0" x1="28.9" y1="24.4" x2="28.9" y2="60.5"/>
	</g>
	<rect x="30.2" y="1" class="st0" width="20" height="4.9"/>
	<g>
		<line class="st0" x1="35" y1="5.9" x2="35" y2="16"/>
		<line class="st0" x1="45.4" y1="5.9" x2="45.4" y2="16"/>
	</g>
	<line class="st0" x1="69.6" y1="43.2" x2="80.4" y2="43.2"/>
	<line class="st0" x1="68.2" y1="15.1" x2="75.9" y2="7.5"/>
	<line class="st0" x1="10.8" y1="43.2" x2="0" y2="43.2"/>
	<line class="st0" x1="12.2" y1="15.1" x2="4.5" y2="7.5"/>
	<line class="st0" x1="68.2" y1="71.2" x2="75.9" y2="78.9"/>
	<line class="st0" x1="12.2" y1="71.2" x2="4.5" y2="78.9"/>
</g>
</svg>
