<?xml version="1.0" encoding="utf-8"?>
<!-- Generator: Adobe Illustrator 22.1.0, SVG Export Plug-In . SVG Version: 6.00 Build 0)  -->
<svg version="1.1" id="Layer_1" xmlns="http://www.w3.org/2000/svg" xmlns:xlink="http://www.w3.org/1999/xlink" x="0px" y="0px"
	 viewBox="0 0 76.1 78.5" style="enable-background:new 0 0 76.1 78.5;" xml:space="preserve">
<style type="text/css">
	.st0{fill:none;stroke:#FFFFFF;stroke-width:2;stroke-miterlimit:10;}
	.st1{fill:#FFFFFF;}
</style>
<g>
	<g>
		<circle class="st0" cx="64.2" cy="11.9" r="10.9"/>
		<g>
			<line class="st0" x1="58.8" y1="6.5" x2="69.6" y2="17.3"/>
			<line class="st0" x1="58.8" y1="17.3" x2="69.6" y2="6.5"/>
		</g>
	</g>
	<g>
		<g>
			<path class="st0" d="M44.3,64.2H46c2.8,0,5,2.2,5,5v3.3c0,2.8-2.2,5-5,5H26c-2.8,0-5-2.2-5-5v-3.3c0-2.8,2.2-5,5-5h1.7V15.8
				c0-4.6,3.7-8.3,8.3-8.3c4.6,0,8.3,3.7,8.3,8.3V64.2L44.3,64.2z"/>
			<path class="st0" d="M1,45.7c0-3.8,2.1-7.2,5.4-8.9l21.2-12.6v24.7l-19.8,3c-3.4,0.4-6.4-2-6.9-5.4C1,46.2,1,46,1,45.7L1,45.7z"
				/>
			<path class="st0" d="M71,46.5c-0.4,3.4-3.4,5.8-6.8,5.4l-19.8-3V24.2l21.3,12.6c3.3,1.7,5.4,5.1,5.4,8.9C71,45.9,71,46.2,71,46.5
				L71,46.5z"/>
		</g>
		<path class="st1" d="M54,56.9c-0.9,0-1.7-0.8-1.7-1.7v-4.4c0-0.9,0.8-1.7,1.7-1.7s1.7,0.8,1.7,1.7v4.4
			C55.7,56.2,54.9,56.9,54,56.9z"/>
		<path class="st1" d="M18,56.9c-0.9,0-1.7-0.8-1.7-1.7v-4.4c0-0.9,0.8-1.7,1.7-1.7s1.7,0.8,1.7,1.7v4.4
			C19.7,56.2,18.9,56.9,18,56.9z"/>
	</g>
</g>
</svg>
