<?xml version="1.0" encoding="utf-8"?>
<!-- Generator: Adobe Illustrator 22.1.0, SVG Export Plug-In . SVG Version: 6.00 Build 0)  -->
<svg version="1.1" id="Layer_1" xmlns="http://www.w3.org/2000/svg" xmlns:xlink="http://www.w3.org/1999/xlink" x="0px" y="0px"
	 viewBox="0 0 37.1 68.2" style="enable-background:new 0 0 37.1 68.2;" xml:space="preserve">
<style type="text/css">
	.st0{fill:#FFFFFF;}
</style>
<g id="Layer_1_1_">
</g>
<path class="st0" d="M37.1,68.2H0V0h37.1V68.2z M2,66.2h33.1V2H2V66.2z"/>
<rect x="13.8" y="6.1" class="st0" width="9.4" height="1"/>
<path class="st0" d="M18.5,63c-1.5,0-2.7-1.2-2.7-2.7s1.2-2.7,2.7-2.7s2.7,1.2,2.7,2.7S20,63,18.5,63z M18.5,58.7
	c-0.9,0-1.7,0.7-1.7,1.7s0.7,1.7,1.7,1.7s1.7-0.8,1.7-1.7S19.5,58.7,18.5,58.7z"/>
<rect x="1" y="11.3" class="st0" width="35.1" height="1"/>
<rect x="1" y="53.5" class="st0" width="35.1" height="1"/>
</svg>
