<?xml version="1.0" encoding="utf-8"?>
<!-- Generator: Adobe Illustrator 22.1.0, SVG Export Plug-In . SVG Version: 6.00 Build 0)  -->
<svg version="1.1" id="Layer_1" xmlns="http://www.w3.org/2000/svg" xmlns:xlink="http://www.w3.org/1999/xlink" x="0px" y="0px"
	 viewBox="0 0 64 36.1" style="enable-background:new 0 0 64 36.1;" xml:space="preserve">
<style type="text/css">
	.st0{fill:#FFFFFF;}
</style>
<path class="st0" d="M61,5.5V2.2h-2.9V0H0v29.8h2.1v3.1h3.3v3.3H64V5.5H61z M1.6,1.6h54.8v26.5H1.6V1.6z M3.7,29.8h54.4V3.9h1.3
	v27.3H3.7V29.8z M62.4,34.5H7v-1.6h54V7.1h1.4V34.5z M2.9,2.9h6.6v1.6h-5V9H2.9V2.9z M48.6,2.9h6.6V9h-1.6V4.6h-5L48.6,2.9z
	 M53.6,20.9h1.6V27h-6.6v-1.6h5C53.6,25.4,53.6,20.9,53.6,20.9z M4.5,25.4h5V27H2.9v-6.1h1.6L4.5,25.4L4.5,25.4z M29,5.5
	c-5.2,0-9.4,4.2-9.4,9.4s4.2,9.4,9.4,9.4c5.2,0,9.4-4.2,9.4-9.4S34.2,5.5,29,5.5z M29,22.7c-4.3,0-7.8-3.5-7.8-7.8s3.5-7.8,7.8-7.8
	s7.8,3.5,7.8,7.8S33.3,22.7,29,22.7z M29.9,10.4l3.7,4.5l-1.3,1l-2.2-2.7v6.3h-1.6v-6.3L26.2,16L25,15l3.7-4.5
	c0.2-0.2,0.4-0.3,0.6-0.3c0,0,0,0,0,0C29.5,10.1,29.7,10.3,29.9,10.4z"/>
<g id="Layer_1_1_">
</g>
</svg>
