<?xml version="1.0" encoding="utf-8"?>
<!-- Generator: Adobe Illustrator 22.1.0, SVG Export Plug-In . SVG Version: 6.00 Build 0)  -->
<svg version="1.1" id="Layer_1" xmlns="http://www.w3.org/2000/svg" xmlns:xlink="http://www.w3.org/1999/xlink" x="0px" y="0px"
	 viewBox="0 0 58 73.6" style="enable-background:new 0 0 58 73.6;" xml:space="preserve">
<style type="text/css">
	.st0{fill:#FFFFFF;}
</style>
<g>
	<g>
		<path class="st0" d="M29,73.6c-0.2,0-0.3,0-0.5-0.1l-28-15.6C0.2,57.7,0,57.4,0,57V1c0-0.6,0.4-1,1-1h56c0.6,0,1,0.4,1,1v56
			c0,0.4-0.2,0.7-0.5,0.9l-28,15.6C29.4,73.6,29.2,73.6,29,73.6z M2,56.4l27,15l27-15V2H2V56.4z"/>
		<rect x="4.1" y="9.3" class="st0" width="49.8" height="2"/>
		<g>
			<g>
				<g>
					<path class="st0" d="M15,34.7c-2.3,0-4.1-1.8-4.1-4.1c0-2.3,1.8-4.1,4.1-4.1c2.3,0,4.1,1.8,4.1,4.1
						C19.1,32.8,17.3,34.7,15,34.7z M15,28.5c-1.2,0-2.1,0.9-2.1,2.1s0.9,2.1,2.1,2.1s2.1-0.9,2.1-2.1S16.2,28.5,15,28.5z"/>
					<path class="st0" d="M19.7,44h-9.3c-0.6,0-1-0.4-1-1v-6.3c0-2.2,1.8-4,4-4h3.3c2.2,0,4,1.8,4,4V43C20.7,43.6,20.2,44,19.7,44z
						 M11.3,42h7.3v-5.3c0-1.1-0.9-2-2-2h-3.3c-1.1,0-2,0.9-2,2V42z"/>
				</g>
				<g>
					<path class="st0" d="M29,31.6c-2.3,0-4.1-1.8-4.1-4.1c0-2.3,1.8-4.1,4.1-4.1c2.3,0,4.1,1.8,4.1,4.1
						C33.1,29.7,31.3,31.6,29,31.6z M29,25.3c-1.2,0-2.1,0.9-2.1,2.1s0.9,2.1,2.1,2.1s2.1-0.9,2.1-2.1S30.2,25.3,29,25.3z"/>
					<path class="st0" d="M33.7,44h-9.3c-0.6,0-1-0.4-1-1v-9.5c0-2.2,1.8-4,4-4h3.3c2.2,0,4,1.8,4,4V43C34.7,43.6,34.2,44,33.7,44z
						 M25.3,42h7.3v-8.5c0-1.1-0.9-2-2-2h-3.3c-1.1,0-2,0.9-2,2V42z"/>
				</g>
				<g>
					<path class="st0" d="M43,34.7c-2.3,0-4.1-1.8-4.1-4.1c0-2.3,1.8-4.1,4.1-4.1c2.3,0,4.1,1.8,4.1,4.1
						C47.1,32.8,45.3,34.7,43,34.7z M43,28.5c-1.2,0-2.1,0.9-2.1,2.1s0.9,2.1,2.1,2.1s2.1-0.9,2.1-2.1S44.2,28.5,43,28.5z"/>
					<path class="st0" d="M47.7,44h-9.3c-0.6,0-1-0.4-1-1v-6.3c0-2.2,1.8-4,4-4h3.3c2.2,0,4,1.8,4,4V43C48.7,43.6,48.2,44,47.7,44z
						 M39.4,42h7.3v-5.3c0-1.1-0.9-2-2-2h-3.3c-1.1,0-2,0.9-2,2V42z"/>
				</g>
			</g>
			<rect x="5.7" y="42" class="st0" width="46.7" height="2"/>
		</g>
	</g>
	<rect x="6.2" y="10.3" class="st0" width="2" height="28"/>
	<rect x="49.8" y="10.3" class="st0" width="2" height="28"/>
	<path class="st0" d="M29,65.8c-0.2,0-0.3,0-0.4-0.1L6.8,54.8c-0.3-0.2-0.6-0.5-0.6-0.9v-6.2h2v5.6L29,63.7l20.8-11.9v-4.1h2v4.7
		c0,0.4-0.2,0.7-0.5,0.9L29.5,65.7C29.4,65.8,29.2,65.8,29,65.8z"/>
</g>
<g id="Layer_1_1_">
</g>
</svg>
