<?xml version="1.0" encoding="utf-8"?>
<!-- Generator: Adobe Illustrator 22.1.0, SVG Export Plug-In . SVG Version: 6.00 Build 0)  -->
<svg version="1.1" xmlns="http://www.w3.org/2000/svg" xmlns:xlink="http://www.w3.org/1999/xlink" x="0px" y="0px"
	 viewBox="0 0 491.9 590.8" style="enable-background:new 0 0 491.9 590.8;" xml:space="preserve">
<style type="text/css">
	.particle0{opacity:0.2;fill:#007EFF;enable-background:new    ;}
	.particle1{opacity:0.3;fill:#007EFF;enable-background:new    ;}
	.particle2{fill:#007EFF;}
	.particle3{opacity:0.5;fill:#007EFF;enable-background:new    ;}
	.particle4{opacity:0.7;fill:#007EFF;}
	.particle5{opacity:0.2;fill:#007EFF;}
	.particle6{opacity:0.5;fill:#007EFF;}
	.particle7{opacity:0.4;fill:#007EFF;}
</style>
<g id="cubo1">
	<g class="line-1_3_">
		<path class="particle0" d="M175.9,566.3c7.7,0,7.7-12.1,0-12.1C168.2,554.2,168.2,566.3,175.9,566.3L175.9,566.3z"/>
		<path class="particle0" d="M198,555.2c7.7,0,7.7-12,0-12C190.2,543.2,190.2,555.2,198,555.2L198,555.2z"/>
		<path class="particle0" d="M159.2,579.3c11.5,0,11.5-17.9,0-17.9C147.6,561.4,147.6,579.3,159.2,579.3L159.2,579.3z"/>
		<path class="particle0" d="M205.1,551.7c11.6,0,11.6-18,0-18C193.5,533.6,193.5,551.7,205.1,551.7L205.1,551.7z"/>
		<path class="particle0" d="M210.9,547.2c11.6,0,11.6-18,0-18C199.3,529.1,199.3,547.2,210.9,547.2L210.9,547.2z"/>
		<path class="particle0" d="M183,566.9c11.7,0,11.7-18.2,0-18.2S171.3,566.9,183,566.9L183,566.9z"/>
		<path class="particle0" d="M172.8,574.5c11.7,0,11.7-18.1,0-18.1S161.1,574.5,172.8,574.5L172.8,574.5z"/>
		<path class="particle1" d="M207.8,543c5.8,0,5.8-9.1,0-9.1C202,533.9,202,543,207.8,543L207.8,543z"/>
		<path class="particle1" d="M160.6,577.1c7.7,0,7.7-11.9,0-11.9C153,565.2,153,577.1,160.6,577.1L160.6,577.1z"/>
		<path class="particle1" d="M168.3,570.6c5.9,0,5.9-9.2,0-9.2C162.3,561.4,162.3,570.6,168.3,570.6L168.3,570.6z"/>
		<path class="particle1" d="M177.2,564.7c5.8,0,5.8-9,0-9S171.4,564.7,177.2,564.7L177.2,564.7z"/>
		<path class="particle1" d="M183.4,560.8c5.8,0,5.8-9.1,0-9.1C177.5,551.7,177.5,560.8,183.4,560.8L183.4,560.8z"/>
		<path class="particle1" d="M191.3,557c5.9,0,5.9-9.1,0-9.1C185.4,547.9,185.4,557,191.3,557L191.3,557z"/>
		<path class="particle1" d="M200,551.5c5.9,0,5.9-9.1,0-9.1C194.1,542.4,194.1,551.5,200,551.5L200,551.5z"/>
		<path class="particle1" d="M154.1,580.4c9.5,0,9.5-14.7,0-14.7S144.6,580.4,154.1,580.4L154.1,580.4z"/>
		<path class="particle2" d="M156.2,573.1c2.1,0,2.1-3.3,0-3.3C154.1,569.8,154.1,573.1,156.2,573.1L156.2,573.1z"/>
		<path class="particle2" d="M163.7,568.6c2.1,0,2.1-3.3,0-3.3C161.6,565.3,161.6,568.6,163.7,568.6L163.7,568.6z"/>
		<path class="particle2" d="M171,563.9c2.1,0,2.1-3.3,0-3.3C168.9,560.6,168.9,563.9,171,563.9L171,563.9z"/>
		<path class="particle2" d="M190.7,553.9c2.1,0,2.1-3.3,0-3.3C188.6,550.5,188.6,553.9,190.7,553.9L190.7,553.9z"/>
		<path class="particle2" d="M200.8,547.2c2.1,0,2.1-3.3,0-3.3C198.7,543.9,198.7,547.2,200.8,547.2L200.8,547.2z"/>
		<path class="particle2" d="M209.5,541.9c2.1,0,2.1-3.3,0-3.3C207.4,538.6,207.4,541.9,209.5,541.9L209.5,541.9z"/>
	</g>
	<g class="line-2_1_">
		<path class="particle0" d="M153.9,580.4c9.3,0,9.3-14.5,0-14.5C144.6,565.9,144.6,580.4,153.9,580.4L153.9,580.4z"/>
		<path class="particle0" d="M115.9,560.2c7.7,0,7.7-11.9,0-11.9S108.3,560.2,115.9,560.2L115.9,560.2z"/>
		<path class="particle0" d="M99.4,550.4c7.7,0,7.7-11.9,0-11.9S91.7,550.4,99.4,550.4L99.4,550.4z"/>
		<path class="particle0" d="M146.5,580.3c11.7,0,11.7-18.2,0-18.2C134.8,562.2,134.8,580.3,146.5,580.3L146.5,580.3z"/>
		<path class="particle0" d="M106.8,552.9c5.9,0,5.9-9.2,0-9.2C100.9,543.7,100.9,552.9,106.8,552.9L106.8,552.9z"/>
		<path class="particle0" d="M127.9,570.8c11.7,0,11.7-18.1,0-18.1C116.2,552.6,116.2,570.8,127.9,570.8L127.9,570.8z"/>
		<path class="particle0" d="M138.3,577.4c11.5,0,11.5-17.8,0-17.8S126.8,577.4,138.3,577.4L138.3,577.4z"/>
		<path class="particle1" d="M97.8,543.2c5.9,0,5.9-9.1,0-9.1C91.9,534.1,91.9,543.2,97.8,543.2L97.8,543.2z"/>
		<path class="particle1" d="M99.2,545.5c0.2,0.3,0.3,0.6,0.5,0.9c0.5,0.9,1.6,1.6,2.5,1.9c1,0.3,2.3,0.2,3.2-0.5c0.9-0.5,1.6-1.4,1.9-2.5
			c0.3-1.1,0.1-2.1-0.5-3.2c-0.2-0.3-0.3-0.6-0.5-0.9c-0.5-0.9-1.6-1.6-2.5-1.9c-1-0.3-2.3-0.2-3.2,0.5c-0.9,0.5-1.6,1.4-1.9,2.5
			C98.5,543.5,98.6,544.5,99.2,545.5L99.2,545.5z"/>
		<path class="particle1" d="M108.3,558.8c11.6,0,11.6-17.9,0-17.9S96.7,558.8,108.3,558.8L108.3,558.8z"/>
		<path class="particle1" d="M113,556.1c5.9,0,5.9-9.2,0-9.2S107,556.1,113,556.1L113,556.1z"/>
		<path class="particle1" d="M125.3,563.4c5.8,0,5.8-9,0-9S119.5,563.4,125.3,563.4L125.3,563.4z"/>
		<path class="particle1" d="M130.8,558.7c-0.3,0-0.8-0.3-0.9-0.6c-0.5-1.9-2.7-3.2-4.6-2.6c-1.8,0.4-3.1,2.4-2.5,4.4
			c0.7,2.8,3.2,5.2,6,5.9c1.9,0.4,4.1-0.6,4.6-2.6C133.8,561.4,132.6,559,130.8,558.7z"/>
		<path class="particle1" d="M140.9,572.4c5.6,0,5.6-8.8,0-8.8S135.3,572.4,140.9,572.4L140.9,572.4z"/>
		<path class="particle1" d="M143.2,575.7c5.8,0,5.8-8.9,0-8.9C137.5,566.8,137.5,575.7,143.2,575.7L143.2,575.7z"/>
		<path class="particle1" d="M136.4,568.9c5.8,0,5.8-9,0-9C130.5,559.8,130.5,568.9,136.4,568.9L136.4,568.9z"/>
		<path class="particle1" d="M97.6,538.7c0.2-0.3,0.3-0.7,0.5-1c0.5-1.1,0.8-2.2,0.5-3.4c-0.3-1-1.1-2.1-2-2.6c-1-0.6-2.2-0.8-3.4-0.5
			c-1.1,0.3-2.1,1-2.6,2c-0.2,0.3-0.3,0.7-0.5,1c-0.5,1.1-0.8,2.2-0.5,3.4c0.3,1,1.1,2.1,2,2.6c1,0.6,2.2,0.8,3.4,0.5
			C96.1,540.3,97.2,539.6,97.6,538.7L97.6,538.7z"/>
		<path class="particle2" d="M152.2,574.5c1.9,0,1.9-2.9,0-2.9C150.3,571.6,150.3,574.5,152.2,574.5L152.2,574.5z"/>
		<path class="particle2" d="M146,571.3c1.9,0,1.9-2.9,0-2.9C144.1,568.3,144.1,571.3,146,571.3L146,571.3z"/>
		<path class="particle2" d="M136.1,565.3c1.9,0,1.9-2.9,0-2.9C134.3,562.4,134.3,565.3,136.1,565.3L136.1,565.3z"/>
		<path class="particle2" d="M129.2,562.2c1.9,0,1.9-2.9,0-2.9C127.4,559.2,127.4,562.2,129.2,562.2L129.2,562.2z"/>
		<path class="particle2" d="M120.5,556.9c1.9,0,1.9-2.9,0-2.9C118.7,553.9,118.7,556.9,120.5,556.9L120.5,556.9z"/>
		<path class="particle2" d="M114.3,552.1c1.9,0,1.9-2.9,0-2.9C112.5,549.1,112.5,552.1,114.3,552.1L114.3,552.1z"/>
		<path class="particle2" d="M103.5,545.6c1.9,0,1.9-2.9,0-2.9C101.7,542.7,101.7,545.6,103.5,545.6L103.5,545.6z"/>
		<path class="particle2" d="M94.8,540.8c1.9,0,1.9-2.9,0-2.9C93,537.9,93,540.8,94.8,540.8L94.8,540.8z"/>
	</g>
	<g class="line-3_3_">
		<path class="particle0" d="M152.4,513.7c9.7,0,9.7-15,0-15S142.7,513.7,152.4,513.7L152.4,513.7z"/>
		<path class="particle0" d="M153.9,555.8c7.8,0,7.8-12.2,0-12.2C146.1,543.6,146.1,555.8,153.9,555.8L153.9,555.8z"/>
		<path class="particle0" d="M152.8,538.7c7.8,0,7.8-12.2,0-12.2C144.9,526.5,144.9,538.7,152.8,538.7L152.8,538.7z"/>
		<path class="particle0" d="M152.4,522.7c5.9,0,5.9-9.1,0-9.1S146.5,522.7,152.4,522.7L152.4,522.7z"/>
		<path class="particle0" d="M151.6,519.5c9,0,9-14,0-14C142.6,505.6,142.6,519.5,151.6,519.5L151.6,519.5z"/>
		<path class="particle0" d="M152.1,551.9c11.6,0,11.6-17.9,0-17.9S140.5,551.9,152.1,551.9L152.1,551.9z"/>
		<path class="particle0" d="M154.1,580.8c11.6,0,11.6-18,0-18S142.5,580.8,154.1,580.8L154.1,580.8z"/>
		<path class="particle0" d="M152.8,531.8c11.6,0,11.6-18,0-18C141.2,513.8,141.2,531.8,152.8,531.8L152.8,531.8z"/>
		<path class="particle1" d="M153.2,571.1c5.9,0,5.9-9.2,0-9.2C147.3,561.9,147.3,571.1,153.2,571.1L153.2,571.1z"/>
		<path class="particle1" d="M153.2,560.8c5.9,0,5.9-9.2,0-9.2C147.3,551.6,147.3,560.8,153.2,560.8L153.2,560.8z"/>
		<path class="particle1" d="M153.6,553.4c5.9,0,5.9-9.2,0-9.2C147.7,544.2,147.7,553.4,153.6,553.4L153.6,553.4z"/>
		<path class="particle1" d="M152.8,541.6c5.8,0,5.8-9.1,0-9.1S146.9,541.6,152.8,541.6L152.8,541.6z"/>
		<path class="particle1" d="M152.3,535c5.9,0,5.9-9.2,0-9.2S146.4,535,152.3,535L152.3,535z"/>
		<path class="particle1" d="M151.1,523.5c5.9,0,5.9-9.2,0-9.2S145.2,523.5,151.1,523.5L151.1,523.5z"/>
		<path class="particle1" d="M152.1,513.1c6,0,6-9.2,0-9.2C146.2,503.9,146.2,513.1,152.1,513.1L152.1,513.1z"/>
		<path class="particle1" d="M147,515.1c5.9,0,5.9-9.2,0-9.2S141,515.1,147,515.1L147,515.1z"/>
		<path class="particle2" d="M153.8,561.8c2,0,2-3.1,0-3.1C151.8,558.6,151.8,561.8,153.8,561.8L153.8,561.8z"/>
		<path class="particle2" d="M152.6,550.5c2,0,2-3.1,0-3.1C150.7,547.4,150.7,550.5,152.6,550.5L152.6,550.5z"/>
		<path class="particle2" d="M152,542.1c2,0,2-3.1,0-3.1C150,538.9,150,542.1,152,542.1L152,542.1z"/>
		<path class="particle2" d="M152.4,520.7c2,0,2-3.1,0-3.1C150.4,517.6,150.4,520.7,152.4,520.7L152.4,520.7z"/>
	</g>
	<g class="line-4_3_">
		<path class="particle0" d="M113.9,489.2c5.9,0,5.9-9.2,0-9.2C108,480,108,489.2,113.9,489.2L113.9,489.2z"/>
		<path class="particle0" d="M131.4,498.9c6,0,6-9.3,0-9.3S125.4,498.9,131.4,498.9L131.4,498.9z"/>
		<path class="particle0" d="M139.4,503.7c5.9,0,5.9-9.2,0-9.2S133.5,503.7,139.4,503.7L139.4,503.7z"/>
		<path class="particle0" d="M95,481.3c9.1,0,9.1-14.1,0-14.1C85.9,467.3,85.9,481.3,95,481.3L95,481.3z"/>
		<path class="particle0" d="M148.5,512.4c9.1,0,9.1-14,0-14C139.5,498.4,139.5,512.4,148.5,512.4L148.5,512.4z"/>
		<path class="particle1" d="M152.3,512.6c5,0,5-7.7,0-7.7S147.3,512.6,152.3,512.6L152.3,512.6z"/>
		<path class="particle1" d="M92.3,476.2c4.7,0,4.7-7.4,0-7.4S87.6,476.2,92.3,476.2L92.3,476.2z"/>
		<path class="particle1" d="M144.2,505.6c4.4,0,4.4-6.9,0-6.9C139.8,498.7,139.8,505.6,144.2,505.6L144.2,505.6z"/>
		<path class="particle1" d="M121.5,492.7c4.5,0,4.5-7,0-7C117,485.7,117,492.7,121.5,492.7L121.5,492.7z"/>
		<path class="particle1" d="M103.1,481.7c4.2,0,4.2-6.5,0-6.5S98.9,481.7,103.1,481.7L103.1,481.7z"/>
		<path class="particle1" d="M138.7,500.1c4.5,0,4.5-6.9,0-6.9S134.2,500.1,138.7,500.1L138.7,500.1z"/>
		<path class="particle1" d="M120.5,491.3c4.5,0,4.5-7,0-7C116.1,484.4,116.1,491.3,120.5,491.3L120.5,491.3z"/>
		<path class="particle1" d="M115.6,486.7c0.2,0,0.5,0,0.7,0c0.9,0,1.8-0.4,2.4-1s1-1.6,1-2.4c-0.1-0.9-0.3-1.8-1-2.4
			c-0.7-0.6-1.5-1-2.4-1c-0.2,0-0.5,0-0.7,0c-0.9,0-1.8,0.4-2.4,1c-0.6,0.6-1,1.6-1,2.4c0.1,0.9,0.3,1.8,1,2.4
			C113.9,486.3,114.7,486.7,115.6,486.7L115.6,486.7z"/>
		<path class="particle1" d="M127,494.5c4.5,0,4.5-6.9,0-6.9S122.6,494.5,127,494.5L127,494.5z"/>
		<path class="particle1" d="M106.7,483.3c0.2,0,0.5,0,0.7,0c0.9,0,1.8-0.4,2.4-1s1-1.6,1-2.4c-0.1-0.9-0.3-1.8-1-2.4
			c-0.7-0.6-1.5-1-2.4-1c-0.2,0-0.5,0-0.7,0c-0.9,0-1.8,0.4-2.4,1s-1,1.6-1,2.4c0.1,0.9,0.3,1.8,1,2.4
			C105,483,105.8,483.3,106.7,483.3L106.7,483.3z"/>
		<path class="particle1" d="M108.6,486c4.5,0,4.5-6.9,0-6.9C104.2,479.1,104.2,486,108.6,486L108.6,486z"/>
		<path class="particle2" d="M101,477.5c1.3,0,1.3-2,0-2C99.7,475.4,99.7,477.5,101,477.5L101,477.5z"/>
		<path class="particle2" d="M94.9,473.9c1.5,0,1.5-2.4,0-2.4C93.4,471.5,93.4,473.9,94.9,473.9L94.9,473.9z"/>
		<path class="particle2" d="M114.6,484.9c1.5,0,1.5-2.4,0-2.4C113.1,482.5,113.1,484.9,114.6,484.9L114.6,484.9z"/>
		<path class="particle2" d="M107.5,481.9c1.4,0,1.4-2.2,0-2.2C106,479.7,106,481.9,107.5,481.9L107.5,481.9z"/>
		<path class="particle2" d="M128.2,492.7c1.5,0,1.5-2.3,0-2.3C126.7,490.4,126.7,492.7,128.2,492.7L128.2,492.7z"/>
		<path class="particle2" d="M143.3,503.3c1.5,0,1.5-2.4,0-2.4C141.8,500.9,141.8,503.3,143.3,503.3L143.3,503.3z"/>
		<path class="particle2" d="M134.6,497.5c1.5,0,1.5-2.3,0-2.3C133.1,495.2,133.1,497.5,134.6,497.5L134.6,497.5z"/>
		<path class="particle2" d="M120.5,489.7c1.4,0,1.4-2.3,0-2.3C119.1,487.4,119.1,489.7,120.5,489.7L120.5,489.7z"/>
	</g>
	<g class="line-5_3_">
		<path class="particle0" d="M166.9,505c7.8,0,7.8-12.1,0-12.1S159.2,505,166.9,505L166.9,505z"/>
		<path class="particle0" d="M181.7,496.4c7.7,0,7.7-12,0-12C173.9,484.4,173.9,496.4,181.7,496.4L181.7,496.4z"/>
		<path class="particle0" d="M200.9,484.7c7.8,0,7.8-12.1,0-12.1C193.2,472.6,193.2,484.7,200.9,484.7L200.9,484.7z"/>
		<path class="particle0" d="M166.7,502.1c3.9,0,3.9-6,0-6C162.8,496.1,162.8,502.1,166.7,502.1L166.7,502.1z"/>
		<path class="particle0" d="M184.4,493.1c4,0,4-6.1,0-6.1C180.4,487,180.4,493.1,184.4,493.1L184.4,493.1z"/>
		<path class="particle0" d="M155.2,513.5c11.6,0,11.6-18.1,0-18.1C143.6,495.5,143.6,513.5,155.2,513.5L155.2,513.5z"/>
		<path class="particle0" d="M161.6,512.4c11.7,0,11.7-18.1,0-18.1C150,494.3,150,512.4,161.6,512.4L161.6,512.4z"/>
		<path class="particle0" d="M176.3,503.6c11.8,0,11.8-18.3,0-18.3C164.5,485.3,164.5,503.6,176.3,503.6L176.3,503.6z"/>
		<path class="particle0" d="M190.4,494.1c11.7,0,11.7-18.2,0-18.2C178.7,475.9,178.7,494.1,190.4,494.1L190.4,494.1z"/>
		<path class="particle1" d="M194.7,487.2c5.9,0,5.9-9.2,0-9.2C188.8,478.1,188.8,487.2,194.7,487.2L194.7,487.2z"/>
		<path class="particle1" d="M201,482.4c6,0,6-9.3,0-9.3S195,482.4,201,482.4L201,482.4z"/>
		<path class="particle1" d="M209,479.4c5.9,0,5.9-9.1,0-9.1C203.1,470.3,203.1,479.4,209,479.4L209,479.4z"/>
		<path class="particle2" d="M210.9,474.5c1.9,0,1.9-3,0-3S209,474.5,210.9,474.5L210.9,474.5z"/>
		<path class="particle2" d="M189.4,486.5c1.9,0,1.9-3,0-3S187.4,486.5,189.4,486.5L189.4,486.5z"/>
		<path class="particle2" d="M172.6,496.8c1.9,0,1.9-3,0-3S170.7,496.8,172.6,496.8L172.6,496.8z"/>
		<path class="particle2" d="M163.4,502.3c1.9,0,1.9-3,0-3S161.5,502.3,163.4,502.3L163.4,502.3z"/>
		<path class="particle2" d="M153.8,506.9c1.9,0,1.9-3,0-3S151.9,506.9,153.8,506.9L153.8,506.9z"/>
	</g>
	<g class="line-6_3_">
		<path class="particle0" d="M211.5,523.1c7.7,0,7.7-12,0-12C203.8,511.1,203.8,523.1,211.5,523.1L211.5,523.1z"/>
		<path class="particle0" d="M212,501.3c7.8,0,7.8-12.1,0-12.1C204.2,489.1,204.2,501.3,212,501.3L212,501.3z"/>
		<path class="particle0" d="M210.4,482.3c7.7,0,7.7-12,0-12C202.7,470.3,202.7,482.3,210.4,482.3L210.4,482.3z"/>
		<path class="particle0" d="M211.5,533c7.9,0,7.9-12.4,0-12.4C203.6,520.6,203.6,533,211.5,533L211.5,533z"/>
		<path class="particle0" d="M210.8,547.2c11.6,0,11.6-18,0-18C199.3,529.1,199.3,547.2,210.8,547.2L210.8,547.2z"/>
		<path class="particle0" d="M210.6,521.6c11.7,0,11.7-18.2,0-18.2C198.9,503.4,198.9,521.6,210.6,521.6L210.6,521.6z"/>
		<path class="particle0" d="M210.4,486.1c11.5,0,11.5-17.9,0-17.9C198.8,468.1,198.8,486.1,210.4,486.1L210.4,486.1z"/>
		<path class="particle1" d="M212.7,536.3c5.8,0,5.8-9.1,0-9.1C206.8,527.3,206.8,536.3,212.7,536.3L212.7,536.3z"/>
		<path class="particle1" d="M211,528.3c5.9,0,5.9-9.1,0-9.1S205.2,528.3,211,528.3L211,528.3z"/>
		<path class="particle1" d="M211.5,520.9c5.8,0,5.8-9,0-9S205.7,520.9,211.5,520.9L211.5,520.9z"/>
		<path class="particle1" d="M210.3,514.1c5.9,0,5.9-9.1,0-9.1S204.4,514.1,210.3,514.1L210.3,514.1z"/>
		<path class="particle1" d="M212,506.7c5.8,0,5.8-9,0-9S206.1,506.7,212,506.7L212,506.7z"/>
		<path class="particle1" d="M211.3,500.5c5.8,0,5.8-9,0-9S205.5,500.5,211.3,500.5L211.3,500.5z"/>
		<path class="particle1" d="M212.2,495.2c5.8,0,5.8-9,0-9S206.4,495.2,212.2,495.2L212.2,495.2z"/>
		<path class="particle1" d="M211.3,487.3c5.9,0,5.9-9.2,0-9.2S205.4,487.3,211.3,487.3L211.3,487.3z"/>
		<path class="particle2" d="M210.7,533.7c2,0,2-3.1,0-3.1S208.7,533.7,210.7,533.7L210.7,533.7z"/>
		<path class="particle2" d="M211.8,523.4c2,0,2-3.1,0-3.1S209.9,523.4,211.8,523.4L211.8,523.4z"/>
		<path class="particle2" d="M212.5,509c2,0,2-3.1,0-3.1S210.6,509,212.5,509L212.5,509z"/>
		<path class="particle2" d="M211.3,500.3c2,0,2-3.1,0-3.1C209.4,497.2,209.4,500.3,211.3,500.3L211.3,500.3z"/>
		<path class="particle2" d="M212.1,488.6c2,0,2-3.1,0-3.1C210.1,485.5,210.1,488.6,212.1,488.6L212.1,488.6z"/>
	</g>
	<g class="line-7_1_">
		<path class="particle0" d="M96.6,473.2c3.8,0,3.8-5.8,0-5.8C92.8,467.4,92.8,473.2,96.6,473.2L96.6,473.2z"/>
		<path class="particle0" d="M93.6,530.2c7.7,0,7.7-12,0-12S85.9,530.2,93.6,530.2L93.6,530.2z"/>
		<path class="particle0" d="M93.2,490.6c7.8,0,7.8-12.1,0-12.1S85.5,490.6,93.2,490.6L93.2,490.6z"/>
		<path class="particle0" d="M94.1,485.3c5.8,0,5.8-9,0-9C88.3,476.3,88.3,485.3,94.1,485.3L94.1,485.3z"/>
		<path class="particle0" d="M92.9,540c11.4,0,11.4-17.7,0-17.7C81.5,522.3,81.5,540,92.9,540L92.9,540z"/>
		<path class="particle0" d="M94.8,517c11.7,0,11.7-18.2,0-18.2C83.1,498.8,83.1,517,94.8,517L94.8,517z"/>
		<path class="particle1" d="M95.6,526c5.9,0,5.9-9.2,0-9.2C89.7,516.9,89.7,526,95.6,526L95.6,526z"/>
		<path class="particle1" d="M92.5,516.5c5.7,0,5.7-8.9,0-8.9S86.8,516.5,92.5,516.5L92.5,516.5z"/>
		<path class="particle1" d="M93.9,504.5c5.7,0,5.7-8.8,0-8.8C88.2,495.7,88.2,504.5,93.9,504.5L93.9,504.5z"/>
		<path class="particle1" d="M94.6,495.6c5.7,0,5.7-8.9,0-8.9S88.9,495.6,94.6,495.6L94.6,495.6z"/>
		<path class="particle1" d="M94.7,482.6c11.7,0,11.7-18.1,0-18.1S83.1,482.6,94.7,482.6L94.7,482.6z"/>
		<path class="particle2" d="M94.1,533.7c1.9,0,1.9-3,0-3C92.2,530.7,92.2,533.7,94.1,533.7L94.1,533.7z"/>
		<path class="particle2" d="M93.4,518.8c1.9,0,1.9-3,0-3C91.5,515.8,91.5,518.8,93.4,518.8L93.4,518.8z"/>
		<path class="particle2" d="M94.9,510.6c1.9,0,1.9-3,0-3C93,507.5,93,510.6,94.9,510.6L94.9,510.6z"/>
		<path class="particle2" d="M94.6,499.1c1.9,0,1.9-3,0-3C92.7,496.1,92.7,499.1,94.6,499.1L94.6,499.1z"/>
		<path class="particle2" d="M93.9,491.9c1.9,0,1.9-3,0-3C92,488.9,92,491.9,93.9,491.9L93.9,491.9z"/>
		<path class="particle2" d="M93.4,485.1c1.9,0,1.9-3,0-3C91.5,482.1,91.5,485.1,93.4,485.1L93.4,485.1z"/>
	</g>
	<g class="line-8_3_">
		<path class="particle0" d="M153.4,445.5c7.8,0,7.8-12.2,0-12.2C145.6,433.3,145.6,445.5,153.4,445.5L153.4,445.5z"/>
		<path class="particle0" d="M141.2,451.3c7.7,0,7.7-12,0-12S133.5,451.3,141.2,451.3L141.2,451.3z"/>
		<path class="particle0" d="M131.7,458c7.8,0,7.8-12.1,0-12.1S124,458,131.7,458L131.7,458z"/>
		<path class="particle0" d="M117.5,464.6c7.6,0,7.6-11.9,0-11.9S109.9,464.6,117.5,464.6L117.5,464.6z"/>
		<path class="particle0" d="M107.2,472.5c7.9,0,7.9-12.3,0-12.3S99.3,472.5,107.2,472.5L107.2,472.5z"/>
		<path class="particle0" d="M152,452.3c11.6,0,11.6-18,0-18S140.4,452.3,152,452.3L152,452.3z"/>
		<path class="particle0" d="M102.8,478c11.5,0,11.5-17.9,0-17.9C91.3,460.1,91.3,478,102.8,478L102.8,478z"/>
		<path class="particle0" d="M113.3,471.7c11.8,0,11.8-18.3,0-18.3C101.6,453.4,101.6,471.7,113.3,471.7L113.3,471.7z"/>
		<path class="particle1" d="M102.5,472.6c0.3-0.2,0.7-0.3,1-0.5c1-0.5,1.7-1.6,2-2.6c0.3-1.1,0.2-2.4-0.5-3.4c-0.6-1-1.4-1.7-2.6-2
			c-1.2-0.3-2.2-0.1-3.4,0.5c-0.3,0.2-0.7,0.3-1,0.5c-1,0.5-1.7,1.6-2,2.6c-0.3,1.1-0.2,2.4,0.5,3.4c0.6,1,1.4,1.7,2.6,2
			C100.3,473.2,101.4,473.1,102.5,472.6L102.5,472.6z"/>
		<path class="particle1" d="M120.3,461.3c5.8,0,5.8-9,0-9S114.5,461.3,120.3,461.3L120.3,461.3z"/>
		<path class="particle1" d="M136.3,453.9c5.9,0,5.9-9.1,0-9.1C130.4,444.7,130.4,453.9,136.3,453.9L136.3,453.9z"/>
		<path class="particle1" d="M142.9,450.1c5.9,0,5.9-9.2,0-9.2S137,450.1,142.9,450.1L142.9,450.1z"/>
		<path class="particle1" d="M118.3,459.6c5.9,0,5.9-9.1,0-9.1C112.4,450.4,112.4,459.6,118.3,459.6L118.3,459.6z"/>
		<path class="particle1" d="M127.9,457.9c5.9,0,5.9-9.2,0-9.2C122,448.7,122,457.9,127.9,457.9L127.9,457.9z"/>
		<path class="particle1" d="M148.7,445.8c5.8,0,5.8-9,0-9C142.9,436.7,142.9,445.8,148.7,445.8L148.7,445.8z"/>
		<path class="particle2" d="M140.3,447c1.9,0,1.9-3,0-3C138.4,444,138.4,447,140.3,447L140.3,447z"/>
		<path class="particle2" d="M122.8,457.1c1.9,0,1.9-3,0-3C120.9,454.1,120.9,457.1,122.8,457.1L122.8,457.1z"/>
		<path class="particle2" d="M110.7,464.7c1.9,0,1.9-3,0-3C108.8,461.7,108.8,464.7,110.7,464.7L110.7,464.7z"/>
		<path class="particle2" d="M102.4,468.6c1.9,0,1.9-3,0-3C100.5,465.6,100.5,468.6,102.4,468.6L102.4,468.6z"/>
	</g>
	<g class="line-9_3_">
		<path class="particle0" d="M192.3,467.2c7.6,0,7.6-11.9,0-11.9C184.7,455.3,184.7,467.2,192.3,467.2L192.3,467.2z"/>
		<path class="particle0" d="M178.1,457.8c5.8,0,5.8-9,0-9C172.3,448.8,172.3,457.8,178.1,457.8L178.1,457.8z"/>
		<path class="particle0" d="M166.6,452.8c7.7,0,7.7-12,0-12S159,452.8,166.6,452.8L166.6,452.8z"/>
		<path class="particle0" d="M175.6,461.9c11.7,0,11.7-18.1,0-18.1C164,443.8,164,461.9,175.6,461.9L175.6,461.9z"/>
		<path class="particle1" d="M206.5,474.5c5.8,0,5.8-9,0-9S200.7,474.5,206.5,474.5L206.5,474.5z"/>
		<path class="particle1" d="M198.1,469.5c5.9,0,5.9-9.1,0-9.1C192.2,460.5,192.2,469.5,198.1,469.5L198.1,469.5z"/>
		<path class="particle1" d="M187.6,463.5c5.8,0,5.8-8.9,0-8.9C181.9,454.6,181.9,463.5,187.6,463.5L187.6,463.5z"/>
		<path class="particle1" d="M178.8,460c7.7,0,7.7-11.9,0-11.9C171.1,448,171.1,460,178.8,460L178.8,460z"/>
		<path class="particle1" d="M168.1,452.8c5.8,0,5.8-9.1,0-9.1S162.3,452.8,168.1,452.8L168.1,452.8z"/>
		<path class="particle1" d="M159.8,448c5.9,0,5.9-9.2,0-9.2S153.9,448,159.8,448L159.8,448z"/>
		<path class="particle1" d="M153.4,445.5c7.9,0,7.9-12.2,0-12.2C145.5,433.3,145.5,445.5,153.4,445.5L153.4,445.5z"/>
		<path class="particle2" d="M201.5,468.7c2,0,2-3.1,0-3.1S199.6,468.7,201.5,468.7L201.5,468.7z"/>
		<path class="particle2" d="M182.5,456.4c2,0,2-3.1,0-3.1C180.5,453.4,180.5,456.4,182.5,456.4L182.5,456.4z"/>
		<path class="particle2" d="M172.1,451.3c2,0,2-3.1,0-3.1S170.2,451.3,172.1,451.3L172.1,451.3z"/>
		<path class="particle2" d="M160,444.9c2,0,2-3.1,0-3.1S158,444.9,160,444.9L160,444.9z"/>
		<path class="particle2" d="M153.8,440.8c2,0,2-3.1,0-3.1S151.8,440.8,153.8,440.8L153.8,440.8z"/>
	</g>
</g>
<g id="cubo2">
	<g class="line-1_2_">
		<path class="particle0" d="M436.9,463.7c7.7,0,7.7-12.1,0-12.1C429.2,451.7,429.2,463.7,436.9,463.7L436.9,463.7z"/>
		<path class="particle0" d="M459,452.7c7.7,0,7.7-12,0-12C451.3,440.6,451.3,452.7,459,452.7L459,452.7z"/>
		<path class="particle0" d="M420.2,476.7c11.5,0,11.5-17.9,0-17.9C408.7,458.8,408.7,476.7,420.2,476.7L420.2,476.7z"/>
		<path class="particle0" d="M466.1,449.1c11.6,0,11.6-18,0-18S454.5,449.1,466.1,449.1L466.1,449.1z"/>
		<path class="particle0" d="M472,444.6c11.6,0,11.6-18,0-18C460.3,426.6,460.3,444.6,472,444.6L472,444.6z"/>
		<path class="particle0" d="M444,464.3c11.7,0,11.7-18.2,0-18.2S432.3,464.3,444,464.3L444,464.3z"/>
		<path class="particle0" d="M433.8,471.9c11.7,0,11.7-18.1,0-18.1C422.1,453.8,422.1,471.9,433.8,471.9L433.8,471.9z"/>
		<path class="particle1" d="M468.9,440.4c5.8,0,5.8-9.1,0-9.1C463,431.3,463,440.4,468.9,440.4L468.9,440.4z"/>
		<path class="particle1" d="M421.7,474.6c7.7,0,7.7-11.9,0-11.9S414,474.6,421.7,474.6L421.7,474.6z"/>
		<path class="particle1" d="M429.3,468c5.9,0,5.9-9.2,0-9.2S423.4,468,429.3,468L429.3,468z"/>
		<path class="particle1" d="M438.3,462.2c5.8,0,5.8-9,0-9C432.5,453.2,432.5,462.2,438.3,462.2L438.3,462.2z"/>
		<path class="particle1" d="M444.4,458.3c5.8,0,5.8-9.1,0-9.1C438.5,449.2,438.5,458.3,444.4,458.3L444.4,458.3z"/>
		<path class="particle1" d="M452.3,454.5c5.9,0,5.9-9.1,0-9.1C446.5,445.4,446.5,454.5,452.3,454.5L452.3,454.5z"/>
		<path class="particle1" d="M461.1,449c5.9,0,5.9-9.1,0-9.1S455.2,449,461.1,449L461.1,449z"/>
		<path class="particle1" d="M415.1,477.9c9.5,0,9.5-14.7,0-14.7C405.7,463.2,405.7,477.9,415.1,477.9L415.1,477.9z"/>
		<path class="particle2" d="M417.2,470.6c2.1,0,2.1-3.3,0-3.3C415.1,467.3,415.1,470.6,417.2,470.6L417.2,470.6z"/>
		<path class="particle2" d="M424.7,466.1c2.1,0,2.1-3.3,0-3.3C422.6,462.7,422.6,466.1,424.7,466.1L424.7,466.1z"/>
		<path class="particle2" d="M432,461.4c2.1,0,2.1-3.3,0-3.3C429.9,458.1,429.9,461.4,432,461.4L432,461.4z"/>
		<path class="particle2" d="M451.8,451.3c2.1,0,2.1-3.3,0-3.3C449.7,448,449.7,451.3,451.8,451.3L451.8,451.3z"/>
		<path class="particle2" d="M461.9,444.7c2.1,0,2.1-3.3,0-3.3C459.8,441.3,459.8,444.7,461.9,444.7L461.9,444.7z"/>
		<path class="particle2" d="M470.6,439.4c2.1,0,2.1-3.3,0-3.3C468.5,436.1,468.5,439.4,470.6,439.4L470.6,439.4z"/>
	</g>
	<g class="line-2_2_">
		<path class="particle0" d="M414.9,477.9c9.3,0,9.3-14.5,0-14.5S405.6,477.9,414.9,477.9L414.9,477.9z"/>
		<path class="particle0" d="M376.9,457.7c7.7,0,7.7-11.9,0-11.9S369.3,457.7,376.9,457.7L376.9,457.7z"/>
		<path class="particle0" d="M360.4,447.8c7.7,0,7.7-11.9,0-11.9S352.8,447.8,360.4,447.8L360.4,447.8z"/>
		<path class="particle0" d="M407.5,477.8c11.7,0,11.7-18.2,0-18.2C395.8,459.6,395.8,477.8,407.5,477.8L407.5,477.8z"/>
		<path class="particle0" d="M367.8,450.3c5.9,0,5.9-9.2,0-9.2S361.9,450.3,367.8,450.3L367.8,450.3z"/>
		<path class="particle0" d="M388.9,468.2c11.7,0,11.7-18.1,0-18.1C377.2,450.1,377.2,468.2,388.9,468.2L388.9,468.2z"/>
		<path class="particle0" d="M399.3,474.8c11.5,0,11.5-17.8,0-17.8C387.8,457,387.8,474.8,399.3,474.8L399.3,474.8z"/>
		<path class="particle1" d="M358.8,440.7c5.9,0,5.9-9.1,0-9.1C353,431.5,353,440.7,358.8,440.7L358.8,440.7z"/>
		<path class="particle1" d="M360.2,443c0.2,0.3,0.3,0.6,0.5,0.9c0.5,0.9,1.6,1.6,2.5,1.9c1,0.3,2.3,0.2,3.2-0.5c0.9-0.5,1.6-1.4,1.9-2.5
			s0.1-2.1-0.5-3.2c-0.2-0.3-0.3-0.6-0.5-0.9c-0.5-0.9-1.6-1.6-2.5-1.9c-1-0.3-2.3-0.2-3.2,0.5c-0.9,0.5-1.6,1.4-1.9,2.5
			C359.5,441,359.7,442,360.2,443L360.2,443z"/>
		<path class="particle1" d="M369.3,456.2c11.6,0,11.6-17.9,0-17.9S357.8,456.2,369.3,456.2L369.3,456.2z"/>
		<path class="particle1" d="M374,453.6c5.9,0,5.9-9.2,0-9.2C368,444.4,368,453.6,374,453.6L374,453.6z"/>
		<path class="particle1" d="M386.3,460.8c5.8,0,5.8-9,0-9C380.5,451.9,380.5,460.8,386.3,460.8L386.3,460.8z"/>
		<path class="particle1" d="M391.8,456.2c-0.3,0-0.8-0.3-0.9-0.6c-0.5-1.9-2.7-3.2-4.6-2.6c-1.8,0.4-3.1,2.4-2.5,4.4
			c0.7,2.8,3.2,5.2,6,5.9c1.9,0.4,4.1-0.6,4.6-2.6C394.8,458.8,393.7,456.4,391.8,456.2z"/>
		<path class="particle1" d="M402,469.9c5.6,0,5.6-8.8,0-8.8S396.3,469.9,402,469.9L402,469.9z"/>
		<path class="particle1" d="M404.3,473.2c5.8,0,5.8-8.9,0-8.9S398.5,473.2,404.3,473.2L404.3,473.2z"/>
		<path class="particle1" d="M397.4,466.3c5.8,0,5.8-9,0-9C391.6,457.3,391.6,466.3,397.4,466.3L397.4,466.3z"/>
		<path class="particle1" d="M358.7,436.1c0.2-0.3,0.3-0.7,0.5-1c0.5-1.1,0.8-2.2,0.5-3.4c-0.3-1-1.1-2.1-2-2.6c-1-0.6-2.2-0.8-3.4-0.5
			c-1.1,0.3-2.1,1-2.6,2c-0.2,0.3-0.3,0.7-0.5,1c-0.5,1.1-0.8,2.2-0.5,3.4c0.3,1,1.1,2.1,2,2.6c1,0.6,2.2,0.8,3.4,0.5
			C357.1,437.8,358.2,437.1,358.7,436.1L358.7,436.1z"/>
		<path class="particle2" d="M413.2,472c1.9,0,1.9-2.9,0-2.9C411.4,469.1,411.4,472,413.2,472L413.2,472z"/>
		<path class="particle2" d="M407,468.7c1.9,0,1.9-2.9,0-2.9C405.2,465.8,405.2,468.7,407,468.7L407,468.7z"/>
		<path class="particle2" d="M397.2,462.8c1.9,0,1.9-2.9,0-2.9C395.3,459.8,395.3,462.8,397.2,462.8L397.2,462.8z"/>
		<path class="particle2" d="M390.3,459.6c1.9,0,1.9-2.9,0-2.9C388.4,456.7,388.4,459.6,390.3,459.6L390.3,459.6z"/>
		<path class="particle2" d="M381.6,454.3c1.9,0,1.9-2.9,0-2.9C379.7,451.4,379.7,454.3,381.6,454.3L381.6,454.3z"/>
		<path class="particle2" d="M375.4,449.5c1.9,0,1.9-2.9,0-2.9C373.5,446.6,373.5,449.5,375.4,449.5L375.4,449.5z"/>
		<path class="particle2" d="M364.6,443.1c1.9,0,1.9-2.9,0-2.9C362.7,440.1,362.7,443.1,364.6,443.1L364.6,443.1z"/>
		<path class="particle2" d="M355.9,438.3c1.9,0,1.9-2.9,0-2.9C354,435.3,354,438.3,355.9,438.3L355.9,438.3z"/>
	</g>
	<g class="line-3_2_">
		<path class="particle0" d="M413.4,411.1c9.7,0,9.7-15,0-15C403.8,396.1,403.8,411.1,413.4,411.1L413.4,411.1z"/>
		<path class="particle0" d="M414.9,453.2c7.8,0,7.8-12.2,0-12.2C407.1,441,407.1,453.2,414.9,453.2L414.9,453.2z"/>
		<path class="particle0" d="M413.8,436.1c7.8,0,7.8-12.2,0-12.2C406,423.9,406,436.1,413.8,436.1L413.8,436.1z"/>
		<path class="particle0" d="M413.4,420.1c5.9,0,5.9-9.1,0-9.1S407.6,420.1,413.4,420.1L413.4,420.1z"/>
		<path class="particle0" d="M412.7,417c9,0,9-14,0-14C403.6,403,403.6,417,412.7,417L412.7,417z"/>
		<path class="particle0" d="M413.1,449.4c11.6,0,11.6-17.9,0-17.9S401.6,449.4,413.1,449.4L413.1,449.4z"/>
		<path class="particle0" d="M415.1,478.3c11.6,0,11.6-18,0-18S403.5,478.3,415.1,478.3L415.1,478.3z"/>
		<path class="particle0" d="M413.8,429.3c11.6,0,11.6-18,0-18C402.2,411.3,402.2,429.3,413.8,429.3L413.8,429.3z"/>
		<path class="particle1" d="M414.2,468.6c5.9,0,5.9-9.2,0-9.2S408.3,468.6,414.2,468.6L414.2,468.6z"/>
		<path class="particle1" d="M414.2,458.2c5.9,0,5.9-9.2,0-9.2S408.3,458.2,414.2,458.2L414.2,458.2z"/>
		<path class="particle1" d="M414.7,450.9c5.9,0,5.9-9.2,0-9.2S408.8,450.9,414.7,450.9L414.7,450.9z"/>
		<path class="particle1" d="M413.8,439.1c5.8,0,5.8-9.1,0-9.1S407.9,439.1,413.8,439.1L413.8,439.1z"/>
		<path class="particle1" d="M413.3,432.5c5.9,0,5.9-9.2,0-9.2C407.4,423.3,407.4,432.5,413.3,432.5L413.3,432.5z"/>
		<path class="particle1" d="M412.1,420.9c5.9,0,5.9-9.2,0-9.2C406.2,411.7,406.2,420.9,412.1,420.9L412.1,420.9z"/>
		<path class="particle1" d="M413.2,410.6c6,0,6-9.2,0-9.2S407.2,410.6,413.2,410.6L413.2,410.6z"/>
		<path class="particle1" d="M408,412.5c5.9,0,5.9-9.2,0-9.2C402.1,403.3,402.1,412.5,408,412.5L408,412.5z"/>
		<path class="particle2" d="M414.8,459.2c2,0,2-3.1,0-3.1C412.8,456.1,412.8,459.2,414.8,459.2L414.8,459.2z"/>
		<path class="particle2" d="M413.7,448c2,0,2-3.1,0-3.1C411.7,444.9,411.7,448,413.7,448L413.7,448z"/>
		<path class="particle2" d="M413,439.5c2,0,2-3.1,0-3.1C411,436.4,411,439.5,413,439.5L413,439.5z"/>
		<path class="particle2" d="M413.4,418.2c2,0,2-3.1,0-3.1C411.5,415,411.5,418.2,413.4,418.2L413.4,418.2z"/>
	</g>
	<g class="line-4_2_">
		<path class="particle0" d="M374.9,386.7c5.9,0,5.9-9.2,0-9.2C369,377.5,369,386.7,374.9,386.7L374.9,386.7z"/>
		<path class="particle0" d="M392.4,396.4c6,0,6-9.3,0-9.3S386.4,396.4,392.4,396.4L392.4,396.4z"/>
		<path class="particle0" d="M400.4,401.2c5.9,0,5.9-9.2,0-9.2S394.5,401.2,400.4,401.2L400.4,401.2z"/>
		<path class="particle0" d="M356,378.8c9.1,0,9.1-14.1,0-14.1C346.9,364.7,346.9,378.8,356,378.8L356,378.8z"/>
		<path class="particle0" d="M409.6,409.9c9.1,0,9.1-14,0-14C400.5,395.8,400.5,409.9,409.6,409.9L409.6,409.9z"/>
		<path class="particle1" d="M413.3,410c5,0,5-7.7,0-7.7S408.3,410,413.3,410L413.3,410z"/>
		<path class="particle1" d="M353.4,373.7c4.7,0,4.7-7.4,0-7.4S348.6,373.7,353.4,373.7L353.4,373.7z"/>
		<path class="particle1" d="M405.3,403.1c4.4,0,4.4-6.9,0-6.9C400.8,396.2,400.8,403.1,405.3,403.1L405.3,403.1z"/>
		<path class="particle1" d="M382.5,390.2c4.5,0,4.5-7,0-7S378,390.2,382.5,390.2L382.5,390.2z"/>
		<path class="particle1" d="M364.2,379.1c4.2,0,4.2-6.5,0-6.5S360,379.1,364.2,379.1L364.2,379.1z"/>
		<path class="particle1" d="M399.7,397.5c4.5,0,4.5-6.9,0-6.9C395.3,390.6,395.3,397.5,399.7,397.5L399.7,397.5z"/>
		<path class="particle1" d="M381.6,388.8c4.5,0,4.5-7,0-7C377.1,381.8,377.1,388.8,381.6,388.8L381.6,388.8z"/>
		<path class="particle1" d="M376.6,384.2c0.2,0,0.5,0,0.7,0c0.9,0,1.8-0.4,2.4-1s1-1.6,1-2.4c-0.1-0.9-0.3-1.8-1-2.4
			c-0.7-0.6-1.5-1-2.4-1c-0.2,0-0.5,0-0.7,0c-0.9,0-1.8,0.4-2.4,1s-1,1.6-1,2.4c0.1,0.9,0.3,1.8,1,2.4
			C374.9,383.8,375.8,384.2,376.6,384.2L376.6,384.2z"/>
		<path class="particle1" d="M388.1,392c4.5,0,4.5-6.9,0-6.9C383.6,385.1,383.6,392,388.1,392L388.1,392z"/>
		<path class="particle1" d="M367.7,380.8c0.2,0,0.5,0,0.7,0c0.9,0,1.8-0.4,2.4-1s1-1.6,1-2.4c-0.1-0.9-0.3-1.8-1-2.4
			c-0.7-0.6-1.5-1-2.4-1c-0.2,0-0.5,0-0.7,0c-0.9,0-1.8,0.4-2.4,1s-1,1.6-1,2.4c0.1,0.9,0.3,1.8,1,2.4
			C366,380.4,366.8,380.8,367.7,380.8L367.7,380.8z"/>
		<path class="particle1" d="M369.7,383.5c4.5,0,4.5-6.9,0-6.9S365.2,383.5,369.7,383.5L369.7,383.5z"/>
		<path class="particle2" d="M362,374.9c1.3,0,1.3-2,0-2C360.7,372.9,360.7,374.9,362,374.9L362,374.9z"/>
		<path class="particle2" d="M355.9,371.4c1.5,0,1.5-2.4,0-2.4C354.4,369,354.4,371.4,355.9,371.4L355.9,371.4z"/>
		<path class="particle2" d="M375.6,382.4c1.5,0,1.5-2.4,0-2.4C374.1,380,374.1,382.4,375.6,382.4L375.6,382.4z"/>
		<path class="particle2" d="M368.5,379.4c1.4,0,1.4-2.2,0-2.2S367.1,379.4,368.5,379.4L368.5,379.4z"/>
		<path class="particle2" d="M389.2,390.2c1.5,0,1.5-2.3,0-2.3C387.8,387.8,387.8,390.2,389.2,390.2L389.2,390.2z"/>
		<path class="particle2" d="M404.3,400.7c1.5,0,1.5-2.4,0-2.4C402.8,398.4,402.8,400.7,404.3,400.7L404.3,400.7z"/>
		<path class="particle2" d="M395.6,395c1.5,0,1.5-2.3,0-2.3S394.1,395,395.6,395L395.6,395z"/>
		<path class="particle2" d="M381.6,387.1c1.4,0,1.4-2.3,0-2.3C380.1,384.9,380.1,387.1,381.6,387.1L381.6,387.1z"/>
	</g>
	<g class="line-5_2_">
		<path class="particle0" d="M427.9,402.5c7.8,0,7.8-12.1,0-12.1C420.2,390.4,420.2,402.5,427.9,402.5L427.9,402.5z"/>
		<path class="particle0" d="M442.7,393.9c7.7,0,7.7-12,0-12C435,381.9,435,393.9,442.7,393.9L442.7,393.9z"/>
		<path class="particle0" d="M462,382.2c7.8,0,7.8-12.1,0-12.1C454.2,370.1,454.2,382.2,462,382.2L462,382.2z"/>
		<path class="particle0" d="M427.8,399.6c3.9,0,3.9-6,0-6S423.9,399.6,427.8,399.6L427.8,399.6z"/>
		<path class="particle0" d="M445.4,390.5c4,0,4-6.1,0-6.1S441.5,390.5,445.4,390.5L445.4,390.5z"/>
		<path class="particle0" d="M416.2,411c11.6,0,11.6-18.1,0-18.1C404.6,392.9,404.6,411,416.2,411L416.2,411z"/>
		<path class="particle0" d="M422.7,409.8c11.7,0,11.7-18.1,0-18.1C411,391.8,411,409.8,422.7,409.8L422.7,409.8z"/>
		<path class="particle0" d="M437.4,401.1c11.8,0,11.8-18.3,0-18.3C425.6,382.8,425.6,401.1,437.4,401.1L437.4,401.1z"/>
		<path class="particle0" d="M451.4,391.6c11.7,0,11.7-18.2,0-18.2S439.7,391.6,451.4,391.6L451.4,391.6z"/>
		<path class="particle1" d="M455.8,384.7c5.9,0,5.9-9.2,0-9.2C449.9,375.5,449.9,384.7,455.8,384.7L455.8,384.7z"/>
		<path class="particle1" d="M462,379.9c6,0,6-9.3,0-9.3C456.1,370.6,456.1,379.9,462,379.9L462,379.9z"/>
		<path class="particle1" d="M470,376.9c5.9,0,5.9-9.1,0-9.1S464.2,376.9,470,376.9L470,376.9z"/>
		<path class="particle2" d="M472,372c1.9,0,1.9-3,0-3S470,372,472,372L472,372z"/>
		<path class="particle2" d="M450.4,383.9c1.9,0,1.9-3,0-3S448.5,383.9,450.4,383.9L450.4,383.9z"/>
		<path class="particle2" d="M433.6,394.3c1.9,0,1.9-3,0-3S431.7,394.3,433.6,394.3L433.6,394.3z"/>
		<path class="particle2" d="M424.5,399.8c1.9,0,1.9-3,0-3S422.5,399.8,424.5,399.8L424.5,399.8z"/>
		<path class="particle2" d="M414.8,404.4c1.9,0,1.9-3,0-3S412.9,404.4,414.8,404.4L414.8,404.4z"/>
	</g>
	<g class="line-6_2_">
		<path class="particle0" d="M472.5,420.6c7.7,0,7.7-12,0-12C464.8,408.5,464.8,420.6,472.5,420.6L472.5,420.6z"/>
		<path class="particle0" d="M473,398.8c7.8,0,7.8-12.1,0-12.1C465.2,386.6,465.2,398.8,473,398.8L473,398.8z"/>
		<path class="particle0" d="M471.4,379.7c7.7,0,7.7-12,0-12C463.7,367.8,463.7,379.7,471.4,379.7L471.4,379.7z"/>
		<path class="particle0" d="M472.5,430.4c7.9,0,7.9-12.4,0-12.4C464.6,418.1,464.6,430.4,472.5,430.4L472.5,430.4z"/>
		<path class="particle0" d="M471.8,444.6c11.6,0,11.6-18,0-18C460.3,426.6,460.3,444.6,471.8,444.6L471.8,444.6z"/>
		<path class="particle0" d="M471.6,419.1c11.7,0,11.7-18.2,0-18.2S459.9,419.1,471.6,419.1L471.6,419.1z"/>
		<path class="particle0" d="M471.4,383.5c11.5,0,11.5-17.9,0-17.9C459.8,365.6,459.8,383.5,471.4,383.5L471.4,383.5z"/>
		<path class="particle1" d="M473.7,433.8c5.8,0,5.8-9.1,0-9.1S467.8,433.8,473.7,433.8L473.7,433.8z"/>
		<path class="particle1" d="M472.1,425.8c5.9,0,5.9-9.1,0-9.1S466.2,425.8,472.1,425.8L472.1,425.8z"/>
		<path class="particle1" d="M472.5,418.3c5.8,0,5.8-9,0-9S466.8,418.3,472.5,418.3L472.5,418.3z"/>
		<path class="particle1" d="M471.3,411.6c5.9,0,5.9-9.1,0-9.1S465.5,411.6,471.3,411.6L471.3,411.6z"/>
		<path class="particle1" d="M473,404.1c5.8,0,5.8-9,0-9C467.2,395.1,467.2,404.1,473,404.1L473,404.1z"/>
		<path class="particle1" d="M472.3,397.9c5.8,0,5.8-9,0-9S466.6,397.9,472.3,397.9L472.3,397.9z"/>
		<path class="particle1" d="M473.2,392.6c5.8,0,5.8-9,0-9S467.4,392.6,473.2,392.6L473.2,392.6z"/>
		<path class="particle1" d="M472.3,384.7c5.9,0,5.9-9.2,0-9.2C466.4,375.5,466.4,384.7,472.3,384.7L472.3,384.7z"/>
		<path class="particle2" d="M471.7,431.2c2,0,2-3.1,0-3.1S469.8,431.2,471.7,431.2L471.7,431.2z"/>
		<path class="particle2" d="M472.9,420.9c2,0,2-3.1,0-3.1S470.9,420.9,472.9,420.9L472.9,420.9z"/>
		<path class="particle2" d="M473.6,406.5c2,0,2-3.1,0-3.1S471.6,406.5,473.6,406.5L473.6,406.5z"/>
		<path class="particle2" d="M472.3,397.7c2,0,2-3.1,0-3.1S470.4,397.7,472.3,397.7L472.3,397.7z"/>
		<path class="particle2" d="M473.1,386c2,0,2-3.1,0-3.1C471.1,382.9,471.1,386,473.1,386L473.1,386z"/>
	</g>
	<g class="line-7_2_">
		<path class="particle0" d="M357.6,370.7c3.8,0,3.8-5.8,0-5.8S353.8,370.7,357.6,370.7L357.6,370.7z"/>
		<path class="particle0" d="M354.7,427.6c7.7,0,7.7-12,0-12S346.9,427.6,354.7,427.6L354.7,427.6z"/>
		<path class="particle0" d="M354.2,388c7.8,0,7.8-12.1,0-12.1C346.5,375.9,346.5,388,354.2,388L354.2,388z"/>
		<path class="particle0" d="M355.1,382.8c5.8,0,5.8-9,0-9C349.3,373.8,349.3,382.8,355.1,382.8L355.1,382.8z"/>
		<path class="particle0" d="M353.9,437.4c11.4,0,11.4-17.7,0-17.7C342.5,419.7,342.5,437.4,353.9,437.4L353.9,437.4z"/>
		<path class="particle0" d="M355.9,414.5c11.7,0,11.7-18.2,0-18.2C344.1,396.3,344.1,414.5,355.9,414.5L355.9,414.5z"/>
		<path class="particle1" d="M356.6,423.5c5.9,0,5.9-9.2,0-9.2C350.7,414.3,350.7,423.5,356.6,423.5L356.6,423.5z"/>
		<path class="particle1" d="M353.6,413.9c5.7,0,5.7-8.9,0-8.9C347.8,405.1,347.8,413.9,353.6,413.9L353.6,413.9z"/>
		<path class="particle1" d="M354.9,402c5.7,0,5.7-8.8,0-8.8C349.2,393.1,349.2,402,354.9,402L354.9,402z"/>
		<path class="particle1" d="M355.6,393.1c5.7,0,5.7-8.9,0-8.9C349.9,384.2,349.9,393.1,355.6,393.1L355.6,393.1z"/>
		<path class="particle1" d="M355.8,380.1c11.7,0,11.7-18.1,0-18.1C344.1,362,344.1,380.1,355.8,380.1L355.8,380.1z"/>
		<path class="particle2" d="M355.2,431.2c1.9,0,1.9-3,0-3C353.2,428.1,353.2,431.2,355.2,431.2L355.2,431.2z"/>
		<path class="particle2" d="M354.4,416.3c1.9,0,1.9-3,0-3C352.5,413.3,352.5,416.3,354.4,416.3L354.4,416.3z"/>
		<path class="particle2" d="M355.9,408c1.9,0,1.9-3,0-3C354,405,354,408,355.9,408L355.9,408z"/>
		<path class="particle2" d="M355.6,396.6c1.9,0,1.9-3,0-3C353.7,393.5,353.7,396.6,355.6,396.6L355.6,396.6z"/>
		<path class="particle2" d="M354.9,389.3c1.9,0,1.9-3,0-3C353,386.3,353,389.3,354.9,389.3L354.9,389.3z"/>
		<path class="particle2" d="M354.4,382.6c1.9,0,1.9-3,0-3C352.5,379.5,352.5,382.6,354.4,382.6L354.4,382.6z"/>
	</g>
	<g class="line-8_2_">
		<path class="particle0" d="M414.5,343c7.8,0,7.8-12.2,0-12.2C406.6,330.7,406.6,343,414.5,343L414.5,343z"/>
		<path class="particle0" d="M402.2,348.7c7.7,0,7.7-12,0-12C394.5,336.8,394.5,348.7,402.2,348.7L402.2,348.7z"/>
		<path class="particle0" d="M392.8,355.5c7.8,0,7.8-12.1,0-12.1S385,355.5,392.8,355.5L392.8,355.5z"/>
		<path class="particle0" d="M378.5,362c7.6,0,7.6-11.9,0-11.9C370.9,350.1,370.9,362,378.5,362L378.5,362z"/>
		<path class="particle0" d="M368.2,370c7.9,0,7.9-12.3,0-12.3C360.3,357.7,360.3,370,368.2,370L368.2,370z"/>
		<path class="particle0" d="M413.1,349.8c11.6,0,11.6-18,0-18C401.4,331.7,401.4,349.8,413.1,349.8L413.1,349.8z"/>
		<path class="particle0" d="M363.8,375.5c11.5,0,11.5-17.9,0-17.9C352.3,357.6,352.3,375.5,363.8,375.5L363.8,375.5z"/>
		<path class="particle0" d="M374.3,369.1c11.8,0,11.8-18.3,0-18.3C362.6,350.9,362.6,369.1,374.3,369.1L374.3,369.1z"/>
		<path class="particle1" d="M363.6,370c0.3-0.2,0.7-0.3,1-0.5c1-0.5,1.7-1.6,2-2.6c0.3-1.1,0.2-2.4-0.5-3.4c-0.6-1-1.4-1.7-2.6-2
			c-1.2-0.3-2.2-0.1-3.4,0.5c-0.3,0.2-0.7,0.3-1,0.5c-1,0.5-1.7,1.6-2,2.6c-0.3,1.1-0.2,2.4,0.5,3.4c0.6,1,1.4,1.7,2.6,2
			C361.4,370.7,362.4,370.5,363.6,370L363.6,370z"/>
		<path class="particle1" d="M381.3,358.7c5.8,0,5.8-9,0-9S375.5,358.7,381.3,358.7L381.3,358.7z"/>
		<path class="particle1" d="M397.3,351.3c5.9,0,5.9-9.1,0-9.1S391.5,351.3,397.3,351.3L397.3,351.3z"/>
		<path class="particle1" d="M404,347.6c5.9,0,5.9-9.2,0-9.2C398.1,338.4,398.1,347.6,404,347.6L404,347.6z"/>
		<path class="particle1" d="M379.3,357c5.9,0,5.9-9.1,0-9.1S373.4,357,379.3,357L379.3,357z"/>
		<path class="particle1" d="M388.9,355.4c5.9,0,5.9-9.2,0-9.2C383,346.2,383,355.4,388.9,355.4L388.9,355.4z"/>
		<path class="particle1" d="M409.8,343.2c5.8,0,5.8-9,0-9C404,334.2,404,343.2,409.8,343.2L409.8,343.2z"/>
		<path class="particle2" d="M401.3,344.5c1.9,0,1.9-3,0-3C399.4,341.5,399.4,344.5,401.3,344.5L401.3,344.5z"/>
		<path class="particle2" d="M383.8,354.5c1.9,0,1.9-3,0-3C381.9,351.6,381.9,354.5,383.8,354.5L383.8,354.5z"/>
		<path class="particle2" d="M371.7,362.1c1.9,0,1.9-3,0-3C369.8,359.1,369.8,362.1,371.7,362.1L371.7,362.1z"/>
		<path class="particle2" d="M363.4,366c1.9,0,1.9-3,0-3C361.5,363,361.5,366,363.4,366L363.4,366z"/>
	</g>
	<g class="line-9_2_">
		<path class="particle0" d="M453.4,364.7c7.6,0,7.6-11.9,0-11.9C445.7,352.8,445.7,364.7,453.4,364.7L453.4,364.7z"/>
		<path class="particle0" d="M439.1,355.3c5.8,0,5.8-9,0-9C433.4,346.3,433.4,355.3,439.1,355.3L439.1,355.3z"/>
		<path class="particle0" d="M427.7,350.3c7.7,0,7.7-12,0-12C420,338.3,420,350.3,427.7,350.3L427.7,350.3z"/>
		<path class="particle0" d="M436.6,359.3c11.7,0,11.7-18.1,0-18.1S425,359.3,436.6,359.3L436.6,359.3z"/>
		<path class="particle1" d="M467.5,372c5.8,0,5.8-9,0-9C461.7,363,461.7,372,467.5,372L467.5,372z"/>
		<path class="particle1" d="M459.1,367c5.9,0,5.9-9.1,0-9.1C453.2,357.9,453.2,367,459.1,367L459.1,367z"/>
		<path class="particle1" d="M448.7,361c5.8,0,5.8-8.9,0-8.9C442.9,352.1,442.9,361,448.7,361L448.7,361z"/>
		<path class="particle1" d="M439.8,357.4c7.7,0,7.7-11.9,0-11.9S432.1,357.4,439.8,357.4L439.8,357.4z"/>
		<path class="particle1" d="M429.1,350.3c5.8,0,5.8-9.1,0-9.1C423.3,341.2,423.3,350.3,429.1,350.3L429.1,350.3z"/>
		<path class="particle1" d="M420.9,345.5c5.9,0,5.9-9.2,0-9.2C415,336.3,415,345.5,420.9,345.5L420.9,345.5z"/>
		<path class="particle1" d="M414.4,343c7.9,0,7.9-12.2,0-12.2C406.6,330.7,406.6,343,414.4,343L414.4,343z"/>
		<path class="particle2" d="M462.5,366.1c2,0,2-3.1,0-3.1C460.6,363,460.6,366.1,462.5,366.1L462.5,366.1z"/>
		<path class="particle2" d="M443.5,353.9c2,0,2-3.1,0-3.1S441.5,353.9,443.5,353.9L443.5,353.9z"/>
		<path class="particle2" d="M433.2,348.8c2,0,2-3.1,0-3.1C431.2,345.7,431.2,348.8,433.2,348.8L433.2,348.8z"/>
		<path class="particle2" d="M421,342.3c2,0,2-3.1,0-3.1C419.1,339.2,419.1,342.3,421,342.3L421,342.3z"/>
		<path class="particle2" d="M414.8,338.3c2,0,2-3.1,0-3.1C412.9,335.2,412.9,338.3,414.8,338.3L414.8,338.3z"/>
	</g>
</g>
<g id="cubo3">
	<g class="line-1_4_">
		<path class="particle0" d="M104.5,327.7c7.7,0,7.7-12.1,0-12.1C96.7,315.7,96.7,327.7,104.5,327.7L104.5,327.7z"/>
		<path class="particle0" d="M126.5,316.7c7.7,0,7.7-12,0-12C118.8,304.6,118.8,316.7,126.5,316.7L126.5,316.7z"/>
		<path class="particle0" d="M87.7,340.7c11.5,0,11.5-17.9,0-17.9C76.2,322.8,76.2,340.7,87.7,340.7L87.7,340.7z"/>
		<path class="particle0" d="M133.6,313.1c11.6,0,11.6-18,0-18S122,313.1,133.6,313.1L133.6,313.1z"/>
		<path class="particle0" d="M139.5,308.6c11.6,0,11.6-18,0-18S127.8,308.6,139.5,308.6L139.5,308.6z"/>
		<path class="particle0" d="M111.6,328.3c11.7,0,11.7-18.2,0-18.2S99.8,328.3,111.6,328.3L111.6,328.3z"/>
		<path class="particle0" d="M101.3,335.9c11.7,0,11.7-18.1,0-18.1S89.6,335.9,101.3,335.9L101.3,335.9z"/>
		<path class="particle1" d="M136.4,304.4c5.8,0,5.8-9.1,0-9.1S130.5,304.4,136.4,304.4L136.4,304.4z"/>
		<path class="particle1" d="M89.2,338.5c7.7,0,7.7-11.9,0-11.9S81.5,338.5,89.2,338.5L89.2,338.5z"/>
		<path class="particle1" d="M96.8,332c5.9,0,5.9-9.2,0-9.2S90.9,332,96.8,332L96.8,332z"/>
		<path class="particle1" d="M105.8,326.2c5.8,0,5.8-9,0-9S100,326.2,105.8,326.2L105.8,326.2z"/>
		<path class="particle1" d="M111.9,322.3c5.8,0,5.8-9.1,0-9.1C106.1,313.2,106.1,322.3,111.9,322.3L111.9,322.3z"/>
		<path class="particle1" d="M119.8,318.4c5.9,0,5.9-9.1,0-9.1S114,318.4,119.8,318.4L119.8,318.4z"/>
		<path class="particle1" d="M128.6,313c5.9,0,5.9-9.1,0-9.1C122.7,303.8,122.7,313,128.6,313L128.6,313z"/>
		<path class="particle1" d="M82.6,341.9c9.5,0,9.5-14.7,0-14.7S73.2,341.9,82.6,341.9L82.6,341.9z"/>
		<path class="particle2" d="M84.7,334.6c2.1,0,2.1-3.3,0-3.3C82.6,331.2,82.6,334.6,84.7,334.6L84.7,334.6z"/>
		<path class="particle2" d="M92.2,330.1c2.1,0,2.1-3.3,0-3.3C90.1,326.7,90.1,330.1,92.2,330.1L92.2,330.1z"/>
		<path class="particle2" d="M99.5,325.4c2.1,0,2.1-3.3,0-3.3C97.4,322.1,97.4,325.4,99.5,325.4L99.5,325.4z"/>
		<path class="particle2" d="M119.3,315.3c2.1,0,2.1-3.3,0-3.3C117.2,312,117.2,315.3,119.3,315.3L119.3,315.3z"/>
		<path class="particle2" d="M129.4,308.6c2.1,0,2.1-3.3,0-3.3C127.3,305.3,127.3,308.6,129.4,308.6L129.4,308.6z"/>
		<path class="particle2" d="M138.1,303.4c2.1,0,2.1-3.3,0-3.3C136,300,136,303.4,138.1,303.4L138.1,303.4z"/>
	</g>
	<g class="line-2_3_">
		<path class="particle0" d="M82.5,341.9c9.3,0,9.3-14.5,0-14.5S73.1,341.9,82.5,341.9L82.5,341.9z"/>
		<path class="particle0" d="M44.5,321.7c7.7,0,7.7-11.9,0-11.9S36.8,321.7,44.5,321.7L44.5,321.7z"/>
		<path class="particle0" d="M28,311.8c7.7,0,7.7-11.9,0-11.9S20.3,311.8,28,311.8L28,311.8z"/>
		<path class="particle0" d="M75.1,341.8c11.7,0,11.7-18.2,0-18.2C63.3,323.6,63.3,341.8,75.1,341.8L75.1,341.8z"/>
		<path class="particle0" d="M35.3,314.3c5.9,0,5.9-9.2,0-9.2C29.4,305.2,29.4,314.3,35.3,314.3L35.3,314.3z"/>
		<path class="particle0" d="M56.4,332.2c11.7,0,11.7-18.1,0-18.1C44.7,314.1,44.7,332.2,56.4,332.2L56.4,332.2z"/>
		<path class="particle0" d="M66.8,338.8c11.5,0,11.5-17.8,0-17.8S55.3,338.8,66.8,338.8L66.8,338.8z"/>
		<path class="particle1" d="M26.4,304.7c5.9,0,5.9-9.1,0-9.1S20.5,304.7,26.4,304.7L26.4,304.7z"/>
		<path class="particle1" d="M27.7,307c0.2,0.3,0.3,0.6,0.5,0.9c0.5,0.9,1.6,1.6,2.5,1.9c1,0.3,2.3,0.2,3.2-0.5c0.9-0.5,1.6-1.4,1.9-2.5
			c0.3-1.1,0.1-2.1-0.5-3.2c-0.2-0.3-0.3-0.6-0.5-0.9c-0.5-0.9-1.6-1.6-2.5-1.9c-1-0.3-2.3-0.2-3.2,0.5c-0.9,0.5-1.6,1.4-1.9,2.5
			C27,305,27.2,306,27.7,307L27.7,307z"/>
		<path class="particle1" d="M36.9,320.2c11.6,0,11.6-17.9,0-17.9S25.3,320.2,36.9,320.2L36.9,320.2z"/>
		<path class="particle1" d="M41.5,317.6c5.9,0,5.9-9.2,0-9.2S35.6,317.6,41.5,317.6L41.5,317.6z"/>
		<path class="particle1" d="M53.8,324.8c5.8,0,5.8-9,0-9S48,324.8,53.8,324.8L53.8,324.8z"/>
		<path class="particle1" d="M59.3,320.2c-0.3,0-0.8-0.3-0.9-0.6c-0.5-1.9-2.7-3.2-4.6-2.6c-1.8,0.4-3.1,2.4-2.5,4.4
			c0.7,2.8,3.2,5.2,6,5.9c1.9,0.4,4.1-0.6,4.6-2.6C62.3,322.8,61.2,320.4,59.3,320.2z"/>
		<path class="particle1" d="M69.5,333.8c5.6,0,5.6-8.8,0-8.8S63.8,333.8,69.5,333.8L69.5,333.8z"/>
		<path class="particle1" d="M71.8,337.2c5.8,0,5.8-8.9,0-8.9C66,328.2,66,337.2,71.8,337.2L71.8,337.2z"/>
		<path class="particle1" d="M64.9,330.3c5.8,0,5.8-9,0-9S59.1,330.3,64.9,330.3L64.9,330.3z"/>
		<path class="particle1" d="M26.2,300.1c0.2-0.3,0.3-0.7,0.5-1c0.5-1.1,0.8-2.2,0.5-3.4c-0.3-1-1.1-2.1-2-2.6c-1-0.6-2.2-0.8-3.4-0.5
			c-1.1,0.3-2.1,1-2.6,2c-0.2,0.3-0.3,0.7-0.5,1c-0.5,1.1-0.8,2.2-0.5,3.4c0.3,1,1.1,2.1,2,2.6c1,0.6,2.2,0.8,3.4,0.5
			C24.6,301.7,25.7,301.1,26.2,300.1L26.2,300.1z"/>
		<path class="particle2" d="M80.7,336c1.9,0,1.9-2.9,0-2.9C78.9,333,78.9,336,80.7,336L80.7,336z"/>
		<path class="particle2" d="M74.5,332.7c1.9,0,1.9-2.9,0-2.9C72.7,329.8,72.7,332.7,74.5,332.7L74.5,332.7z"/>
		<path class="particle2" d="M64.7,326.8c1.9,0,1.9-2.9,0-2.9C62.8,323.8,62.8,326.8,64.7,326.8L64.7,326.8z"/>
		<path class="particle2" d="M57.8,323.6c1.9,0,1.9-2.9,0-2.9C55.9,320.7,55.9,323.6,57.8,323.6L57.8,323.6z"/>
		<path class="particle2" d="M49.1,318.3c1.9,0,1.9-2.9,0-2.9C47.2,315.4,47.2,318.3,49.1,318.3L49.1,318.3z"/>
		<path class="particle2" d="M42.9,313.5c1.9,0,1.9-2.9,0-2.9C41,310.6,41,313.5,42.9,313.5L42.9,313.5z"/>
		<path class="particle2" d="M32.1,307.1c1.9,0,1.9-2.9,0-2.9C30.2,304.1,30.2,307.1,32.1,307.1L32.1,307.1z"/>
		<path class="particle2" d="M23.4,302.3c1.9,0,1.9-2.9,0-2.9C21.5,299.3,21.5,302.3,23.4,302.3L23.4,302.3z"/>
	</g>
	<g class="line-3_4_">
		<path class="particle0" d="M81,275.1c9.7,0,9.7-15,0-15S71.3,275.1,81,275.1L81,275.1z"/>
		<path class="particle0" d="M82.4,317.2c7.8,0,7.8-12.2,0-12.2S74.6,317.2,82.4,317.2L82.4,317.2z"/>
		<path class="particle0" d="M81.3,300.1c7.8,0,7.8-12.2,0-12.2S73.5,300.1,81.3,300.1L81.3,300.1z"/>
		<path class="particle0" d="M81,284.1c5.9,0,5.9-9.1,0-9.1C75.1,275,75.1,284.1,81,284.1L81,284.1z"/>
		<path class="particle0" d="M80.2,281c9,0,9-14,0-14C71.2,267,71.2,281,80.2,281L80.2,281z"/>
		<path class="particle0" d="M80.6,313.4c11.6,0,11.6-17.9,0-17.9S69.1,313.4,80.6,313.4L80.6,313.4z"/>
		<path class="particle0" d="M82.6,342.3c11.6,0,11.6-18,0-18S71,342.3,82.6,342.3L82.6,342.3z"/>
		<path class="particle0" d="M81.3,293.3c11.6,0,11.6-18,0-18C69.7,275.2,69.7,293.3,81.3,293.3L81.3,293.3z"/>
		<path class="particle1" d="M81.7,332.5c5.9,0,5.9-9.2,0-9.2S75.8,332.5,81.7,332.5L81.7,332.5z"/>
		<path class="particle1" d="M81.7,322.2c5.9,0,5.9-9.2,0-9.2S75.8,322.2,81.7,322.2L81.7,322.2z"/>
		<path class="particle1" d="M82.2,314.9c5.9,0,5.9-9.2,0-9.2C76.3,305.7,76.3,314.9,82.2,314.9L82.2,314.9z"/>
		<path class="particle1" d="M81.3,303.1c5.8,0,5.8-9.1,0-9.1C75.5,294,75.5,303.1,81.3,303.1L81.3,303.1z"/>
		<path class="particle1" d="M80.8,296.5c5.9,0,5.9-9.2,0-9.2C74.9,287.3,74.9,296.5,80.8,296.5L80.8,296.5z"/>
		<path class="particle1" d="M79.7,284.9c5.9,0,5.9-9.2,0-9.2C73.7,275.7,73.7,284.9,79.7,284.9L79.7,284.9z"/>
		<path class="particle1" d="M80.7,274.6c6,0,6-9.2,0-9.2S74.7,274.6,80.7,274.6L80.7,274.6z"/>
		<path class="particle1" d="M75.5,276.5c5.9,0,5.9-9.2,0-9.2C69.6,267.3,69.6,276.5,75.5,276.5L75.5,276.5z"/>
		<path class="particle2" d="M82.3,323.2c2,0,2-3.1,0-3.1C80.4,320.1,80.4,323.2,82.3,323.2L82.3,323.2z"/>
		<path class="particle2" d="M81.2,312c2,0,2-3.1,0-3.1C79.2,308.9,79.2,312,81.2,312L81.2,312z"/>
		<path class="particle2" d="M80.5,303.5c2,0,2-3.1,0-3.1C78.5,300.4,78.5,303.5,80.5,303.5L80.5,303.5z"/>
		<path class="particle2" d="M81,282.2c2,0,2-3.1,0-3.1C79,279,79,282.2,81,282.2L81,282.2z"/>
	</g>
	<g class="line-4_4_">
		<path class="particle0" d="M42.5,250.7c5.9,0,5.9-9.2,0-9.2S36.5,250.7,42.5,250.7L42.5,250.7z"/>
		<path class="particle0" d="M59.9,260.4c6,0,6-9.3,0-9.3S54,260.4,59.9,260.4L59.9,260.4z"/>
		<path class="particle0" d="M68,265.2c5.9,0,5.9-9.2,0-9.2C62,256,62,265.2,68,265.2L68,265.2z"/>
		<path class="particle0" d="M23.5,242.8c9.1,0,9.1-14.1,0-14.1C14.4,228.7,14.4,242.8,23.5,242.8L23.5,242.8z"/>
		<path class="particle0" d="M77.1,273.9c9.1,0,9.1-14,0-14C68,259.8,68,273.9,77.1,273.9L77.1,273.9z"/>
		<path class="particle1" d="M80.8,274c5,0,5-7.7,0-7.7C75.9,266.3,75.9,274,80.8,274L80.8,274z"/>
		<path class="particle1" d="M20.9,237.6c4.7,0,4.7-7.4,0-7.4S16.1,237.6,20.9,237.6L20.9,237.6z"/>
		<path class="particle1" d="M72.8,267.1c4.4,0,4.4-6.9,0-6.9S68.3,267.1,72.8,267.1L72.8,267.1z"/>
		<path class="particle1" d="M50,254.2c4.5,0,4.5-7,0-7S45.5,254.2,50,254.2L50,254.2z"/>
		<path class="particle1" d="M31.7,243.1c4.2,0,4.2-6.5,0-6.5S27.5,243.1,31.7,243.1L31.7,243.1z"/>
		<path class="particle1" d="M67.2,261.5c4.5,0,4.5-6.9,0-6.9S62.8,261.5,67.2,261.5L67.2,261.5z"/>
		<path class="particle1" d="M49.1,252.8c4.5,0,4.5-7,0-7S44.6,252.8,49.1,252.8L49.1,252.8z"/>
		<path class="particle1" d="M44.2,248.1c0.2,0,0.5,0,0.7,0c0.9,0,1.8-0.4,2.4-1s1-1.6,1-2.4c-0.1-0.9-0.3-1.8-1-2.4c-0.7-0.6-1.5-1-2.4-1
			c-0.2,0-0.5,0-0.7,0c-0.9,0-1.8,0.4-2.4,1c-0.6,0.6-1,1.6-1,2.4c0.1,0.9,0.3,1.8,1,2.4C42.4,247.8,43.3,248.1,44.2,248.1
			L44.2,248.1z"/>
		<path class="particle1" d="M55.6,256c4.5,0,4.5-6.9,0-6.9S51.1,256,55.6,256L55.6,256z"/>
		<path class="particle1" d="M35.3,244.8c0.2,0,0.5,0,0.7,0c0.9,0,1.8-0.4,2.4-1c0.6-0.6,1-1.6,1-2.4c-0.1-0.9-0.3-1.8-1-2.4
			c-0.7-0.6-1.5-1-2.4-1c-0.2,0-0.5,0-0.7,0c-0.9,0-1.8,0.4-2.4,1s-1,1.6-1,2.4c0.1,0.9,0.3,1.8,1,2.4
			C33.5,244.4,34.4,244.8,35.3,244.8L35.3,244.8z"/>
		<path class="particle1" d="M37.2,247.5c4.5,0,4.5-6.9,0-6.9S32.7,247.5,37.2,247.5L37.2,247.5z"/>
		<path class="particle2" d="M29.5,238.9c1.3,0,1.3-2,0-2C28.2,236.8,28.2,238.9,29.5,238.9L29.5,238.9z"/>
		<path class="particle2" d="M23.4,235.3c1.5,0,1.5-2.4,0-2.4C21.9,233,21.9,235.3,23.4,235.3L23.4,235.3z"/>
		<path class="particle2" d="M43.2,246.4c1.5,0,1.5-2.4,0-2.4C41.6,244,41.6,246.4,43.2,246.4L43.2,246.4z"/>
		<path class="particle2" d="M36,243.4c1.4,0,1.4-2.2,0-2.2C34.6,241.1,34.6,243.4,36,243.4L36,243.4z"/>
		<path class="particle2" d="M56.8,254.1c1.5,0,1.5-2.3,0-2.3C55.3,251.8,55.3,254.1,56.8,254.1L56.8,254.1z"/>
		<path class="particle2" d="M71.9,264.7c1.5,0,1.5-2.4,0-2.4C70.4,262.4,70.4,264.7,71.9,264.7L71.9,264.7z"/>
		<path class="particle2" d="M63.1,259c1.5,0,1.5-2.3,0-2.3C61.7,256.6,61.7,259,63.1,259L63.1,259z"/>
		<path class="particle2" d="M49.1,251.1c1.4,0,1.4-2.3,0-2.3C47.7,248.9,47.7,251.1,49.1,251.1L49.1,251.1z"/>
	</g>
	<g class="line-5_4_">
		<path class="particle0" d="M95.5,266.5c7.8,0,7.8-12.1,0-12.1S87.7,266.5,95.5,266.5L95.5,266.5z"/>
		<path class="particle0" d="M110.2,257.9c7.7,0,7.7-12,0-12C102.5,245.8,102.5,257.9,110.2,257.9L110.2,257.9z"/>
		<path class="particle0" d="M129.5,246.2c7.8,0,7.8-12.1,0-12.1C121.7,234.1,121.7,246.2,129.5,246.2L129.5,246.2z"/>
		<path class="particle0" d="M95.3,263.5c3.9,0,3.9-6,0-6S91.4,263.5,95.3,263.5L95.3,263.5z"/>
		<path class="particle0" d="M113,254.5c4,0,4-6.1,0-6.1C109,248.4,109,254.5,113,254.5L113,254.5z"/>
		<path class="particle0" d="M83.7,275c11.6,0,11.6-18.1,0-18.1C72.1,256.9,72.1,275,83.7,275L83.7,275z"/>
		<path class="particle0" d="M90.2,273.8c11.7,0,11.7-18.1,0-18.1C78.5,255.7,78.5,273.8,90.2,273.8L90.2,273.8z"/>
		<path class="particle0" d="M104.9,265c11.8,0,11.8-18.3,0-18.3S93.1,265,104.9,265L104.9,265z"/>
		<path class="particle0" d="M119,255.5c11.7,0,11.7-18.2,0-18.2S107.2,255.5,119,255.5L119,255.5z"/>
		<path class="particle1" d="M123.3,248.7c5.9,0,5.9-9.2,0-9.2S117.4,248.7,123.3,248.7L123.3,248.7z"/>
		<path class="particle1" d="M129.5,243.9c6,0,6-9.3,0-9.3C123.6,234.6,123.6,243.9,129.5,243.9L129.5,243.9z"/>
		<path class="particle1" d="M137.5,240.8c5.9,0,5.9-9.1,0-9.1C131.7,231.8,131.7,240.8,137.5,240.8L137.5,240.8z"/>
		<path class="particle2" d="M139.5,236c1.9,0,1.9-3,0-3S137.6,236,139.5,236L139.5,236z"/>
		<path class="particle2" d="M117.9,247.9c1.9,0,1.9-3,0-3S116,247.9,117.9,247.9L117.9,247.9z"/>
		<path class="particle2" d="M101.2,258.2c1.9,0,1.9-3,0-3S99.2,258.2,101.2,258.2L101.2,258.2z"/>
		<path class="particle2" d="M92,263.7c1.9,0,1.9-3,0-3C90.1,260.7,90.1,263.7,92,263.7L92,263.7z"/>
		<path class="particle2" d="M82.3,268.4c1.9,0,1.9-3,0-3C80.4,265.3,80.4,268.4,82.3,268.4L82.3,268.4z"/>
	</g>
	<g class="line-6_4_">
		<path class="particle0" d="M140,284.5c7.7,0,7.7-12,0-12C132.3,272.5,132.3,284.5,140,284.5L140,284.5z"/>
		<path class="particle0" d="M140.5,262.7c7.8,0,7.8-12.1,0-12.1C132.7,250.6,132.7,262.7,140.5,262.7L140.5,262.7z"/>
		<path class="particle0" d="M138.9,243.7c7.7,0,7.7-12,0-12C131.2,231.8,131.2,243.7,138.9,243.7L138.9,243.7z"/>
		<path class="particle0" d="M140,294.4c7.9,0,7.9-12.4,0-12.4C132.1,282.1,132.1,294.4,140,294.4L140,294.4z"/>
		<path class="particle0" d="M139.4,308.6c11.6,0,11.6-18,0-18C127.8,290.6,127.8,308.6,139.4,308.6L139.4,308.6z"/>
		<path class="particle0" d="M139.2,283c11.7,0,11.7-18.2,0-18.2C127.5,264.9,127.5,283,139.2,283L139.2,283z"/>
		<path class="particle0" d="M138.9,247.5c11.5,0,11.5-17.9,0-17.9C127.4,229.6,127.4,247.5,138.9,247.5L138.9,247.5z"/>
		<path class="particle1" d="M141.2,297.8c5.8,0,5.8-9.1,0-9.1C135.3,288.7,135.3,297.8,141.2,297.8L141.2,297.8z"/>
		<path class="particle1" d="M139.6,289.7c5.9,0,5.9-9.1,0-9.1S133.7,289.7,139.6,289.7L139.6,289.7z"/>
		<path class="particle1" d="M140,282.3c5.8,0,5.8-9,0-9C134.3,273.3,134.3,282.3,140,282.3L140,282.3z"/>
		<path class="particle1" d="M138.8,275.5c5.9,0,5.9-9.1,0-9.1S133,275.5,138.8,275.5L138.8,275.5z"/>
		<path class="particle1" d="M140.5,268.1c5.8,0,5.8-9,0-9C134.7,259.1,134.7,268.1,140.5,268.1L140.5,268.1z"/>
		<path class="particle1" d="M139.9,261.9c5.8,0,5.8-9,0-9S134.1,261.9,139.9,261.9L139.9,261.9z"/>
		<path class="particle1" d="M140.7,256.6c5.8,0,5.8-9,0-9C134.9,247.6,134.9,256.6,140.7,256.6L140.7,256.6z"/>
		<path class="particle1" d="M139.8,248.7c5.9,0,5.9-9.2,0-9.2S133.9,248.7,139.8,248.7L139.8,248.7z"/>
		<path class="particle2" d="M139.2,295.2c2,0,2-3.1,0-3.1S137.3,295.2,139.2,295.2L139.2,295.2z"/>
		<path class="particle2" d="M140.4,284.9c2,0,2-3.1,0-3.1C138.4,281.8,138.4,284.9,140.4,284.9L140.4,284.9z"/>
		<path class="particle2" d="M141.1,270.4c2,0,2-3.1,0-3.1S139.1,270.4,141.1,270.4L141.1,270.4z"/>
		<path class="particle2" d="M139.9,261.7c2,0,2-3.1,0-3.1S137.9,261.7,139.9,261.7L139.9,261.7z"/>
		<path class="particle2" d="M140.6,250c2,0,2-3.1,0-3.1S138.7,250,140.6,250L140.6,250z"/>
	</g>
	<g class="line-7_3_">
		<path class="particle0" d="M25.1,234.7c3.8,0,3.8-5.8,0-5.8S21.4,234.7,25.1,234.7L25.1,234.7z"/>
		<path class="particle0" d="M22.2,291.6c7.7,0,7.7-12,0-12S14.5,291.6,22.2,291.6L22.2,291.6z"/>
		<path class="particle0" d="M21.8,252c7.8,0,7.8-12.1,0-12.1S14,252,21.8,252L21.8,252z"/>
		<path class="particle0" d="M22.6,246.8c5.8,0,5.8-9,0-9S16.8,246.8,22.6,246.8L22.6,246.8z"/>
		<path class="particle0" d="M21.5,301.4c11.4,0,11.4-17.7,0-17.7C10,283.7,10,301.4,21.5,301.4L21.5,301.4z"/>
		<path class="particle0" d="M23.4,278.5c11.7,0,11.7-18.2,0-18.2C11.6,260.2,11.6,278.5,23.4,278.5L23.4,278.5z"/>
		<path class="particle1" d="M24.1,287.5c5.9,0,5.9-9.2,0-9.2S18.2,287.5,24.1,287.5L24.1,287.5z"/>
		<path class="particle1" d="M21.1,277.9c5.7,0,5.7-8.9,0-8.9S15.4,277.9,21.1,277.9L21.1,277.9z"/>
		<path class="particle1" d="M22.4,266c5.7,0,5.7-8.8,0-8.8S16.7,266,22.4,266L22.4,266z"/>
		<path class="particle1" d="M23.2,257.1c5.7,0,5.7-8.9,0-8.9S17.4,257.1,23.2,257.1L23.2,257.1z"/>
		<path class="particle1" d="M23.3,244.1c11.7,0,11.7-18.1,0-18.1S11.6,244.1,23.3,244.1L23.3,244.1z"/>
		<path class="particle2" d="M22.7,295.2c1.9,0,1.9-3,0-3C20.8,292.1,20.8,295.2,22.7,295.2L22.7,295.2z"/>
		<path class="particle2" d="M21.9,280.3c1.9,0,1.9-3,0-3C20,277.2,20,280.3,21.9,280.3L21.9,280.3z"/>
		<path class="particle2" d="M23.5,272c1.9,0,1.9-3,0-3C21.5,269,21.5,272,23.5,272L23.5,272z"/>
		<path class="particle2" d="M23.1,260.5c1.9,0,1.9-3,0-3C21.2,257.5,21.2,260.5,23.1,260.5L23.1,260.5z"/>
		<path class="particle2" d="M22.4,253.3c1.9,0,1.9-3,0-3C20.5,250.3,20.5,253.3,22.4,253.3L22.4,253.3z"/>
		<path class="particle2" d="M21.9,246.5c1.9,0,1.9-3,0-3C20,243.5,20,246.5,21.9,246.5L21.9,246.5z"/>
	</g>
	<g class="line-8_4_">
		<path class="particle0" d="M82,206.9c7.8,0,7.8-12.2,0-12.2S74.1,206.9,82,206.9L82,206.9z"/>
		<path class="particle0" d="M69.7,212.7c7.7,0,7.7-12,0-12S62.1,212.7,69.7,212.7L69.7,212.7z"/>
		<path class="particle0" d="M60.3,219.5c7.8,0,7.8-12.1,0-12.1S52.5,219.5,60.3,219.5L60.3,219.5z"/>
		<path class="particle0" d="M46,226c7.6,0,7.6-11.9,0-11.9S38.4,226,46,226L46,226z"/>
		<path class="particle0" d="M35.7,234c7.9,0,7.9-12.3,0-12.3S27.9,234,35.7,234L35.7,234z"/>
		<path class="particle0" d="M80.6,213.7c11.6,0,11.6-18,0-18S69,213.7,80.6,213.7L80.6,213.7z"/>
		<path class="particle0" d="M31.3,239.5c11.5,0,11.5-17.9,0-17.9C19.8,221.6,19.8,239.5,31.3,239.5L31.3,239.5z"/>
		<path class="particle0" d="M41.9,233.1c11.8,0,11.8-18.3,0-18.3C30.1,214.9,30.1,233.1,41.9,233.1L41.9,233.1z"/>
		<path class="particle1" d="M31.1,234c0.3-0.2,0.7-0.3,1-0.5c1-0.5,1.7-1.6,2-2.6c0.3-1.1,0.2-2.4-0.5-3.4c-0.6-1-1.4-1.7-2.6-2
			c-1.2-0.3-2.2-0.1-3.4,0.5c-0.3,0.2-0.7,0.3-1,0.5c-1,0.5-1.7,1.6-2,2.6c-0.3,1.1-0.2,2.4,0.5,3.4c0.6,1,1.4,1.7,2.6,2
			C28.9,234.7,29.9,234.5,31.1,234L31.1,234z"/>
		<path class="particle1" d="M48.8,222.7c5.8,0,5.8-9,0-9S43,222.7,48.8,222.7L48.8,222.7z"/>
		<path class="particle1" d="M64.8,215.3c5.9,0,5.9-9.1,0-9.1S59,215.3,64.8,215.3L64.8,215.3z"/>
		<path class="particle1" d="M71.5,211.6c5.9,0,5.9-9.2,0-9.2C65.6,202.4,65.6,211.6,71.5,211.6L71.5,211.6z"/>
		<path class="particle1" d="M46.8,221c5.9,0,5.9-9.1,0-9.1S40.9,221,46.8,221L46.8,221z"/>
		<path class="particle1" d="M56.5,219.4c5.9,0,5.9-9.2,0-9.2S50.5,219.4,56.5,219.4L56.5,219.4z"/>
		<path class="particle1" d="M77.3,207.2c5.8,0,5.8-9,0-9S71.5,207.2,77.3,207.2L77.3,207.2z"/>
		<path class="particle2" d="M68.8,208.5c1.9,0,1.9-3,0-3C66.9,205.5,66.9,208.5,68.8,208.5L68.8,208.5z"/>
		<path class="particle2" d="M51.4,218.5c1.9,0,1.9-3,0-3C49.5,215.5,49.5,218.5,51.4,218.5L51.4,218.5z"/>
		<path class="particle2" d="M39.2,226.1c1.9,0,1.9-3,0-3C37.3,223.1,37.3,226.1,39.2,226.1L39.2,226.1z"/>
		<path class="particle2" d="M30.9,230c1.9,0,1.9-3,0-3C29,227,29,230,30.9,230L30.9,230z"/>
	</g>
	<g class="line-9_4_">
		<path class="particle0" d="M120.9,228.7c7.6,0,7.6-11.9,0-11.9C113.2,216.8,113.2,228.7,120.9,228.7L120.9,228.7z"/>
		<path class="particle0" d="M106.7,219.2c5.8,0,5.8-9,0-9C100.9,210.2,100.9,219.2,106.7,219.2L106.7,219.2z"/>
		<path class="particle0" d="M95.2,214.3c7.7,0,7.7-12,0-12S87.5,214.3,95.2,214.3L95.2,214.3z"/>
		<path class="particle0" d="M104.2,223.3c11.7,0,11.7-18.1,0-18.1S92.5,223.3,104.2,223.3L104.2,223.3z"/>
		<path class="particle1" d="M135,236c5.8,0,5.8-9,0-9C129.2,227,129.2,236,135,236L135,236z"/>
		<path class="particle1" d="M126.6,231c5.9,0,5.9-9.1,0-9.1S120.8,231,126.6,231L126.6,231z"/>
		<path class="particle1" d="M116.2,225c5.8,0,5.8-8.9,0-8.9S110.4,225,116.2,225L116.2,225z"/>
		<path class="particle1" d="M107.3,221.4c7.7,0,7.7-11.9,0-11.9S99.7,221.4,107.3,221.4L107.3,221.4z"/>
		<path class="particle1" d="M96.7,214.3c5.8,0,5.8-9.1,0-9.1C90.8,205.2,90.8,214.3,96.7,214.3L96.7,214.3z"/>
		<path class="particle1" d="M88.4,209.5c5.9,0,5.9-9.2,0-9.2S82.5,209.5,88.4,209.5L88.4,209.5z"/>
		<path class="particle1" d="M82,206.9c7.9,0,7.9-12.2,0-12.2S74.1,206.9,82,206.9L82,206.9z"/>
		<path class="particle2" d="M130.1,230.1c2,0,2-3.1,0-3.1S128.1,230.1,130.1,230.1L130.1,230.1z"/>
		<path class="particle2" d="M111,217.9c2,0,2-3.1,0-3.1S109.1,217.9,111,217.9L111,217.9z"/>
		<path class="particle2" d="M100.7,212.8c2,0,2-3.1,0-3.1C98.7,209.7,98.7,212.8,100.7,212.8L100.7,212.8z"/>
		<path class="particle2" d="M88.5,206.3c2,0,2-3.1,0-3.1C86.6,203.2,86.6,206.3,88.5,206.3L88.5,206.3z"/>
		<path class="particle2" d="M82.3,202.3c2,0,2-3.1,0-3.1C80.4,199.2,80.4,202.3,82.3,202.3L82.3,202.3z"/>
	</g>
</g>
<g id="cubo4">
	<g class="line-1_5_">
		<path class="particle0" d="M294,142c7.7,0,7.7-12.1,0-12.1C286.2,129.9,286.2,142,294,142L294,142z"/>
		<path class="particle0" d="M316,130.9c7.7,0,7.7-12,0-12C308.3,118.9,308.3,130.9,316,130.9L316,130.9z"/>
		<path class="particle0" d="M277.2,155c11.5,0,11.5-17.9,0-17.9C265.7,137.1,265.7,155,277.2,155L277.2,155z"/>
		<path class="particle0" d="M323.1,127.4c11.6,0,11.6-18,0-18S311.5,127.4,323.1,127.4L323.1,127.4z"/>
		<path class="particle0" d="M329,122.9c11.6,0,11.6-18,0-18S317.3,122.9,329,122.9L329,122.9z"/>
		<path class="particle0" d="M301,142.6c11.7,0,11.7-18.2,0-18.2S289.3,142.6,301,142.6L301,142.6z"/>
		<path class="particle0" d="M290.8,150.2c11.7,0,11.7-18.1,0-18.1C279.1,132,279.1,150.2,290.8,150.2L290.8,150.2z"/>
		<path class="particle1" d="M325.9,118.6c5.8,0,5.8-9.1,0-9.1C320,109.6,320,118.6,325.9,118.6L325.9,118.6z"/>
		<path class="particle1" d="M278.7,152.8c7.7,0,7.7-11.9,0-11.9S271,152.8,278.7,152.8L278.7,152.8z"/>
		<path class="particle1" d="M286.3,146.3c5.9,0,5.9-9.2,0-9.2S280.4,146.3,286.3,146.3L286.3,146.3z"/>
		<path class="particle1" d="M295.3,140.4c5.8,0,5.8-9,0-9C289.5,131.4,289.5,140.4,295.3,140.4L295.3,140.4z"/>
		<path class="particle1" d="M301.4,136.5c5.8,0,5.8-9.1,0-9.1C295.5,127.4,295.5,136.5,301.4,136.5L301.4,136.5z"/>
		<path class="particle1" d="M309.3,132.7c5.9,0,5.9-9.1,0-9.1C303.5,123.6,303.5,132.7,309.3,132.7L309.3,132.7z"/>
		<path class="particle1" d="M318.1,127.2c5.9,0,5.9-9.1,0-9.1S312.2,127.2,318.1,127.2L318.1,127.2z"/>
		<path class="particle1" d="M272.1,156.1c9.5,0,9.5-14.7,0-14.7C262.7,141.4,262.7,156.1,272.1,156.1L272.1,156.1z"/>
		<path class="particle2" d="M274.2,148.8c2.1,0,2.1-3.3,0-3.3C272.1,145.5,272.1,148.8,274.2,148.8L274.2,148.8z"/>
		<path class="particle2" d="M281.7,144.3c2.1,0,2.1-3.3,0-3.3C279.6,141,279.6,144.3,281.7,144.3L281.7,144.3z"/>
		<path class="particle2" d="M289,139.6c2.1,0,2.1-3.3,0-3.3C286.9,136.3,286.9,139.6,289,139.6L289,139.6z"/>
		<path class="particle2" d="M308.8,129.5c2.1,0,2.1-3.3,0-3.3C306.7,126.2,306.7,129.5,308.8,129.5L308.8,129.5z"/>
		<path class="particle2" d="M318.9,122.9c2.1,0,2.1-3.3,0-3.3C316.8,119.6,316.8,122.9,318.9,122.9L318.9,122.9z"/>
		<path class="particle2" d="M327.6,117.6c2.1,0,2.1-3.3,0-3.3C325.5,114.3,325.5,117.6,327.6,117.6L327.6,117.6z"/>
	</g>
	<g class="line-2_4_">
		<path class="particle0" d="M271.9,156.1c9.3,0,9.3-14.5,0-14.5S262.6,156.1,271.9,156.1L271.9,156.1z"/>
		<path class="particle0" d="M234,135.9c7.7,0,7.7-11.9,0-11.9S226.3,135.9,234,135.9L234,135.9z"/>
		<path class="particle0" d="M217.4,126.1c7.7,0,7.7-11.9,0-11.9S209.8,126.1,217.4,126.1L217.4,126.1z"/>
		<path class="particle0" d="M264.6,156c11.7,0,11.7-18.2,0-18.2C252.8,137.9,252.8,156,264.6,156L264.6,156z"/>
		<path class="particle0" d="M224.8,128.6c5.9,0,5.9-9.2,0-9.2C218.9,119.4,218.9,128.6,224.8,128.6L224.8,128.6z"/>
		<path class="particle0" d="M245.9,146.5c11.7,0,11.7-18.1,0-18.1C234.2,128.3,234.2,146.5,245.9,146.5L245.9,146.5z"/>
		<path class="particle0" d="M256.3,153.1c11.5,0,11.5-17.8,0-17.8C244.8,135.2,244.8,153.1,256.3,153.1L256.3,153.1z"/>
		<path class="particle1" d="M215.8,118.9c5.9,0,5.9-9.1,0-9.1C210,109.8,210,118.9,215.8,118.9L215.8,118.9z"/>
		<path class="particle1" d="M217.2,121.2c0.2,0.3,0.3,0.6,0.5,0.9c0.5,0.9,1.6,1.6,2.5,1.9c1,0.3,2.3,0.2,3.2-0.5
			c0.9-0.5,1.6-1.4,1.9-2.5s0.1-2.1-0.5-3.2c-0.2-0.3-0.3-0.6-0.5-0.9c-0.5-0.9-1.6-1.6-2.5-1.9c-1-0.3-2.3-0.2-3.2,0.5
			c-0.9,0.5-1.6,1.4-1.9,2.5C216.5,119.2,216.7,120.2,217.2,121.2L217.2,121.2z"/>
		<path class="particle1" d="M226.4,134.5c11.6,0,11.6-17.9,0-17.9S214.8,134.5,226.4,134.5L226.4,134.5z"/>
		<path class="particle1" d="M231,131.8c5.9,0,5.9-9.2,0-9.2C225.1,122.6,225.1,131.8,231,131.8L231,131.8z"/>
		<path class="particle1" d="M243.3,139.1c5.8,0,5.8-9,0-9S237.5,139.1,243.3,139.1L243.3,139.1z"/>
		<path class="particle1" d="M248.8,134.4c-0.3,0-0.8-0.3-0.9-0.6c-0.5-1.9-2.7-3.2-4.6-2.6c-1.8,0.4-3.1,2.4-2.5,4.4
			c0.7,2.8,3.2,5.2,6,5.9c1.9,0.4,4.1-0.6,4.6-2.6C251.8,137.1,250.7,134.7,248.8,134.4z"/>
		<path class="particle1" d="M259,148.1c5.6,0,5.6-8.8,0-8.8S253.3,148.1,259,148.1L259,148.1z"/>
		<path class="particle1" d="M261.3,151.4c5.8,0,5.8-8.9,0-8.9S255.5,151.4,261.3,151.4L261.3,151.4z"/>
		<path class="particle1" d="M254.4,144.6c5.8,0,5.8-9,0-9C248.6,135.5,248.6,144.6,254.4,144.6L254.4,144.6z"/>
		<path class="particle1" d="M215.7,114.4c0.2-0.3,0.3-0.7,0.5-1c0.5-1.1,0.8-2.2,0.5-3.4c-0.3-1-1.1-2.1-2-2.6c-1-0.6-2.2-0.8-3.4-0.5
			c-1.1,0.3-2.1,1-2.6,2c-0.2,0.3-0.3,0.7-0.5,1c-0.5,1.1-0.8,2.2-0.5,3.4c0.3,1,1.1,2.1,2,2.6c1,0.6,2.2,0.8,3.4,0.5
			C214.1,116,215.2,115.3,215.7,114.4L215.7,114.4z"/>
		<path class="particle2" d="M270.2,150.2c1.9,0,1.9-2.9,0-2.9C268.4,147.3,268.4,150.2,270.2,150.2L270.2,150.2z"/>
		<path class="particle2" d="M264,147c1.9,0,1.9-2.9,0-2.9C262.2,144,262.2,147,264,147L264,147z"/>
		<path class="particle2" d="M254.2,141c1.9,0,1.9-2.9,0-2.9C252.3,138.1,252.3,141,254.2,141L254.2,141z"/>
		<path class="particle2" d="M247.3,137.9c1.9,0,1.9-2.9,0-2.9C245.4,134.9,245.4,137.9,247.3,137.9L247.3,137.9z"/>
		<path class="particle2" d="M238.6,132.6c1.9,0,1.9-2.9,0-2.9C236.7,129.6,236.7,132.6,238.6,132.6L238.6,132.6z"/>
		<path class="particle2" d="M232.4,127.8c1.9,0,1.9-2.9,0-2.9C230.5,124.8,230.5,127.8,232.4,127.8L232.4,127.8z"/>
		<path class="particle2" d="M221.6,121.3c1.9,0,1.9-2.9,0-2.9C219.7,118.4,219.7,121.3,221.6,121.3L221.6,121.3z"/>
		<path class="particle2" d="M212.9,116.5c1.9,0,1.9-2.9,0-2.9C211,113.6,211,116.5,212.9,116.5L212.9,116.5z"/>
	</g>
	<g class="line-3_5_">
		<path class="particle0" d="M270.5,89.4c9.7,0,9.7-15,0-15C260.8,74.4,260.8,89.4,270.5,89.4L270.5,89.4z"/>
		<path class="particle0" d="M271.9,131.5c7.8,0,7.8-12.2,0-12.2C264.1,119.3,264.1,131.5,271.9,131.5L271.9,131.5z"/>
		<path class="particle0" d="M270.8,114.4c7.8,0,7.8-12.2,0-12.2C263,102.2,263,114.4,270.8,114.4L270.8,114.4z"/>
		<path class="particle0" d="M270.4,98.4c5.9,0,5.9-9.1,0-9.1C264.6,89.2,264.6,98.4,270.4,98.4L270.4,98.4z"/>
		<path class="particle0" d="M269.7,95.2c9,0,9-14,0-14C260.6,81.3,260.6,95.2,269.7,95.2L269.7,95.2z"/>
		<path class="particle0" d="M270.1,127.6c11.6,0,11.6-17.9,0-17.9S258.6,127.6,270.1,127.6L270.1,127.6z"/>
		<path class="particle0" d="M272.1,156.5c11.6,0,11.6-18,0-18S260.5,156.5,272.1,156.5L272.1,156.5z"/>
		<path class="particle0" d="M270.8,107.5c11.6,0,11.6-18,0-18C259.2,89.5,259.2,107.5,270.8,107.5L270.8,107.5z"/>
		<path class="particle1" d="M271.2,146.8c5.9,0,5.9-9.2,0-9.2S265.3,146.8,271.2,146.8L271.2,146.8z"/>
		<path class="particle1" d="M271.2,136.5c5.9,0,5.9-9.2,0-9.2S265.3,136.5,271.2,136.5L271.2,136.5z"/>
		<path class="particle1" d="M271.7,129.1c5.9,0,5.9-9.2,0-9.2S265.8,129.1,271.7,129.1L271.7,129.1z"/>
		<path class="particle1" d="M270.8,117.3c5.8,0,5.8-9.1,0-9.1S265,117.3,270.8,117.3L270.8,117.3z"/>
		<path class="particle1" d="M270.3,110.7c5.9,0,5.9-9.2,0-9.2C264.4,101.6,264.4,110.7,270.3,110.7L270.3,110.7z"/>
		<path class="particle1" d="M269.2,99.2c5.9,0,5.9-9.2,0-9.2C263.2,90,263.2,99.2,269.2,99.2L269.2,99.2z"/>
		<path class="particle1" d="M270.2,88.8c6,0,6-9.2,0-9.2S264.2,88.8,270.2,88.8L270.2,88.8z"/>
		<path class="particle1" d="M265,90.8c5.9,0,5.9-9.2,0-9.2C259.1,81.5,259.1,90.8,265,90.8L265,90.8z"/>
		<path class="particle2" d="M271.8,137.5c2,0,2-3.1,0-3.1C269.8,134.3,269.8,137.5,271.8,137.5L271.8,137.5z"/>
		<path class="particle2" d="M270.7,126.2c2,0,2-3.1,0-3.1C268.7,123.1,268.7,126.2,270.7,126.2L270.7,126.2z"/>
		<path class="particle2" d="M270,117.8c2,0,2-3.1,0-3.1C268,114.6,268,117.8,270,117.8L270,117.8z"/>
		<path class="particle2" d="M270.4,96.4c2,0,2-3.1,0-3.1C268.5,93.3,268.5,96.4,270.4,96.4L270.4,96.4z"/>
	</g>
	<g class="line-4_5_">
		<path class="particle0" d="M232,64.9c5.9,0,5.9-9.2,0-9.2C226,55.7,226,64.9,232,64.9L232,64.9z"/>
		<path class="particle0" d="M249.4,74.6c6,0,6-9.3,0-9.3S243.5,74.6,249.4,74.6L249.4,74.6z"/>
		<path class="particle0" d="M257.4,79.4c5.9,0,5.9-9.2,0-9.2C251.5,70.2,251.5,79.4,257.4,79.4L257.4,79.4z"/>
		<path class="particle0" d="M213,57c9.1,0,9.1-14.1,0-14.1C203.9,43,203.9,57,213,57L213,57z"/>
		<path class="particle0" d="M266.6,88.1c9.1,0,9.1-14,0-14C257.5,74.1,257.5,88.1,266.6,88.1L266.6,88.1z"/>
		<path class="particle1" d="M270.3,88.3c5,0,5-7.7,0-7.7S265.3,88.3,270.3,88.3L270.3,88.3z"/>
		<path class="particle1" d="M210.4,51.9c4.7,0,4.7-7.4,0-7.4S205.6,51.9,210.4,51.9L210.4,51.9z"/>
		<path class="particle1" d="M262.3,81.3c4.4,0,4.4-6.9,0-6.9S257.8,81.3,262.3,81.3L262.3,81.3z"/>
		<path class="particle1" d="M239.5,68.4c4.5,0,4.5-7,0-7S235,68.4,239.5,68.4L239.5,68.4z"/>
		<path class="particle1" d="M221.2,57.4c4.2,0,4.2-6.5,0-6.5C217,50.8,217,57.4,221.2,57.4L221.2,57.4z"/>
		<path class="particle1" d="M256.7,75.7c4.5,0,4.5-6.9,0-6.9C252.3,68.8,252.3,75.7,256.7,75.7L256.7,75.7z"/>
		<path class="particle1" d="M238.6,67c4.5,0,4.5-7,0-7C234.1,60.1,234.1,67,238.6,67L238.6,67z"/>
		<path class="particle1" d="M233.7,62.4c0.2,0,0.5,0,0.7,0c0.9,0,1.8-0.4,2.4-1c0.6-0.6,1-1.6,1-2.4c-0.1-0.9-0.3-1.8-1-2.4
			c-0.7-0.6-1.5-1-2.4-1c-0.2,0-0.5,0-0.7,0c-0.9,0-1.8,0.4-2.4,1c-0.6,0.6-1,1.6-1,2.4c0.1,0.9,0.3,1.8,1,2.4
			C231.9,62,232.8,62.4,233.7,62.4L233.7,62.4z"/>
		<path class="particle1" d="M245.1,70.2c4.5,0,4.5-6.9,0-6.9S240.6,70.2,245.1,70.2L245.1,70.2z"/>
		<path class="particle1" d="M224.7,59c0.2,0,0.5,0,0.7,0c0.9,0,1.8-0.4,2.4-1s1-1.6,1-2.4c-0.1-0.9-0.3-1.8-1-2.4c-0.7-0.6-1.5-1-2.4-1
			c-0.2,0-0.5,0-0.7,0c-0.9,0-1.8,0.4-2.4,1s-1,1.6-1,2.4c0.1,0.9,0.3,1.8,1,2.4C223,58.7,223.8,59,224.7,59L224.7,59z"/>
		<path class="particle1" d="M226.7,61.7c4.5,0,4.5-6.9,0-6.9C222.2,54.8,222.2,61.7,226.7,61.7L226.7,61.7z"/>
		<path class="particle2" d="M219,53.1c1.3,0,1.3-2,0-2C217.7,51.1,217.7,53.1,219,53.1L219,53.1z"/>
		<path class="particle2" d="M212.9,49.6c1.5,0,1.5-2.4,0-2.4C211.4,47.2,211.4,49.6,212.9,49.6L212.9,49.6z"/>
		<path class="particle2" d="M232.7,60.6c1.5,0,1.5-2.4,0-2.4C231.1,58.2,231.1,60.6,232.7,60.6L232.7,60.6z"/>
		<path class="particle2" d="M225.5,57.6c1.4,0,1.4-2.2,0-2.2C224.1,55.4,224.1,57.6,225.5,57.6L225.5,57.6z"/>
		<path class="particle2" d="M246.3,68.4c1.5,0,1.5-2.3,0-2.3C244.8,66.1,244.8,68.4,246.3,68.4L246.3,68.4z"/>
		<path class="particle2" d="M261.4,79c1.5,0,1.5-2.4,0-2.4C259.8,76.6,259.8,79,261.4,79L261.4,79z"/>
		<path class="particle2" d="M252.6,73.2c1.5,0,1.5-2.3,0-2.3C251.2,70.9,251.2,73.2,252.6,73.2L252.6,73.2z"/>
		<path class="particle2" d="M238.6,65.4c1.4,0,1.4-2.3,0-2.3C237.2,63.1,237.2,65.4,238.6,65.4L238.6,65.4z"/>
	</g>
	<g class="line-5_5_">
		<path class="particle0" d="M284.9,80.7c7.8,0,7.8-12.1,0-12.1C277.2,68.6,277.2,80.7,284.9,80.7L284.9,80.7z"/>
		<path class="particle0" d="M299.7,72.1c7.7,0,7.7-12,0-12C292,60.1,292,72.1,299.7,72.1L299.7,72.1z"/>
		<path class="particle0" d="M319,60.4c7.8,0,7.8-12.1,0-12.1C311.2,48.3,311.2,60.4,319,60.4L319,60.4z"/>
		<path class="particle0" d="M284.8,77.8c3.9,0,3.9-6,0-6S280.9,77.8,284.8,77.8L284.8,77.8z"/>
		<path class="particle0" d="M302.4,68.8c4,0,4-6.1,0-6.1S298.5,68.8,302.4,68.8L302.4,68.8z"/>
		<path class="particle0" d="M273.2,89.2c11.6,0,11.6-18.1,0-18.1C261.6,71.2,261.6,89.2,273.2,89.2L273.2,89.2z"/>
		<path class="particle0" d="M279.7,88.1c11.7,0,11.7-18.1,0-18.1C268,70,268,88.1,279.7,88.1L279.7,88.1z"/>
		<path class="particle0" d="M294.4,79.3c11.8,0,11.8-18.3,0-18.3C282.6,61,282.6,79.3,294.4,79.3L294.4,79.3z"/>
		<path class="particle0" d="M308.4,69.8c11.7,0,11.7-18.2,0-18.2S296.7,69.8,308.4,69.8L308.4,69.8z"/>
		<path class="particle1" d="M312.8,62.9c5.9,0,5.9-9.2,0-9.2C306.9,53.8,306.9,62.9,312.8,62.9L312.8,62.9z"/>
		<path class="particle1" d="M319,58.1c6,0,6-9.3,0-9.3S313.1,58.1,319,58.1L319,58.1z"/>
		<path class="particle1" d="M327,55.1c5.9,0,5.9-9.1,0-9.1S321.2,55.1,327,55.1L327,55.1z"/>
		<path class="particle2" d="M329,50.2c1.9,0,1.9-3,0-3S327,50.2,329,50.2L329,50.2z"/>
		<path class="particle2" d="M307.4,62.2c1.9,0,1.9-3,0-3C305.5,59.1,305.5,62.2,307.4,62.2L307.4,62.2z"/>
		<path class="particle2" d="M290.6,72.5c1.9,0,1.9-3,0-3C288.7,69.5,288.7,72.5,290.6,72.5L290.6,72.5z"/>
		<path class="particle2" d="M281.5,78c1.9,0,1.9-3,0-3S279.6,78,281.5,78L281.5,78z"/>
		<path class="particle2" d="M271.8,82.6c1.9,0,1.9-3,0-3S269.9,82.6,271.8,82.6L271.8,82.6z"/>
	</g>
	<g class="line-6_5_">
		<path class="particle0" d="M329.5,98.8c7.7,0,7.7-12,0-12C321.8,86.8,321.8,98.8,329.5,98.8L329.5,98.8z"/>
		<path class="particle0" d="M330,77c7.8,0,7.8-12.1,0-12.1C322.2,64.8,322.2,77,330,77L330,77z"/>
		<path class="particle0" d="M328.4,58c7.7,0,7.7-12,0-12C320.7,46,320.7,58,328.4,58L328.4,58z"/>
		<path class="particle0" d="M329.5,108.7c7.9,0,7.9-12.4,0-12.4C321.6,96.3,321.6,108.7,329.5,108.7L329.5,108.7z"/>
		<path class="particle0" d="M328.9,122.9c11.6,0,11.6-18,0-18C317.3,104.8,317.3,122.9,328.9,122.9L328.9,122.9z"/>
		<path class="particle0" d="M328.7,97.3c11.7,0,11.7-18.2,0-18.2S316.9,97.3,328.7,97.3L328.7,97.3z"/>
		<path class="particle0" d="M328.4,61.8c11.5,0,11.5-17.9,0-17.9C316.8,43.8,316.8,61.8,328.4,61.8L328.4,61.8z"/>
		<path class="particle1" d="M330.7,112c5.8,0,5.8-9.1,0-9.1S324.8,112,330.7,112L330.7,112z"/>
		<path class="particle1" d="M329.1,104c5.9,0,5.9-9.1,0-9.1S323.2,104,329.1,104L329.1,104z"/>
		<path class="particle1" d="M329.5,96.6c5.8,0,5.8-9,0-9C323.8,87.6,323.8,96.6,329.5,96.6L329.5,96.6z"/>
		<path class="particle1" d="M328.3,89.8c5.9,0,5.9-9.1,0-9.1S322.5,89.8,328.3,89.8L328.3,89.8z"/>
		<path class="particle1" d="M330,82.4c5.8,0,5.8-9,0-9C324.2,73.3,324.2,82.4,330,82.4L330,82.4z"/>
		<path class="particle1" d="M329.3,76.2c5.8,0,5.8-9,0-9S323.6,76.2,329.3,76.2L329.3,76.2z"/>
		<path class="particle1" d="M330.2,70.9c5.8,0,5.8-9,0-9S324.4,70.9,330.2,70.9L330.2,70.9z"/>
		<path class="particle1" d="M329.3,63c5.9,0,5.9-9.2,0-9.2C323.4,53.8,323.4,63,329.3,63L329.3,63z"/>
		<path class="particle2" d="M328.7,109.4c2,0,2-3.1,0-3.1S326.8,109.4,328.7,109.4L328.7,109.4z"/>
		<path class="particle2" d="M329.9,99.1c2,0,2-3.1,0-3.1C327.9,96.1,327.9,99.1,329.9,99.1L329.9,99.1z"/>
		<path class="particle2" d="M330.6,84.7c2,0,2-3.1,0-3.1S328.6,84.7,330.6,84.7L330.6,84.7z"/>
		<path class="particle2" d="M329.3,76c2,0,2-3.1,0-3.1S327.4,76,329.3,76L329.3,76z"/>
		<path class="particle2" d="M330.1,64.3c2,0,2-3.1,0-3.1S328.2,64.3,330.1,64.3L330.1,64.3z"/>
	</g>
	<g class="line-7_4_">
		<path class="particle0" d="M214.6,48.9c3.8,0,3.8-5.8,0-5.8S210.8,48.9,214.6,48.9L214.6,48.9z"/>
		<path class="particle0" d="M211.7,105.9c7.7,0,7.7-12,0-12S203.9,105.9,211.7,105.9L211.7,105.9z"/>
		<path class="particle0" d="M211.3,66.2c7.8,0,7.8-12.1,0-12.1S203.5,66.2,211.3,66.2L211.3,66.2z"/>
		<path class="particle0" d="M212.1,61c5.8,0,5.8-9,0-9S206.3,61,212.1,61L212.1,61z"/>
		<path class="particle0" d="M210.9,115.7c11.4,0,11.4-17.7,0-17.7C199.5,98,199.5,115.7,210.9,115.7L210.9,115.7z"/>
		<path class="particle0" d="M212.9,92.7c11.7,0,11.7-18.2,0-18.2C201.1,74.5,201.1,92.7,212.9,92.7L212.9,92.7z"/>
		<path class="particle1" d="M213.6,101.7c5.9,0,5.9-9.2,0-9.2S207.7,101.7,213.6,101.7L213.6,101.7z"/>
		<path class="particle1" d="M210.6,92.2c5.7,0,5.7-8.9,0-8.9S204.9,92.2,210.6,92.2L210.6,92.2z"/>
		<path class="particle1" d="M211.9,80.2c5.7,0,5.7-8.8,0-8.8S206.2,80.2,211.9,80.2L211.9,80.2z"/>
		<path class="particle1" d="M212.7,71.3c5.7,0,5.7-8.9,0-8.9S206.9,71.3,212.7,71.3L212.7,71.3z"/>
		<path class="particle1" d="M212.8,58.3c11.7,0,11.7-18.1,0-18.1C201.1,40.2,201.1,58.3,212.8,58.3L212.8,58.3z"/>
		<path class="particle2" d="M212.2,109.4c1.9,0,1.9-3,0-3C210.2,106.4,210.2,109.4,212.2,109.4L212.2,109.4z"/>
		<path class="particle2" d="M211.4,94.5c1.9,0,1.9-3,0-3C209.5,91.5,209.5,94.5,211.4,94.5L211.4,94.5z"/>
		<path class="particle2" d="M212.9,86.3c1.9,0,1.9-3,0-3C211,83.2,211,86.3,212.9,86.3L212.9,86.3z"/>
		<path class="particle2" d="M212.6,74.8c1.9,0,1.9-3,0-3C210.7,71.8,210.7,74.8,212.6,74.8L212.6,74.8z"/>
		<path class="particle2" d="M211.9,67.6c1.9,0,1.9-3,0-3C210,64.6,210,67.6,211.9,67.6L211.9,67.6z"/>
		<path class="particle2" d="M211.4,60.8c1.9,0,1.9-3,0-3C209.5,57.8,209.5,60.8,211.4,60.8L211.4,60.8z"/>
	</g>
	<g class="line-8_5_">
		<path class="particle0" d="M271.5,21.2c7.8,0,7.8-12.2,0-12.2C263.6,9,263.6,21.2,271.5,21.2L271.5,21.2z"/>
		<path class="particle0" d="M259.2,27c7.7,0,7.7-12,0-12C251.6,15,251.6,27,259.2,27L259.2,27z"/>
		<path class="particle0" d="M249.8,33.7c7.8,0,7.8-12.1,0-12.1C242,21.6,242,33.7,249.8,33.7L249.8,33.7z"/>
		<path class="particle0" d="M235.5,40.3c7.6,0,7.6-11.9,0-11.9S227.9,40.3,235.5,40.3L235.5,40.3z"/>
		<path class="particle0" d="M225.2,48.2c7.9,0,7.9-12.3,0-12.3S217.4,48.2,225.2,48.2L225.2,48.2z"/>
		<path class="particle0" d="M270.1,28c11.6,0,11.6-18,0-18C258.5,10,258.5,28,270.1,28L270.1,28z"/>
		<path class="particle0" d="M220.8,53.7c11.5,0,11.5-17.9,0-17.9C209.3,35.8,209.3,53.7,220.8,53.7L220.8,53.7z"/>
		<path class="particle0" d="M231.4,47.4c11.8,0,11.8-18.3,0-18.3C219.6,29.1,219.6,47.4,231.4,47.4L231.4,47.4z"/>
		<path class="particle1" d="M220.6,48.3c0.3-0.2,0.7-0.3,1-0.5c1-0.5,1.7-1.6,2-2.6c0.3-1.1,0.2-2.4-0.5-3.4c-0.6-1-1.4-1.7-2.6-2
			c-1.2-0.3-2.2-0.1-3.4,0.5c-0.3,0.2-0.7,0.3-1,0.5c-1,0.5-1.7,1.6-2,2.6c-0.3,1.1-0.2,2.4,0.5,3.4c0.6,1,1.4,1.7,2.6,2
			C218.4,48.9,219.4,48.8,220.6,48.3L220.6,48.3z"/>
		<path class="particle1" d="M238.3,37c5.8,0,5.8-9,0-9S232.5,37,238.3,37L238.3,37z"/>
		<path class="particle1" d="M254.3,29.6c5.9,0,5.9-9.1,0-9.1S248.5,29.6,254.3,29.6L254.3,29.6z"/>
		<path class="particle1" d="M261,25.8c5.9,0,5.9-9.2,0-9.2C255.1,16.7,255.1,25.8,261,25.8L261,25.8z"/>
		<path class="particle1" d="M236.3,35.3c5.9,0,5.9-9.1,0-9.1S230.4,35.3,236.3,35.3L236.3,35.3z"/>
		<path class="particle1" d="M245.9,33.6c5.9,0,5.9-9.2,0-9.2C240,24.4,240,33.6,245.9,33.6L245.9,33.6z"/>
		<path class="particle1" d="M266.8,21.5c5.8,0,5.8-9,0-9S261,21.5,266.8,21.5L266.8,21.5z"/>
		<path class="particle2" d="M258.3,22.7c1.9,0,1.9-3,0-3C256.4,19.7,256.4,22.7,258.3,22.7L258.3,22.7z"/>
		<path class="particle2" d="M240.9,32.8c1.9,0,1.9-3,0-3C239,29.8,239,32.8,240.9,32.8L240.9,32.8z"/>
		<path class="particle2" d="M228.7,40.4c1.9,0,1.9-3,0-3C226.8,37.4,226.8,40.4,228.7,40.4L228.7,40.4z"/>
		<path class="particle2" d="M220.4,44.3c1.9,0,1.9-3,0-3C218.5,41.3,218.5,44.3,220.4,44.3L220.4,44.3z"/>
	</g>
	<g class="line-9_5_">
		<path class="particle0" d="M310.4,42.9c7.6,0,7.6-11.9,0-11.9C302.7,31,302.7,42.9,310.4,42.9L310.4,42.9z"/>
		<path class="particle0" d="M296.2,33.5c5.8,0,5.8-9,0-9C290.4,24.5,290.4,33.5,296.2,33.5L296.2,33.5z"/>
		<path class="particle0" d="M284.7,28.5c7.7,0,7.7-12,0-12C277,16.5,277,28.5,284.7,28.5L284.7,28.5z"/>
		<path class="particle0" d="M293.7,37.6c11.7,0,11.7-18.1,0-18.1S282,37.6,293.7,37.6L293.7,37.6z"/>
		<path class="particle1" d="M324.5,50.2c5.8,0,5.8-9,0-9C318.7,41.3,318.7,50.2,324.5,50.2L324.5,50.2z"/>
		<path class="particle1" d="M316.1,45.2c5.9,0,5.9-9.1,0-9.1C310.3,36.1,310.3,45.2,316.1,45.2L316.1,45.2z"/>
		<path class="particle1" d="M305.7,39.2c5.8,0,5.8-8.9,0-8.9C299.9,30.3,299.9,39.2,305.7,39.2L305.7,39.2z"/>
		<path class="particle1" d="M296.8,35.7c7.7,0,7.7-11.9,0-11.9S289.1,35.7,296.8,35.7L296.8,35.7z"/>
		<path class="particle1" d="M286.1,28.5c5.8,0,5.8-9.1,0-9.1C280.3,19.5,280.3,28.5,286.1,28.5L286.1,28.5z"/>
		<path class="particle1" d="M277.9,23.7c5.9,0,5.9-9.2,0-9.2C272,14.5,272,23.7,277.9,23.7L277.9,23.7z"/>
		<path class="particle1" d="M271.5,21.2c7.9,0,7.9-12.2,0-12.2C263.6,9,263.6,21.2,271.5,21.2L271.5,21.2z"/>
		<path class="particle2" d="M319.6,44.4c2,0,2-3.1,0-3.1C317.6,41.3,317.6,44.4,319.6,44.4L319.6,44.4z"/>
		<path class="particle2" d="M300.5,32.1c2,0,2-3.1,0-3.1S298.6,32.1,300.5,32.1L300.5,32.1z"/>
		<path class="particle2" d="M290.2,27c2,0,2-3.1,0-3.1C288.2,23.9,288.2,27,290.2,27L290.2,27z"/>
		<path class="particle2" d="M278,20.6c2,0,2-3.1,0-3.1C276.1,17.5,276.1,20.6,278,20.6L278,20.6z"/>
		<path class="particle2" d="M271.8,16.5c2,0,2-3.1,0-3.1C269.9,13.5,269.9,16.5,271.8,16.5L271.8,16.5z"/>
	</g>
</g>
<g id="Camino1">
	<circle class="particle0" cx="204.2" cy="446.1" r="5.9"/>
	<circle class="particle3" cx="194.2" cy="450.1" r="2.9"/>
	<circle class="particle3" cx="212.2" cy="439.6" r="2.9"/>
	<circle class="particle0" cx="228.2" cy="428.1" r="5.9"/>
	<circle class="particle0" cx="263.6" cy="411.1" r="2.9"/>
	<circle class="particle0" cx="242.2" cy="427.7" r="3"/>
	<circle class="particle0" cx="248.2" cy="420.6" r="3"/>
	
		<ellipse transform="matrix(0.5908 -0.8068 0.8068 0.5908 -234.2334 372.8614)" class="particle3" cx="250.5" cy="417.4" rx="3.4" ry="3.1"/>
	<circle class="particle2" cx="201.7" cy="448.3" r="1.5"/>
	<circle class="particle2" cx="215.7" cy="440.3" r="1.5"/>
	<circle class="particle2" cx="222.3" cy="434.3" r="1.5"/>
	<circle class="particle2" cx="231.7" cy="429.6" r="1.5"/>
	<circle class="particle2" cx="265" cy="406.3" r="1.5"/>
	<circle class="particle2" cx="270.2" cy="405.1" r="1.5"/>
	<circle class="particle2" cx="273.5" cy="402.5" r="1.5"/>
	<circle class="particle4" cx="233.2" cy="431.6" r="1.5"/>
	<circle class="particle4" cx="236.2" cy="424.6" r="1.5"/>
	<circle class="particle4" cx="251.7" cy="418.3" r="1.5"/>
	<circle class="particle4" cx="221.2" cy="437.6" r="1.5"/>
	<circle class="particle4" cx="219.7" cy="432.6" r="1.5"/>
	<circle class="particle4" cx="252.7" cy="410.1" r="1.5"/>
	<circle class="particle4" cx="260.7" cy="417.1" r="1.5"/>
	<circle class="particle4" cx="206.7" cy="446.6" r="1.5"/>
	<circle class="particle4" cx="201.7" cy="444.1" r="1.5"/>
	<circle class="particle5" cx="204.7" cy="458.6" r="1.5"/>
</g>
<g id="Camino2">
	<circle class="particle0" cx="300.7" cy="349.6" r="2.9"/>
	<circle class="particle0" cx="325.7" cy="366.7" r="2.9"/>
	<circle class="particle0" cx="341.7" cy="375.1" r="2.9"/>
	<circle class="particle0" cx="284.6" cy="341.1" r="2.9"/>
	<circle class="particle0" cx="283.7" cy="343.1" r="5.9"/>
	<circle class="particle0" cx="313.9" cy="361.1" r="5.9"/>
	<circle class="particle0" cx="330.7" cy="369.6" r="5.9"/>
	<circle class="particle2" cx="279" cy="343.6" r="1.5"/>
	<circle class="particle2" cx="281.7" cy="345.6" r="1.5"/>
	<circle class="particle2" cx="300.3" cy="354.9" r="1.5"/>
	<circle class="particle2" cx="305.7" cy="357.6" r="1.5"/>
	<circle class="particle4" cx="293.2" cy="346.6" r="1.5"/>
	<circle class="particle4" cx="286.7" cy="340.6" r="1.5"/>
	<circle class="particle4" cx="311.2" cy="353.6" r="1.5"/>
	<circle class="particle4" cx="316.9" cy="360.3" r="1.5"/>
	<circle class="particle6" cx="319.2" cy="373.1" r="1.5"/>
	<circle class="particle6" cx="340.2" cy="371.8" r="1.5"/>
	<circle class="particle6" cx="334.2" cy="380.6" r="1.5"/>
	<circle class="particle6" cx="333.7" cy="372.3" r="1.5"/>
</g>
<g id="Camino3">
	<circle class="particle0" cx="148.7" cy="195" r="3"/>
	<circle class="particle0" cx="122.2" cy="214.2" r="3"/>
	<circle class="particle0" cx="133.7" cy="206" r="5.9"/>
	<circle class="particle2" cx="153.7" cy="194.4" r="1.5"/>
	<circle class="particle4" cx="154.8" cy="200.5" r="1.5"/>
	<circle class="particle4" cx="141.7" cy="199.6" r="1.5"/>
	<circle class="particle4" cx="133.2" cy="210.1" r="1.5"/>
	<circle class="particle4" cx="127.6" cy="201.7" r="1.5"/>
	<circle class="particle4" cx="129.7" cy="214.1" r="1.5"/>
	<circle class="particle2" cx="129" cy="212.2" r="1.5"/>
	<circle class="particle2" cx="145" cy="199" r="1.5"/>
</g>
<g id="Camino4">
	<circle class="particle0" cx="259.7" cy="249.5" r="2.9"/>
	<circle class="particle0" cx="221.2" cy="227.2" r="2.9"/>
	<circle class="particle0" cx="207.2" cy="214.6" r="3"/>
	<circle class="particle0" cx="183.2" cy="208.6" r="3"/>
	<circle class="particle0" cx="165.8" cy="199.1" r="3"/>
	<circle class="particle0" cx="161.7" cy="196.7" r="3"/>
	<circle class="particle0" cx="159.7" cy="188.7" r="3"/>
	<circle class="particle0" cx="246.7" cy="245.1" r="2.9"/>
	<circle class="particle0" cx="233.1" cy="236.4" r="5.9"/>
	<circle class="particle0" cx="188.7" cy="212.5" r="5.9"/>
	<circle class="particle0" cx="168.3" cy="200.1" r="5.9"/>
	<circle class="particle0" cx="241.5" cy="246.2" r="7.4"/>
	<circle class="particle2" cx="256.4" cy="254.3" r="1.5"/>
	<circle class="particle2" cx="235.7" cy="239" r="1.5"/>
	<circle class="particle2" cx="209.5" cy="224.4" r="1.5"/>
	<circle class="particle2" cx="204.9" cy="221.7" r="1.5"/>
	<circle class="particle2" cx="196.8" cy="219" r="1.5"/>
	<circle class="particle2" cx="192.3" cy="216.3" r="1.5"/>
	<path class="particle2" d="M174.5,203.6c0,0.8-0.7,1.5-1.5,1.5s-1.5-0.7-1.5-1.5c0-0.8,0.7-1.5,1.5-1.5S174.5,202.8,174.5,203.6z"/>
	<circle class="particle2" cx="158.3" cy="196.9" r="1.5"/>
	<circle class="particle4" cx="258.6" cy="258.6" r="1.5"/>
	<circle class="particle4" cx="206.3" cy="225.7" r="1.5"/>
	<circle class="particle4" cx="183.7" cy="204.1" r="1.5"/>
	<circle class="particle4" cx="174.2" cy="206.6" r="1.5"/>
	<circle class="particle4" cx="165.6" cy="192.2" r="1.5"/>
	<circle class="particle4" cx="212.1" cy="219.6" r="1.5"/>
	<circle class="particle4" cx="203.7" cy="214.7" r="1.5"/>
	<circle class="particle4" cx="253.7" cy="252.6" r="1.5"/>
	<circle class="particle4" cx="243.1" cy="246.6" r="1.5"/>
</g>
<g id="Camino5">
	<circle class="particle0" cx="268.7" cy="396.1" r="2.9"/>
	<circle class="particle0" cx="274.7" cy="369.6" r="2.9"/>
	<circle class="particle0" cx="271.2" cy="359.1" r="2.9"/>
	<circle class="particle0" cx="270.2" cy="347.6" r="2.9"/>
	<circle class="particle0" cx="269.7" cy="334.6" r="2.9"/>
	<circle class="particle0" cx="267.7" cy="325.6" r="2.9"/>
	<circle class="particle0" cx="268.7" cy="286.9" r="2.9"/>
	<circle class="particle0" cx="266.2" cy="264.1" r="2.9"/>
	<circle class="particle0" cx="268.7" cy="228.7" r="2.9"/>
	<circle class="particle0" cx="271.2" cy="211.6" r="2.9"/>
	<circle class="particle0" cx="268.1" cy="174.7" r="2.9"/>
	<circle class="particle0" cx="269.8" cy="166.7" r="2.9"/>
	
		<ellipse transform="matrix(0.6746 -0.7382 0.7382 0.6746 -95.6974 279.7202)" class="particle0" cx="269.4" cy="248.4" rx="3.4" ry="3.1"/>
	<circle class="particle0" cx="270.2" cy="382.1" r="5.9"/>
	<circle class="particle0" cx="267.2" cy="306.1" r="5.9"/>
	<circle class="particle0" cx="270.3" cy="271.6" r="5.9"/>
	<circle class="particle0" cx="270.2" cy="240.6" r="6"/>
	<circle class="particle0" cx="268.7" cy="196.1" r="6"/>
	<circle class="particle2" cx="272.1" cy="396" r="1.5"/>
	<circle class="particle2" cx="274.2" cy="388.8" r="1.5"/>
	<circle class="particle2" cx="269.7" cy="378.9" r="1.5"/>
	<circle class="particle2" cx="271" cy="342.3" r="1.5"/>
	<circle class="particle2" cx="272.3" cy="333.6" r="1.5"/>
	<circle class="particle2" cx="268.3" cy="306.9" r="1.5"/>
	<circle class="particle2" cx="265" cy="303.6" r="1.5"/>
	<circle class="particle2" cx="270.3" cy="294.3" r="1.5"/>
	<circle class="particle2" cx="272.3" cy="290.9" r="1.5"/>
	<circle class="particle2" cx="272.3" cy="286.9" r="1.5"/>
	<circle class="particle2" cx="272.3" cy="266.3" r="1.5"/>
	<circle class="particle2" cx="267.7" cy="247.6" r="1.5"/>
	<circle class="particle2" cx="267.7" cy="200.3" r="1.5"/>
	<circle class="particle2" cx="265" cy="192.9" r="1.5"/>
	<circle class="particle2" cx="269.8" cy="159.6" r="1.5"/>
	<circle class="particle4" cx="265.7" cy="332.6" r="1.5"/>
	<circle class="particle4" cx="268.7" cy="317.6" r="1.5"/>
	<circle class="particle4" cx="265.7" cy="295.1" r="1.5"/>
	<circle class="particle4" cx="270.7" cy="260.6" r="1.5"/>
	<circle class="particle4" cx="275.7" cy="224.6" r="1.5"/>
	<circle class="particle4" cx="269.2" cy="219.1" r="1.5"/>
	<circle class="particle4" cx="265.1" cy="210.1" r="1.5"/>
	<circle class="particle4" cx="267.8" cy="202.6" r="1.5"/>
	<circle class="particle4" cx="276.1" cy="199.1" r="1.5"/>
	<circle class="particle4" cx="274.3" cy="184.1" r="1.5"/>
	<circle class="particle4" cx="265.7" cy="184.1" r="1.5"/>
	<circle class="particle4" cx="271.7" cy="179.6" r="1.5"/>
	<circle class="particle4" cx="274.6" cy="166" r="1.5"/>
	<circle class="particle4" cx="264.2" cy="165.6" r="1.5"/>
	<circle class="particle4" cx="275.7" cy="256.6" r="1.5"/>
	<circle class="particle4" cx="267.7" cy="270.6" r="1.5"/>
	<circle class="particle7" cx="261.7" cy="295.6" r="1.5"/>
	<circle class="particle4" cx="269.2" cy="371.6" r="1.5"/>
	<circle class="particle5" cx="271.7" cy="365.6" r="1.5"/>
	<path class="particle4" d="M265.7,354.6h-0.2c-0.8,0-1.4-0.6-1.4-1.4v-1.6c0-0.8,0.6-1.4,1.4-1.4h0.2c0.8,0,1.4,0.6,1.4,1.4v1.6
		C267.2,353.9,266.5,354.6,265.7,354.6z"/>
	<path class="particle2" d="M272.1,242.5h0.4c0.7,0,1.3-0.6,1.3-1.3v-1.8c0-0.7-0.6-1.3-1.3-1.3h-0.4c-0.7,0-1.3,0.6-1.3,1.3v1.8
		C270.9,241.9,271.5,242.5,272.1,242.5z"/>
</g>
</svg>
