<?xml version="1.0" encoding="utf-8"?>
<!-- Generator: Adobe Illustrator 22.1.0, SVG Export Plug-In . SVG Version: 6.00 Build 0)  -->
<svg version="1.1" id="Layer_1" xmlns="http://www.w3.org/2000/svg" xmlns:xlink="http://www.w3.org/1999/xlink" x="0px" y="0px"
	 viewBox="0 0 1366 760.2" style="enable-background:new 0 0 1366 760.2;" xml:space="preserve">
<style type="text/css">
	.st0{opacity:0.14;}
	.st1{clip-path:url(#SVGID_2_);fill:#007EFF;}
	.st2{clip-path:url(#SVGID_4_);fill:#007EFF;}
	.st3{opacity:0.8;}
	.st4{clip-path:url(#SVGID_6_);}
	.st5{fill:#FFFFFF;}
	.st6{font-family:'LibreFranklin-Bold';}
	.st7{font-size:7px;}
	.st8{clip-path:url(#SVGID_8_);}
	.st9{clip-path:url(#SVGID_10_);}
	.st10{clip-path:url(#SVGID_12_);}
	.st11{clip-path:url(#SVGID_14_);}
	.st12{clip-path:url(#SVGID_16_);}
	.st13{clip-path:url(#SVGID_18_);}
	.st14{fill:none;stroke:#FFFFFF;stroke-miterlimit:10;}
	.st15{fill:#001021;}
	.st16{fill:#CCD4DB;}
	.st17{fill:#007EFF;}
	.st18{clip-path:url(#SVGID_20_);fill:none;stroke:#007EFF;stroke-miterlimit:10;stroke-dasharray:12.015,12.015;}
	.st19{opacity:0.37;}
	.st20{clip-path:url(#SVGID_22_);fill:#007EFF;}
</style>
<g class="st0">
	<g>
		<defs>
			<rect id="SVGID_1_" x="0" y="385.3" width="1366" height="375.2"/>
		</defs>
		<clipPath id="SVGID_2_">
			<use xlink:href="#SVGID_1_"  style="overflow:visible;"/>
		</clipPath>
		<path class="st1" d="M155,451.5c140-4,212,190,358,139s212-178,306-183s129,171.7,215,168c69-3,168.9-196.7,249-190
			c108,9,163,173,163,173v202H-243C-243,760.5,15,455.5,155,451.5"/>
	</g>
</g>
<g class="st0">
	<g>
		<defs>
			<rect id="SVGID_3_" x="0" y="452.2" width="1366.2" height="308.3"/>
		</defs>
		<clipPath id="SVGID_4_">
			<use xlink:href="#SVGID_3_"  style="overflow:visible;"/>
		</clipPath>
		<path class="st2" d="M-59,501.5c136,45,177,108,247,59s81-137,143-99c30.4,18.6,78.7,115.1,136,121c59.6,6.1,73-69,116-106
			s114.6-35.7,191,96c47,81,157-30,194-69s129-47,182,58s199,49,243,11s101,188,101,188H-243L-59,501.5z"/>
	</g>
</g>
<g class="st3">
	<g>
		<defs>
			<rect id="SVGID_5_" x="168" y="727.8" width="8.4" height="7.8"/>
		</defs>
		<clipPath id="SVGID_6_">
			<use xlink:href="#SVGID_5_"  style="overflow:visible;"/>
		</clipPath>
		<g class="st4">
			<text transform="matrix(1 0 0 1 167.959 733.9315)" class="st5 st6 st7">14</text>
		</g>
	</g>
</g>
<g class="st3">
	<g>
		<defs>
			<rect id="SVGID_7_" x="314" y="727.8" width="8.3" height="7.8"/>
		</defs>
		<clipPath id="SVGID_8_">
			<use xlink:href="#SVGID_7_"  style="overflow:visible;"/>
		</clipPath>
		<g class="st8">
			<text transform="matrix(1 0 0 1 313.959 733.9315)" class="st5 st6 st7">15</text>
		</g>
	</g>
</g>
<g class="st3">
	<g>
		<defs>
			<rect id="SVGID_9_" x="489" y="727.8" width="8.4" height="7.8"/>
		</defs>
		<clipPath id="SVGID_10_">
			<use xlink:href="#SVGID_9_"  style="overflow:visible;"/>
		</clipPath>
		<g class="st9">
			<text transform="matrix(1 0 0 1 488.959 733.9315)" class="st5 st6 st7">16</text>
		</g>
	</g>
</g>
<g class="st3">
	<g>
		<defs>
			<rect id="SVGID_11_" x="667" y="727.8" width="7.9" height="7.8"/>
		</defs>
		<clipPath id="SVGID_12_">
			<use xlink:href="#SVGID_11_"  style="overflow:visible;"/>
		</clipPath>
		<g class="st10">
			<text transform="matrix(1 0 0 1 666.959 733.9315)" class="st5 st6 st7">17</text>
		</g>
	</g>
</g>
<g class="st3">
	<g>
		<defs>
			<rect id="SVGID_13_" x="841" y="727.8" width="8.3" height="7.8"/>
		</defs>
		<clipPath id="SVGID_14_">
			<use xlink:href="#SVGID_13_"  style="overflow:visible;"/>
		</clipPath>
		<g class="st11">
			<text transform="matrix(1 0 0 1 840.959 733.9315)" class="st5 st6 st7">18</text>
		</g>
	</g>
</g>
<g class="st3">
	<g>
		<defs>
			<rect id="SVGID_15_" x="1017" y="727.8" width="8.4" height="7.8"/>
		</defs>
		<clipPath id="SVGID_16_">
			<use xlink:href="#SVGID_15_"  style="overflow:visible;"/>
		</clipPath>
		<g class="st12">
			<text transform="matrix(1 0 0 1 1016.959 733.9315)" class="st5 st6 st7">19</text>
		</g>
	</g>
</g>
<g class="st3">
	<g>
		<defs>
			<rect id="SVGID_17_" x="1193" y="727.8" width="9.5" height="7.8"/>
		</defs>
		<clipPath id="SVGID_18_">
			<use xlink:href="#SVGID_17_"  style="overflow:visible;"/>
		</clipPath>
		<g class="st13">
			<text transform="matrix(1 0 0 1 1192.959 733.9315)" class="st5 st6 st7">20</text>
		</g>
	</g>
</g>
<circle class="st14" cx="471.5" cy="581" r="3.5"/>
<rect x="462" y="560.5" class="st15" width="20" height="10"/>
<rect x="469" y="565.5" transform="matrix(0.707 -0.7072 0.7072 0.707 -263.7191 500.3427)" class="st15" width="6" height="6"/>
<path class="st16" d="M470.2,565h-0.3c0.3-0.6,0.6-1.1,0.9-1.5s0.7-0.6,1-0.6c0.3,0,0.5,0.1,0.7,0.3c0.2,0.2,0.3,0.7,0.4,1.4
	c0.6-0.7,1-1.2,1.2-1.4c0.2-0.2,0.5-0.3,0.7-0.3c0.2,0,0.3,0.1,0.4,0.2c0.1,0.1,0.1,0.2,0.1,0.4c0,0.2-0.1,0.3-0.2,0.4
	c-0.1,0.1-0.2,0.1-0.3,0.1c-0.1,0-0.3,0-0.4-0.1c-0.1-0.1-0.2-0.1-0.2-0.1c-0.1,0-0.1,0-0.2,0.1c-0.1,0-0.2,0.2-0.4,0.5
	c-0.2,0.3-0.4,0.5-0.6,0.8c0.2,1.1,0.4,1.9,0.4,2.2c0.1,0.3,0.2,0.5,0.4,0.5c0.1,0,0.3-0.1,0.5-0.3c0.2-0.2,0.4-0.6,0.6-1h0.3
	c-0.3,0.7-0.6,1.2-0.9,1.5c-0.3,0.3-0.7,0.4-1,0.4c-0.4,0-0.7-0.1-0.9-0.4c-0.2-0.3-0.3-0.8-0.4-1.6l-0.9,1.1
	c-0.5,0.6-0.9,0.9-1.2,0.9c-0.2,0-0.3-0.1-0.4-0.2c-0.1-0.1-0.2-0.3-0.2-0.4c0-0.1,0-0.3,0.1-0.4c0.1-0.1,0.2-0.2,0.4-0.2
	c0.2,0,0.3,0.1,0.4,0.2c0.1,0.1,0.2,0.1,0.2,0.1c0.1,0,0.2,0,0.2-0.1c0,0,0.2-0.2,0.5-0.5c0.3-0.3,0.5-0.6,0.7-0.9l-0.3-1.5
	c-0.1-0.5-0.2-0.7-0.4-0.7C470.9,563.6,470.6,564,470.2,565"/>
<circle class="st14" cx="307.5" cy="456" r="3.5"/>
<rect x="298" y="435.5" class="st15" width="20" height="10"/>
<rect x="305" y="440.5" transform="matrix(0.707 -0.7072 0.7072 0.707 -223.3687 347.7398)" class="st15" width="6" height="6"/>
<path class="st16" d="M306.2,440h-0.3c0.3-0.6,0.6-1.1,0.9-1.5s0.7-0.6,1-0.6c0.3,0,0.5,0.1,0.7,0.3c0.2,0.2,0.3,0.7,0.4,1.4
	c0.6-0.7,1-1.2,1.2-1.4c0.2-0.2,0.5-0.3,0.7-0.3c0.2,0,0.3,0.1,0.4,0.2c0.1,0.1,0.1,0.2,0.1,0.4c0,0.2-0.1,0.3-0.2,0.4
	c-0.1,0.1-0.2,0.1-0.3,0.1c-0.1,0-0.3,0-0.4-0.1c-0.1-0.1-0.2-0.1-0.2-0.1c-0.1,0-0.1,0-0.2,0.1c-0.1,0-0.2,0.2-0.4,0.5
	c-0.2,0.3-0.4,0.5-0.6,0.8c0.2,1.1,0.4,1.9,0.4,2.2c0.1,0.3,0.2,0.5,0.4,0.5c0.1,0,0.3-0.1,0.5-0.3c0.2-0.2,0.4-0.6,0.6-1h0.3
	c-0.3,0.7-0.6,1.2-0.9,1.5c-0.3,0.3-0.7,0.4-1,0.4c-0.4,0-0.7-0.1-0.9-0.4c-0.2-0.3-0.3-0.8-0.4-1.6l-0.9,1.1
	c-0.5,0.6-0.9,0.9-1.2,0.9c-0.2,0-0.3-0.1-0.4-0.2c-0.1-0.1-0.2-0.3-0.2-0.4c0-0.1,0-0.3,0.1-0.4c0.1-0.1,0.2-0.2,0.4-0.2
	c0.2,0,0.3,0.1,0.4,0.2c0.1,0.1,0.2,0.1,0.2,0.1c0.1,0,0.2,0,0.2-0.1c0,0,0.2-0.2,0.5-0.5c0.3-0.3,0.5-0.6,0.7-0.9l-0.3-1.5
	c-0.1-0.5-0.2-0.7-0.4-0.7C306.9,438.6,306.6,439,306.2,440"/>
<circle class="st14" cx="691.5" cy="472.5" r="3.5"/>
<circle class="st14" cx="1112.5" cy="138.2" r="3.5"/>
<rect x="1103" y="117.7" class="st15" width="20" height="10"/>
<rect x="1110" y="122.7" transform="matrix(0.7071 -0.7071 0.7071 0.7071 237.1205 823.8376)" class="st15" width="6" height="6"/>
<path class="st16" d="M1111.2,122.2h-0.3c0.3-0.6,0.6-1.1,0.9-1.5c0.4-0.4,0.7-0.6,1-0.6c0.3,0,0.5,0.1,0.7,0.3
	c0.2,0.2,0.3,0.7,0.4,1.4c0.6-0.7,1-1.2,1.2-1.4c0.2-0.2,0.5-0.3,0.7-0.3c0.2,0,0.3,0.1,0.4,0.2c0.1,0.1,0.1,0.2,0.1,0.4
	c0,0.2-0.1,0.3-0.2,0.4c-0.1,0.1-0.2,0.1-0.3,0.1c-0.1,0-0.3,0-0.4-0.1c-0.1-0.1-0.2-0.1-0.2-0.1c-0.1,0-0.1,0-0.2,0.1
	c-0.1,0-0.2,0.2-0.4,0.5c-0.2,0.3-0.4,0.5-0.6,0.8c0.2,1.1,0.4,1.9,0.4,2.2c0.1,0.3,0.2,0.5,0.4,0.5c0.1,0,0.3-0.1,0.5-0.3
	c0.2-0.2,0.4-0.6,0.6-1h0.3c-0.3,0.7-0.6,1.2-0.9,1.5c-0.3,0.3-0.7,0.4-1,0.4c-0.4,0-0.7-0.1-0.9-0.4c-0.2-0.3-0.3-0.8-0.4-1.6
	l-0.9,1.1c-0.5,0.6-0.9,0.9-1.2,0.9c-0.2,0-0.3-0.1-0.4-0.2c-0.1-0.1-0.2-0.3-0.2-0.4c0-0.1,0-0.3,0.1-0.4c0.1-0.1,0.2-0.2,0.4-0.2
	c0.2,0,0.3,0.1,0.4,0.2c0.1,0.1,0.2,0.1,0.2,0.1c0.1,0,0.2,0,0.2-0.1c0,0,0.2-0.2,0.5-0.5c0.3-0.3,0.5-0.6,0.7-0.9l-0.3-1.5
	c-0.1-0.5-0.2-0.7-0.4-0.7C1111.9,120.8,1111.6,121.3,1111.2,122.2"/>
<circle class="st14" cx="157.5" cy="452" r="3.5"/>
<rect x="139.2" y="431.5" class="st17" width="37.7" height="10"/>
<rect x="155" y="436.5" transform="matrix(0.707 -0.7072 0.7072 0.707 -264.4872 240.4885)" class="st17" width="6" height="6"/>
<g>
	<defs>
		<rect id="SVGID_19_" y="101.6" width="1366" height="561"/>
	</defs>
	<clipPath id="SVGID_20_">
		<use xlink:href="#SVGID_19_"  style="overflow:visible;"/>
	</clipPath>
	<path class="st18" d="M1429.2,425c-29.6-63.3-147.2-287.2-330.2-282c-213,6-380.8,334.8-507,434.5c-124.1,98-390.5,70.9-481.5,17
		C-1.8,527.9-85.7,461.3-112.7,439.1"/>
</g>
<g class="st19">
	<g>
		<defs>
			<rect id="SVGID_21_" x="673.2" y="452" width="37.7" height="12.2"/>
		</defs>
		<clipPath id="SVGID_22_">
			<use xlink:href="#SVGID_21_"  style="overflow:visible;"/>
		</clipPath>
		<polygon class="st20" points="710.8,452 673.2,452 673.2,462 689.8,462 692,464.2 694.2,462 710.8,462 		"/>
	</g>
</g>
<g>
	<g>
		<path class="st5" d="M143.4,433.9c0.1,0,0.1,0,0.1,0.1l-0.6,4.2c0,0,0,0.1,0,0.1c0,0,0,0-0.1,0h-0.5c-0.1,0-0.1,0-0.1-0.1l0.6-4.3
			c0,0,0-0.1,0-0.1c0,0,0,0,0.1,0H143.4z"/>
	</g>
	<g>
		<path class="st5" d="M143.8,438.3l0.4-3c0,0,0-0.1,0-0.1c0,0,0,0,0.1,0h0.5c0,0,0.1,0,0,0.1l0,0.3v0c0,0,0,0,0,0c0,0,0,0,0,0
			c0.4-0.3,0.8-0.5,1.1-0.5c0.3,0,0.5,0.1,0.6,0.2c0.2,0.1,0.2,0.3,0.2,0.6c0,0,0,0.1,0,0.2l-0.3,2.2c0,0,0,0.1,0,0.1c0,0,0,0-0.1,0
			h-0.5c-0.1,0-0.1,0-0.1-0.1l0.3-2.1c0-0.1,0-0.1,0-0.1c0-0.3-0.2-0.4-0.5-0.4c-0.2,0-0.3,0-0.4,0.1c-0.1,0.1-0.3,0.2-0.5,0.4
			l-0.3,2.2c0,0,0,0.1,0,0.1c0,0,0,0-0.1,0h-0.4C143.8,438.4,143.8,438.3,143.8,438.3z"/>
	</g>
	<g>
		<path class="st5" d="M149.6,438.4C149.5,438.4,149.5,438.4,149.6,438.4C149.5,438.3,149.5,438.3,149.6,438.4l-0.1-0.3v0
			c0,0,0,0,0,0c0,0,0,0-0.1,0c-0.3,0.3-0.6,0.4-1,0.4c-0.3,0-0.6-0.1-0.8-0.3c-0.2-0.2-0.3-0.5-0.3-0.9c0-0.3,0.1-0.7,0.2-1
			c0.1-0.3,0.3-0.6,0.6-0.8c0.2-0.2,0.5-0.3,0.9-0.3c0.2,0,0.3,0,0.5,0.1c0.1,0.1,0.2,0.1,0.3,0.3c0,0,0,0,0.1,0c0,0,0,0,0.1-0.1
			l0.2-1.4c0,0,0-0.1,0-0.1c0,0,0,0,0.1,0h0.5c0,0,0.1,0,0.1,0.1l-0.6,4.2c0,0,0,0.1,0,0.1c0,0,0,0-0.1,0H149.6z M149.8,435.9
			c-0.1-0.1-0.2-0.2-0.3-0.3s-0.2-0.1-0.4-0.1c-0.2,0-0.5,0.1-0.6,0.2c-0.2,0.2-0.3,0.4-0.4,0.6c-0.1,0.2-0.1,0.5-0.1,0.7
			c0,0.3,0.1,0.5,0.2,0.6c0.1,0.1,0.3,0.2,0.5,0.2c0.1,0,0.3,0,0.4-0.1c0.1-0.1,0.2-0.2,0.3-0.3c0.1-0.1,0.1-0.2,0.1-0.3
			L149.8,435.9z"/>
	</g>
	<g>
		<path class="st5" d="M151.6,438.3C151.6,438.3,151.6,438.4,151.6,438.3c0,0.1-0.1,0.1-0.1,0.1H151c0,0-0.1,0-0.1,0c0,0,0,0,0-0.1
			l0.4-3c0,0,0-0.1,0-0.1c0,0,0,0,0.1,0h0.5c0,0,0,0,0.1,0c0,0,0,0,0,0.1L151.6,438.3z M152.1,434.6
			C152.1,434.6,152.1,434.7,152.1,434.6c-0.1,0.1-0.1,0.1-0.1,0.1h-0.5c-0.1,0-0.1,0-0.1-0.1l0.1-0.5c0-0.1,0-0.1,0.1-0.1h0.5
			c0,0,0,0,0.1,0c0,0,0,0,0,0.1L152.1,434.6z"/>
	</g>
	<g>
		<path class="st5" d="M155,435.4c0.2,0.2,0.3,0.4,0.4,0.6l0,0c0,0,0,0-0.1,0l-0.4,0.1h0c0,0,0,0-0.1-0.1c-0.1-0.2-0.2-0.3-0.3-0.3
			c-0.1-0.1-0.2-0.1-0.4-0.1c-0.2,0-0.4,0.1-0.6,0.2c-0.2,0.2-0.3,0.4-0.4,0.6c-0.1,0.2-0.1,0.5-0.1,0.7c0,0.3,0.1,0.5,0.2,0.7
			c0.1,0.2,0.3,0.2,0.6,0.2c0.2,0,0.4,0,0.5-0.1s0.3-0.2,0.4-0.4c0,0,0,0,0,0c0,0,0,0,0,0l0.3,0.1c0,0,0,0,0,0.1l0,0
			c-0.1,0.2-0.3,0.4-0.6,0.6c-0.2,0.2-0.5,0.2-0.8,0.2c-0.3,0-0.5-0.1-0.7-0.2c-0.2-0.1-0.4-0.3-0.5-0.5c-0.1-0.2-0.2-0.4-0.2-0.7
			c0-0.3,0.1-0.6,0.2-0.9s0.4-0.5,0.6-0.7c0.3-0.2,0.6-0.3,0.9-0.3C154.5,435.1,154.8,435.2,155,435.4z"/>
	</g>
	<g>
		<path class="st5" d="M156.5,438.4c-0.3,0-0.5-0.1-0.7-0.2c-0.2-0.1-0.2-0.3-0.2-0.6c0-0.4,0.2-0.7,0.5-0.9s0.8-0.3,1.3-0.3l0.4,0
			c0,0,0.1,0,0.1,0c0,0,0,0,0-0.1l0-0.2c0,0,0-0.1,0-0.1c0-0.2,0-0.3-0.1-0.4s-0.2-0.1-0.4-0.1c-0.4,0-0.6,0.2-0.9,0.5
			c0,0-0.1,0-0.1,0l-0.4-0.1c0,0,0,0,0-0.1c0,0,0-0.1,0-0.1c0.1-0.2,0.3-0.4,0.6-0.5c0.2-0.1,0.5-0.2,0.8-0.2c0.4,0,0.7,0.1,0.9,0.2
			c0.2,0.2,0.3,0.4,0.3,0.6c0,0,0,0.1,0,0.2l-0.3,2.1c0,0,0,0.1,0,0.1c0,0,0,0-0.1,0h-0.4c-0.1,0-0.1,0-0.1-0.1l0-0.2c0,0,0,0,0,0
			c0,0,0,0-0.1,0.1C157.3,438.3,156.9,438.4,156.5,438.4z M157.8,436.9L157.8,436.9C157.8,436.8,157.8,436.8,157.8,436.9
			C157.8,436.8,157.8,436.8,157.8,436.9l-0.4,0c-0.3,0-0.6,0.1-0.8,0.2c-0.2,0.1-0.4,0.3-0.4,0.6c0,0.1,0,0.2,0.1,0.3
			s0.2,0.1,0.4,0.1c0.1,0,0.2,0,0.4-0.1c0.1,0,0.2-0.1,0.3-0.2c0.1-0.1,0.2-0.1,0.2-0.2c0.1-0.1,0.1-0.1,0.1-0.2L157.8,436.9z"/>
	</g>
	<g>
		<path class="st5" d="M161.2,438.4C161.2,438.4,161.2,438.4,161.2,438.4C161.2,438.3,161.1,438.3,161.2,438.4l-0.1-0.3v0
			c0,0,0,0,0,0c0,0,0,0-0.1,0c-0.3,0.3-0.6,0.4-1,0.4c-0.3,0-0.6-0.1-0.8-0.3c-0.2-0.2-0.3-0.5-0.3-0.9c0-0.3,0.1-0.7,0.2-1
			c0.1-0.3,0.3-0.6,0.6-0.8c0.2-0.2,0.5-0.3,0.9-0.3c0.2,0,0.3,0,0.5,0.1c0.1,0.1,0.2,0.1,0.3,0.3c0,0,0,0,0.1,0c0,0,0,0,0.1-0.1
			l0.2-1.4c0,0,0-0.1,0-0.1c0,0,0,0,0.1,0h0.5c0,0,0.1,0,0.1,0.1l-0.6,4.2c0,0,0,0.1,0,0.1c0,0,0,0-0.1,0H161.2z M161.5,435.9
			c-0.1-0.1-0.2-0.2-0.3-0.3s-0.2-0.1-0.4-0.1c-0.2,0-0.5,0.1-0.6,0.2c-0.2,0.2-0.3,0.4-0.4,0.6c-0.1,0.2-0.1,0.5-0.1,0.7
			c0,0.3,0.1,0.5,0.2,0.6c0.1,0.1,0.3,0.2,0.5,0.2c0.1,0,0.3,0,0.4-0.1c0.1-0.1,0.2-0.2,0.3-0.3c0.1-0.1,0.1-0.2,0.1-0.3
			L161.5,435.9z"/>
	</g>
	<g>
		<path class="st5" d="M163.3,438.3c-0.2-0.1-0.4-0.3-0.5-0.5c-0.1-0.2-0.2-0.4-0.2-0.7c0-0.4,0.1-0.7,0.2-1
			c0.2-0.3,0.4-0.5,0.6-0.7c0.3-0.2,0.6-0.2,0.9-0.2c0.3,0,0.5,0.1,0.7,0.2c0.2,0.1,0.4,0.3,0.5,0.5s0.2,0.5,0.2,0.7
			c0,0.4-0.1,0.7-0.2,1c-0.2,0.3-0.4,0.5-0.6,0.7s-0.6,0.2-0.9,0.2C163.7,438.4,163.5,438.4,163.3,438.3z M164.6,437.8
			c0.2-0.1,0.3-0.3,0.4-0.5c0.1-0.2,0.1-0.5,0.1-0.8c0-0.3-0.1-0.5-0.2-0.6c-0.1-0.1-0.3-0.2-0.5-0.2c-0.2,0-0.4,0.1-0.6,0.2
			s-0.3,0.3-0.4,0.5c-0.1,0.2-0.1,0.5-0.1,0.8c0,0.3,0.1,0.5,0.2,0.6c0.1,0.1,0.3,0.2,0.5,0.2C164.2,438,164.4,437.9,164.6,437.8z"
			/>
	</g>
	<g>
		<path class="st5" d="M166.2,438.3C166.2,438.3,166.2,438.3,166.2,438.3l0.4-3.1c0,0,0-0.1,0-0.1c0,0,0,0,0.1,0h0.5
			c0.1,0,0.1,0,0.1,0.1l0,0.3v0c0,0,0,0,0,0c0,0,0,0,0,0c0.2-0.2,0.3-0.3,0.5-0.4s0.3-0.1,0.5-0.1c0.2,0,0.2,0,0.2,0.1l-0.1,0.5
			c0,0,0,0,0,0.1c0,0,0,0,0,0c-0.1,0-0.2,0-0.3,0c-0.1,0-0.2,0-0.4,0.1c-0.1,0.1-0.3,0.1-0.4,0.3c-0.1,0.1-0.2,0.2-0.2,0.3l-0.3,1.9
			c0,0,0,0.1,0,0.1c0,0,0,0-0.1,0L166.2,438.3C166.3,438.4,166.2,438.4,166.2,438.3z"/>
	</g>
	<g>
		<path class="st5" d="M169.7,438.3C169.7,438.3,169.7,438.3,169.7,438.3l2.2-4.3c0,0,0-0.1,0.1-0.1c0,0,0.1,0,0.1,0h0.6
			c0.1,0,0.1,0,0.1,0.1l0.9,4.2l0,0c0,0,0,0.1-0.1,0.1H173c-0.1,0-0.1,0-0.1-0.1l-0.2-1.1c0,0,0,0,0,0c0,0,0,0,0,0h-1.7
			c0,0,0,0-0.1,0c0,0,0,0,0,0l-0.6,1.1c0,0,0,0,0,0c0,0,0,0-0.1,0L169.7,438.3C169.7,438.4,169.7,438.4,169.7,438.3z M172.5,436.6
			C172.5,436.6,172.6,436.6,172.5,436.6l-0.3-1.9c0,0,0-0.1,0-0.1s0,0-0.1,0.1l-0.9,1.8c0,0,0,0,0,0.1c0,0,0,0,0,0H172.5z"/>
	</g>
</g>
<g>
	<path class="st5" d="M676.6,454.2c0.1,0,0.1,0,0.1,0.1l-0.6,4.2c0,0,0,0.1,0,0.1c0,0,0,0-0.1,0h-0.5c-0.1,0-0.1,0-0.1-0.1l0.6-4.3
		c0,0,0-0.1,0-0.1c0,0,0,0,0.1,0H676.6z"/>
	<path class="st5" d="M677,458.6l0.4-3c0,0,0-0.1,0-0.1c0,0,0,0,0.1,0h0.5c0,0,0.1,0,0,0.1l0,0.3v0c0,0,0,0,0,0c0,0,0,0,0,0
		c0.4-0.3,0.8-0.5,1.1-0.5c0.3,0,0.5,0.1,0.6,0.2c0.2,0.1,0.2,0.3,0.2,0.6c0,0,0,0.1,0,0.2l-0.3,2.2c0,0,0,0.1,0,0.1c0,0,0,0-0.1,0
		h-0.5c-0.1,0-0.1,0-0.1-0.1l0.3-2.1c0-0.1,0-0.1,0-0.1c0-0.3-0.2-0.4-0.5-0.4c-0.2,0-0.3,0-0.4,0.1c-0.1,0.1-0.3,0.2-0.5,0.4
		l-0.3,2.2c0,0,0,0.1,0,0.1c0,0,0,0-0.1,0h-0.4C677,458.7,677,458.6,677,458.6z"/>
	<path class="st5" d="M682.8,458.7C682.7,458.7,682.7,458.7,682.8,458.7C682.7,458.6,682.7,458.6,682.8,458.7l-0.1-0.3v0
		c0,0,0,0,0,0c0,0,0,0-0.1,0c-0.3,0.3-0.6,0.4-1,0.4c-0.3,0-0.6-0.1-0.8-0.3c-0.2-0.2-0.3-0.5-0.3-0.9c0-0.3,0.1-0.7,0.2-1
		c0.1-0.3,0.3-0.6,0.6-0.8c0.2-0.2,0.5-0.3,0.9-0.3c0.2,0,0.3,0,0.5,0.1c0.1,0.1,0.2,0.1,0.3,0.3c0,0,0,0,0.1,0c0,0,0,0,0.1-0.1
		l0.2-1.4c0,0,0-0.1,0-0.1c0,0,0,0,0.1,0h0.5c0,0,0.1,0,0.1,0.1l-0.6,4.2c0,0,0,0.1,0,0.1c0,0,0,0-0.1,0H682.8z M683,456.2
		c-0.1-0.1-0.2-0.2-0.3-0.3s-0.2-0.1-0.4-0.1c-0.2,0-0.5,0.1-0.6,0.2c-0.2,0.2-0.3,0.4-0.4,0.6c-0.1,0.2-0.1,0.5-0.1,0.7
		c0,0.3,0.1,0.5,0.2,0.6c0.1,0.1,0.3,0.2,0.5,0.2c0.1,0,0.3,0,0.4-0.1c0.1-0.1,0.2-0.2,0.3-0.3c0.1-0.1,0.1-0.2,0.1-0.3L683,456.2z"
		/>
	<path class="st5" d="M684.8,458.6C684.8,458.6,684.7,458.6,684.8,458.6c0,0.1-0.1,0.1-0.1,0.1h-0.4c0,0-0.1,0-0.1,0c0,0,0,0,0-0.1
		l0.4-3c0,0,0-0.1,0-0.1c0,0,0,0,0.1,0h0.5c0,0,0,0,0.1,0c0,0,0,0,0,0.1L684.8,458.6z M685.3,454.9
		C685.3,454.9,685.3,454.9,685.3,454.9c-0.1,0.1-0.1,0.1-0.1,0.1h-0.5c-0.1,0-0.1,0-0.1-0.1l0.1-0.5c0-0.1,0-0.1,0.1-0.1h0.5
		c0,0,0,0,0.1,0s0,0,0,0.1L685.3,454.9z"/>
	<path class="st5" d="M688.1,455.7c0.2,0.2,0.3,0.4,0.4,0.6l0,0c0,0,0,0-0.1,0l-0.4,0.1h0c0,0,0,0-0.1-0.1c-0.1-0.2-0.2-0.3-0.3-0.3
		c-0.1-0.1-0.2-0.1-0.4-0.1c-0.2,0-0.4,0.1-0.6,0.2c-0.2,0.2-0.3,0.4-0.4,0.6c-0.1,0.2-0.1,0.5-0.1,0.7c0,0.3,0.1,0.5,0.2,0.7
		c0.1,0.2,0.3,0.2,0.6,0.2c0.2,0,0.4,0,0.5-0.1c0.1-0.1,0.3-0.2,0.4-0.4c0,0,0,0,0,0c0,0,0,0,0,0l0.3,0.1c0,0,0,0,0,0.1l0,0
		c-0.1,0.2-0.3,0.4-0.6,0.6s-0.5,0.2-0.8,0.2c-0.3,0-0.5-0.1-0.7-0.2c-0.2-0.1-0.4-0.3-0.5-0.5c-0.1-0.2-0.2-0.4-0.2-0.7
		c0-0.3,0.1-0.6,0.2-0.9c0.1-0.3,0.3-0.5,0.6-0.7c0.3-0.2,0.6-0.3,0.9-0.3C687.7,455.4,688,455.5,688.1,455.7z"/>
	<path class="st5" d="M689.7,458.7c-0.3,0-0.5-0.1-0.7-0.2c-0.2-0.1-0.2-0.3-0.2-0.6c0-0.4,0.2-0.7,0.5-0.9c0.3-0.2,0.8-0.3,1.3-0.3
		l0.4,0c0,0,0.1,0,0.1,0c0,0,0,0,0-0.1l0-0.2c0,0,0-0.1,0-0.1c0-0.2,0-0.3-0.1-0.4c-0.1-0.1-0.2-0.1-0.4-0.1c-0.4,0-0.6,0.2-0.9,0.5
		c0,0-0.1,0-0.1,0l-0.4-0.1c0,0,0,0,0-0.1c0,0,0-0.1,0-0.1c0.1-0.2,0.3-0.4,0.6-0.5c0.2-0.1,0.5-0.2,0.8-0.2c0.4,0,0.7,0.1,0.9,0.2
		c0.2,0.2,0.3,0.4,0.3,0.6c0,0,0,0.1,0,0.2l-0.3,2.1c0,0,0,0.1,0,0.1s0,0-0.1,0h-0.4c-0.1,0-0.1,0-0.1-0.1l0-0.2c0,0,0,0,0,0
		c0,0,0,0-0.1,0.1C690.4,458.6,690.1,458.7,689.7,458.7z M691,457.2L691,457.2C691,457.1,691,457.1,691,457.2
		C691,457.1,690.9,457.1,691,457.2l-0.4,0c-0.3,0-0.6,0.1-0.8,0.2c-0.2,0.1-0.4,0.3-0.4,0.6c0,0.1,0,0.2,0.1,0.3s0.2,0.1,0.4,0.1
		c0.1,0,0.2,0,0.4-0.1c0.1,0,0.2-0.1,0.3-0.2c0.1-0.1,0.2-0.1,0.2-0.2c0.1-0.1,0.1-0.1,0.1-0.2L691,457.2z"/>
	<path class="st5" d="M694.4,458.7C694.4,458.7,694.4,458.7,694.4,458.7C694.3,458.6,694.3,458.6,694.4,458.7l-0.1-0.3v0
		c0,0,0,0,0,0c0,0,0,0-0.1,0c-0.3,0.3-0.6,0.4-1,0.4c-0.3,0-0.6-0.1-0.8-0.3c-0.2-0.2-0.3-0.5-0.3-0.9c0-0.3,0.1-0.7,0.2-1
		c0.1-0.3,0.3-0.6,0.6-0.8c0.2-0.2,0.5-0.3,0.9-0.3c0.2,0,0.3,0,0.5,0.1c0.1,0.1,0.2,0.1,0.3,0.3c0,0,0,0,0.1,0c0,0,0,0,0.1-0.1
		l0.2-1.4c0,0,0-0.1,0-0.1c0,0,0,0,0.1,0h0.5c0,0,0.1,0,0.1,0.1l-0.6,4.2c0,0,0,0.1,0,0.1c0,0,0,0-0.1,0H694.4z M694.7,456.2
		c-0.1-0.1-0.2-0.2-0.3-0.3c-0.1-0.1-0.2-0.1-0.4-0.1c-0.2,0-0.5,0.1-0.6,0.2s-0.3,0.4-0.4,0.6c-0.1,0.2-0.1,0.5-0.1,0.7
		c0,0.3,0.1,0.5,0.2,0.6c0.1,0.1,0.3,0.2,0.5,0.2c0.1,0,0.3,0,0.4-0.1c0.1-0.1,0.2-0.2,0.3-0.3c0.1-0.1,0.1-0.2,0.1-0.3L694.7,456.2
		z"/>
	<path class="st5" d="M696.4,458.6c-0.2-0.1-0.4-0.3-0.5-0.5c-0.1-0.2-0.2-0.4-0.2-0.7c0-0.4,0.1-0.7,0.2-1s0.4-0.5,0.6-0.7
		c0.3-0.2,0.6-0.2,0.9-0.2c0.3,0,0.5,0.1,0.7,0.2c0.2,0.1,0.4,0.3,0.5,0.5c0.1,0.2,0.2,0.5,0.2,0.7c0,0.4-0.1,0.7-0.2,1
		s-0.4,0.5-0.6,0.7c-0.3,0.2-0.6,0.2-0.9,0.2C696.9,458.7,696.7,458.7,696.4,458.6z M697.8,458.1c0.2-0.1,0.3-0.3,0.4-0.5
		c0.1-0.2,0.1-0.5,0.1-0.8c0-0.3-0.1-0.5-0.2-0.6c-0.1-0.1-0.3-0.2-0.5-0.2c-0.2,0-0.4,0.1-0.6,0.2s-0.3,0.3-0.4,0.5
		c-0.1,0.2-0.1,0.5-0.1,0.8c0,0.3,0.1,0.5,0.2,0.6c0.1,0.1,0.3,0.2,0.5,0.2C697.4,458.3,697.6,458.2,697.8,458.1z"/>
	<path class="st5" d="M699.4,458.6C699.4,458.6,699.4,458.6,699.4,458.6l0.4-3.1c0,0,0-0.1,0-0.1c0,0,0,0,0.1,0h0.5
		c0.1,0,0.1,0,0.1,0.1l0,0.3v0c0,0,0,0,0,0c0,0,0,0,0,0c0.2-0.2,0.3-0.3,0.5-0.4s0.3-0.1,0.5-0.1c0.2,0,0.2,0,0.2,0.1l-0.1,0.5
		c0,0,0,0,0,0.1c0,0,0,0,0,0c-0.1,0-0.2,0-0.3,0c-0.1,0-0.2,0-0.4,0.1c-0.1,0.1-0.3,0.1-0.4,0.3c-0.1,0.1-0.2,0.2-0.2,0.3l-0.3,1.9
		c0,0,0,0.1,0,0.1c0,0,0,0-0.1,0L699.4,458.6C699.5,458.7,699.4,458.7,699.4,458.6z"/>
	<path class="st5" d="M703.1,458.6l0.6-4.3c0-0.1,0-0.1,0.1-0.1h1.5c0.5,0,0.9,0.1,1.2,0.3c0.3,0.2,0.4,0.4,0.4,0.8
		c0,0.3-0.1,0.5-0.2,0.7c-0.2,0.2-0.4,0.3-0.7,0.4c0,0,0,0,0,0c0,0,0,0,0,0c0.5,0.1,0.8,0.4,0.8,0.9c0,0.5-0.2,0.8-0.5,1
		c-0.4,0.2-0.8,0.3-1.4,0.3h-1.6C703.2,458.7,703.1,458.6,703.1,458.6z M704.8,458.2c0.3,0,0.6-0.1,0.8-0.2c0.2-0.1,0.3-0.4,0.3-0.7
		c0-0.2-0.1-0.4-0.2-0.5c-0.2-0.1-0.4-0.1-0.6-0.1h-0.8c0,0-0.1,0-0.1,0c0,0,0,0,0,0.1l-0.2,1.3l0,0c0,0,0,0,0.1,0H704.8z
		 M705.1,456.2c0.3,0,0.5-0.1,0.7-0.2c0.2-0.1,0.3-0.4,0.3-0.6c0-0.2-0.1-0.3-0.2-0.4s-0.4-0.1-0.6-0.1h-0.8c-0.1,0-0.1,0-0.1,0.1
		l-0.2,1.3l0,0c0,0,0,0,0,0c0,0,0,0,0,0H705.1z"/>
</g>
</svg>
