<?xml version="1.0" encoding="utf-8"?>
<!-- Generator: Adobe Illustrator 22.1.0, SVG Export Plug-In . SVG Version: 6.00 Build 0)  -->
<svg version="1.1" id="Layer_2" xmlns="http://www.w3.org/2000/svg" xmlns:xlink="http://www.w3.org/1999/xlink" x="0px" y="0px"
	 viewBox="0 0 65.3 61.3" style="enable-background:new 0 0 65.3 61.3;" xml:space="preserve">
<style type="text/css">
	.particle0{fill:#FFFFFF;}
</style>
<g>
	<g>
		<path class="particle0" d="M35.6,5C19.7,2.9,5.4,10.9,3.8,22.9C3,28.8,5.3,34.7,10.4,39.6c1.9,1.8,4.1,3.4,6.6,4.8
			c0,2.2-1.7,4.9-2.8,6.9c-1.1,2-1.9,3.4-1,4.6c0.2,0.3,0.7,0.8,1.6,0.8c0.3,0,0.5,0,0.9-0.1c1.9-0.5,7.6-2.4,12.5-8.3
			c0.6,0.1,1.1,0.2,1.7,0.3c1.7,0.2,3.4,0.4,5.1,0.4c13.8,0,25.2-7.5,26.7-18.2C63.1,18.6,51.5,7.2,35.6,5z M58.1,30.2
			C56.7,40.2,44.2,46.9,30.2,45c-0.9-0.1-1.8-0.3-2.7-0.5c-0.5-0.1-1.1,0.1-1.5,0.5c-0.5,0.6-1.1,1.3-1.9,2.2c0,0,0,0,0,0
			c-0.1,0.1-0.2,0.2-0.3,0.3l0,0c-1.7,1.6-3.4,2.8-5,3.7c-0.3,0.2-0.6-0.2-0.4-0.5c0.8-1.5,1.6-3.2,1.9-4.9l0,0
			c0.1-0.6,0.4-1.6,0.4-2.8c0-0.8-0.6-1.1-0.9-1.2c-0.1,0-0.2-0.1-0.3-0.1c-2.6-1.3-4.9-2.9-6.9-4.8C8.6,33,6.6,28.1,7.3,23.4
			C8.5,14.4,18.4,8.2,30.4,8.2c1.5,0,3.1,0.1,4.7,0.3C48.3,10.3,58.2,19,58.2,28.4C58.2,29,58.2,29.6,58.1,30.2z"/>
	</g>
	<g>
		<path class="particle0" d="M12.7,26.6c-0.1,0-0.2,0-0.3,0c-0.5-0.2-0.8-0.7-0.7-1.2c1.3-4.5,8.5-14,21.2-12.8c0.5,0.1,1,0.5,0.9,1.1
			c-0.1,0.5-0.5,1-1.1,0.9c-11.5-1.1-17.9,7.4-19.1,11.4C13.5,26.3,13.1,26.6,12.7,26.6z"/>
	</g>
</g>
</svg>
