<?xml version="1.0" encoding="utf-8"?>
<!-- Generator: Adobe Illustrator 22.1.0, SVG Export Plug-In . SVG Version: 6.00 Build 0)  -->
<svg version="1.1" id="Layer_3" xmlns="http://www.w3.org/2000/svg" xmlns:xlink="http://www.w3.org/1999/xlink" x="0px" y="0px"
	 viewBox="0 0 66 73.3" style="enable-background:new 0 0 66 73.3;" xml:space="preserve">
<style type="text/css">
	.particle0{fill:#FFFFFF;}
</style>
<path class="particle0" d="M57,54.5c0,5-4,9-9,9c-5,0-9-4-9-9c0-0.4,0-0.8,0.1-1.2l-15.8-9.7c-1.5,1.1-3.3,1.7-5.2,1.7c-5,0-9-4-9-9
	s4-9,9-9c2.2,0,4.2,0.8,5.8,2.1L39,19.4c0-0.2,0-0.4,0-0.6c0-5,4-9,9-9c5,0,9,4,9,9c0,5-4,9-9,9c-2.2,0-4.3-0.8-5.8-2.1L27,35.6
	c0,0.2,0,0.4,0,0.6c0,0.5,0,0.9-0.1,1.3l15.8,9.7c1.5-1.1,3.3-1.8,5.3-1.8C53,45.5,57,49.5,57,54.5z"/>
</svg>
