<?xml version="1.0" encoding="utf-8"?>
<!-- Generator: Adobe Illustrator 22.1.0, SVG Export Plug-In . SVG Version: 6.00 Build 0)  -->
<svg version="1.1" id="Layer_1" xmlns="http://www.w3.org/2000/svg" xmlns:xlink="http://www.w3.org/1999/xlink" x="0px" y="0px"
	 viewBox="-100 -150 1920 1080" xml:space="preserve">
<style type="text/css">
	.particle0{fill:#007EFF;}
	.particle1{opacity:0.3;fill:#007EFF;}
	.particle2{opacity:0.2;fill:#007EFF;}
</style>
<g id="cubo5">
	<path class="particle0" d="M1290.7,541.2c1.9,0,1.9-3,0-3C1288.7,538.2,1288.7,541.2,1290.7,541.2L1290.7,541.2z"/>
	<path class="particle0" d="M1295,539.4c1.9,0,1.9-3,0-3C1293.1,536.4,1293.1,539.4,1295,539.4L1295,539.4z"/>
	<path class="particle0" d="M1303.5,534.3c1.9,0,1.9-3,0-3C1301.6,531.3,1301.6,534.3,1303.5,534.3L1303.5,534.3z"/>
	<path class="particle0" d="M1311.7,529.2c1.9,0,1.9-3,0-3C1309.8,526.2,1309.8,529.2,1311.7,529.2L1311.7,529.2z"/>
	<path class="particle0" d="M1333.8,517.9c1.9,0,1.9-3,0-3C1331.9,514.9,1331.9,517.9,1333.8,517.9L1333.8,517.9z"/>
	<path class="particle0" d="M1345.1,510.4c1.9,0,1.9-3,0-3C1343.2,507.4,1343.2,510.4,1345.1,510.4L1345.1,510.4z"/>
	<path class="particle0" d="M1354.9,504.5c1.9,0,1.9-3,0-3C1352.9,501.5,1352.9,504.5,1354.9,504.5L1354.9,504.5z"/>
	<path class="particle0" d="M1356.4,429.3c1.9,0,1.9-3,0-3C1354.5,426.3,1354.5,429.3,1356.4,429.3L1356.4,429.3z"/>
	<path class="particle0" d="M1292.5,391.5c1.9,0,1.9-3,0-3C1290.5,388.5,1290.5,391.5,1292.5,391.5L1292.5,391.5z"/>
	<path class="particle0" d="M1226.4,428.5c1.9,0,1.9-3,0-3C1224.5,425.5,1224.5,428.5,1226.4,428.5L1226.4,428.5z"/>
	<path class="particle0" d="M1292.5,465.5c1.9,0,1.9-3,0-3C1290.5,462.5,1290.5,465.5,1292.5,465.5L1292.5,465.5z"/>
	<path class="particle0" d="M1299.4,396.1c1.9,0,1.9-3,0-3C1297.5,393.1,1297.5,396.1,1299.4,396.1L1299.4,396.1z"/>
	<path class="particle0" d="M1324.6,409c1.9,0,1.9-3,0-3C1322.6,406,1322.6,409,1324.6,409L1324.6,409z"/>
	<path class="particle0" d="M1313,403.3c1.9,0,1.9-3,0-3C1311.1,400.3,1311.1,403.3,1313,403.3L1313,403.3z"/>
	<path class="particle0" d="M1345.9,422.6c1.9,0,1.9-3,0-3C1344,419.6,1343.9,422.6,1345.9,422.6L1345.9,422.6z"/>
	<path class="particle0" d="M1332.3,442.6c1.9,0,1.9-3,0-3C1330.3,439.6,1330.3,442.6,1332.3,442.6L1332.3,442.6z"/>
	<path class="particle0" d="M1313.5,454.2c1.9,0,1.9-3,0-3C1311.6,451.2,1311.6,454.2,1313.5,454.2L1313.5,454.2z"/>
	<path class="particle0" d="M1303.2,460.3c1.9,0,1.9-3,0-3C1301.3,457.3,1301.3,460.3,1303.2,460.3L1303.2,460.3z"/>
	<path class="particle0" d="M1277.3,398.4c1.9,0,1.9-3,0-3C1275.4,395.4,1275.4,398.4,1277.3,398.4L1277.3,398.4z"/>
	<path class="particle0" d="M1257.8,409.7c1.9,0,1.9-3,0-3C1255.9,406.7,1255.8,409.7,1257.8,409.7L1257.8,409.7z"/>
	<path class="particle0" d="M1244.2,418.2c1.9,0,1.9-3,0-3C1242.2,415.2,1242.2,418.2,1244.2,418.2L1244.2,418.2z"/>
	<path class="particle0" d="M1234.9,422.6c1.9,0,1.9-3,0-3C1233,419.6,1233,422.6,1234.9,422.6L1234.9,422.6z"/>
	<path class="particle0" d="M1224.9,441.1c1.9,0,1.9-3,0-3C1223,438.1,1223,441.1,1224.9,441.1L1224.9,441.1z"/>
	<path class="particle0" d="M1233.4,432.6c1.9,0,1.9-3,0-3C1231.5,429.6,1231.4,432.6,1233.4,432.6L1233.4,432.6z"/>
	<path class="particle0" d="M1248.5,440.8c1.9,0,1.9-3,0-3C1246.6,437.8,1246.6,440.8,1248.5,440.8L1248.5,440.8z"/>
	<path class="particle0" d="M1240.6,437.5c1.9,0,1.9-3,0-3C1238.6,434.5,1238.6,437.5,1240.6,437.5L1240.6,437.5z"/>
	<path class="particle0" d="M1263.7,449.5c1.9,0,1.9-3,0-3C1261.8,446.5,1261.8,449.5,1263.7,449.5L1263.7,449.5z"/>
	<path class="particle0" d="M1280.6,461.4c1.9,0,1.9-3,0-3C1278.7,458.4,1278.7,461.4,1280.6,461.4L1280.6,461.4z"/>
	<path class="particle0" d="M1270.9,454.9c1.9,0,1.9-3,0-3C1269,451.9,1268.9,454.9,1270.9,454.9L1270.9,454.9z"/>
	<path class="particle0" d="M1255.2,446.2c1.9,0,1.9-3,0-3C1253.3,443.2,1253.3,446.2,1255.2,446.2L1255.2,446.2z"/>
	<path class="particle0" d="M1225.4,448.8c1.9,0,1.9-3,0-3C1223.5,445.8,1223.5,448.8,1225.4,448.8L1225.4,448.8z"/>
	<path class="particle0" d="M1226.4,469.6c1.9,0,1.9-3,0-3C1224.5,466.6,1224.5,469.6,1226.4,469.6L1226.4,469.6z"/>
	<path class="particle0" d="M1226.2,456.7c1.9,0,1.9-3,0-3C1224.3,453.7,1224.3,456.7,1226.2,456.7L1226.2,456.7z"/>
	<path class="particle0" d="M1224.9,478.8c1.9,0,1.9-3,0-3C1223,475.8,1223,478.8,1224.9,478.8L1224.9,478.8z"/>
	<path class="particle0" d="M1225.7,495.5c1.9,0,1.9-3,0-3C1223.7,492.5,1223.7,495.5,1225.7,495.5L1225.7,495.5z"/>
	<path class="particle0" d="M1226.4,503.5c1.9,0,1.9-3,0-3C1224.5,500.5,1224.5,503.5,1226.4,503.5L1226.4,503.5z"/>
	<path class="particle0" d="M1356.2,495.5c1.9,0,1.9-3,0-3C1354.2,492.5,1354.2,495.5,1356.2,495.5L1356.2,495.5z"/>
	<path class="particle0" d="M1358.2,467.8c1.9,0,1.9-3,0-3C1356.3,464.8,1356.3,467.8,1358.2,467.8L1358.2,467.8z"/>
	<path class="particle0" d="M1357.7,444.9c1.9,0,1.9-3,0-3C1355.8,441.9,1355.8,444.9,1357.7,444.9L1357.7,444.9z"/>
	<path class="particle0" d="M1356.9,458c1.9,0,1.9-3,0-3C1355,455,1355,458,1356.9,458L1356.9,458z"/>
	<path class="particle0" d="M1357.4,484c1.9,0,1.9-3,0-3C1355.5,481,1355.5,484,1357.4,484L1357.4,484z"/>
	<path class="particle0" d="M1290.9,480.9c1.9,0,1.9-3,0-3C1289,477.9,1289,480.9,1290.9,480.9L1290.9,480.9z"/>
	<path class="particle0" d="M1290.4,504.8c1.9,0,1.9-3,0-3C1288.5,501.8,1288.5,504.8,1290.4,504.8L1290.4,504.8z"/>
	<path class="particle0" d="M1292.5,526.9c1.9,0,1.9-3,0-3C1290.5,523.9,1290.5,526.9,1292.5,526.9L1292.5,526.9z"/>
	<path class="particle0" d="M1236.2,508.9c1.9,0,1.9-3,0-3C1234.3,505.9,1234.3,508.9,1236.2,508.9L1236.2,508.9z"/>
	<path class="particle0" d="M1248.3,516.1c1.9,0,1.9-3,0-3C1246.3,513.1,1246.3,516.1,1248.3,516.1L1248.3,516.1z"/>
	<path class="particle0" d="M1255.2,521.5c1.9,0,1.9-3,0-3C1253.3,518.5,1253.3,521.5,1255.2,521.5L1255.2,521.5z"/>
	<path class="particle0" d="M1272.7,531c1.9,0,1.9-3,0-3C1270.7,528,1270.7,531,1272.7,531L1272.7,531z"/>
	<path class="particle0" d="M1283.7,537.6c1.9,0,1.9-3,0-3C1281.8,534.6,1281.8,537.6,1283.7,537.6L1283.7,537.6z"/>
	<path class="particle0" d="M1265,527.4c1.9,0,1.9-3,0-3C1263,524.4,1263,527.4,1265,527.4L1265,527.4z"/>
	<path class="particle0" d="M1291.2,514.3c1.9,0,1.9-3,0-3C1289.2,511.3,1289.2,514.3,1291.2,514.3L1291.2,514.3z"/>
	<path class="particle1" d="M1338.2,443c5.8,0,5.8-9,0-9C1332.4,434,1332.4,443,1338.2,443L1338.2,443z"/>
	<path class="particle1" d="M1345.1,437.7c5.8,0,5.8-9,0-9C1339.3,428.7,1339.3,437.7,1345.1,437.7L1345.1,437.7z"/>
	<path class="particle1" d="M1354.1,434.3c5.8,0,5.8-9,0-9C1348.3,425.3,1348.3,434.3,1354.1,434.3L1354.1,434.3z"/>
	<path class="particle1" d="M1351.3,428.9c5.8,0,5.8-9,0-9C1345.5,419.9,1345.5,428.9,1351.3,428.9L1351.3,428.9z"/>
	<path class="particle1" d="M1342,423.3c5.8,0,5.8-9,0-9C1336.2,414.3,1336.2,423.3,1342,423.3L1342,423.3z"/>
	<path class="particle1" d="M1330.2,416.6c5.8,0,5.8-9,0-9C1324.4,407.6,1324.4,416.6,1330.2,416.6L1330.2,416.6z"/>
	<path class="particle1" d="M1319.7,410.2c5.8,0,5.8-9,0-9C1313.9,401.2,1313.9,410.2,1319.7,410.2L1319.7,410.2z"/>
	<path class="particle1" d="M1308.4,404.5c5.8,0,5.8-9,0-9C1302.6,395.5,1302.6,404.5,1308.4,404.5L1308.4,404.5z"/>
	<path class="particle1" d="M1299.1,399.1c5.8,0,5.8-9,0-9C1293.3,390.1,1293.3,399.1,1299.1,399.1L1299.1,399.1z"/>
	<path class="particle1" d="M1291.9,394.5c5.8,0,5.8-9,0-9C1286.2,385.5,1286.1,394.5,1291.9,394.5L1291.9,394.5z"/>
	<path class="particle1" d="M1291.9,469.8c5.8,0,5.8-9,0-9C1286.2,460.8,1286.1,469.8,1291.9,469.8L1291.9,469.8z"/>
	<path class="particle1" d="M1352.8,505.5c5.8,0,5.8-9,0-9C1347,496.5,1347,505.5,1352.8,505.5L1352.8,505.5z"/>
	<path class="particle1" d="M1358.2,498c5.8,0,5.8-9,0-9C1352.4,489,1352.4,498,1358.2,498L1358.2,498z"/>
	<path class="particle1" d="M1356.4,489c5.8,0,5.8-9,0-9C1350.6,480,1350.6,489,1356.4,489L1356.4,489z"/>
	<path class="particle1" d="M1356.9,480.8c5.8,0,5.8-9,0-9C1351.1,471.8,1351.1,480.8,1356.9,480.8L1356.9,480.8z"/>
	<path class="particle1" d="M1355.6,473.1c5.8,0,5.8-9,0-9C1349.9,464.1,1349.8,473.1,1355.6,473.1L1355.6,473.1z"/>
	<path class="particle1" d="M1357.4,464.9c5.8,0,5.8-9,0-9C1351.6,455.9,1351.6,464.9,1357.4,464.9L1357.4,464.9z"/>
	<path class="particle1" d="M1356.9,457.9c5.8,0,5.8-9,0-9C1351.1,448.9,1351.1,457.9,1356.9,457.9L1356.9,457.9z"/>
	<path class="particle1" d="M1357.7,452c5.8,0,5.8-9,0-9C1351.9,443,1351.9,452,1357.7,452L1357.7,452z"/>
	<path class="particle1" d="M1356.7,443c5.8,0,5.8-9,0-9C1350.9,434,1350.9,443,1356.7,443L1356.7,443z"/>
	<path class="particle1" d="M1299.6,542.2c5.8,0,5.8-9,0-9C1293.9,533.2,1293.8,542.2,1299.6,542.2L1299.6,542.2z"/>
	<path class="particle1" d="M1308.6,536.3c5.8,0,5.8-9,0-9C1302.8,527.3,1302.8,536.3,1308.6,536.3L1308.6,536.3z"/>
	<path class="particle1" d="M1318.7,529.9c5.8,0,5.8-9,0-9C1312.9,520.9,1312.9,529.9,1318.7,529.9L1318.7,529.9z"/>
	<path class="particle1" d="M1325.3,525.5c5.8,0,5.8-9,0-9C1319.5,516.5,1319.5,525.5,1325.3,525.5L1325.3,525.5z"/>
	<path class="particle1" d="M1334.3,521.1c5.8,0,5.8-9,0-9C1328.5,512.1,1328.5,521.1,1334.3,521.1L1334.3,521.1z"/>
	<path class="particle1" d="M1344.1,515c5.8,0,5.8-9,0-9C1338.3,506,1338.3,515,1344.1,515L1344.1,515z"/>
	<path class="particle1" d="M1292.7,544.5c5.8,0,5.8-9,0-9C1286.9,535.5,1286.9,544.5,1292.7,544.5L1292.7,544.5z"/>
	<path class="particle1" d="M1291.7,536.8c5.8,0,5.8-9,0-9C1285.9,527.8,1285.9,536.8,1291.7,536.8L1291.7,536.8z"/>
	<path class="particle1" d="M1291.7,525.2c5.8,0,5.8-9,0-9C1285.9,516.2,1285.9,525.2,1291.7,525.2L1291.7,525.2z"/>
	<path class="particle1" d="M1292.2,517c5.8,0,5.8-9,0-9C1286.4,508,1286.4,517,1292.2,517L1292.2,517z"/>
	<path class="particle1" d="M1291.2,503.9c5.8,0,5.8-9,0-9C1285.4,494.9,1285.4,503.9,1291.2,503.9L1291.2,503.9z"/>
	<path class="particle1" d="M1290.7,496.5c5.8,0,5.8-9,0-9C1284.9,487.5,1284.9,496.5,1290.7,496.5L1290.7,496.5z"/>
	<path class="particle1" d="M1289.4,483.6c5.8,0,5.8-9,0-9C1283.6,474.6,1283.6,483.6,1289.4,483.6L1289.4,483.6z"/>
	<path class="particle1" d="M1290.7,471.6c5.8,0,5.8-9,0-9C1284.9,462.6,1284.9,471.6,1290.7,471.6L1290.7,471.6z"/>
	<path class="particle1" d="M1284.8,474.1c5.8,0,5.8-9,0-9C1279,465.1,1279,474.1,1284.8,474.1L1284.8,474.1z"/>
	<path class="particle1" d="M1229.8,505.7c5.8,0,5.8-9,0-9C1224,496.7,1224,505.7,1229.8,505.7L1229.8,505.7z"/>
	<path class="particle1" d="M1231.5,509.2c0.1,0.2,0.2,0.3,0.3,0.5c0.5,1,1.7,1.8,2.7,2.1c1.1,0.3,2.5,0.2,3.5-0.5c1-0.6,1.8-1.5,2.1-2.7
		c0.3-1.2,0.1-2.3-0.5-3.5c-0.1-0.2-0.2-0.3-0.3-0.5c-0.5-1-1.7-1.8-2.7-2.1c-1.1-0.3-2.5-0.2-3.5,0.5c-1,0.6-1.8,1.5-2.1,2.7
		C1230.8,506.9,1231,508,1231.5,509.2L1231.5,509.2z"/>
	<path class="particle1" d="M1239.8,516.5c5.8,0,5.8-9,0-9C1234,507.5,1234,516.5,1239.8,516.5L1239.8,516.5z"/>
	<path class="particle1" d="M1246.7,520.1c5.8,0,5.8-9,0-9C1240.9,511.1,1240.9,520.1,1246.7,520.1L1246.7,520.1z"/>
	<path class="particle1" d="M1260.6,528.3c5.8,0,5.8-9,0-9C1254.8,519.3,1254.8,528.3,1260.6,528.3L1260.6,528.3z"/>
	<path class="particle1" d="M1258.3,526.1c0.7,2.5,2.7,4.6,5.2,5.2c1.2,0.3,2.4,0.2,3.5-0.5c0.9-0.5,1.8-1.6,2.1-2.7
		c0.3-1.2,0.2-2.4-0.5-3.5c-0.6-1-1.5-1.8-2.7-2.1c-0.2,0-0.4-0.1-0.5-0.2c0.4,0.2,0.7,0.3,1.1,0.5c-0.2-0.1-0.4-0.2-0.6-0.4
		c0.3,0.2,0.6,0.5,0.9,0.7c-0.2-0.2-0.3-0.3-0.5-0.5c0.2,0.3,0.5,0.6,0.7,0.9c-0.1-0.2-0.3-0.4-0.4-0.6c0.2,0.4,0.3,0.7,0.5,1.1
		c-0.1-0.1-0.1-0.3-0.1-0.4c-0.3-1.1-1.1-2.1-2.1-2.7c-1-0.6-2.4-0.8-3.5-0.5C1259.1,521.3,1257.6,523.6,1258.3,526.1L1258.3,526.1z
		"/>
	<path class="particle1" d="M1278.1,538.6c5.8,0,5.8-9,0-9C1272.3,529.6,1272.3,538.6,1278.1,538.6L1278.1,538.6z"/>
	<path class="particle1" d="M1280.6,542.2c5.8,0,5.8-9,0-9C1274.9,533.2,1274.8,542.2,1280.6,542.2L1280.6,542.2z"/>
	<path class="particle1" d="M1272.9,534.5c5.8,0,5.8-9,0-9C1267.1,525.5,1267.1,534.5,1272.9,534.5L1272.9,534.5z"/>
	<path class="particle1" d="M1229.6,500.7c0.1-0.2,0.2-0.3,0.3-0.5c0.5-1.1,0.8-2.3,0.5-3.5c-0.3-1-1.1-2.2-2.1-2.7
		c-1-0.6-2.3-0.8-3.5-0.5c-1.1,0.3-2.2,1-2.7,2.1c-0.1,0.2-0.2,0.3-0.3,0.5c-0.5,1.1-0.8,2.3-0.5,3.5c0.3,1,1.1,2.2,2.1,2.7
		c1,0.6,2.3,0.8,3.5,0.5C1227.9,502.4,1229,501.7,1229.6,500.7L1229.6,500.7z"/>
	<path class="particle1" d="M1227.2,486.5c5.8,0,5.8-9,0-9C1221.4,477.5,1221.4,486.5,1227.2,486.5L1227.2,486.5z"/>
	<path class="particle1" d="M1223.9,475.9c5.8,0,5.8-9,0-9C1218.1,466.9,1218.1,475.9,1223.9,475.9L1223.9,475.9z"/>
	<path class="particle1" d="M1225.4,462.6c5.8,0,5.8-9,0-9C1219.6,453.6,1219.6,462.6,1225.4,462.6L1225.4,462.6z"/>
	<path class="particle1" d="M1226.2,452.5c5.8,0,5.8-9,0-9C1220.4,443.5,1220.4,452.5,1226.2,452.5L1226.2,452.5z"/>
	<path class="particle1" d="M1225.7,441c5.8,0,5.8-9,0-9C1219.9,432,1219.9,441,1225.7,441L1225.7,441z"/>
	<path class="particle1" d="M1223.6,431c5.8,0,5.8-9,0-9C1217.8,422,1217.8,431,1223.6,431L1223.6,431z"/>
	<path class="particle1" d="M1235.1,426.8c0.2-0.1,0.3-0.2,0.5-0.3c1-0.5,1.8-1.7,2.1-2.7c0.3-1.1,0.2-2.5-0.5-3.5c-0.6-1-1.5-1.8-2.7-2.1
		c-1.2-0.3-2.3-0.1-3.5,0.5c-0.2,0.1-0.3,0.2-0.5,0.3c-1,0.5-1.8,1.7-2.1,2.7c-0.3,1.1-0.2,2.5,0.5,3.5c0.6,1,1.5,1.8,2.7,2.1
		C1232.9,427.5,1234,427.3,1235.1,426.8L1235.1,426.8z"/>
	<path class="particle1" d="M1255,414c5.8,0,5.8-9,0-9C1249.2,405,1249.2,414,1255,414L1255,414z"/>
	<path class="particle1" d="M1272.9,405.5c5.8,0,5.8-9,0-9C1267.1,396.5,1267.1,405.5,1272.9,405.5L1272.9,405.5z"/>
	<path class="particle1" d="M1280.4,401.4c5.8,0,5.8-9,0-9C1274.6,392.4,1274.6,401.4,1280.4,401.4L1280.4,401.4z"/>
	<path class="particle1" d="M1252.6,412c5.8,0,5.8-9,0-9C1246.9,403,1246.8,412,1252.6,412L1252.6,412z"/>
	<path class="particle1" d="M1263.4,410.2c5.8,0,5.8-9,0-9C1257.6,401.2,1257.6,410.2,1263.4,410.2L1263.4,410.2z"/>
	<path class="particle1" d="M1286.8,396.6c5.8,0,5.8-9,0-9C1281,387.6,1281,396.6,1286.8,396.6L1286.8,396.6z"/>
	<path class="particle1" d="M1281.7,464.4c5.8,0,5.8-9,0-9C1275.9,455.4,1275.9,464.4,1281.7,464.4L1281.7,464.4z"/>
	<path class="particle1" d="M1256.2,450c5.8,0,5.8-9,0-9C1250.5,441,1250.4,450,1256.2,450L1256.2,450z"/>
	<path class="particle1" d="M1235.4,437.4c5.8,0,5.8-9,0-9C1229.6,428.4,1229.6,437.4,1235.4,437.4L1235.4,437.4z"/>
	<path class="particle1" d="M1275.5,458.2c5.8,0,5.8-9,0-9C1269.7,449.2,1269.7,458.2,1275.5,458.2L1275.5,458.2z"/>
	<path class="particle1" d="M1255.2,448.4c5.8,0,5.8-9,0-9C1249.4,439.4,1249.4,448.4,1255.2,448.4L1255.2,448.4z"/>
	<path class="particle1" d="M1249.6,443.6c0.2,0,0.3,0,0.5,0c1.2,0,2.4-0.5,3.2-1.3c0.8-0.8,1.4-2.1,1.3-3.2c-0.1-1.2-0.4-2.4-1.3-3.2
		c-0.9-0.8-2-1.3-3.2-1.3c-0.2,0-0.3,0-0.5,0c-1.2,0-2.4,0.5-3.2,1.3c-0.8,0.8-1.4,2.1-1.3,3.2c0.1,1.2,0.4,2.4,1.3,3.2
		C1247.3,443,1248.3,443.6,1249.6,443.6L1249.6,443.6z"/>
	<path class="particle1" d="M1262.4,452c5.8,0,5.8-9,0-9C1256.6,443,1256.6,452,1262.4,452L1262.4,452z"/>
	<path class="particle1" d="M1239.8,439.4c0.2,0,0.3,0,0.5,0c1.2,0,2.4-0.5,3.2-1.3c0.8-0.8,1.4-2.1,1.3-3.2c-0.1-1.2-0.4-2.4-1.3-3.2
		c-0.9-0.8-2-1.3-3.2-1.3c-0.2,0-0.3,0-0.5,0c-1.2,0-2.4,0.5-3.2,1.3c-0.8,0.8-1.4,2.1-1.3,3.2c0.1,1.2,0.4,2.4,1.3,3.2
		C1237.5,438.9,1238.6,439.4,1239.8,439.4L1239.8,439.4z"/>
	<path class="particle1" d="M1241.9,442.5c5.8,0,5.8-9,0-9C1236.1,433.5,1236.1,442.5,1241.9,442.5L1241.9,442.5z"/>
	<path class="particle2" d="M1291.2,472.5c9.7,0,9.7-15,0-15C1281.5,457.5,1281.5,472.5,1291.2,472.5L1291.2,472.5z"/>
	<path class="particle2" d="M1307.1,462.8c7.7,0,7.7-12,0-12C1299.4,450.8,1299.4,462.8,1307.1,462.8L1307.1,462.8z"/>
	<path class="particle2" d="M1323.5,453.3c7.7,0,7.7-12,0-12C1315.8,441.3,1315.8,453.3,1323.5,453.3L1323.5,453.3z"/>
	<path class="particle2" d="M1317.1,531.4c7.7,0,7.7-12,0-12C1309.4,519.4,1309.4,531.4,1317.1,531.4L1317.1,531.4z"/>
	<path class="particle2" d="M1291.7,546c7.7,0,7.7-12,0-12C1284,534,1284,546,1291.7,546L1291.7,546z"/>
	<path class="particle2" d="M1292.5,519.5c7.7,0,7.7-12,0-12C1284.7,507.5,1284.7,519.5,1292.5,519.5L1292.5,519.5z"/>
	<path class="particle2" d="M1291.2,500.5c7.7,0,7.7-12,0-12C1283.5,488.5,1283.4,500.5,1291.2,500.5L1291.2,500.5z"/>
	<path class="particle2" d="M1290.9,483.8c7.7,0,7.7-12,0-12C1283.2,471.8,1283.2,483.8,1290.9,483.8L1290.9,483.8z"/>
	<path class="particle2" d="M1291.7,396.3c7.7,0,7.7-12,0-12C1284,384.3,1284,396.3,1291.7,396.3L1291.7,396.3z"/>
	<path class="particle2" d="M1278.3,402.7c7.7,0,7.7-12,0-12C1270.6,390.7,1270.6,402.7,1278.3,402.7L1278.3,402.7z"/>
	<path class="particle2" d="M1267.8,410.1c7.7,0,7.7-12,0-12C1260.1,398.1,1260.1,410.1,1267.8,410.1L1267.8,410.1z"/>
	<path class="particle2" d="M1251.9,417.6c7.7,0,7.7-12,0-12C1244.2,405.6,1244.1,417.6,1251.9,417.6L1251.9,417.6z"/>
	<path class="particle2" d="M1240.6,426.3c7.7,0,7.7-12,0-12C1232.9,414.3,1232.8,426.3,1240.6,426.3L1240.6,426.3z"/>
	<path class="particle2" d="M1228.2,434c7.7,0,7.7-12,0-12C1220.5,422,1220.5,434,1228.2,434L1228.2,434z"/>
	<path class="particle2" d="M1247.8,446.3c7.7,0,7.7-12,0-12C1240,434.3,1240,446.3,1247.8,446.3L1247.8,446.3z"/>
	<path class="particle2" d="M1356.9,483.1c7.7,0,7.7-12,0-12C1349.2,471.1,1349.2,483.1,1356.9,483.1L1356.9,483.1z"/>
	<path class="particle2" d="M1357.4,458.7c7.7,0,7.7-12,0-12C1349.7,446.7,1349.7,458.7,1357.4,458.7L1357.4,458.7z"/>
	<path class="particle2" d="M1355.6,437.4c7.7,0,7.7-12,0-12C1347.9,425.4,1347.9,437.4,1355.6,437.4L1355.6,437.4z"/>
	<path class="particle2" d="M1250.1,524.7c7.7,0,7.7-12,0-12C1242.4,512.7,1242.3,524.7,1250.1,524.7L1250.1,524.7z"/>
	<path class="particle2" d="M1231.6,513.6c7.7,0,7.7-12,0-12C1223.9,501.6,1223.9,513.6,1231.6,513.6L1231.6,513.6z"/>
	<path class="particle2" d="M1225.2,490.8c7.7,0,7.7-12,0-12C1217.4,478.8,1217.4,490.8,1225.2,490.8L1225.2,490.8z"/>
	<path class="particle2" d="M1224.6,446.6c7.7,0,7.7-12,0-12C1216.9,434.6,1216.9,446.6,1224.6,446.6L1224.6,446.6z"/>
	<path class="particle2" d="M1341.8,519c7.7,0,7.7-12,0-12C1334.1,507,1334,519,1341.8,519L1341.8,519z"/>
	<path class="particle2" d="M1345.1,440.2c7.7,0,7.7-12,0-12C1337.4,428.2,1337.4,440.2,1345.1,440.2L1345.1,440.2z"/>
	<path class="particle2" d="M1335.6,420.7c7.7,0,7.7-12,0-12C1327.9,408.7,1327.9,420.7,1335.6,420.7L1335.6,420.7z"/>
	<path class="particle2" d="M1320.5,412.4c7.7,0,7.7-12,0-12C1312.7,400.4,1312.7,412.4,1320.5,412.4L1320.5,412.4z"/>
	<path class="particle2" d="M1306.8,404.5c7.7,0,7.7-12,0-12C1299.1,392.5,1299.1,404.5,1306.8,404.5L1306.8,404.5z"/>
	<path class="particle2" d="M1267.3,457.1c7.7,0,7.7-12,0-12C1259.6,445.1,1259.6,457.1,1267.3,457.1L1267.3,457.1z"/>
	<path class="particle2" d="M1276.3,462.5c7.7,0,7.7-12,0-12C1268.6,450.5,1268.5,462.5,1276.3,462.5L1276.3,462.5z"/>
	<path class="particle2" d="M1356.9,493.9c7.7,0,7.7-12,0-12C1349.2,481.9,1349.2,493.9,1356.9,493.9L1356.9,493.9z"/>
	<path class="particle2" d="M1356.2,507.7c7.7,0,7.7-12,0-12C1348.4,495.7,1348.4,507.7,1356.2,507.7L1356.2,507.7z"/>
	<path class="particle2" d="M1306.8,459.8c3.9,0,3.9-6,0-6C1303,453.8,1303,459.8,1306.8,459.8L1306.8,459.8z"/>
	<path class="particle2" d="M1326.6,449.8c3.9,0,3.9-6,0-6C1322.8,443.8,1322.8,449.8,1326.6,449.8L1326.6,449.8z"/>
	<path class="particle2" d="M1293.9,472c11.6,0,11.6-18,0-18C1282.4,454,1282.3,472,1293.9,472L1293.9,472z"/>
	<path class="particle2" d="M1301.1,470.6c11.6,0,11.6-18,0-18C1289.6,452.6,1289.5,470.6,1301.1,470.6L1301.1,470.6z"/>
	<path class="particle2" d="M1317.6,460.7c11.6,0,11.6-18,0-18C1306,442.7,1306,460.7,1317.6,460.7L1317.6,460.7z"/>
	<path class="particle2" d="M1333.3,450.1c11.6,0,11.6-18,0-18C1321.7,432.1,1321.7,450.1,1333.3,450.1L1333.3,450.1z"/>
	<path class="particle2" d="M1290.5,403.5c11.6,0,11.6-18,0-18C1278.9,385.5,1278.9,403.5,1290.5,403.5L1290.5,403.5z"/>
	<path class="particle2" d="M1226.5,437.4c11.6,0,11.6-18,0-18C1214.9,419.4,1214.9,437.4,1226.5,437.4L1226.5,437.4z"/>
	<path class="particle2" d="M1235.4,432.3c11.6,0,11.6-18,0-18C1223.8,414.3,1223.8,432.3,1235.4,432.3L1235.4,432.3z"/>
	<path class="particle2" d="M1247,425.1c11.6,0,11.6-18,0-18C1235.4,407.1,1235.4,425.1,1247,425.1L1247,425.1z"/>
	<path class="particle2" d="M1286.8,472.7c11.6,0,11.6-18,0-18C1275.2,454.7,1275.2,472.7,1286.8,472.7L1286.8,472.7z"/>
	<path class="particle2" d="M1289.8,480.6c11.6,0,11.6-18,0-18C1278.3,462.6,1278.2,480.6,1289.8,480.6L1289.8,480.6z"/>
	<path class="particle2" d="M1290.5,515.1c11.6,0,11.6-18,0-18C1278.9,497.1,1278.9,515.1,1290.5,515.1L1290.5,515.1z"/>
	<path class="particle2" d="M1292.6,547.3c11.6,0,11.6-18,0-18C1281,529.3,1281,547.3,1292.6,547.3L1292.6,547.3z"/>
	<path class="particle2" d="M1284,546.7c11.6,0,11.6-18,0-18C1272.4,528.7,1272.4,546.7,1284,546.7L1284,546.7z"/>
	<path class="particle2" d="M1298.4,545.6c11.6,0,11.6-18,0-18C1286.8,527.6,1286.8,545.6,1298.4,545.6L1298.4,545.6z"/>
	<path class="particle2" d="M1349.8,514.8c11.6,0,11.6-18,0-18C1338.2,496.8,1338.2,514.8,1349.8,514.8L1349.8,514.8z"/>
	<path class="particle2" d="M1356.3,509.7c11.6,0,11.6-18,0-18C1344.7,491.7,1344.7,509.7,1356.3,509.7L1356.3,509.7z"/>
	<path class="particle2" d="M1355.9,480.9c11.6,0,11.6-18,0-18C1344.4,462.9,1344.3,480.9,1355.9,480.9L1355.9,480.9z"/>
	<path class="particle2" d="M1355.6,441.2c11.6,0,11.6-18,0-18C1344,423.2,1344,441.2,1355.6,441.2L1355.6,441.2z"/>
	<path class="particle2" d="M1316.9,414.1c11.6,0,11.6-18,0-18C1305.3,396.1,1305.3,414.1,1316.9,414.1L1316.9,414.1z"/>
	<path class="particle2" d="M1224.4,501.8c11.6,0,11.6-18,0-18C1212.8,483.8,1212.8,501.8,1224.4,501.8L1224.4,501.8z"/>
	<path class="particle2" d="M1226.5,475.8c11.6,0,11.6-18,0-18C1214.9,457.8,1214.9,475.8,1226.5,475.8L1226.5,475.8z"/>
	<path class="particle2" d="M1241.5,522.7c11.6,0,11.6-18,0-18C1230,504.7,1229.9,522.7,1241.5,522.7L1241.5,522.7z"/>
	<path class="particle2" d="M1263.5,536c11.6,0,11.6-18,0-18C1251.9,518,1251.9,536,1263.5,536L1263.5,536z"/>
	<path class="particle2" d="M1325.1,531.6c11.6,0,11.6-18,0-18C1313.5,513.6,1313.5,531.6,1325.1,531.6L1325.1,531.6z"/>
	<path class="particle2" d="M1313.5,540.1c11.6,0,11.6-18,0-18C1301.9,522.1,1301.9,540.1,1313.5,540.1L1313.5,540.1z"/>
	<path class="particle2" d="M1291.2,492.5c11.6,0,11.6-18,0-18C1279.6,474.5,1279.6,492.5,1291.2,492.5L1291.2,492.5z"/>
</g>
<g id="cubo4">
	<path class="particle0" d="M1290.7,616.2c1.9,0,1.9-3,0-3C1288.7,613.2,1288.7,616.2,1290.7,616.2L1290.7,616.2z"/>
	<path class="particle0" d="M1295,614.4c1.9,0,1.9-3,0-3C1293.1,611.4,1293.1,614.4,1295,614.4L1295,614.4z"/>
	<path class="particle0" d="M1354.9,579.5c1.9,0,1.9-3,0-3C1352.9,576.5,1352.9,579.5,1354.9,579.5L1354.9,579.5z"/>
	<path class="particle0" d="M1356.4,504.3c1.9,0,1.9-3,0-3C1354.5,501.3,1354.5,504.3,1356.4,504.3L1356.4,504.3z"/>
	<path class="particle0" d="M1292.5,466.5c1.9,0,1.9-3,0-3C1290.5,463.5,1290.5,466.5,1292.5,466.5L1292.5,466.5z"/>
	<path class="particle0" d="M1226.4,503.5c1.9,0,1.9-3,0-3C1224.5,500.5,1224.5,503.5,1226.4,503.5L1226.4,503.5z"/>
	<path class="particle0" d="M1292.5,540.5c1.9,0,1.9-3,0-3C1290.5,537.5,1290.5,540.5,1292.5,540.5L1292.5,540.5z"/>
	<path class="particle0" d="M1299.4,471.1c1.9,0,1.9-3,0-3C1297.5,468.1,1297.5,471.1,1299.4,471.1L1299.4,471.1z"/>
	<path class="particle0" d="M1332.3,517.6c1.9,0,1.9-3,0-3C1330.3,514.6,1330.3,517.6,1332.3,517.6L1332.3,517.6z"/>
	<path class="particle0" d="M1313.5,529.2c1.9,0,1.9-3,0-3C1311.6,526.2,1311.6,529.2,1313.5,529.2L1313.5,529.2z"/>
	<path class="particle0" d="M1303.2,535.3c1.9,0,1.9-3,0-3C1301.3,532.3,1301.3,535.3,1303.2,535.3L1303.2,535.3z"/>
	<path class="particle0" d="M1234.9,497.6c1.9,0,1.9-3,0-3C1233,494.6,1233,497.6,1234.9,497.6L1234.9,497.6z"/>
	<path class="particle0" d="M1224.9,516.1c1.9,0,1.9-3,0-3C1223,513.1,1223,516.1,1224.9,516.1L1224.9,516.1z"/>
	<path class="particle0" d="M1233.4,507.6c1.9,0,1.9-3,0-3C1231.5,504.6,1231.4,507.6,1233.4,507.6L1233.4,507.6z"/>
	<path class="particle0" d="M1248.5,515.8c1.9,0,1.9-3,0-3C1246.6,512.8,1246.6,515.8,1248.5,515.8L1248.5,515.8z"/>
	<path class="particle0" d="M1240.6,512.5c1.9,0,1.9-3,0-3C1238.6,509.5,1238.6,512.5,1240.6,512.5L1240.6,512.5z"/>
	<path class="particle0" d="M1263.7,524.5c1.9,0,1.9-3,0-3C1261.8,521.5,1261.8,524.5,1263.7,524.5L1263.7,524.5z"/>
	<path class="particle0" d="M1280.6,536.4c1.9,0,1.9-3,0-3C1278.7,533.4,1278.7,536.4,1280.6,536.4L1280.6,536.4z"/>
	<path class="particle0" d="M1270.9,529.9c1.9,0,1.9-3,0-3C1269,526.9,1268.9,529.9,1270.9,529.9L1270.9,529.9z"/>
	<path class="particle0" d="M1255.2,521.2c1.9,0,1.9-3,0-3C1253.3,518.2,1253.3,521.2,1255.2,521.2L1255.2,521.2z"/>
	<path class="particle0" d="M1225.4,523.8c1.9,0,1.9-3,0-3C1223.5,520.8,1223.5,523.8,1225.4,523.8L1225.4,523.8z"/>
	<path class="particle0" d="M1226.4,544.6c1.9,0,1.9-3,0-3C1224.5,541.6,1224.5,544.6,1226.4,544.6L1226.4,544.6z"/>
	<path class="particle0" d="M1226.2,531.7c1.9,0,1.9-3,0-3C1224.3,528.7,1224.3,531.7,1226.2,531.7L1226.2,531.7z"/>
	<path class="particle0" d="M1224.9,553.8c1.9,0,1.9-3,0-3C1223,550.8,1223,553.8,1224.9,553.8L1224.9,553.8z"/>
	<path class="particle0" d="M1225.7,570.5c1.9,0,1.9-3,0-3C1223.7,567.5,1223.7,570.5,1225.7,570.5L1225.7,570.5z"/>
	<path class="particle0" d="M1226.4,578.5c1.9,0,1.9-3,0-3C1224.5,575.5,1224.5,578.5,1226.4,578.5L1226.4,578.5z"/>
	<path class="particle0" d="M1356.2,570.5c1.9,0,1.9-3,0-3C1354.2,567.5,1354.2,570.5,1356.2,570.5L1356.2,570.5z"/>
	<path class="particle0" d="M1290.9,555.9c1.9,0,1.9-3,0-3C1289,552.9,1289,555.9,1290.9,555.9L1290.9,555.9z"/>
	<path class="particle0" d="M1290.4,579.8c1.9,0,1.9-3,0-3C1288.5,576.8,1288.5,579.8,1290.4,579.8L1290.4,579.8z"/>
	<path class="particle0" d="M1292.5,601.9c1.9,0,1.9-3,0-3C1290.5,598.9,1290.5,601.9,1292.5,601.9L1292.5,601.9z"/>
	<path class="particle0" d="M1236.2,583.9c1.9,0,1.9-3,0-3C1234.3,580.9,1234.3,583.9,1236.2,583.9L1236.2,583.9z"/>
	<path class="particle0" d="M1248.3,591.1c1.9,0,1.9-3,0-3C1246.3,588.1,1246.3,591.1,1248.3,591.1L1248.3,591.1z"/>
	<path class="particle0" d="M1255.2,596.5c1.9,0,1.9-3,0-3C1253.3,593.5,1253.3,596.5,1255.2,596.5L1255.2,596.5z"/>
	<path class="particle0" d="M1272.7,606c1.9,0,1.9-3,0-3C1270.7,603,1270.7,606,1272.7,606L1272.7,606z"/>
	<path class="particle0" d="M1283.7,612.6c1.9,0,1.9-3,0-3C1281.8,609.6,1281.8,612.6,1283.7,612.6L1283.7,612.6z"/>
	<path class="particle0" d="M1265,602.4c1.9,0,1.9-3,0-3C1263,599.4,1263,602.4,1265,602.4L1265,602.4z"/>
	<path class="particle0" d="M1291.2,589.3c1.9,0,1.9-3,0-3C1289.2,586.3,1289.2,589.3,1291.2,589.3L1291.2,589.3z"/>
	<path class="particle1" d="M1338.2,518c5.8,0,5.8-9,0-9C1332.4,509,1332.4,518,1338.2,518L1338.2,518z"/>
	<path class="particle1" d="M1345.1,512.7c5.8,0,5.8-9,0-9C1339.3,503.7,1339.3,512.7,1345.1,512.7L1345.1,512.7z"/>
	<path class="particle1" d="M1354.1,509.3c5.8,0,5.8-9,0-9C1348.3,500.3,1348.3,509.3,1354.1,509.3L1354.1,509.3z"/>
	<path class="particle1" d="M1351.3,503.9c5.8,0,5.8-9,0-9C1345.5,494.9,1345.5,503.9,1351.3,503.9L1351.3,503.9z"/>
	<path class="particle1" d="M1299.1,474.1c5.8,0,5.8-9,0-9C1293.3,465.1,1293.3,474.1,1299.1,474.1L1299.1,474.1z"/>
	<path class="particle1" d="M1291.9,469.5c5.8,0,5.8-9,0-9C1286.2,460.5,1286.1,469.5,1291.9,469.5L1291.9,469.5z"/>
	<path class="particle1" d="M1291.9,544.8c5.8,0,5.8-9,0-9C1286.2,535.8,1286.1,544.8,1291.9,544.8L1291.9,544.8z"/>
	<path class="particle1" d="M1352.8,580.5c5.8,0,5.8-9,0-9C1347,571.5,1347,580.5,1352.8,580.5L1352.8,580.5z"/>
	<path class="particle1" d="M1358.2,573c5.8,0,5.8-9,0-9C1352.4,564,1352.4,573,1358.2,573L1358.2,573z"/>
	<path class="particle1" d="M1299.6,617.2c5.8,0,5.8-9,0-9C1293.9,608.2,1293.8,617.2,1299.6,617.2L1299.6,617.2z"/>
	<path class="particle1" d="M1292.7,619.5c5.8,0,5.8-9,0-9C1286.9,610.5,1286.9,619.5,1292.7,619.5L1292.7,619.5z"/>
	<path class="particle1" d="M1291.7,611.8c5.8,0,5.8-9,0-9C1285.9,602.8,1285.9,611.8,1291.7,611.8L1291.7,611.8z"/>
	<path class="particle1" d="M1291.7,600.2c5.8,0,5.8-9,0-9C1285.9,591.2,1285.9,600.2,1291.7,600.2L1291.7,600.2z"/>
	<path class="particle1" d="M1292.2,592c5.8,0,5.8-9,0-9C1286.4,583,1286.4,592,1292.2,592L1292.2,592z"/>
	<path class="particle1" d="M1291.2,578.9c5.8,0,5.8-9,0-9C1285.4,569.9,1285.4,578.9,1291.2,578.9L1291.2,578.9z"/>
	<path class="particle1" d="M1290.7,571.5c5.8,0,5.8-9,0-9C1284.9,562.5,1284.9,571.5,1290.7,571.5L1290.7,571.5z"/>
	<path class="particle1" d="M1289.4,558.6c5.8,0,5.8-9,0-9C1283.6,549.6,1283.6,558.6,1289.4,558.6L1289.4,558.6z"/>
	<path class="particle1" d="M1290.7,546.6c5.8,0,5.8-9,0-9C1284.9,537.6,1284.9,546.6,1290.7,546.6L1290.7,546.6z"/>
	<path class="particle1" d="M1229.8,580.7c5.8,0,5.8-9,0-9C1224,571.7,1224,580.7,1229.8,580.7L1229.8,580.7z"/>
	<path class="particle1" d="M1231.5,584.2c0.1,0.2,0.2,0.3,0.3,0.5c0.5,1,1.7,1.8,2.7,2.1c1.1,0.3,2.5,0.2,3.5-0.5c1-0.6,1.8-1.5,2.1-2.7
		c0.3-1.2,0.1-2.3-0.5-3.5c-0.1-0.2-0.2-0.3-0.3-0.5c-0.5-1-1.7-1.8-2.7-2.1c-1.1-0.3-2.5-0.2-3.5,0.5c-1,0.6-1.8,1.5-2.1,2.7
		C1230.8,581.9,1231,583,1231.5,584.2L1231.5,584.2z"/>
	<path class="particle1" d="M1239.8,591.5c5.8,0,5.8-9,0-9C1234,582.5,1234,591.5,1239.8,591.5L1239.8,591.5z"/>
	<path class="particle1" d="M1246.7,595.1c5.8,0,5.8-9,0-9C1240.9,586.1,1240.9,595.1,1246.7,595.1L1246.7,595.1z"/>
	<path class="particle1" d="M1260.6,603.3c5.8,0,5.8-9,0-9C1254.8,594.3,1254.8,603.3,1260.6,603.3L1260.6,603.3z"/>
	<path class="particle1" d="M1258.3,601.1c0.7,2.5,2.7,4.6,5.2,5.2c1.2,0.3,2.4,0.2,3.5-0.5c0.9-0.5,1.8-1.6,2.1-2.7
		c0.3-1.2,0.2-2.4-0.5-3.5c-0.6-1-1.5-1.8-2.7-2.1c-0.2,0-0.4-0.1-0.5-0.2c0.4,0.2,0.7,0.3,1.1,0.5c-0.2-0.1-0.4-0.2-0.6-0.4
		c0.3,0.2,0.6,0.5,0.9,0.7c-0.2-0.2-0.3-0.3-0.5-0.5c0.2,0.3,0.5,0.6,0.7,0.9c-0.1-0.2-0.3-0.4-0.4-0.6c0.2,0.4,0.3,0.7,0.5,1.1
		c-0.1-0.1-0.1-0.3-0.1-0.4c-0.3-1.1-1.1-2.1-2.1-2.7c-1-0.6-2.4-0.8-3.5-0.5C1259.1,596.3,1257.6,598.6,1258.3,601.1L1258.3,601.1z
		"/>
	<path class="particle1" d="M1278.1,613.6c5.8,0,5.8-9,0-9C1272.3,604.6,1272.3,613.6,1278.1,613.6L1278.1,613.6z"/>
	<path class="particle1" d="M1280.6,617.2c5.8,0,5.8-9,0-9C1274.9,608.2,1274.8,617.2,1280.6,617.2L1280.6,617.2z"/>
	<path class="particle1" d="M1272.9,609.5c5.8,0,5.8-9,0-9C1267.1,600.5,1267.1,609.5,1272.9,609.5L1272.9,609.5z"/>
	<path class="particle1" d="M1229.6,575.7c0.1-0.2,0.2-0.3,0.3-0.5c0.5-1.1,0.8-2.3,0.5-3.5c-0.3-1-1.1-2.2-2.1-2.7
		c-1-0.6-2.3-0.8-3.5-0.5c-1.1,0.3-2.2,1-2.7,2.1c-0.1,0.2-0.2,0.3-0.3,0.5c-0.5,1.1-0.8,2.3-0.5,3.5c0.3,1,1.1,2.2,2.1,2.7
		c1,0.6,2.3,0.8,3.5,0.5C1227.9,577.4,1229,576.7,1229.6,575.7L1229.6,575.7z"/>
	<path class="particle1" d="M1227.2,561.5c5.8,0,5.8-9,0-9C1221.4,552.5,1221.4,561.5,1227.2,561.5L1227.2,561.5z"/>
	<path class="particle1" d="M1223.9,550.9c5.8,0,5.8-9,0-9C1218.1,541.9,1218.1,550.9,1223.9,550.9L1223.9,550.9z"/>
	<path class="particle1" d="M1225.4,537.6c5.8,0,5.8-9,0-9C1219.6,528.6,1219.6,537.6,1225.4,537.6L1225.4,537.6z"/>
	<path class="particle1" d="M1226.2,527.5c5.8,0,5.8-9,0-9C1220.4,518.5,1220.4,527.5,1226.2,527.5L1226.2,527.5z"/>
	<path class="particle1" d="M1225.7,516c5.8,0,5.8-9,0-9C1219.9,507,1219.9,516,1225.7,516L1225.7,516z"/>
	<path class="particle1" d="M1223.6,506c5.8,0,5.8-9,0-9C1217.8,497,1217.8,506,1223.6,506L1223.6,506z"/>
	<path class="particle1" d="M1235.1,501.8c0.2-0.1,0.3-0.2,0.5-0.3c1-0.5,1.8-1.7,2.1-2.7c0.3-1.1,0.2-2.5-0.5-3.5c-0.6-1-1.5-1.8-2.7-2.1
		c-1.2-0.3-2.3-0.1-3.5,0.5c-0.2,0.1-0.3,0.2-0.5,0.3c-1,0.5-1.8,1.7-2.1,2.7c-0.3,1.1-0.2,2.5,0.5,3.5c0.6,1,1.5,1.8,2.7,2.1
		C1232.9,502.5,1234,502.3,1235.1,501.8L1235.1,501.8z"/>
	<path class="particle1" d="M1286.8,471.6c5.8,0,5.8-9,0-9C1281,462.6,1281,471.6,1286.8,471.6L1286.8,471.6z"/>
	<path class="particle1" d="M1281.7,539.4c5.8,0,5.8-9,0-9C1275.9,530.4,1275.9,539.4,1281.7,539.4L1281.7,539.4z"/>
	<path class="particle1" d="M1256.2,525c5.8,0,5.8-9,0-9C1250.5,516,1250.4,525,1256.2,525L1256.2,525z"/>
	<path class="particle1" d="M1235.4,512.4c5.8,0,5.8-9,0-9C1229.6,503.4,1229.6,512.4,1235.4,512.4L1235.4,512.4z"/>
	<path class="particle1" d="M1275.5,533.2c5.8,0,5.8-9,0-9C1269.7,524.2,1269.7,533.2,1275.5,533.2L1275.5,533.2z"/>
	<path class="particle1" d="M1255.2,523.4c5.8,0,5.8-9,0-9C1249.4,514.4,1249.4,523.4,1255.2,523.4L1255.2,523.4z"/>
	<path class="particle1" d="M1249.6,518.6c0.2,0,0.3,0,0.5,0c1.2,0,2.4-0.5,3.2-1.3c0.8-0.8,1.4-2.1,1.3-3.2c-0.1-1.2-0.4-2.4-1.3-3.2
		c-0.9-0.8-2-1.3-3.2-1.3c-0.2,0-0.3,0-0.5,0c-1.2,0-2.4,0.5-3.2,1.3c-0.8,0.8-1.4,2.1-1.3,3.2c0.1,1.2,0.4,2.4,1.3,3.2
		C1247.3,518,1248.3,518.6,1249.6,518.6L1249.6,518.6z"/>
	<path class="particle1" d="M1262.4,527c5.8,0,5.8-9,0-9C1256.6,518,1256.6,527,1262.4,527L1262.4,527z"/>
	<path class="particle1" d="M1239.8,514.4c0.2,0,0.3,0,0.5,0c1.2,0,2.4-0.5,3.2-1.3c0.8-0.8,1.4-2.1,1.3-3.2c-0.1-1.2-0.4-2.4-1.3-3.2
		c-0.9-0.8-2-1.3-3.2-1.3c-0.2,0-0.3,0-0.5,0c-1.2,0-2.4,0.5-3.2,1.3c-0.8,0.8-1.4,2.1-1.3,3.2c0.1,1.2,0.4,2.4,1.3,3.2
		C1237.5,513.9,1238.6,514.4,1239.8,514.4L1239.8,514.4z"/>
	<path class="particle1" d="M1241.9,517.5c5.8,0,5.8-9,0-9C1236.1,508.5,1236.1,517.5,1241.9,517.5L1241.9,517.5z"/>
	<path class="particle2" d="M1291.2,547.5c9.7,0,9.7-15,0-15C1281.5,532.5,1281.5,547.5,1291.2,547.5L1291.2,547.5z"/>
	<path class="particle2" d="M1307.1,537.8c7.7,0,7.7-12,0-12C1299.4,525.8,1299.4,537.8,1307.1,537.8L1307.1,537.8z"/>
	<path class="particle2" d="M1323.5,528.3c7.7,0,7.7-12,0-12C1315.8,516.3,1315.8,528.3,1323.5,528.3L1323.5,528.3z"/>
	<path class="particle2" d="M1291.7,621c7.7,0,7.7-12,0-12C1284,609,1284,621,1291.7,621L1291.7,621z"/>
	<path class="particle2" d="M1292.5,594.5c7.7,0,7.7-12,0-12C1284.7,582.5,1284.7,594.5,1292.5,594.5L1292.5,594.5z"/>
	<path class="particle2" d="M1291.2,575.5c7.7,0,7.7-12,0-12C1283.5,563.5,1283.4,575.5,1291.2,575.5L1291.2,575.5z"/>
	<path class="particle2" d="M1290.9,558.8c7.7,0,7.7-12,0-12C1283.2,546.8,1283.2,558.8,1290.9,558.8L1290.9,558.8z"/>
	<path class="particle2" d="M1291.7,471.3c7.7,0,7.7-12,0-12C1284,459.3,1284,471.3,1291.7,471.3L1291.7,471.3z"/>
	<path class="particle2" d="M1228.2,509c7.7,0,7.7-12,0-12C1220.5,497,1220.5,509,1228.2,509L1228.2,509z"/>
	<path class="particle2" d="M1247.8,521.3c7.7,0,7.7-12,0-12C1240,509.3,1240,521.3,1247.8,521.3L1247.8,521.3z"/>
	<path class="particle2" d="M1355.6,512.4c7.7,0,7.7-12,0-12C1347.9,500.4,1347.9,512.4,1355.6,512.4L1355.6,512.4z"/>
	<path class="particle2" d="M1250.1,599.7c7.7,0,7.7-12,0-12C1242.4,587.7,1242.3,599.7,1250.1,599.7L1250.1,599.7z"/>
	<path class="particle2" d="M1231.6,588.6c7.7,0,7.7-12,0-12C1223.9,576.6,1223.9,588.6,1231.6,588.6L1231.6,588.6z"/>
	<path class="particle2" d="M1225.2,565.8c7.7,0,7.7-12,0-12C1217.4,553.8,1217.4,565.8,1225.2,565.8L1225.2,565.8z"/>
	<path class="particle2" d="M1224.6,521.6c7.7,0,7.7-12,0-12C1216.9,509.6,1216.9,521.6,1224.6,521.6L1224.6,521.6z"/>
	<path class="particle2" d="M1345.1,515.2c7.7,0,7.7-12,0-12C1337.4,503.2,1337.4,515.2,1345.1,515.2L1345.1,515.2z"/>
	<path class="particle2" d="M1267.3,532.1c7.7,0,7.7-12,0-12C1259.6,520.1,1259.6,532.1,1267.3,532.1L1267.3,532.1z"/>
	<path class="particle2" d="M1276.3,537.5c7.7,0,7.7-12,0-12C1268.6,525.5,1268.5,537.5,1276.3,537.5L1276.3,537.5z"/>
	<path class="particle2" d="M1356.2,582.7c7.7,0,7.7-12,0-12C1348.4,570.7,1348.4,582.7,1356.2,582.7L1356.2,582.7z"/>
	<path class="particle2" d="M1306.8,534.8c3.9,0,3.9-6,0-6C1303,528.8,1303,534.8,1306.8,534.8L1306.8,534.8z"/>
	<path class="particle2" d="M1326.6,524.8c3.9,0,3.9-6,0-6C1322.8,518.8,1322.8,524.8,1326.6,524.8L1326.6,524.8z"/>
	<path class="particle2" d="M1293.9,547c11.6,0,11.6-18,0-18C1282.4,529,1282.3,547,1293.9,547L1293.9,547z"/>
	<path class="particle2" d="M1301.1,545.6c11.6,0,11.6-18,0-18C1289.6,527.6,1289.5,545.6,1301.1,545.6L1301.1,545.6z"/>
	<path class="particle2" d="M1317.6,535.7c11.6,0,11.6-18,0-18C1306,517.7,1306,535.7,1317.6,535.7L1317.6,535.7z"/>
	<path class="particle2" d="M1333.3,525.1c11.6,0,11.6-18,0-18C1321.7,507.1,1321.7,525.1,1333.3,525.1L1333.3,525.1z"/>
	<path class="particle2" d="M1290.5,478.5c11.6,0,11.6-18,0-18C1278.9,460.5,1278.9,478.5,1290.5,478.5L1290.5,478.5z"/>
	<path class="particle2" d="M1226.5,512.4c11.6,0,11.6-18,0-18C1214.9,494.4,1214.9,512.4,1226.5,512.4L1226.5,512.4z"/>
	<path class="particle2" d="M1235.4,507.3c11.6,0,11.6-18,0-18C1223.8,489.3,1223.8,507.3,1235.4,507.3L1235.4,507.3z"/>
	<path class="particle2" d="M1286.8,547.7c11.6,0,11.6-18,0-18C1275.2,529.7,1275.2,547.7,1286.8,547.7L1286.8,547.7z"/>
	<path class="particle2" d="M1290.5,590.1c11.6,0,11.6-18,0-18C1278.9,572.1,1278.9,590.1,1290.5,590.1L1290.5,590.1z"/>
	<path class="particle2" d="M1292.6,622.3c11.6,0,11.6-18,0-18C1281,604.3,1281,622.3,1292.6,622.3L1292.6,622.3z"/>
	<path class="particle2" d="M1284,621.7c11.6,0,11.6-18,0-18C1272.4,603.7,1272.4,621.7,1284,621.7L1284,621.7z"/>
	<path class="particle2" d="M1349.8,589.8c11.6,0,11.6-18,0-18C1338.2,571.8,1338.2,589.8,1349.8,589.8L1349.8,589.8z"/>
	<path class="particle2" d="M1356.3,584.7c11.6,0,11.6-18,0-18C1344.7,566.7,1344.7,584.7,1356.3,584.7L1356.3,584.7z"/>
	<path class="particle2" d="M1355.6,516.2c11.6,0,11.6-18,0-18C1344,498.2,1344,516.2,1355.6,516.2L1355.6,516.2z"/>
	<path class="particle2" d="M1224.4,576.8c11.6,0,11.6-18,0-18C1212.8,558.8,1212.8,576.8,1224.4,576.8L1224.4,576.8z"/>
	<path class="particle2" d="M1226.5,550.8c11.6,0,11.6-18,0-18C1214.9,532.8,1214.9,550.8,1226.5,550.8L1226.5,550.8z"/>
	<path class="particle2" d="M1241.5,597.7c11.6,0,11.6-18,0-18C1230,579.7,1229.9,597.7,1241.5,597.7L1241.5,597.7z"/>
	<path class="particle2" d="M1263.5,611c11.6,0,11.6-18,0-18C1251.9,593,1251.9,611,1263.5,611L1263.5,611z"/>
	<path class="particle2" d="M1275.1,618.6c11.6,0,11.6-18,0-18C1263.5,600.6,1263.5,618.6,1275.1,618.6L1275.1,618.6z"/>
	<path class="particle2" d="M1291.2,567.5c11.6,0,11.6-18,0-18C1279.6,549.5,1279.6,567.5,1291.2,567.5L1291.2,567.5z"/>
</g>
<g id="cubo3">
	<path class="particle1" d="M1403.9,556.5c5.8,0,5.8-9,0-9C1398.1,547.5,1398.1,556.5,1403.9,556.5L1403.9,556.5z"/>
	<path class="particle1" d="M1410.9,551.1c5.8,0,5.8-9,0-9C1405.1,542.1,1405.1,551.1,1410.9,551.1L1410.9,551.1z"/>
	<path class="particle1" d="M1419.9,547.7c5.8,0,5.8-9,0-9C1414.1,538.7,1414.1,547.7,1419.9,547.7L1419.9,547.7z"/>
	<path class="particle1" d="M1417,542.3c5.8,0,5.8-9,0-9C1411.2,533.3,1411.2,542.3,1417,542.3L1417,542.3z"/>
	<path class="particle1" d="M1407.8,536.7c5.8,0,5.8-9,0-9C1402,527.7,1402,536.7,1407.8,536.7L1407.8,536.7z"/>
	<path class="particle1" d="M1396,530c5.8,0,5.8-9,0-9C1390.2,521,1390.2,530,1396,530L1396,530z"/>
	<path class="particle1" d="M1385.4,523.6c5.8,0,5.8-9,0-9C1379.6,514.6,1379.6,523.6,1385.4,523.6L1385.4,523.6z"/>
	<path class="particle1" d="M1374.1,517.9c5.8,0,5.8-9,0-9C1368.3,508.9,1368.3,517.9,1374.1,517.9L1374.1,517.9z"/>
	<path class="particle1" d="M1364.9,512.5c5.8,0,5.8-9,0-9C1359.1,503.5,1359.1,512.5,1364.9,512.5L1364.9,512.5z"/>
	<path class="particle1" d="M1357.7,507.9c5.8,0,5.8-9,0-9C1351.9,498.9,1351.9,507.9,1357.7,507.9L1357.7,507.9z"/>
	<path class="particle1" d="M1357.7,583.2c5.8,0,5.8-9,0-9C1351.9,574.2,1351.9,583.2,1357.7,583.2L1357.7,583.2z"/>
	<path class="particle1" d="M1418.6,618.9c5.8,0,5.8-9,0-9C1412.8,609.9,1412.8,618.9,1418.6,618.9L1418.6,618.9z"/>
	<path class="particle1" d="M1424,611.4c5.8,0,5.8-9,0-9C1418.2,602.4,1418.2,611.4,1424,611.4L1424,611.4z"/>
	<path class="particle1" d="M1422.2,602.4c5.8,0,5.8-9,0-9C1416.4,593.4,1416.4,602.4,1422.2,602.4L1422.2,602.4z"/>
	<path class="particle1" d="M1422.7,594.2c5.8,0,5.8-9,0-9C1416.9,585.2,1416.9,594.2,1422.7,594.2L1422.7,594.2z"/>
	<path class="particle1" d="M1421.4,586.5c5.8,0,5.8-9,0-9C1415.6,577.5,1415.6,586.5,1421.4,586.5L1421.4,586.5z"/>
	<path class="particle1" d="M1423.2,578.3c5.8,0,5.8-9,0-9C1417.4,569.3,1417.4,578.3,1423.2,578.3L1423.2,578.3z"/>
	<path class="particle1" d="M1422.7,571.3c5.8,0,5.8-9,0-9C1416.9,562.3,1416.9,571.3,1422.7,571.3L1422.7,571.3z"/>
	<path class="particle1" d="M1423.5,565.4c5.8,0,5.8-9,0-9C1417.7,556.4,1417.7,565.4,1423.5,565.4L1423.5,565.4z"/>
	<path class="particle1" d="M1422.4,556.5c5.8,0,5.8-9,0-9C1416.6,547.5,1416.6,556.5,1422.4,556.5L1422.4,556.5z"/>
	<path class="particle1" d="M1365.4,655.6c5.8,0,5.8-9,0-9C1359.6,646.6,1359.6,655.6,1365.4,655.6L1365.4,655.6z"/>
	<path class="particle1" d="M1374.4,649.7c5.8,0,5.8-9,0-9C1368.6,640.7,1368.6,649.7,1374.4,649.7L1374.4,649.7z"/>
	<path class="particle1" d="M1384.4,643.3c5.8,0,5.8-9,0-9C1378.6,634.3,1378.6,643.3,1384.4,643.3L1384.4,643.3z"/>
	<path class="particle1" d="M1391.1,638.9c5.8,0,5.8-9,0-9C1385.3,629.9,1385.3,638.9,1391.1,638.9L1391.1,638.9z"/>
	<path class="particle1" d="M1400.1,634.5c5.8,0,5.8-9,0-9C1394.3,625.5,1394.3,634.5,1400.1,634.5L1400.1,634.5z"/>
	<path class="particle1" d="M1409.8,628.4c5.8,0,5.8-9,0-9C1404,619.4,1404,628.4,1409.8,628.4L1409.8,628.4z"/>
	<path class="particle1" d="M1358.5,657.9c5.8,0,5.8-9,0-9C1352.7,648.9,1352.7,657.9,1358.5,657.9L1358.5,657.9z"/>
	<path class="particle1" d="M1357.4,650.2c5.8,0,5.8-9,0-9C1351.6,641.2,1351.6,650.2,1357.4,650.2L1357.4,650.2z"/>
	<path class="particle1" d="M1357.4,638.6c5.8,0,5.8-9,0-9C1351.6,629.6,1351.6,638.6,1357.4,638.6L1357.4,638.6z"/>
	<path class="particle1" d="M1358,630.4c5.8,0,5.8-9,0-9C1352.2,621.4,1352.2,630.4,1358,630.4L1358,630.4z"/>
	<path class="particle1" d="M1356.9,617.3c5.8,0,5.8-9,0-9C1351.1,608.3,1351.1,617.3,1356.9,617.3L1356.9,617.3z"/>
	<path class="particle1" d="M1356.4,609.9c5.8,0,5.8-9,0-9C1350.6,600.9,1350.6,609.9,1356.4,609.9L1356.4,609.9z"/>
	<path class="particle1" d="M1355.1,597c5.8,0,5.8-9,0-9C1349.3,588,1349.3,597,1355.1,597L1355.1,597z"/>
	<path class="particle1" d="M1356.4,585c5.8,0,5.8-9,0-9C1350.6,576,1350.6,585,1356.4,585L1356.4,585z"/>
	<path class="particle1" d="M1350.5,587.5c5.8,0,5.8-9,0-9C1344.7,578.5,1344.7,587.5,1350.5,587.5L1350.5,587.5z"/>
	<path class="particle1" d="M1295.5,619.1c5.8,0,5.8-9,0-9C1289.7,610.1,1289.7,619.1,1295.5,619.1L1295.5,619.1z"/>
	<path class="particle1" d="M1297.3,622.6c0.1,0.2,0.2,0.3,0.3,0.5c0.5,1,1.7,1.8,2.7,2.1c1.1,0.3,2.5,0.2,3.5-0.5c1-0.6,1.8-1.5,2.1-2.7
		c0.3-1.2,0.1-2.3-0.5-3.5c-0.1-0.2-0.2-0.3-0.3-0.5c-0.5-1-1.7-1.8-2.7-2.1c-1.1-0.3-2.5-0.2-3.5,0.5c-1,0.6-1.8,1.5-2.1,2.7
		C1296.5,620.3,1296.7,621.4,1297.3,622.6L1297.3,622.6z"/>
	<path class="particle1" d="M1305.6,629.9c5.8,0,5.8-9,0-9C1299.8,620.9,1299.8,629.9,1305.6,629.9L1305.6,629.9z"/>
	<path class="particle1" d="M1312.5,633.5c5.8,0,5.8-9,0-9C1306.7,624.5,1306.7,633.5,1312.5,633.5L1312.5,633.5z"/>
	<path class="particle1" d="M1326.4,641.7c5.8,0,5.8-9,0-9C1320.6,632.7,1320.6,641.7,1326.4,641.7L1326.4,641.7z"/>
	<path class="particle1" d="M1324,639.5c0.7,2.5,2.7,4.6,5.2,5.2c1.2,0.3,2.4,0.2,3.5-0.5c0.9-0.5,1.8-1.6,2.1-2.7
		c0.3-1.2,0.2-2.4-0.5-3.5c-0.6-1-1.5-1.8-2.7-2.1c-0.2,0-0.4-0.1-0.5-0.2c0.4,0.2,0.7,0.3,1.1,0.5c-0.2-0.1-0.4-0.2-0.6-0.4
		c0.3,0.2,0.6,0.5,0.9,0.7c-0.2-0.2-0.3-0.3-0.5-0.5c0.2,0.3,0.5,0.6,0.7,0.9c-0.1-0.2-0.3-0.4-0.4-0.6c0.2,0.4,0.3,0.7,0.5,1.1
		c-0.1-0.1-0.1-0.3-0.1-0.4c-0.3-1.1-1.1-2.1-2.1-2.7c-1-0.6-2.4-0.8-3.5-0.5C1324.8,634.7,1323.4,637,1324,639.5L1324,639.5z"/>
	<path class="particle1" d="M1343.8,652c5.8,0,5.8-9,0-9C1338,643,1338,652,1343.8,652L1343.8,652z"/>
	<path class="particle1" d="M1346.4,655.6c5.8,0,5.8-9,0-9C1340.6,646.6,1340.6,655.6,1346.4,655.6L1346.4,655.6z"/>
	<path class="particle1" d="M1338.7,647.9c5.8,0,5.8-9,0-9C1332.9,638.9,1332.9,647.9,1338.7,647.9L1338.7,647.9z"/>
	<path class="particle1" d="M1295.3,614.1c0.1-0.2,0.2-0.3,0.3-0.5c0.5-1.1,0.8-2.3,0.5-3.5c-0.3-1-1.1-2.2-2.1-2.7
		c-1-0.6-2.3-0.8-3.5-0.5c-1.1,0.3-2.2,1-2.7,2.1c-0.1,0.2-0.2,0.3-0.3,0.5c-0.5,1.1-0.8,2.3-0.5,3.5c0.3,1,1.1,2.2,2.1,2.7
		c1,0.6,2.3,0.8,3.5,0.5C1293.7,615.8,1294.8,615.1,1295.3,614.1L1295.3,614.1z"/>
	<path class="particle1" d="M1293,599.9c5.8,0,5.8-9,0-9C1287.2,590.9,1287.2,599.9,1293,599.9L1293,599.9z"/>
	<path class="particle1" d="M1289.6,589.3c5.8,0,5.8-9,0-9C1283.8,580.3,1283.8,589.3,1289.6,589.3L1289.6,589.3z"/>
	<path class="particle1" d="M1291.2,576c5.8,0,5.8-9,0-9C1285.4,567,1285.4,576,1291.2,576L1291.2,576z"/>
	<path class="particle1" d="M1291.9,566c5.8,0,5.8-9,0-9C1286.2,557,1286.1,566,1291.9,566L1291.9,566z"/>
	<path class="particle1" d="M1291.4,554.4c5.8,0,5.8-9,0-9C1285.6,545.4,1285.6,554.4,1291.4,554.4L1291.4,554.4z"/>
	<path class="particle1" d="M1289.4,544.4c5.8,0,5.8-9,0-9C1283.6,535.4,1283.6,544.4,1289.4,544.4L1289.4,544.4z"/>
	<path class="particle1" d="M1347.4,577.8c5.8,0,5.8-9,0-9C1341.6,568.8,1341.6,577.8,1347.4,577.8L1347.4,577.8z"/>
	<path class="particle1" d="M1322,563.4c5.8,0,5.8-9,0-9C1316.2,554.4,1316.2,563.4,1322,563.4L1322,563.4z"/>
	<path class="particle1" d="M1301.2,550.8c5.8,0,5.8-9,0-9C1295.4,541.8,1295.4,550.8,1301.2,550.8L1301.2,550.8z"/>
	<path class="particle1" d="M1341.3,571.6c5.8,0,5.8-9,0-9C1335.5,562.6,1335.5,571.6,1341.3,571.6L1341.3,571.6z"/>
	<path class="particle1" d="M1321,561.8c5.8,0,5.8-9,0-9C1315.2,552.8,1315.2,561.8,1321,561.8L1321,561.8z"/>
	<path class="particle1" d="M1315.3,557c0.2,0,0.3,0,0.5,0c1.2,0,2.4-0.5,3.2-1.3c0.8-0.8,1.4-2.1,1.3-3.2c-0.1-1.2-0.4-2.4-1.3-3.2
		c-0.9-0.8-2-1.3-3.2-1.3c-0.2,0-0.3,0-0.5,0c-1.2,0-2.4,0.5-3.2,1.3c-0.8,0.8-1.4,2.1-1.3,3.2c0.1,1.2,0.4,2.4,1.3,3.2
		C1313,556.5,1314.1,557,1315.3,557L1315.3,557z"/>
	<path class="particle1" d="M1328.2,565.4c5.8,0,5.8-9,0-9C1322.4,556.4,1322.4,565.4,1328.2,565.4L1328.2,565.4z"/>
	<path class="particle1" d="M1305.6,552.9c0.2,0,0.3,0,0.5,0c1.2,0,2.4-0.5,3.2-1.3c0.8-0.8,1.4-2.1,1.3-3.2c-0.1-1.2-0.4-2.4-1.3-3.2
		c-0.9-0.8-2-1.3-3.2-1.3c-0.2,0-0.3,0-0.5,0c-1.2,0-2.4,0.5-3.2,1.3c-0.8,0.8-1.4,2.1-1.3,3.2c0.1,1.2,0.4,2.4,1.3,3.2
		C1303.3,552.3,1304.3,552.9,1305.6,552.9L1305.6,552.9z"/>
	<path class="particle1" d="M1307.6,555.9c5.8,0,5.8-9,0-9C1301.8,546.9,1301.8,555.9,1307.6,555.9L1307.6,555.9z"/>
	<path class="particle2" d="M1356.9,585.9c9.7,0,9.7-15,0-15C1347.3,570.9,1347.3,585.9,1356.9,585.9L1356.9,585.9z"/>
	<path class="particle2" d="M1372.9,576.2c7.7,0,7.7-12,0-12C1365.1,564.2,1365.1,576.2,1372.9,576.2L1372.9,576.2z"/>
	<path class="particle2" d="M1389.3,566.7c7.7,0,7.7-12,0-12C1381.6,554.7,1381.6,566.7,1389.3,566.7L1389.3,566.7z"/>
	<path class="particle2" d="M1382.9,644.8c7.7,0,7.7-12,0-12C1375.1,632.8,1375.1,644.8,1382.9,644.8L1382.9,644.8z"/>
	<path class="particle2" d="M1357.4,659.4c7.7,0,7.7-12,0-12C1349.7,647.4,1349.7,659.4,1357.4,659.4L1357.4,659.4z"/>
	<path class="particle2" d="M1358.2,633c7.7,0,7.7-12,0-12C1350.5,621,1350.5,633,1358.2,633L1358.2,633z"/>
	<path class="particle2" d="M1356.9,613.9c7.7,0,7.7-12,0-12C1349.2,601.9,1349.2,613.9,1356.9,613.9L1356.9,613.9z"/>
	<path class="particle2" d="M1356.7,597.2c7.7,0,7.7-12,0-12C1348.9,585.2,1348.9,597.2,1356.7,597.2L1356.7,597.2z"/>
	<path class="particle2" d="M1357.4,509.7c7.7,0,7.7-12,0-12C1349.7,497.7,1349.7,509.7,1357.4,509.7L1357.4,509.7z"/>
	<path class="particle2" d="M1294,547.4c7.7,0,7.7-12,0-12C1286.3,535.4,1286.3,547.4,1294,547.4L1294,547.4z"/>
	<path class="particle2" d="M1313.5,559.7c7.7,0,7.7-12,0-12C1305.8,547.7,1305.8,559.7,1313.5,559.7L1313.5,559.7z"/>
	<path class="particle2" d="M1422.7,596.5c7.7,0,7.7-12,0-12C1415,584.5,1414.9,596.5,1422.7,596.5L1422.7,596.5z"/>
	<path class="particle2" d="M1423.2,572.1c7.7,0,7.7-12,0-12C1415.5,560.1,1415.5,572.1,1423.2,572.1L1423.2,572.1z"/>
	<path class="particle2" d="M1421.4,550.8c7.7,0,7.7-12,0-12C1413.7,538.8,1413.7,550.8,1421.4,550.8L1421.4,550.8z"/>
	<path class="particle2" d="M1315.8,638.1c7.7,0,7.7-12,0-12C1308.1,626.1,1308.1,638.1,1315.8,638.1L1315.8,638.1z"/>
	<path class="particle2" d="M1297.3,627c7.7,0,7.7-12,0-12C1289.6,615,1289.6,627,1297.3,627L1297.3,627z"/>
	<path class="particle2" d="M1290.9,604.2c7.7,0,7.7-12,0-12C1283.2,592.2,1283.2,604.2,1290.9,604.2L1290.9,604.2z"/>
	<path class="particle2" d="M1290.4,560c7.7,0,7.7-12,0-12C1282.7,548,1282.7,560,1290.4,560L1290.4,560z"/>
	<path class="particle2" d="M1407.5,632.4c7.7,0,7.7-12,0-12C1399.8,620.4,1399.8,632.4,1407.5,632.4L1407.5,632.4z"/>
	<path class="particle2" d="M1410.9,553.6c7.7,0,7.7-12,0-12C1403.1,541.6,1403.1,553.6,1410.9,553.6L1410.9,553.6z"/>
	<path class="particle2" d="M1401.4,534.1c7.7,0,7.7-12,0-12C1393.6,522.1,1393.6,534.1,1401.4,534.1L1401.4,534.1z"/>
	<path class="particle2" d="M1386.2,525.8c7.7,0,7.7-12,0-12C1378.5,513.8,1378.5,525.8,1386.2,525.8L1386.2,525.8z"/>
	<path class="particle2" d="M1372.6,517.9c7.7,0,7.7-12,0-12C1364.9,505.9,1364.9,517.9,1372.6,517.9L1372.6,517.9z"/>
	<path class="particle2" d="M1333,570.5c7.7,0,7.7-12,0-12C1325.3,558.5,1325.3,570.5,1333,570.5L1333,570.5z"/>
	<path class="particle2" d="M1342,575.9c7.7,0,7.7-12,0-12C1334.3,563.9,1334.3,575.9,1342,575.9L1342,575.9z"/>
	<path class="particle2" d="M1422.7,607.3c7.7,0,7.7-12,0-12C1415,595.3,1414.9,607.3,1422.7,607.3L1422.7,607.3z"/>
	<path class="particle2" d="M1421.9,621.1c7.7,0,7.7-12,0-12C1414.2,609.1,1414.2,621.1,1421.9,621.1L1421.9,621.1z"/>
	<path class="particle2" d="M1372.6,573.2c3.9,0,3.9-6,0-6C1368.7,567.2,1368.7,573.2,1372.6,573.2L1372.6,573.2z"/>
	<path class="particle2" d="M1392.4,563.2c3.9,0,3.9-6,0-6C1388.5,557.2,1388.5,563.2,1392.4,563.2L1392.4,563.2z"/>
	<path class="particle2" d="M1359.7,585.4c11.6,0,11.6-18,0-18C1348.1,567.4,1348.1,585.4,1359.7,585.4L1359.7,585.4z"/>
	<path class="particle2" d="M1366.9,584c11.6,0,11.6-18,0-18C1355.3,566,1355.3,584,1366.9,584L1366.9,584z"/>
	<path class="particle2" d="M1383.3,574.1c11.6,0,11.6-18,0-18C1371.7,556.1,1371.7,574.1,1383.3,574.1L1383.3,574.1z"/>
	<path class="particle2" d="M1399.1,563.5c11.6,0,11.6-18,0-18C1387.5,545.5,1387.5,563.5,1399.1,563.5L1399.1,563.5z"/>
	<path class="particle2" d="M1292.2,550.8c11.6,0,11.6-18,0-18C1280.7,532.8,1280.6,550.8,1292.2,550.8L1292.2,550.8z"/>
	<path class="particle2" d="M1352.5,586.1c11.6,0,11.6-18,0-18C1340.9,568.1,1340.9,586.1,1352.5,586.1L1352.5,586.1z"/>
	<path class="particle2" d="M1355.6,594c11.6,0,11.6-18,0-18C1344,576,1344,594,1355.6,594L1355.6,594z"/>
	<path class="particle2" d="M1356.3,628.6c11.6,0,11.6-18,0-18C1344.7,610.6,1344.7,628.6,1356.3,628.6L1356.3,628.6z"/>
	<path class="particle2" d="M1358.3,660.7c11.6,0,11.6-18,0-18C1346.7,642.7,1346.7,660.7,1358.3,660.7L1358.3,660.7z"/>
	<path class="particle2" d="M1349.8,660.1c11.6,0,11.6-18,0-18C1338.2,642.1,1338.2,660.1,1349.8,660.1L1349.8,660.1z"/>
	<path class="particle2" d="M1364.2,659c11.6,0,11.6-18,0-18C1352.6,641,1352.6,659,1364.2,659L1364.2,659z"/>
	<path class="particle2" d="M1415.5,628.2c11.6,0,11.6-18,0-18C1403.9,610.2,1403.9,628.2,1415.5,628.2L1415.5,628.2z"/>
	<path class="particle2" d="M1422,623.1c11.6,0,11.6-18,0-18C1410.4,605.1,1410.4,623.1,1422,623.1L1422,623.1z"/>
	<path class="particle2" d="M1421.7,594.3c11.6,0,11.6-18,0-18C1410.1,576.3,1410.1,594.3,1421.7,594.3L1421.7,594.3z"/>
	<path class="particle2" d="M1421.3,554.6c11.6,0,11.6-18,0-18C1409.8,536.6,1409.7,554.6,1421.3,554.6L1421.3,554.6z"/>
	<path class="particle2" d="M1382.6,527.5c11.6,0,11.6-18,0-18C1371.1,509.5,1371,527.5,1382.6,527.5L1382.6,527.5z"/>
	<path class="particle2" d="M1290.2,615.2c11.6,0,11.6-18,0-18C1278.6,597.2,1278.6,615.2,1290.2,615.2L1290.2,615.2z"/>
	<path class="particle2" d="M1292.2,589.2c11.6,0,11.6-18,0-18C1280.7,571.2,1280.6,589.2,1292.2,589.2L1292.2,589.2z"/>
	<path class="particle2" d="M1307.3,636.1c11.6,0,11.6-18,0-18C1295.7,618.1,1295.7,636.1,1307.3,636.1L1307.3,636.1z"/>
	<path class="particle2" d="M1329.2,649.4c11.6,0,11.6-18,0-18C1317.6,631.4,1317.6,649.4,1329.2,649.4L1329.2,649.4z"/>
	<path class="particle2" d="M1340.9,657c11.6,0,11.6-18,0-18C1329.3,639,1329.3,657,1340.9,657L1340.9,657z"/>
	<path class="particle2" d="M1390.9,645c11.6,0,11.6-18,0-18C1379.3,627,1379.3,645,1390.9,645L1390.9,645z"/>
	<path class="particle2" d="M1379.2,653.6c11.6,0,11.6-18,0-18C1367.6,635.6,1367.6,653.6,1379.2,653.6L1379.2,653.6z"/>
	<path class="particle2" d="M1357,605.9c11.6,0,11.6-18,0-18C1345.4,587.9,1345.4,605.9,1357,605.9L1357,605.9z"/>
	<path class="particle0" d="M1356.4,654.6c1.9,0,1.9-3,0-3C1354.5,651.6,1354.5,654.6,1356.4,654.6L1356.4,654.6z"/>
	<path class="particle0" d="M1360.8,652.9c1.9,0,1.9-3,0-3C1358.8,649.9,1358.8,652.9,1360.8,652.9L1360.8,652.9z"/>
	<path class="particle0" d="M1369.3,647.7c1.9,0,1.9-3,0-3C1367.3,644.7,1367.3,647.7,1369.3,647.7L1369.3,647.7z"/>
	<path class="particle0" d="M1377.5,642.6c1.9,0,1.9-3,0-3C1375.5,639.6,1375.5,642.6,1377.5,642.6L1377.5,642.6z"/>
	<path class="particle0" d="M1399.6,631.3c1.9,0,1.9-3,0-3C1397.6,628.3,1397.6,631.3,1399.6,631.3L1399.6,631.3z"/>
	<path class="particle0" d="M1410.9,623.8c1.9,0,1.9-3,0-3C1408.9,620.8,1408.9,623.8,1410.9,623.8L1410.9,623.8z"/>
	<path class="particle0" d="M1420.6,617.9c1.9,0,1.9-3,0-3C1418.7,614.9,1418.7,617.9,1420.6,617.9L1420.6,617.9z"/>
	<path class="particle0" d="M1422.2,542.7c1.9,0,1.9-3,0-3C1420.2,539.7,1420.2,542.7,1422.2,542.7L1422.2,542.7z"/>
	<path class="particle0" d="M1358.2,504.9c1.9,0,1.9-3,0-3C1356.3,501.9,1356.3,504.9,1358.2,504.9L1358.2,504.9z"/>
	<path class="particle0" d="M1292.2,541.9c1.9,0,1.9-3,0-3C1290.3,538.9,1290.3,541.9,1292.2,541.9L1292.2,541.9z"/>
	<path class="particle0" d="M1358.2,578.9c1.9,0,1.9-3,0-3C1356.3,575.9,1356.3,578.9,1358.2,578.9L1358.2,578.9z"/>
	<path class="particle0" d="M1365.1,509.5c1.9,0,1.9-3,0-3C1363.2,506.5,1363.2,509.5,1365.1,509.5L1365.1,509.5z"/>
	<path class="particle0" d="M1390.3,522.4c1.9,0,1.9-3,0-3C1388.4,519.4,1388.4,522.4,1390.3,522.4L1390.3,522.4z"/>
	<path class="particle0" d="M1378.8,516.7c1.9,0,1.9-3,0-3C1376.8,513.7,1376.8,516.7,1378.8,516.7L1378.8,516.7z"/>
	<path class="particle0" d="M1411.6,536c1.9,0,1.9-3,0-3C1409.7,533,1409.7,536,1411.6,536L1411.6,536z"/>
	<path class="particle0" d="M1398,556c1.9,0,1.9-3,0-3C1396.1,553,1396.1,556,1398,556L1398,556z"/>
	<path class="particle0" d="M1379.3,567.6c1.9,0,1.9-3,0-3C1377.3,564.6,1377.3,567.6,1379.3,567.6L1379.3,567.6z"/>
	<path class="particle0" d="M1369,573.7c1.9,0,1.9-3,0-3C1367.1,570.7,1367.1,573.7,1369,573.7L1369,573.7z"/>
	<path class="particle0" d="M1290.7,554.5c1.9,0,1.9-3,0-3C1288.7,551.5,1288.7,554.5,1290.7,554.5L1290.7,554.5z"/>
	<path class="particle0" d="M1299.1,546c1.9,0,1.9-3,0-3C1297.2,543,1297.2,546,1299.1,546L1299.1,546z"/>
	<path class="particle0" d="M1314.3,554.2c1.9,0,1.9-3,0-3C1312.4,551.2,1312.4,554.2,1314.3,554.2L1314.3,554.2z"/>
	<path class="particle0" d="M1306.3,550.9c1.9,0,1.9-3,0-3C1304.4,547.9,1304.4,550.9,1306.3,550.9L1306.3,550.9z"/>
	<path class="particle0" d="M1329.4,563c1.9,0,1.9-3,0-3C1327.5,560,1327.5,563,1329.4,563L1329.4,563z"/>
	<path class="particle0" d="M1346.4,574.8c1.9,0,1.9-3,0-3C1344.5,571.8,1344.5,574.8,1346.4,574.8L1346.4,574.8z"/>
	<path class="particle0" d="M1336.6,568.3c1.9,0,1.9-3,0-3C1334.7,565.3,1334.7,568.3,1336.6,568.3L1336.6,568.3z"/>
	<path class="particle0" d="M1321,559.6c1.9,0,1.9-3,0-3C1319,556.6,1319,559.6,1321,559.6L1321,559.6z"/>
	<path class="particle0" d="M1291.2,562.2c1.9,0,1.9-3,0-3C1289.2,559.2,1289.2,562.2,1291.2,562.2L1291.2,562.2z"/>
	<path class="particle0" d="M1292.2,583c1.9,0,1.9-3,0-3C1290.3,580,1290.3,583,1292.2,583L1292.2,583z"/>
	<path class="particle0" d="M1291.9,570.1c1.9,0,1.9-3,0-3C1290,567.1,1290,570.1,1291.9,570.1L1291.9,570.1z"/>
	<path class="particle0" d="M1290.7,592.2c1.9,0,1.9-3,0-3C1288.7,589.2,1288.7,592.2,1290.7,592.2L1290.7,592.2z"/>
	<path class="particle0" d="M1291.4,608.9c1.9,0,1.9-3,0-3C1289.5,605.9,1289.5,608.9,1291.4,608.9L1291.4,608.9z"/>
	<path class="particle0" d="M1292.2,616.9c1.9,0,1.9-3,0-3C1290.3,613.9,1290.3,616.9,1292.2,616.9L1292.2,616.9z"/>
	<path class="particle0" d="M1421.9,608.9c1.9,0,1.9-3,0-3C1420,605.9,1420,608.9,1421.9,608.9L1421.9,608.9z"/>
	<path class="particle0" d="M1424,581.2c1.9,0,1.9-3,0-3C1422,578.2,1422,581.2,1424,581.2L1424,581.2z"/>
	<path class="particle0" d="M1423.5,558.3c1.9,0,1.9-3,0-3C1421.5,555.3,1421.5,558.3,1423.5,558.3L1423.5,558.3z"/>
	<path class="particle0" d="M1422.7,571.4c1.9,0,1.9-3,0-3C1420.7,568.4,1420.7,571.4,1422.7,571.4L1422.7,571.4z"/>
	<path class="particle0" d="M1423.2,597.4c1.9,0,1.9-3,0-3C1421.3,594.4,1421.3,597.4,1423.2,597.4L1423.2,597.4z"/>
	<path class="particle0" d="M1356.7,594.3c1.9,0,1.9-3,0-3C1354.7,591.3,1354.7,594.3,1356.7,594.3L1356.7,594.3z"/>
	<path class="particle0" d="M1356.2,618.2c1.9,0,1.9-3,0-3C1354.2,615.2,1354.2,618.2,1356.2,618.2L1356.2,618.2z"/>
	<path class="particle0" d="M1358.2,640.3c1.9,0,1.9-3,0-3C1356.3,637.3,1356.3,640.3,1358.2,640.3L1358.2,640.3z"/>
	<path class="particle0" d="M1302,622.3c1.9,0,1.9-3,0-3C1300,619.3,1300,622.3,1302,622.3L1302,622.3z"/>
	<path class="particle0" d="M1314,629.5c1.9,0,1.9-3,0-3C1312.1,626.5,1312.1,629.5,1314,629.5L1314,629.5z"/>
	<path class="particle0" d="M1321,634.9c1.9,0,1.9-3,0-3C1319,631.9,1319,634.9,1321,634.9L1321,634.9z"/>
	<path class="particle0" d="M1338.4,644.4c1.9,0,1.9-3,0-3C1336.5,641.4,1336.5,644.4,1338.4,644.4L1338.4,644.4z"/>
	<path class="particle0" d="M1349.5,651.1c1.9,0,1.9-3,0-3C1347.5,648.1,1347.5,651.1,1349.5,651.1L1349.5,651.1z"/>
	<path class="particle0" d="M1330.7,640.8c1.9,0,1.9-3,0-3C1328.8,637.8,1328.8,640.8,1330.7,640.8L1330.7,640.8z"/>
	<path class="particle0" d="M1356.9,627.7c1.9,0,1.9-3,0-3C1355,624.7,1355,627.7,1356.9,627.7L1356.9,627.7z"/>
</g>
<g id="cubo2">
	<path class="particle0" d="M1224.4,577.5c1.9,0,1.9-3,0-3C1222.5,574.5,1222.5,577.5,1224.4,577.5L1224.4,577.5z"/>
	<path class="particle0" d="M1228.8,575.7c1.9,0,1.9-3,0-3C1226.8,572.7,1226.8,575.7,1228.8,575.7L1228.8,575.7z"/>
	<path class="particle0" d="M1226.2,427.7c1.9,0,1.9-3,0-3C1224.3,424.7,1224.3,427.7,1226.2,427.7L1226.2,427.7z"/>
	<path class="particle0" d="M1160.2,464.7c1.9,0,1.9-3,0-3C1158.2,461.7,1158.2,464.7,1160.2,464.7L1160.2,464.7z"/>
	<path class="particle0" d="M1226.2,501.7c1.9,0,1.9-3,0-3C1224.3,498.7,1224.3,501.7,1226.2,501.7L1226.2,501.7z"/>
	<path class="particle0" d="M1211,434.7c1.9,0,1.9-3,0-3C1209.1,431.7,1209.1,434.7,1211,434.7L1211,434.7z"/>
	<path class="particle0" d="M1191.5,446c1.9,0,1.9-3,0-3C1189.6,443,1189.6,446,1191.5,446L1191.5,446z"/>
	<path class="particle0" d="M1177.9,454.4c1.9,0,1.9-3,0-3C1176,451.4,1176,454.4,1177.9,454.4L1177.9,454.4z"/>
	<path class="particle0" d="M1168.7,458.8c1.9,0,1.9-3,0-3C1166.7,455.8,1166.7,458.8,1168.7,458.8L1168.7,458.8z"/>
	<path class="particle0" d="M1158.6,477.3c1.9,0,1.9-3,0-3C1156.7,474.3,1156.7,477.3,1158.6,477.3L1158.6,477.3z"/>
	<path class="particle0" d="M1167.1,468.8c1.9,0,1.9-3,0-3C1165.2,465.8,1165.2,468.8,1167.1,468.8L1167.1,468.8z"/>
	<path class="particle0" d="M1182.3,477c1.9,0,1.9-3,0-3C1180.3,474,1180.3,477,1182.3,477L1182.3,477z"/>
	<path class="particle0" d="M1174.3,473.7c1.9,0,1.9-3,0-3C1172.4,470.7,1172.4,473.7,1174.3,473.7L1174.3,473.7z"/>
	<path class="particle0" d="M1197.4,485.8c1.9,0,1.9-3,0-3C1195.5,482.8,1195.5,485.8,1197.4,485.8L1197.4,485.8z"/>
	<path class="particle0" d="M1214.4,497.6c1.9,0,1.9-3,0-3C1212.4,494.6,1212.4,497.6,1214.4,497.6L1214.4,497.6z"/>
	<path class="particle0" d="M1204.6,491.2c1.9,0,1.9-3,0-3C1202.7,488.2,1202.7,491.2,1204.6,491.2L1204.6,491.2z"/>
	<path class="particle0" d="M1188.9,482.4c1.9,0,1.9-3,0-3C1187,479.4,1187,482.4,1188.9,482.4L1188.9,482.4z"/>
	<path class="particle0" d="M1159.2,485c1.9,0,1.9-3,0-3C1157.2,482,1157.2,485,1159.2,485L1159.2,485z"/>
	<path class="particle0" d="M1160.2,505.8c1.9,0,1.9-3,0-3C1158.2,502.8,1158.2,505.8,1160.2,505.8L1160.2,505.8z"/>
	<path class="particle0" d="M1159.9,493c1.9,0,1.9-3,0-3C1158,490,1158,493,1159.9,493L1159.9,493z"/>
	<path class="particle0" d="M1158.6,515c1.9,0,1.9-3,0-3C1156.7,512,1156.7,515,1158.6,515L1158.6,515z"/>
	<path class="particle0" d="M1159.4,531.7c1.9,0,1.9-3,0-3C1157.5,528.7,1157.5,531.7,1159.4,531.7L1159.4,531.7z"/>
	<path class="particle0" d="M1160.2,539.7c1.9,0,1.9-3,0-3C1158.2,536.7,1158.2,539.7,1160.2,539.7L1160.2,539.7z"/>
	<path class="particle0" d="M1224.6,517.1c1.9,0,1.9-3,0-3C1222.7,514.1,1222.7,517.1,1224.6,517.1L1224.6,517.1z"/>
	<path class="particle0" d="M1224.1,541c1.9,0,1.9-3,0-3C1222.2,538,1222.2,541,1224.1,541L1224.1,541z"/>
	<path class="particle0" d="M1226.2,563.1c1.9,0,1.9-3,0-3C1224.3,560.1,1224.3,563.1,1226.2,563.1L1226.2,563.1z"/>
	<path class="particle0" d="M1169.9,545.1c1.9,0,1.9-3,0-3C1168,542.1,1168,545.1,1169.9,545.1L1169.9,545.1z"/>
	<path class="particle0" d="M1182,552.3c1.9,0,1.9-3,0-3C1180.1,549.3,1180.1,552.3,1182,552.3L1182,552.3z"/>
	<path class="particle0" d="M1188.9,557.7c1.9,0,1.9-3,0-3C1187,554.7,1187,557.7,1188.9,557.7L1188.9,557.7z"/>
	<path class="particle0" d="M1206.4,567.2c1.9,0,1.9-3,0-3C1204.5,564.2,1204.5,567.2,1206.4,567.2L1206.4,567.2z"/>
	<path class="particle0" d="M1217.5,573.9c1.9,0,1.9-3,0-3C1215.5,570.9,1215.5,573.9,1217.5,573.9L1217.5,573.9z"/>
	<path class="particle0" d="M1198.7,563.6c1.9,0,1.9-3,0-3C1196.8,560.6,1196.8,563.6,1198.7,563.6L1198.7,563.6z"/>
	<path class="particle0" d="M1224.9,550.5c1.9,0,1.9-3,0-3C1223,547.5,1223,550.5,1224.9,550.5L1224.9,550.5z"/>
	<path class="particle1" d="M1225.7,430.7c5.8,0,5.8-9,0-9C1219.9,421.7,1219.9,430.7,1225.7,430.7L1225.7,430.7z"/>
	<path class="particle1" d="M1225.7,506c5.8,0,5.8-9,0-9C1219.9,497,1219.9,506,1225.7,506L1225.7,506z"/>
	<path class="particle1" d="M1226.4,580.7c5.8,0,5.8-9,0-9C1220.7,571.7,1220.6,580.7,1226.4,580.7L1226.4,580.7z"/>
	<path class="particle1" d="M1225.4,573c5.8,0,5.8-9,0-9C1219.6,564,1219.6,573,1225.4,573L1225.4,573z"/>
	<path class="particle1" d="M1225.4,561.5c5.8,0,5.8-9,0-9C1219.6,552.5,1219.6,561.5,1225.4,561.5L1225.4,561.5z"/>
	<path class="particle1" d="M1225.9,553.2c5.8,0,5.8-9,0-9C1220.1,544.2,1220.1,553.2,1225.9,553.2L1225.9,553.2z"/>
	<path class="particle1" d="M1224.9,540.1c5.8,0,5.8-9,0-9C1219.1,531.1,1219.1,540.1,1224.9,540.1L1224.9,540.1z"/>
	<path class="particle1" d="M1224.4,532.7c5.8,0,5.8-9,0-9C1218.6,523.7,1218.6,532.7,1224.4,532.7L1224.4,532.7z"/>
	<path class="particle1" d="M1223.1,519.8c5.8,0,5.8-9,0-9C1217.3,510.8,1217.3,519.8,1223.1,519.8L1223.1,519.8z"/>
	<path class="particle1" d="M1224.4,507.8c5.8,0,5.8-9,0-9C1218.6,498.8,1218.6,507.8,1224.4,507.8L1224.4,507.8z"/>
	<path class="particle1" d="M1218.5,510.3c5.8,0,5.8-9,0-9C1212.7,501.3,1212.7,510.3,1218.5,510.3L1218.5,510.3z"/>
	<path class="particle1" d="M1163.5,541.9c5.8,0,5.8-9,0-9C1157.7,532.9,1157.7,541.9,1163.5,541.9L1163.5,541.9z"/>
	<path class="particle1" d="M1165.3,545.4c0.1,0.2,0.2,0.3,0.3,0.5c0.5,1,1.7,1.8,2.7,2.1c1.1,0.3,2.5,0.2,3.5-0.5c1-0.6,1.8-1.5,2.1-2.7
		c0.3-1.2,0.1-2.3-0.5-3.5c-0.1-0.2-0.2-0.3-0.3-0.5c-0.5-1-1.7-1.8-2.7-2.1c-1.1-0.3-2.5-0.2-3.5,0.5c-1,0.6-1.8,1.5-2.1,2.7
		C1164.5,543.1,1164.7,544.2,1165.3,545.4L1165.3,545.4z"/>
	<path class="particle1" d="M1173.5,552.7c5.8,0,5.8-9,0-9C1167.7,543.7,1167.7,552.7,1173.5,552.7L1173.5,552.7z"/>
	<path class="particle1" d="M1180.5,556.3c5.8,0,5.8-9,0-9C1174.7,547.3,1174.7,556.3,1180.5,556.3L1180.5,556.3z"/>
	<path class="particle1" d="M1194.3,564.5c5.8,0,5.8-9,0-9C1188.6,555.5,1188.5,564.5,1194.3,564.5L1194.3,564.5z"/>
	<path class="particle1" d="M1192,562.3c0.7,2.5,2.7,4.6,5.2,5.2c1.2,0.3,2.4,0.2,3.5-0.5c0.9-0.5,1.8-1.6,2.1-2.7
		c0.3-1.2,0.2-2.4-0.5-3.5c-0.6-1-1.5-1.8-2.7-2.1c-0.2,0-0.4-0.1-0.5-0.2c0.4,0.2,0.7,0.3,1.1,0.5c-0.2-0.1-0.4-0.2-0.6-0.4
		c0.3,0.2,0.6,0.5,0.9,0.7c-0.2-0.2-0.3-0.3-0.5-0.5c0.2,0.3,0.5,0.6,0.7,0.9c-0.1-0.2-0.3-0.4-0.4-0.6c0.2,0.4,0.3,0.7,0.5,1.1
		c-0.1-0.1-0.1-0.3-0.1-0.4c-0.3-1.1-1.1-2.1-2.1-2.7c-1-0.6-2.4-0.8-3.5-0.5C1192.8,557.5,1191.4,559.8,1192,562.3L1192,562.3z"/>
	<path class="particle1" d="M1211.8,574.8c5.8,0,5.8-9,0-9C1206,565.8,1206,574.8,1211.8,574.8L1211.8,574.8z"/>
	<path class="particle1" d="M1214.4,578.4c5.8,0,5.8-9,0-9C1208.6,569.4,1208.6,578.4,1214.4,578.4L1214.4,578.4z"/>
	<path class="particle1" d="M1206.7,570.7c5.8,0,5.8-9,0-9C1200.9,561.7,1200.9,570.7,1206.7,570.7L1206.7,570.7z"/>
	<path class="particle1" d="M1163.3,536.9c0.1-0.2,0.2-0.3,0.3-0.5c0.5-1.1,0.8-2.3,0.5-3.5c-0.3-1-1.1-2.2-2.1-2.7
		c-1-0.6-2.3-0.8-3.5-0.5c-1.1,0.3-2.2,1-2.7,2.1c-0.1,0.2-0.2,0.3-0.3,0.5c-0.5,1.1-0.8,2.3-0.5,3.5c0.3,1,1.1,2.2,2.1,2.7
		c1,0.6,2.3,0.8,3.5,0.5C1161.7,538.6,1162.8,537.9,1163.3,536.9L1163.3,536.9z"/>
	<path class="particle1" d="M1161,522.7c5.8,0,5.8-9,0-9C1155.2,513.7,1155.2,522.7,1161,522.7L1161,522.7z"/>
	<path class="particle1" d="M1157.6,512.1c5.8,0,5.8-9,0-9C1151.8,503.1,1151.8,512.1,1157.6,512.1L1157.6,512.1z"/>
	<path class="particle1" d="M1159.2,498.8c5.8,0,5.8-9,0-9C1153.4,489.8,1153.4,498.8,1159.2,498.8L1159.2,498.8z"/>
	<path class="particle1" d="M1159.9,488.8c5.8,0,5.8-9,0-9C1154.1,479.8,1154.1,488.8,1159.9,488.8L1159.9,488.8z"/>
	<path class="particle1" d="M1159.4,477.2c5.8,0,5.8-9,0-9C1153.6,468.2,1153.6,477.2,1159.4,477.2L1159.4,477.2z"/>
	<path class="particle1" d="M1157.4,467.2c5.8,0,5.8-9,0-9C1151.6,458.2,1151.6,467.2,1157.4,467.2L1157.4,467.2z"/>
	<path class="particle1" d="M1168.9,463c0.2-0.1,0.3-0.2,0.5-0.3c1-0.5,1.8-1.7,2.1-2.7c0.3-1.1,0.2-2.5-0.5-3.5c-0.6-1-1.5-1.8-2.7-2.1
		c-1.2-0.3-2.3-0.1-3.5,0.5c-0.2,0.1-0.3,0.2-0.5,0.3c-1,0.5-1.8,1.7-2.1,2.7c-0.3,1.1-0.2,2.5,0.5,3.5c0.6,1,1.5,1.8,2.7,2.1
		C1166.6,463.7,1167.7,463.5,1168.9,463L1168.9,463z"/>
	<path class="particle1" d="M1188.7,450.2c5.8,0,5.8-9,0-9C1182.9,441.2,1182.9,450.2,1188.7,450.2L1188.7,450.2z"/>
	<path class="particle1" d="M1206.7,441.8c5.8,0,5.8-9,0-9C1200.9,432.8,1200.9,441.8,1206.7,441.8L1206.7,441.8z"/>
	<path class="particle1" d="M1214.1,437.7c5.8,0,5.8-9,0-9C1208.3,428.7,1208.3,437.7,1214.1,437.7L1214.1,437.7z"/>
	<path class="particle1" d="M1186.4,448.2c5.8,0,5.8-9,0-9C1180.6,439.2,1180.6,448.2,1186.4,448.2L1186.4,448.2z"/>
	<path class="particle1" d="M1197.2,446.4c5.8,0,5.8-9,0-9C1191.4,437.4,1191.4,446.4,1197.2,446.4L1197.2,446.4z"/>
	<path class="particle1" d="M1220.5,432.8c5.8,0,5.8-9,0-9C1214.7,423.8,1214.7,432.8,1220.5,432.8L1220.5,432.8z"/>
	<path class="particle1" d="M1215.4,500.6c5.8,0,5.8-9,0-9C1209.6,491.6,1209.6,500.6,1215.4,500.6L1215.4,500.6z"/>
	<path class="particle1" d="M1190,486.2c5.8,0,5.8-9,0-9C1184.2,477.2,1184.2,486.2,1190,486.2L1190,486.2z"/>
	<path class="particle1" d="M1169.2,473.6c5.8,0,5.8-9,0-9C1163.4,464.6,1163.4,473.6,1169.2,473.6L1169.2,473.6z"/>
	<path class="particle1" d="M1209.2,494.4c5.8,0,5.8-9,0-9C1203.4,485.4,1203.4,494.4,1209.2,494.4L1209.2,494.4z"/>
	<path class="particle1" d="M1188.9,484.7c5.8,0,5.8-9,0-9C1183.2,475.7,1183.1,484.7,1188.9,484.7L1188.9,484.7z"/>
	<path class="particle1" d="M1183.3,479.8c0.2,0,0.3,0,0.5,0c1.2,0,2.4-0.5,3.2-1.3c0.8-0.8,1.4-2.1,1.3-3.2c-0.1-1.2-0.4-2.4-1.3-3.2
		c-0.9-0.8-2-1.3-3.2-1.3c-0.2,0-0.3,0-0.5,0c-1.2,0-2.4,0.5-3.2,1.3c-0.8,0.8-1.4,2.1-1.3,3.2c0.1,1.2,0.4,2.4,1.3,3.2
		C1181,479.3,1182.1,479.8,1183.3,479.8L1183.3,479.8z"/>
	<path class="particle1" d="M1196.1,488.3c5.8,0,5.8-9,0-9C1190.3,479.3,1190.3,488.3,1196.1,488.3L1196.1,488.3z"/>
	<path class="particle1" d="M1173.5,475.7c0.2,0,0.3,0,0.5,0c1.2,0,2.4-0.5,3.2-1.3c0.8-0.8,1.4-2.1,1.3-3.2c-0.1-1.2-0.4-2.4-1.3-3.2
		c-0.9-0.8-2-1.3-3.2-1.3c-0.2,0-0.3,0-0.5,0c-1.2,0-2.4,0.5-3.2,1.3c-0.8,0.8-1.4,2.1-1.3,3.2c0.1,1.2,0.4,2.4,1.3,3.2
		C1171.2,475.2,1172.3,475.7,1173.5,475.7L1173.5,475.7z"/>
	<path class="particle1" d="M1175.6,478.7c5.8,0,5.8-9,0-9C1169.8,469.7,1169.8,478.7,1175.6,478.7L1175.6,478.7z"/>
	<path class="particle2" d="M1224.9,508.7c9.7,0,9.7-15,0-15C1215.3,493.7,1215.2,508.7,1224.9,508.7L1224.9,508.7z"/>
	<path class="particle2" d="M1225.4,582.2c7.7,0,7.7-12,0-12C1217.7,570.2,1217.7,582.2,1225.4,582.2L1225.4,582.2z"/>
	<path class="particle2" d="M1226.2,555.8c7.7,0,7.7-12,0-12C1218.5,543.8,1218.5,555.8,1226.2,555.8L1226.2,555.8z"/>
	<path class="particle2" d="M1224.9,536.8c7.7,0,7.7-12,0-12C1217.2,524.8,1217.2,536.8,1224.9,536.8L1224.9,536.8z"/>
	<path class="particle2" d="M1224.6,520.1c7.7,0,7.7-12,0-12C1216.9,508.1,1216.9,520.1,1224.6,520.1L1224.6,520.1z"/>
	<path class="particle2" d="M1225.4,432.5c7.7,0,7.7-12,0-12C1217.7,420.5,1217.7,432.5,1225.4,432.5L1225.4,432.5z"/>
	<path class="particle2" d="M1212.1,438.9c7.7,0,7.7-12,0-12C1204.3,426.9,1204.3,438.9,1212.1,438.9L1212.1,438.9z"/>
	<path class="particle2" d="M1201.5,446.3c7.7,0,7.7-12,0-12C1193.8,434.3,1193.8,446.3,1201.5,446.3L1201.5,446.3z"/>
	<path class="particle2" d="M1185.6,453.8c7.7,0,7.7-12,0-12C1177.9,441.8,1177.9,453.8,1185.6,453.8L1185.6,453.8z"/>
	<path class="particle2" d="M1174.3,462.5c7.7,0,7.7-12,0-12C1166.6,450.5,1166.6,462.5,1174.3,462.5L1174.3,462.5z"/>
	<path class="particle2" d="M1162,470.2c7.7,0,7.7-12,0-12C1154.3,458.2,1154.2,470.2,1162,470.2L1162,470.2z"/>
	<path class="particle2" d="M1181.5,482.6c7.7,0,7.7-12,0-12C1173.8,470.6,1173.8,482.6,1181.5,482.6L1181.5,482.6z"/>
	<path class="particle2" d="M1183.8,560.9c7.7,0,7.7-12,0-12C1176.1,548.9,1176.1,560.9,1183.8,560.9L1183.8,560.9z"/>
	<path class="particle2" d="M1165.3,549.9c7.7,0,7.7-12,0-12C1157.6,537.9,1157.6,549.9,1165.3,549.9L1165.3,549.9z"/>
	<path class="particle2" d="M1158.9,527c7.7,0,7.7-12,0-12C1151.2,515,1151.2,527,1158.9,527L1158.9,527z"/>
	<path class="particle2" d="M1158.4,482.8c7.7,0,7.7-12,0-12C1150.7,470.8,1150.6,482.8,1158.4,482.8L1158.4,482.8z"/>
	<path class="particle2" d="M1201,493.3c7.7,0,7.7-12,0-12C1193.3,481.3,1193.3,493.3,1201,493.3L1201,493.3z"/>
	<path class="particle2" d="M1210,498.7c7.7,0,7.7-12,0-12C1202.3,486.7,1202.3,498.7,1210,498.7L1210,498.7z"/>
	<path class="particle2" d="M1227.7,508.2c11.6,0,11.6-18,0-18C1216.1,490.2,1216.1,508.2,1227.7,508.2L1227.7,508.2z"/>
	<path class="particle2" d="M1224.3,439.7c11.6,0,11.6-18,0-18C1212.7,421.7,1212.7,439.7,1224.3,439.7L1224.3,439.7z"/>
	<path class="particle2" d="M1160.2,473.6c11.6,0,11.6-18,0-18C1148.6,455.6,1148.6,473.6,1160.2,473.6L1160.2,473.6z"/>
	<path class="particle2" d="M1169.1,468.5c11.6,0,11.6-18,0-18C1157.5,450.5,1157.5,468.5,1169.1,468.5L1169.1,468.5z"/>
	<path class="particle2" d="M1180.8,461.3c11.6,0,11.6-18,0-18C1169.2,443.3,1169.2,461.3,1180.8,461.3L1180.8,461.3z"/>
	<path class="particle2" d="M1220.5,508.9c11.6,0,11.6-18,0-18C1208.9,490.9,1208.9,508.9,1220.5,508.9L1220.5,508.9z"/>
	<path class="particle2" d="M1223.6,516.8c11.6,0,11.6-18,0-18C1212,498.8,1212,516.8,1223.6,516.8L1223.6,516.8z"/>
	<path class="particle2" d="M1224.3,551.4c11.6,0,11.6-18,0-18C1212.7,533.4,1212.7,551.4,1224.3,551.4L1224.3,551.4z"/>
	<path class="particle2" d="M1226.3,583.6c11.6,0,11.6-18,0-18C1214.7,565.6,1214.7,583.6,1226.3,583.6L1226.3,583.6z"/>
	<path class="particle2" d="M1217.7,582.9c11.6,0,11.6-18,0-18C1206.2,564.9,1206.1,582.9,1217.7,582.9L1217.7,582.9z"/>
	<path class="particle2" d="M1158.2,538c11.6,0,11.6-18,0-18C1146.6,520,1146.6,538,1158.2,538L1158.2,538z"/>
	<path class="particle2" d="M1160.2,512c11.6,0,11.6-18,0-18C1148.6,494,1148.6,512,1160.2,512L1160.2,512z"/>
	<path class="particle2" d="M1175.3,558.9c11.6,0,11.6-18,0-18C1163.7,540.9,1163.7,558.9,1175.3,558.9L1175.3,558.9z"/>
	<path class="particle2" d="M1197.2,572.3c11.6,0,11.6-18,0-18C1185.6,554.3,1185.6,572.3,1197.2,572.3L1197.2,572.3z"/>
	<path class="particle2" d="M1208.8,579.8c11.6,0,11.6-18,0-18C1197.3,561.8,1197.2,579.8,1208.8,579.8L1208.8,579.8z"/>
	<path class="particle2" d="M1224.9,528.8c11.6,0,11.6-18,0-18C1213.4,510.8,1213.3,528.8,1224.9,528.8L1224.9,528.8z"/>
</g>
<g id="cubo1">
	<path class="particle0" d="M1290.7,691.2c1.9,0,1.9-3,0-3C1288.7,688.2,1288.7,691.2,1290.7,691.2L1290.7,691.2z"/>
	<path class="particle0" d="M1295,689.4c1.9,0,1.9-3,0-3C1293.1,686.4,1293.1,689.4,1295,689.4L1295,689.4z"/>
	<path class="particle0" d="M1303.5,684.3c1.9,0,1.9-3,0-3C1301.6,681.3,1301.6,684.3,1303.5,684.3L1303.5,684.3z"/>
	<path class="particle0" d="M1311.7,679.2c1.9,0,1.9-3,0-3C1309.8,676.2,1309.8,679.2,1311.7,679.2L1311.7,679.2z"/>
	<path class="particle0" d="M1333.8,667.9c1.9,0,1.9-3,0-3C1331.9,664.9,1331.9,667.9,1333.8,667.9L1333.8,667.9z"/>
	<path class="particle0" d="M1345.1,660.4c1.9,0,1.9-3,0-3C1343.2,657.4,1343.2,660.4,1345.1,660.4L1345.1,660.4z"/>
	<path class="particle0" d="M1354.9,654.5c1.9,0,1.9-3,0-3C1352.9,651.5,1352.9,654.5,1354.9,654.5L1354.9,654.5z"/>
	<path class="particle0" d="M1356.4,579.3c1.9,0,1.9-3,0-3C1354.5,576.3,1354.5,579.3,1356.4,579.3L1356.4,579.3z"/>
	<path class="particle0" d="M1292.5,541.5c1.9,0,1.9-3,0-3C1290.5,538.5,1290.5,541.5,1292.5,541.5L1292.5,541.5z"/>
	<path class="particle0" d="M1226.4,578.5c1.9,0,1.9-3,0-3C1224.5,575.5,1224.5,578.5,1226.4,578.5L1226.4,578.5z"/>
	<path class="particle0" d="M1292.5,615.5c1.9,0,1.9-3,0-3C1290.5,612.5,1290.5,615.5,1292.5,615.5L1292.5,615.5z"/>
	<path class="particle0" d="M1299.4,546.1c1.9,0,1.9-3,0-3C1297.5,543.1,1297.5,546.1,1299.4,546.1L1299.4,546.1z"/>
	<path class="particle0" d="M1324.6,559c1.9,0,1.9-3,0-3C1322.6,556,1322.6,559,1324.6,559L1324.6,559z"/>
	<path class="particle0" d="M1313,553.3c1.9,0,1.9-3,0-3C1311.1,550.3,1311.1,553.3,1313,553.3L1313,553.3z"/>
	<path class="particle0" d="M1345.9,572.6c1.9,0,1.9-3,0-3C1344,569.6,1343.9,572.6,1345.9,572.6L1345.9,572.6z"/>
	<path class="particle0" d="M1224.9,591.1c1.9,0,1.9-3,0-3C1223,588.1,1223,591.1,1224.9,591.1L1224.9,591.1z"/>
	<path class="particle0" d="M1233.4,582.6c1.9,0,1.9-3,0-3C1231.5,579.6,1231.4,582.6,1233.4,582.6L1233.4,582.6z"/>
	<path class="particle0" d="M1248.5,590.8c1.9,0,1.9-3,0-3C1246.6,587.8,1246.6,590.8,1248.5,590.8L1248.5,590.8z"/>
	<path class="particle0" d="M1240.6,587.5c1.9,0,1.9-3,0-3C1238.6,584.5,1238.6,587.5,1240.6,587.5L1240.6,587.5z"/>
	<path class="particle0" d="M1263.7,599.5c1.9,0,1.9-3,0-3C1261.8,596.5,1261.8,599.5,1263.7,599.5L1263.7,599.5z"/>
	<path class="particle0" d="M1280.6,611.4c1.9,0,1.9-3,0-3C1278.7,608.4,1278.7,611.4,1280.6,611.4L1280.6,611.4z"/>
	<path class="particle0" d="M1270.9,604.9c1.9,0,1.9-3,0-3C1269,601.9,1268.9,604.9,1270.9,604.9L1270.9,604.9z"/>
	<path class="particle0" d="M1255.2,596.2c1.9,0,1.9-3,0-3C1253.3,593.2,1253.3,596.2,1255.2,596.2L1255.2,596.2z"/>
	<path class="particle0" d="M1225.4,598.8c1.9,0,1.9-3,0-3C1223.5,595.8,1223.5,598.8,1225.4,598.8L1225.4,598.8z"/>
	<path class="particle0" d="M1226.4,619.6c1.9,0,1.9-3,0-3C1224.5,616.6,1224.5,619.6,1226.4,619.6L1226.4,619.6z"/>
	<path class="particle0" d="M1226.2,606.7c1.9,0,1.9-3,0-3C1224.3,603.7,1224.3,606.7,1226.2,606.7L1226.2,606.7z"/>
	<path class="particle0" d="M1224.9,628.8c1.9,0,1.9-3,0-3C1223,625.8,1223,628.8,1224.9,628.8L1224.9,628.8z"/>
	<path class="particle0" d="M1225.7,645.5c1.9,0,1.9-3,0-3C1223.7,642.5,1223.7,645.5,1225.7,645.5L1225.7,645.5z"/>
	<path class="particle0" d="M1226.4,653.5c1.9,0,1.9-3,0-3C1224.5,650.5,1224.5,653.5,1226.4,653.5L1226.4,653.5z"/>
	<path class="particle0" d="M1356.2,645.5c1.9,0,1.9-3,0-3C1354.2,642.5,1354.2,645.5,1356.2,645.5L1356.2,645.5z"/>
	<path class="particle0" d="M1358.2,617.8c1.9,0,1.9-3,0-3C1356.3,614.8,1356.3,617.8,1358.2,617.8L1358.2,617.8z"/>
	<path class="particle0" d="M1357.7,594.9c1.9,0,1.9-3,0-3C1355.8,591.9,1355.8,594.9,1357.7,594.9L1357.7,594.9z"/>
	<path class="particle0" d="M1356.9,608c1.9,0,1.9-3,0-3C1355,605,1355,608,1356.9,608L1356.9,608z"/>
	<path class="particle0" d="M1357.4,634c1.9,0,1.9-3,0-3C1355.5,631,1355.5,634,1357.4,634L1357.4,634z"/>
	<path class="particle0" d="M1290.9,630.9c1.9,0,1.9-3,0-3C1289,627.9,1289,630.9,1290.9,630.9L1290.9,630.9z"/>
	<path class="particle0" d="M1290.4,654.8c1.9,0,1.9-3,0-3C1288.5,651.8,1288.5,654.8,1290.4,654.8L1290.4,654.8z"/>
	<path class="particle0" d="M1292.5,676.9c1.9,0,1.9-3,0-3C1290.5,673.9,1290.5,676.9,1292.5,676.9L1292.5,676.9z"/>
	<path class="particle0" d="M1236.2,658.9c1.9,0,1.9-3,0-3C1234.3,655.9,1234.3,658.9,1236.2,658.9L1236.2,658.9z"/>
	<path class="particle0" d="M1248.3,666.1c1.9,0,1.9-3,0-3C1246.3,663.1,1246.3,666.1,1248.3,666.1L1248.3,666.1z"/>
	<path class="particle0" d="M1255.2,671.5c1.9,0,1.9-3,0-3C1253.3,668.5,1253.3,671.5,1255.2,671.5L1255.2,671.5z"/>
	<path class="particle0" d="M1272.7,681c1.9,0,1.9-3,0-3C1270.7,678,1270.7,681,1272.7,681L1272.7,681z"/>
	<path class="particle0" d="M1283.7,687.6c1.9,0,1.9-3,0-3C1281.8,684.6,1281.8,687.6,1283.7,687.6L1283.7,687.6z"/>
	<path class="particle0" d="M1265,677.4c1.9,0,1.9-3,0-3C1263,674.4,1263,677.4,1265,677.4L1265,677.4z"/>
	<path class="particle0" d="M1291.2,664.3c1.9,0,1.9-3,0-3C1289.2,661.3,1289.2,664.3,1291.2,664.3L1291.2,664.3z"/>
	<path class="particle1" d="M1354.1,584.3c5.8,0,5.8-9,0-9C1348.3,575.3,1348.3,584.3,1354.1,584.3L1354.1,584.3z"/>
	<path class="particle1" d="M1351.3,578.9c5.8,0,5.8-9,0-9C1345.5,569.9,1345.5,578.9,1351.3,578.9L1351.3,578.9z"/>
	<path class="particle1" d="M1342,573.3c5.8,0,5.8-9,0-9C1336.2,564.3,1336.2,573.3,1342,573.3L1342,573.3z"/>
	<path class="particle1" d="M1330.2,566.6c5.8,0,5.8-9,0-9C1324.4,557.6,1324.4,566.6,1330.2,566.6L1330.2,566.6z"/>
	<path class="particle1" d="M1319.7,560.2c5.8,0,5.8-9,0-9C1313.9,551.2,1313.9,560.2,1319.7,560.2L1319.7,560.2z"/>
	<path class="particle1" d="M1308.4,554.5c5.8,0,5.8-9,0-9C1302.6,545.5,1302.6,554.5,1308.4,554.5L1308.4,554.5z"/>
	<path class="particle1" d="M1299.1,549.1c5.8,0,5.8-9,0-9C1293.3,540.1,1293.3,549.1,1299.1,549.1L1299.1,549.1z"/>
	<path class="particle1" d="M1291.9,544.5c5.8,0,5.8-9,0-9C1286.2,535.5,1286.1,544.5,1291.9,544.5L1291.9,544.5z"/>
	<path class="particle1" d="M1291.9,619.8c5.8,0,5.8-9,0-9C1286.2,610.8,1286.1,619.8,1291.9,619.8L1291.9,619.8z"/>
	<path class="particle1" d="M1352.8,655.5c5.8,0,5.8-9,0-9C1347,646.5,1347,655.5,1352.8,655.5L1352.8,655.5z"/>
	<path class="particle1" d="M1358.2,648c5.8,0,5.8-9,0-9C1352.4,639,1352.4,648,1358.2,648L1358.2,648z"/>
	<path class="particle1" d="M1356.4,639c5.8,0,5.8-9,0-9C1350.6,630,1350.6,639,1356.4,639L1356.4,639z"/>
	<path class="particle1" d="M1356.9,630.8c5.8,0,5.8-9,0-9C1351.1,621.8,1351.1,630.8,1356.9,630.8L1356.9,630.8z"/>
	<path class="particle1" d="M1355.6,623.1c5.8,0,5.8-9,0-9C1349.9,614.1,1349.8,623.1,1355.6,623.1L1355.6,623.1z"/>
	<path class="particle1" d="M1357.4,614.9c5.8,0,5.8-9,0-9C1351.6,605.9,1351.6,614.9,1357.4,614.9L1357.4,614.9z"/>
	<path class="particle1" d="M1356.9,607.9c5.8,0,5.8-9,0-9C1351.1,598.9,1351.1,607.9,1356.9,607.9L1356.9,607.9z"/>
	<path class="particle1" d="M1357.7,602c5.8,0,5.8-9,0-9C1351.9,593,1351.9,602,1357.7,602L1357.7,602z"/>
	<path class="particle1" d="M1356.7,593c5.8,0,5.8-9,0-9C1350.9,584,1350.9,593,1356.7,593L1356.7,593z"/>
	<path class="particle1" d="M1299.6,692.2c5.8,0,5.8-9,0-9C1293.9,683.2,1293.8,692.2,1299.6,692.2L1299.6,692.2z"/>
	<path class="particle1" d="M1308.6,686.3c5.8,0,5.8-9,0-9C1302.8,677.3,1302.8,686.3,1308.6,686.3L1308.6,686.3z"/>
	<path class="particle1" d="M1318.7,679.9c5.8,0,5.8-9,0-9C1312.9,670.9,1312.9,679.9,1318.7,679.9L1318.7,679.9z"/>
	<path class="particle1" d="M1325.3,675.5c5.8,0,5.8-9,0-9C1319.5,666.5,1319.5,675.5,1325.3,675.5L1325.3,675.5z"/>
	<path class="particle1" d="M1334.3,671.1c5.8,0,5.8-9,0-9C1328.5,662.1,1328.5,671.1,1334.3,671.1L1334.3,671.1z"/>
	<path class="particle1" d="M1344.1,665c5.8,0,5.8-9,0-9C1338.3,656,1338.3,665,1344.1,665L1344.1,665z"/>
	<path class="particle1" d="M1292.7,694.5c5.8,0,5.8-9,0-9C1286.9,685.5,1286.9,694.5,1292.7,694.5L1292.7,694.5z"/>
	<path class="particle1" d="M1291.7,686.8c5.8,0,5.8-9,0-9C1285.9,677.8,1285.9,686.8,1291.7,686.8L1291.7,686.8z"/>
	<path class="particle1" d="M1291.7,675.2c5.8,0,5.8-9,0-9C1285.9,666.2,1285.9,675.2,1291.7,675.2L1291.7,675.2z"/>
	<path class="particle1" d="M1292.2,667c5.8,0,5.8-9,0-9C1286.4,658,1286.4,667,1292.2,667L1292.2,667z"/>
	<path class="particle1" d="M1291.2,653.9c5.8,0,5.8-9,0-9C1285.4,644.9,1285.4,653.9,1291.2,653.9L1291.2,653.9z"/>
	<path class="particle1" d="M1290.7,646.5c5.8,0,5.8-9,0-9C1284.9,637.5,1284.9,646.5,1290.7,646.5L1290.7,646.5z"/>
	<path class="particle1" d="M1289.4,633.6c5.8,0,5.8-9,0-9C1283.6,624.6,1283.6,633.6,1289.4,633.6L1289.4,633.6z"/>
	<path class="particle1" d="M1290.7,621.6c5.8,0,5.8-9,0-9C1284.9,612.6,1284.9,621.6,1290.7,621.6L1290.7,621.6z"/>
	<path class="particle1" d="M1284.8,624.1c5.8,0,5.8-9,0-9C1279,615.1,1279,624.1,1284.8,624.1L1284.8,624.1z"/>
	<path class="particle1" d="M1229.8,655.7c5.8,0,5.8-9,0-9C1224,646.7,1224,655.7,1229.8,655.7L1229.8,655.7z"/>
	<path class="particle1" d="M1231.5,659.2c0.1,0.2,0.2,0.3,0.3,0.5c0.5,1,1.7,1.8,2.7,2.1c1.1,0.3,2.5,0.2,3.5-0.5c1-0.6,1.8-1.5,2.1-2.7
		c0.3-1.2,0.1-2.3-0.5-3.5c-0.1-0.2-0.2-0.3-0.3-0.5c-0.5-1-1.7-1.8-2.7-2.1c-1.1-0.3-2.5-0.2-3.5,0.5c-1,0.6-1.8,1.5-2.1,2.7
		C1230.8,656.9,1231,658,1231.5,659.2L1231.5,659.2z"/>
	<path class="particle1" d="M1239.8,666.5c5.8,0,5.8-9,0-9C1234,657.5,1234,666.5,1239.8,666.5L1239.8,666.5z"/>
	<path class="particle1" d="M1246.7,670.1c5.8,0,5.8-9,0-9C1240.9,661.1,1240.9,670.1,1246.7,670.1L1246.7,670.1z"/>
	<path class="particle1" d="M1260.6,678.3c5.8,0,5.8-9,0-9C1254.8,669.3,1254.8,678.3,1260.6,678.3L1260.6,678.3z"/>
	<path class="particle1" d="M1258.3,676.1c0.7,2.5,2.7,4.6,5.2,5.2c1.2,0.3,2.4,0.2,3.5-0.5c0.9-0.5,1.8-1.6,2.1-2.7
		c0.3-1.2,0.2-2.4-0.5-3.5c-0.6-1-1.5-1.8-2.7-2.1c-0.2,0-0.4-0.1-0.5-0.2c0.4,0.2,0.7,0.3,1.1,0.5c-0.2-0.1-0.4-0.2-0.6-0.4
		c0.3,0.2,0.6,0.5,0.9,0.7c-0.2-0.2-0.3-0.3-0.5-0.5c0.2,0.3,0.5,0.6,0.7,0.9c-0.1-0.2-0.3-0.4-0.4-0.6c0.2,0.4,0.3,0.7,0.5,1.1
		c-0.1-0.1-0.1-0.3-0.1-0.4c-0.3-1.1-1.1-2.1-2.1-2.7c-1-0.6-2.4-0.8-3.5-0.5C1259.1,671.3,1257.6,673.6,1258.3,676.1L1258.3,676.1z
		"/>
	<path class="particle1" d="M1278.1,688.6c5.8,0,5.8-9,0-9C1272.3,679.6,1272.3,688.6,1278.1,688.6L1278.1,688.6z"/>
	<path class="particle1" d="M1280.6,692.2c5.8,0,5.8-9,0-9C1274.9,683.2,1274.8,692.2,1280.6,692.2L1280.6,692.2z"/>
	<path class="particle1" d="M1272.9,684.5c5.8,0,5.8-9,0-9C1267.1,675.5,1267.1,684.5,1272.9,684.5L1272.9,684.5z"/>
	<path class="particle1" d="M1229.6,650.7c0.1-0.2,0.2-0.3,0.3-0.5c0.5-1.1,0.8-2.3,0.5-3.5c-0.3-1-1.1-2.2-2.1-2.7
		c-1-0.6-2.3-0.8-3.5-0.5c-1.1,0.3-2.2,1-2.7,2.1c-0.1,0.2-0.2,0.3-0.3,0.5c-0.5,1.1-0.8,2.3-0.5,3.5c0.3,1,1.1,2.2,2.1,2.7
		c1,0.6,2.3,0.8,3.5,0.5C1227.9,652.4,1229,651.7,1229.6,650.7L1229.6,650.7z"/>
	<path class="particle1" d="M1227.2,636.5c5.8,0,5.8-9,0-9C1221.4,627.5,1221.4,636.5,1227.2,636.5L1227.2,636.5z"/>
	<path class="particle1" d="M1223.9,625.9c5.8,0,5.8-9,0-9C1218.1,616.9,1218.1,625.9,1223.9,625.9L1223.9,625.9z"/>
	<path class="particle1" d="M1225.4,612.6c5.8,0,5.8-9,0-9C1219.6,603.6,1219.6,612.6,1225.4,612.6L1225.4,612.6z"/>
	<path class="particle1" d="M1226.2,602.5c5.8,0,5.8-9,0-9C1220.4,593.5,1220.4,602.5,1226.2,602.5L1226.2,602.5z"/>
	<path class="particle1" d="M1225.7,591c5.8,0,5.8-9,0-9C1219.9,582,1219.9,591,1225.7,591L1225.7,591z"/>
	<path class="particle1" d="M1223.6,581c5.8,0,5.8-9,0-9C1217.8,572,1217.8,581,1223.6,581L1223.6,581z"/>
	<path class="particle1" d="M1286.8,546.6c5.8,0,5.8-9,0-9C1281,537.6,1281,546.6,1286.8,546.6L1286.8,546.6z"/>
	<path class="particle1" d="M1281.7,614.4c5.8,0,5.8-9,0-9C1275.9,605.4,1275.9,614.4,1281.7,614.4L1281.7,614.4z"/>
	<path class="particle1" d="M1256.2,600c5.8,0,5.8-9,0-9C1250.5,591,1250.4,600,1256.2,600L1256.2,600z"/>
	<path class="particle1" d="M1235.4,587.4c5.8,0,5.8-9,0-9C1229.6,578.4,1229.6,587.4,1235.4,587.4L1235.4,587.4z"/>
	<path class="particle1" d="M1275.5,608.2c5.8,0,5.8-9,0-9C1269.7,599.2,1269.7,608.2,1275.5,608.2L1275.5,608.2z"/>
	<path class="particle1" d="M1255.2,598.4c5.8,0,5.8-9,0-9C1249.4,589.4,1249.4,598.4,1255.2,598.4L1255.2,598.4z"/>
	<path class="particle1" d="M1249.6,593.6c0.2,0,0.3,0,0.5,0c1.2,0,2.4-0.5,3.2-1.3c0.8-0.8,1.4-2.1,1.3-3.2c-0.1-1.2-0.4-2.4-1.3-3.2
		c-0.9-0.8-2-1.3-3.2-1.3c-0.2,0-0.3,0-0.5,0c-1.2,0-2.4,0.5-3.2,1.3c-0.8,0.8-1.4,2.1-1.3,3.2c0.1,1.2,0.4,2.4,1.3,3.2
		C1247.3,593,1248.3,593.6,1249.6,593.6L1249.6,593.6z"/>
	<path class="particle1" d="M1262.4,602c5.8,0,5.8-9,0-9C1256.6,593,1256.6,602,1262.4,602L1262.4,602z"/>
	<path class="particle1" d="M1239.8,589.4c0.2,0,0.3,0,0.5,0c1.2,0,2.4-0.5,3.2-1.3c0.8-0.8,1.4-2.1,1.3-3.2c-0.1-1.2-0.4-2.4-1.3-3.2
		c-0.9-0.8-2-1.3-3.2-1.3c-0.2,0-0.3,0-0.5,0c-1.2,0-2.4,0.5-3.2,1.3c-0.8,0.8-1.4,2.1-1.3,3.2c0.1,1.2,0.4,2.4,1.3,3.2
		C1237.5,588.9,1238.6,589.4,1239.8,589.4L1239.8,589.4z"/>
	<path class="particle1" d="M1241.9,592.5c5.8,0,5.8-9,0-9C1236.1,583.5,1236.1,592.5,1241.9,592.5L1241.9,592.5z"/>
	<path class="particle2" d="M1291.2,622.5c9.7,0,9.7-15,0-15C1281.5,607.5,1281.5,622.5,1291.2,622.5L1291.2,622.5z"/>
	<path class="particle2" d="M1317.1,681.4c7.7,0,7.7-12,0-12C1309.4,669.4,1309.4,681.4,1317.1,681.4L1317.1,681.4z"/>
	<path class="particle2" d="M1291.7,696c7.7,0,7.7-12,0-12C1284,684,1284,696,1291.7,696L1291.7,696z"/>
	<path class="particle2" d="M1292.5,669.5c7.7,0,7.7-12,0-12C1284.7,657.5,1284.7,669.5,1292.5,669.5L1292.5,669.5z"/>
	<path class="particle2" d="M1291.2,650.5c7.7,0,7.7-12,0-12C1283.5,638.5,1283.4,650.5,1291.2,650.5L1291.2,650.5z"/>
	<path class="particle2" d="M1290.9,633.8c7.7,0,7.7-12,0-12C1283.2,621.8,1283.2,633.8,1290.9,633.8L1290.9,633.8z"/>
	<path class="particle2" d="M1291.7,546.3c7.7,0,7.7-12,0-12C1284,534.3,1284,546.3,1291.7,546.3L1291.7,546.3z"/>
	<path class="particle2" d="M1228.2,584c7.7,0,7.7-12,0-12C1220.5,572,1220.5,584,1228.2,584L1228.2,584z"/>
	<path class="particle2" d="M1247.8,596.3c7.7,0,7.7-12,0-12C1240,584.3,1240,596.3,1247.8,596.3L1247.8,596.3z"/>
	<path class="particle2" d="M1356.9,633.1c7.7,0,7.7-12,0-12C1349.2,621.1,1349.2,633.1,1356.9,633.1L1356.9,633.1z"/>
	<path class="particle2" d="M1357.4,608.7c7.7,0,7.7-12,0-12C1349.7,596.7,1349.7,608.7,1357.4,608.7L1357.4,608.7z"/>
	<path class="particle2" d="M1355.6,587.4c7.7,0,7.7-12,0-12C1347.9,575.4,1347.9,587.4,1355.6,587.4L1355.6,587.4z"/>
	<path class="particle2" d="M1250.1,674.7c7.7,0,7.7-12,0-12C1242.4,662.7,1242.3,674.7,1250.1,674.7L1250.1,674.7z"/>
	<path class="particle2" d="M1231.6,663.6c7.7,0,7.7-12,0-12C1223.9,651.6,1223.9,663.6,1231.6,663.6L1231.6,663.6z"/>
	<path class="particle2" d="M1225.2,640.8c7.7,0,7.7-12,0-12C1217.4,628.8,1217.4,640.8,1225.2,640.8L1225.2,640.8z"/>
	<path class="particle2" d="M1224.6,596.6c7.7,0,7.7-12,0-12C1216.9,584.6,1216.9,596.6,1224.6,596.6L1224.6,596.6z"/>
	<path class="particle2" d="M1341.8,669c7.7,0,7.7-12,0-12C1334.1,657,1334,669,1341.8,669L1341.8,669z"/>
	<path class="particle2" d="M1335.6,570.7c7.7,0,7.7-12,0-12C1327.9,558.7,1327.9,570.7,1335.6,570.7L1335.6,570.7z"/>
	<path class="particle2" d="M1320.5,562.4c7.7,0,7.7-12,0-12C1312.7,550.4,1312.7,562.4,1320.5,562.4L1320.5,562.4z"/>
	<path class="particle2" d="M1306.8,554.5c7.7,0,7.7-12,0-12C1299.1,542.5,1299.1,554.5,1306.8,554.5L1306.8,554.5z"/>
	<path class="particle2" d="M1267.3,607.1c7.7,0,7.7-12,0-12C1259.6,595.1,1259.6,607.1,1267.3,607.1L1267.3,607.1z"/>
	<path class="particle2" d="M1276.3,612.5c7.7,0,7.7-12,0-12C1268.6,600.5,1268.5,612.5,1276.3,612.5L1276.3,612.5z"/>
	<path class="particle2" d="M1356.9,643.9c7.7,0,7.7-12,0-12C1349.2,631.9,1349.2,643.9,1356.9,643.9L1356.9,643.9z"/>
	<path class="particle2" d="M1356.2,657.7c7.7,0,7.7-12,0-12C1348.4,645.7,1348.4,657.7,1356.2,657.7L1356.2,657.7z"/>
	<path class="particle2" d="M1290.5,553.5c11.6,0,11.6-18,0-18C1278.9,535.5,1278.9,553.5,1290.5,553.5L1290.5,553.5z"/>
	<path class="particle2" d="M1226.5,587.4c11.6,0,11.6-18,0-18C1214.9,569.4,1214.9,587.4,1226.5,587.4L1226.5,587.4z"/>
	<path class="particle2" d="M1286.8,622.7c11.6,0,11.6-18,0-18C1275.2,604.7,1275.2,622.7,1286.8,622.7L1286.8,622.7z"/>
	<path class="particle2" d="M1289.8,630.6c11.6,0,11.6-18,0-18C1278.3,612.6,1278.2,630.6,1289.8,630.6L1289.8,630.6z"/>
	<path class="particle2" d="M1290.5,665.1c11.6,0,11.6-18,0-18C1278.9,647.1,1278.9,665.1,1290.5,665.1L1290.5,665.1z"/>
	<path class="particle2" d="M1292.6,697.3c11.6,0,11.6-18,0-18C1281,679.3,1281,697.3,1292.6,697.3L1292.6,697.3z"/>
	<path class="particle2" d="M1284,696.7c11.6,0,11.6-18,0-18C1272.4,678.7,1272.4,696.7,1284,696.7L1284,696.7z"/>
	<path class="particle2" d="M1298.4,695.6c11.6,0,11.6-18,0-18C1286.8,677.6,1286.8,695.6,1298.4,695.6L1298.4,695.6z"/>
	<path class="particle2" d="M1349.8,664.8c11.6,0,11.6-18,0-18C1338.2,646.8,1338.2,664.8,1349.8,664.8L1349.8,664.8z"/>
	<path class="particle2" d="M1356.3,659.7c11.6,0,11.6-18,0-18C1344.7,641.7,1344.7,659.7,1356.3,659.7L1356.3,659.7z"/>
	<path class="particle2" d="M1355.9,630.9c11.6,0,11.6-18,0-18C1344.4,612.9,1344.3,630.9,1355.9,630.9L1355.9,630.9z"/>
	<path class="particle2" d="M1355.6,591.2c11.6,0,11.6-18,0-18C1344,573.2,1344,591.2,1355.6,591.2L1355.6,591.2z"/>
	<path class="particle2" d="M1316.9,564.1c11.6,0,11.6-18,0-18C1305.3,546.1,1305.3,564.1,1316.9,564.1L1316.9,564.1z"/>
	<path class="particle2" d="M1224.4,651.8c11.6,0,11.6-18,0-18C1212.8,633.8,1212.8,651.8,1224.4,651.8L1224.4,651.8z"/>
	<path class="particle2" d="M1226.5,625.8c11.6,0,11.6-18,0-18C1214.9,607.8,1214.9,625.8,1226.5,625.8L1226.5,625.8z"/>
	<path class="particle2" d="M1241.5,672.7c11.6,0,11.6-18,0-18C1230,654.7,1229.9,672.7,1241.5,672.7L1241.5,672.7z"/>
	<path class="particle2" d="M1263.5,686c11.6,0,11.6-18,0-18C1251.9,668,1251.9,686,1263.5,686L1263.5,686z"/>
	<path class="particle2" d="M1275.1,693.6c11.6,0,11.6-18,0-18C1263.5,675.6,1263.5,693.6,1275.1,693.6L1275.1,693.6z"/>
	<path class="particle2" d="M1325.1,681.6c11.6,0,11.6-18,0-18C1313.5,663.6,1313.5,681.6,1325.1,681.6L1325.1,681.6z"/>
	<path class="particle2" d="M1313.5,690.1c11.6,0,11.6-18,0-18C1301.9,672.1,1301.9,690.1,1313.5,690.1L1313.5,690.1z"/>
	<path class="particle2" d="M1291.2,642.5c11.6,0,11.6-18,0-18C1279.6,624.5,1279.6,642.5,1291.2,642.5L1291.2,642.5z"/>
</g>
</svg>
