<?xml version="1.0" encoding="utf-8"?>
<!-- Generator: Adobe Illustrator 22.1.0, SVG Export Plug-In . SVG Version: 6.00 Build 0)  -->
<svg version="1.1" id="Layer_1" xmlns="http://www.w3.org/2000/svg" xmlns:xlink="http://www.w3.org/1999/xlink" x="0px" y="0px"
	 viewBox="0 0 52 52.3" style="enable-background:new 0 0 52 52.3;" xml:space="preserve">
<style type="text/css">
	.particle0{opacity:0.8;fill:#FFFFFF;}
</style>
<path class="particle0" d="M10.7,35.7v-5.8c0-0.4-0.3-0.7-0.7-0.7c-0.4,0-0.7,0.3-0.7,0.7v5.8c0,0.4,0.3,0.7,0.7,0.7
	C10.4,36.4,10.7,36.1,10.7,35.7"/>
<path class="particle0" d="M5.2,36.4c0.4,0,0.7-0.3,0.7-0.7v-2.4c0-0.4-0.3-0.7-0.7-0.7c-0.4,0-0.7,0.3-0.7,0.7v2.4
	C4.5,36.1,4.8,36.4,5.2,36.4"/>
<path class="particle0" d="M14.2,31.9v3.8c0,0.4,0.3,0.7,0.7,0.7c0.4,0,0.7-0.3,0.7-0.7v-3.8c0-0.4-0.3-0.7-0.7-0.7
	C14.5,31.2,14.2,31.5,14.2,31.9"/>
<path class="particle0" d="M19,28.5v7.2c0,0.4,0.3,0.7,0.7,0.7c0.4,0,0.7-0.3,0.7-0.7v-7.2c0-0.4-0.3-0.7-0.7-0.7
	C19.3,27.8,19,28.1,19,28.5"/>
<path class="particle0" d="M24.5,29.2c-0.4,0-0.7,0.3-0.7,0.7v5.9c0,0.4,0.3,0.7,0.7,0.7c0.4,0,0.7-0.3,0.7-0.7v-5.9
	C25.1,29.5,24.8,29.2,24.5,29.2"/>
<path class="particle0" d="M29.3,25.7c-0.4,0-0.7,0.3-0.7,0.7v9.3c0,0.4,0.3,0.7,0.7,0.7c0.4,0,0.7-0.3,0.7-0.7v-9.3
	C30,26,29.7,25.7,29.3,25.7"/>
<path class="particle0" d="M29.3,16.6h-9.4c-0.4,0-0.7,0.3-0.7,0.7c0,0.4,0.3,0.7,0.7,0.7h9.4c0.4,0,0.7-0.3,0.7-0.7
	C30,16.9,29.7,16.6,29.3,16.6"/>
<path class="particle0" d="M15.1,18h1.2c0.4,0,0.7-0.3,0.7-0.7c0-0.4-0.3-0.7-0.7-0.7h-1.2c-0.4,0-0.7,0.3-0.7,0.7
	C14.5,17.7,14.8,18,15.1,18"/>
<path class="particle0" d="M15.1,23.5h9.3c0.4,0,0.7-0.3,0.7-0.7c0-0.4-0.3-0.7-0.7-0.7h-9.3c-0.4,0-0.7,0.3-0.7,0.7
	C14.5,23.1,14.8,23.5,15.1,23.5"/>
<path class="particle0" d="M30,39.1c0-0.4-0.3-0.7-0.7-0.7H5.2c-0.4,0-0.7,0.3-0.7,0.7c0,0.4,0.3,0.7,0.7,0.7h24.1
	C29.6,39.8,30,39.5,30,39.1"/>
<path class="particle0" d="M48.7,16.6h-7.5V7.5c0-2.8-2.3-5-5-5H10c-2.8,0-5,2.3-5,5c0,2.5,1.9,4.6,4.4,5v14c0,0.4,0.3,0.7,0.7,0.7
	c0.4,0,0.7-0.3,0.7-0.7V12.5h25.5c0.4,0,0.7-0.3,0.7-0.7c0-0.4-0.3-0.7-0.7-0.7c-2,0-3.7-1.6-3.7-3.7c0-2,1.6-3.7,3.7-3.7
	s3.7,1.6,3.7,3.7v9.1h-5.8c-0.4,0-0.7,0.3-0.7,0.7v21.8c0,0.4,0.3,0.7,0.7,0.7h5.8v6.3l-29.2,0v-3.5c0-0.4-0.3-0.7-0.7-0.7
	c-0.4,0-0.7,0.3-0.7,0.7v4.2c0,0.2,0.1,0.4,0.2,0.5c0.1,0.1,0.3,0.2,0.5,0.2l30.5,0c0.4,0,0.7-0.3,0.7-0.7v-7h7.5
	c0.4,0,0.7-0.3,0.7-0.7V17.3C49.4,16.9,49.1,16.6,48.7,16.6 M31.2,7.5c0,1.4,0.6,2.7,1.6,3.7H10c-2,0-3.7-1.6-3.7-3.7
	c0-2,1.6-3.7,3.7-3.7h22.7C31.8,4.7,31.2,6,31.2,7.5 M48.1,22.8H34.8V18h13.3V22.8z M34.8,24.1h13.3v14.3H34.8V24.1z"/>
<path class="particle0" d="M37.7,26.7c-0.4,0-0.7,0.3-0.7,0.7s0.3,0.7,0.7,0.7c0.4,0,0.7-0.3,0.7-0.7S38.1,26.7,37.7,26.7"/>
<path class="particle0" d="M45.1,26.7c-0.4,0-0.7,0.3-0.7,0.7s0.3,0.7,0.7,0.7c0.4,0,0.7-0.3,0.7-0.7S45.5,26.7,45.1,26.7"/>
<path class="particle0" d="M41.4,26.7c-0.4,0-0.7,0.3-0.7,0.7s0.3,0.7,0.7,0.7s0.7-0.3,0.7-0.7S41.8,26.7,41.4,26.7"/>
<path class="particle0" d="M45.1,30.6c-0.4,0-0.7,0.3-0.7,0.7c0,0.4,0.3,0.7,0.7,0.7c0.4,0,0.7-0.3,0.7-0.7C45.8,30.9,45.5,30.6,45.1,30.6
	"/>
<path class="particle0" d="M37.7,30.6c-0.4,0-0.7,0.3-0.7,0.7c0,0.4,0.3,0.7,0.7,0.7c0.4,0,0.7-0.3,0.7-0.7C38.4,30.9,38.1,30.6,37.7,30.6
	"/>
<path class="particle0" d="M41.4,30.6c-0.4,0-0.7,0.3-0.7,0.7c0,0.4,0.3,0.7,0.7,0.7s0.7-0.3,0.7-0.7C42.1,30.9,41.8,30.6,41.4,30.6"/>
<path class="particle0" d="M37.7,34.5c-0.4,0-0.7,0.3-0.7,0.7s0.3,0.7,0.7,0.7c0.4,0,0.7-0.3,0.7-0.7S38.1,34.5,37.7,34.5"/>
<path class="particle0" d="M45.1,34.5c-0.4,0-0.7,0.3-0.7,0.7s0.3,0.7,0.7,0.7c0.4,0,0.7-0.3,0.7-0.7S45.5,34.5,45.1,34.5"/>
<path class="particle0" d="M41.4,34.5c-0.4,0-0.7,0.3-0.7,0.7s0.3,0.7,0.7,0.7s0.7-0.3,0.7-0.7S41.8,34.5,41.4,34.5"/>
</svg>
