<?xml version="1.0" encoding="utf-8"?>
<!-- Generator: Adobe Illustrator 22.1.0, SVG Export Plug-In . SVG Version: 6.00 Build 0)  -->
<svg version="1.1" id="Layer_7" xmlns="http://www.w3.org/2000/svg" xmlns:xlink="http://www.w3.org/1999/xlink" x="0px" y="0px"
	 viewBox="0 0 59.5 54" style="enable-background:new 0 0 59.5 54;" xml:space="preserve">
<style type="text/css">
	.particle0{opacity:0.8;fill:#FFFFFF;}
</style>
<path class="particle0" d="M31.8,24.8c2.1,0,2.5,1.2,2.5,2.2c0,1.2-1.1,2.2-2.5,2.2c-1.1,0-2-0.6-2.4-1.5c-0.2-0.4-0.7-0.6-1.1-0.4
	c-0.4,0.2-0.6,0.7-0.4,1.1c0.5,1.2,1.7,2.1,3,2.4v0.9c0,0.5,0.4,0.8,0.8,0.8c0.5,0,0.8-0.4,0.8-0.8v-0.9c1.9-0.3,3.4-1.9,3.4-3.8
	c0-1.9-1.1-3.9-4.2-3.9c-1.7,0-2.5-0.8-2.5-2.2c0-1.2,1.1-2.2,2.5-2.2c1.1,0,2,0.6,2.4,1.5c0.2,0.4,0.7,0.6,1.1,0.4
	c0.4-0.2,0.6-0.7,0.4-1.1c-0.5-1.3-1.7-2.1-3.1-2.4v-0.9c0-0.5-0.4-0.8-0.8-0.8c-0.5,0-0.8,0.4-0.8,0.8v0.9
	c-1.9,0.4-3.3,1.9-3.3,3.8C27.6,22.9,28.7,24.8,31.8,24.8"/>
<path class="particle0" d="M21.1,15.7v-2.3h2.3c0.5,0,0.8-0.4,0.8-0.8c0-0.5-0.4-0.8-0.8-0.8h-2.3V9.5c0-0.5-0.4-0.8-0.8-0.8
	c-0.5,0-0.8,0.4-0.8,0.8v2.3h-2.3c-0.5,0-0.8,0.4-0.8,0.8c0,0.5,0.4,0.8,0.8,0.8h2.3v2.3c0,0.5,0.4,0.8,0.8,0.8
	C20.8,16.5,21.1,16.1,21.1,15.7"/>
<path class="particle0" d="M55.9,35.9c-0.5-0.4-1.1-0.5-1.8-0.4c-0.1-0.7-0.3-1.4-0.7-1.9c-0.6-0.7-1.5-1.1-2.5-1.1
	c-1.1,0-2.5,0.5-4.2,1.2c-1.7,0.7-3.9,1.5-6.5,2.1c-0.1-0.1-0.2-0.2-0.3-0.3c3.6-2.5,6-6.7,6-11.5c0-7.7-6.3-14-14-14
	c-1.3,0-2.6,0.2-3.9,0.6c-0.9-3.4-4-5.9-7.6-5.9c-4.3,0-7.9,3.5-7.9,7.9c0,3.6,2.5,6.7,5.9,7.6c-0.4,1.2-0.6,2.5-0.6,3.9
	c0,2.6,0.7,5.1,2,7.2c-1.5-0.1-3.3-0.3-5.5-0.3c-1,0-2,0.3-2.7,1c-0.3-0.6-1-1-1.7-1H4.8c-1.1,0-1.9,0.9-1.9,1.9v13.1
	c0,1.1,0.9,1.9,1.9,1.9h5.1c0.7,0,1.3-0.4,1.7-1c0.4,0.4,1,0.7,1.6,0.8c3.2,0.9,8.6,2,15,2c8.3,0,18.2-1.9,26.9-8.7
	c0.2-0.1,1.9-1.4,2-3C57,37.5,56.8,36.7,55.9,35.9 M47.2,35.2c1.6-0.6,2.8-1.1,3.7-1.1h0c0.5,0,0.9,0.2,1.2,0.5
	c0.3,0.3,0.4,0.8,0.4,1.4c-0.5,0.2-1.1,0.5-1.8,0.7c-2.2,0.9-5.3,2.2-9.6,3.3c0.1-0.3,0.1-0.5,0.2-0.8c0-0.8,0-1.4-0.2-2
	C43.5,36.6,45.5,35.8,47.2,35.2 M14.1,12.6c0-3.4,2.8-6.2,6.2-6.2c3.4,0,6.2,2.8,6.2,6.2c0,3.4-2.8,6.2-6.2,6.2
	C16.9,18.8,14.1,16,14.1,12.6 M19.4,24c0-1.3,0.2-2.5,0.6-3.6c0.1,0,0.3,0,0.4,0c4.3,0,7.9-3.5,7.9-7.9c0-0.1,0-0.3,0-0.4
	c1.1-0.4,2.3-0.6,3.6-0.6c6.8,0,12.4,5.6,12.4,12.4c0,4.6-2.5,8.6-6.3,10.8c-0.3,0-0.5,0-0.5,0c-7.5,0.1-8.7-0.7-10.2-1.5
	c-1.1-0.6-2.2-1.3-5.3-1.8C20.3,29.4,19.4,26.8,19.4,24 M10.1,45.9c0,0.2-0.1,0.3-0.3,0.3H4.8c-0.2,0-0.3-0.1-0.3-0.3V32.8
	c0-0.2,0.1-0.3,0.3-0.3h5.1c0.2,0,0.3,0.1,0.3,0.3V45.9z M54,39.7c-14.8,11.6-33.2,8.4-40.5,6.5c-1-0.3-1.7-1.2-1.7-2.2l0-9.1
	c0-0.6,0.3-1.2,0.7-1.6c0.4-0.4,1-0.7,1.6-0.7c0,0,0,0,0.1,0c9,0.2,10.7,1.2,12.2,2.1c1.7,1,3.1,1.8,11.1,1.8c0,0,0.9,0,1.5,0.6
	c0.4,0.5,0.6,1.2,0.6,2.2c0,0.2-0.1,1-1.5,1.5c0,0,0,0,0,0c0,0,0,0,0,0c-1.5,0.6-4.9,1.1-12.2,0.1c-0.5-0.1-0.9,0.3-0.9,0.7
	c-0.1,0.4,0.3,0.9,0.7,0.9c2.9,0.4,5.3,0.6,7.4,0.6c2.3,0,4.2-0.2,5.5-0.7c6-1.2,10.1-2.9,12.8-4c1.7-0.7,3.2-1.4,3.6-1.1
	c0.4,0.3,0.4,0.6,0.4,0.8C55.3,38.6,54.4,39.4,54,39.7"/>
<path class="particle0" d="M7.3,42.4c-0.5,0-0.9,0.4-0.9,0.9s0.4,0.9,0.9,0.9c0.5,0,0.9-0.4,0.9-0.9S7.8,42.4,7.3,42.4"/>
</svg>
