<?xml version="1.0" encoding="utf-8"?>
<!-- Generator: Adobe Illustrator 22.1.0, SVG Export Plug-In . SVG Version: 6.00 Build 0)  -->
<svg version="1.1" id="Layer_4" xmlns="http://www.w3.org/2000/svg" xmlns:xlink="http://www.w3.org/1999/xlink" x="0px" y="0px"
	 viewBox="0 0 57.5 48.5" style="enable-background:new 0 0 57.5 48.5;" xml:space="preserve">
<style type="text/css">
	.particle0{opacity:0.8;fill:#FFFFFF;}
</style>
<path class="particle0" d="M41.1,5.7c-1.6,0-3.2,0.3-4.7,0.8c-0.4,0.1-0.6,0.6-0.5,1c0.1,0.4,0.6,0.6,1,0.5c1.4-0.5,2.8-0.7,4.2-0.7
	c6.9,0,12.5,5.6,12.5,12.5c0,5.3-3.4,10.1-8.4,11.8c-0.4,0.1-0.6,0.6-0.5,1c0.1,0.3,0.4,0.5,0.7,0.5c0.1,0,0.2,0,0.3,0
	c5.6-2,9.4-7.3,9.4-13.3C55.2,12,48.9,5.7,41.1,5.7"/>
<path class="particle0" d="M41.1,19c-2.1,0-2.6-1.2-2.6-2.3c0-1.3,1.2-2.3,2.6-2.3c1.1,0,2.1,0.6,2.4,1.5c0.2,0.4,0.6,0.6,1,0.4
	c0.4-0.2,0.6-0.6,0.4-1c-0.5-1.3-1.7-2.1-3.1-2.4v-1c0-0.4-0.3-0.8-0.8-0.8c-0.4,0-0.8,0.3-0.8,0.8v1c-1.9,0.3-3.4,1.9-3.4,3.7
	c0,1.8,1.1,3.8,4.1,3.8c2.2,0,2.6,1.2,2.6,2.3c0,1.3-1.2,2.3-2.6,2.3c-1.1,0-2.1-0.6-2.4-1.5c-0.2-0.4-0.6-0.6-1-0.4
	c-0.4,0.2-0.6,0.6-0.4,1c0.5,1.2,1.7,2.1,3.1,2.4v1c0,0.4,0.3,0.8,0.8,0.8c0.4,0,0.8-0.3,0.8-0.8v-1c1.9-0.3,3.4-1.9,3.4-3.7
	C45.2,21,44.2,19,41.1,19"/>
<path class="particle0" d="M38.7,30.1c-1.3-0.7-2.8-1.3-4.3-1.8c-0.7-0.2-1.3-0.4-1.9-0.6c-0.8-0.2-1.6-0.4-2.3-0.6
	c-0.8-0.8-1.1-1.7-1.3-2.5c1.8-1.4,3.2-3.5,3.9-6c0.3,0,0.7-0.2,1-0.4c0.7-0.5,1.1-1.6,1.2-2.7c0.2-1.7-0.5-3.2-1.6-3.5
	c0-0.2,0-0.3,0-0.5c0.2-0.8,0.7-4.2-1.4-6.9c-1.6-2.1-4.4-3.1-8.2-3.1s-6.6,1.1-8.2,3.1c-2.2,2.8-1.6,6.3-1.4,7c0,0.1,0,0.3,0,0.5
	c-1.1,0.3-1.7,1.8-1.6,3.5c0.1,1.1,0.6,2.2,1.2,2.7c0.3,0.2,0.6,0.4,1,0.4c0.8,2.5,2.1,4.6,3.9,6c-0.2,0.8-0.6,1.8-1.4,2.6
	c-1.4,0.2-2.2,0.4-2.2,0.5c-0.6,0.2-1.2,0.3-1.9,0.6c-1.6,0.5-3,1.1-4.3,1.8c-2.3,1.2-3.8,3.6-3.8,6.2v2.6c0,1.8,1,3.4,2.5,4.2
	c3,1.6,8.2,3.4,16.3,3.4c8.2,0,13.4-1.9,16.3-3.4c1.5-0.8,2.5-2.4,2.5-4.2v-2.6C42.5,33.7,41.1,31.3,38.7,30.1 M16.7,5.5
	C18,3.9,20.4,3,23.7,3c3.3,0,5.7,0.9,7,2.5C31.9,7,32,8.8,32,10c-1.1-0.5-2.1-0.7-2.6-0.9l-0.7-2.4c-0.1-0.3-0.3-0.5-0.6-0.5
	c-0.3,0-0.6,0.1-0.7,0.3l-1.6,2c-1.4-0.1-6.1-0.3-10.3,1.8C15.3,9.1,15.4,7.1,16.7,5.5 M16,17.7c-0.1-0.2-0.2-0.4-0.4-0.5
	c-0.2-0.1-0.5-0.1-0.7,0c-0.1,0-0.1,0-0.2-0.1c-0.3-0.2-0.6-0.8-0.7-1.7c-0.1-1.1,0.3-1.9,0.6-1.9c0.2,0.1,0.5,0,0.7-0.1
	c0.2-0.1,0.3-0.4,0.3-0.6c0-0.1,0-0.5,0-0.8c4.6-2.5,10.4-1.9,10.4-1.9c0.3,0,0.5-0.1,0.7-0.3l0.9-1.2L28,10
	c0.1,0.3,0.3,0.5,0.6,0.5c0,0,1.5,0.3,3.2,1.1c0,0,0,0,0,0c0,0.4,0,0.9,0,1.1c0,0.2,0.1,0.5,0.3,0.6c0.2,0.1,0.5,0.2,0.7,0.1
	c0.2,0,0.6,0.8,0.5,1.9c-0.1,0.8-0.4,1.4-0.7,1.7c-0.1,0.1-0.1,0.1-0.2,0.1c-0.2-0.1-0.4-0.1-0.7,0c-0.2,0.1-0.4,0.3-0.4,0.5
	c-0.7,2.6-2,4.7-3.8,6.1c-2.4,1.7-5.4,1.7-7.8,0C18,22.4,16.6,20.2,16,17.7 M19.9,25.6c1.2,0.6,2.5,1,3.8,1c1.3,0,2.6-0.3,3.8-1
	c0.3,0.9,0.7,1.8,1.5,2.6c-0.4,0.9-2.9,2.1-5.3,2.8c-2.3-0.7-4.8-1.9-5.3-2.8C19.2,27.4,19.7,26.5,19.9,25.6 M41,38.9
	c0,1.2-0.6,2.3-1.7,2.8c-2.3,1.2-7.4,3.2-15.6,3.2s-13.3-2-15.6-3.2c-1-0.5-1.7-1.6-1.7-2.8v-2.6c0-2,1.1-3.9,3-4.8
	c1.2-0.6,2.6-1.2,4.1-1.7c0.7-0.2,1.3-0.4,1.9-0.5c0,0,0.7-0.2,1.8-0.4c0.8,1.5,3.4,2.6,5.1,3.2l-2,1.9l-2.7-2.5
	c-0.3-0.3-0.8-0.3-1.1,0c-0.3,0.3-0.3,0.8,0,1.1l3.2,3c0.1,0.1,0.3,0.2,0.5,0.2c0.2,0,0.4-0.1,0.5-0.2l0.2-0.2l0.5,0.6l-1.3,6.4
	c-0.1,0.4,0.2,0.8,0.6,0.9c0.1,0,0.1,0,0.2,0c0.4,0,0.7-0.2,0.7-0.6l1.4-6.8c0-0.2,0-0.5-0.2-0.6l-0.8-0.9l1.6-1.5l1.6,1.5l-0.8,0.9
	c-0.1,0.2-0.2,0.4-0.2,0.6l1.4,6.8c0.1,0.4,0.4,0.6,0.7,0.6c0,0,0.1,0,0.2,0c0.4-0.1,0.7-0.5,0.6-0.9L25.9,36l0.5-0.6l0.2,0.2
	c0.1,0.1,0.3,0.2,0.5,0.2c0.2,0,0.4-0.1,0.5-0.2l3.2-3c0.3-0.3,0.3-0.8,0-1.1c-0.3-0.3-0.8-0.3-1.1,0L27.1,34l-0.3-0.3h0l-1.7-1.6
	c1.8-0.6,4.4-1.7,5.2-3.3c0.6,0.1,1.2,0.3,1.7,0.4c0.6,0.1,1.2,0.3,1.9,0.5c1.5,0.5,2.9,1,4.1,1.7c1.8,0.9,3,2.8,3,4.8V38.9z"/>
</svg>
