<?xml version="1.0" encoding="utf-8"?>
<!-- Generator: Adobe Illustrator 22.1.0, SVG Export Plug-In . SVG Version: 6.00 Build 0)  -->
<svg version="1.1" id="Layer_5" xmlns="http://www.w3.org/2000/svg" xmlns:xlink="http://www.w3.org/1999/xlink" x="0px" y="0px"
	 viewBox="0 0 56 52.7" style="enable-background:new 0 0 56 52.7;" xml:space="preserve">
<style type="text/css">
	.particle0{opacity:0.8;fill:#FFFFFF;}
</style>
<path class="particle0" d="M28.2,10.1c2.4,0,4.4-2,4.4-4.4c0-2.4-2-4.4-4.4-4.4c-2.4,0-4.4,2-4.4,4.4C23.8,8.2,25.7,10.1,28.2,10.1
	 M28.2,2.8c1.6,0,3,1.3,3,3s-1.3,3-3,3c-1.6,0-3-1.3-3-3S26.6,2.8,28.2,2.8"/>
<path class="particle0" d="M28.2,26.5c0.4,0,0.7-0.3,0.7-0.7v-8.6c0-0.4-0.3-0.7-0.7-0.7c-0.4,0-0.7,0.3-0.7,0.7v8.6
	C27.5,26.1,27.8,26.5,28.2,26.5"/>
<path class="particle0" d="M52,29.7c0,0,0-0.1,0-0.1c0,0,0-0.1,0-0.1c0,0,0,0,0,0l-5.8-11.8c1.4-0.1,2.6-1.3,2.6-2.8
	c0-1.6-1.3-2.8-2.8-2.8H33.6H22.8H10.5c-1.6,0-2.8,1.3-2.8,2.8c0,1.5,1.1,2.7,2.6,2.8L4.5,29.4c0,0,0,0,0,0c0,0,0,0.1,0,0.1
	c0,0,0,0.1,0,0.1c0,0,0,0,0,0c0,3.9,3.1,7,6.9,7s6.9-3.2,6.9-7c0,0,0,0,0,0c0,0,0-0.1,0-0.1c0,0,0-0.1,0-0.1c0,0,0,0,0,0l-5.8-11.8
	h9.7v12.1v16.2c0,1.9,1.5,3.4,3.4,3.4c1.1,0,2.1-0.5,2.7-1.3c0.6,0.8,1.6,1.3,2.7,1.3c1.9,0,3.4-1.5,3.4-3.4V29.8V17.7H44l-5.8,11.8
	c0,0,0,0,0,0c0,0,0,0.1,0,0.1c0,0,0,0.1,0,0.1c0,0,0,0,0,0c0,3.9,3.1,7,6.9,7C48.9,36.8,52,33.6,52,29.7C52,29.8,52,29.7,52,29.7
	 M9.1,14.9c0-0.8,0.6-1.4,1.4-1.4h12.3h4.6v0.9c0,0.4,0.3,0.7,0.7,0.7c0.4,0,0.7-0.3,0.7-0.7v-0.9h4.6h12.3c0.8,0,1.4,0.6,1.4,1.4
	c0,0.8-0.6,1.4-1.4,1.4H33.6c-0.4,0-0.7,0.3-0.7,0.7V29h-9.3V17c0-0.4-0.3-0.7-0.7-0.7H10.5C9.8,16.2,9.1,15.6,9.1,14.9 M11.3,35.3
	c-2.8,0-5.1-2.1-5.4-4.8h10.8C16.4,33.2,14.1,35.3,11.3,35.3 M6.3,29l5-10.2l5,10.2H6.3z M32.8,45.9c0,1.1-0.9,1.9-2,1.9
	c-1.1,0-2-0.9-2-1.9V33.3c0-0.4-0.3-0.7-0.7-0.7c-0.4,0-0.7,0.3-0.7,0.7v12.6c0,1.1-0.9,1.9-2,1.9c-1.1,0-2-0.9-2-1.9V30.5h9.3V45.9
	z M50.1,29H40l5-10.2L50.1,29z M45.1,35.3c-2.8,0-5.1-2.1-5.4-4.8h10.8C50.1,33.2,47.8,35.3,45.1,35.3"/>
</svg>
