<?xml version="1.0" encoding="utf-8"?>
<!-- Generator: Adobe Illustrator 22.1.0, SVG Export Plug-In . SVG Version: 6.00 Build 0)  -->
<svg version="1.1" id="Layer_6" xmlns="http://www.w3.org/2000/svg" xmlns:xlink="http://www.w3.org/1999/xlink" x="0px" y="0px"
	 viewBox="0 0 56.3 54.8" style="enable-background:new 0 0 56.3 54.8;" xml:space="preserve">
<style type="text/css">
	.particle0{opacity:0.8;fill:#FFFFFF;}
</style>
<path class="particle0" d="M49.9,26.7c-0.2-0.3-0.7-0.5-1-0.2l-6.3,3.8c-0.2,0.1-0.3,0.4-0.3,0.6c0,0.2,0.1,0.5,0.3,0.6
	c1.4,0.9,3.1,2.2,3.4,2.7c0.7,1.1,0.3,2.6-0.8,3.2c-0.5,0.3-1.2,0.4-1.8,0.3c-0.6-0.2-1.1-0.5-1.5-1.1c-0.3-0.4-0.6-2.5-0.8-4.2
	c0-0.2-0.2-0.5-0.4-0.6c-0.2-0.1-0.5-0.1-0.7,0l-6.3,3.9c-0.3,0.2-0.5,0.7-0.2,1l3.3,5.4c-1.2,0.2-3,0.5-3.7,0.9
	c-1.8,1.1-2.4,3.4-1.3,5.2c1.1,1.8,3.4,2.4,5.2,1.3c0.7-0.4,1.8-1.9,2.5-2.9l3.3,5.4c0.1,0.2,0.4,0.3,0.6,0.3c0.1,0,0.3,0,0.4-0.1
	c4.2-2.6,7.2-6.6,8.4-11.5C53.3,36,52.5,31,49.9,26.7 M43.6,50.6l-3.5-5.7c-0.1-0.2-0.4-0.3-0.6-0.3h0c-0.2,0-0.5,0.1-0.6,0.3
	c-0.9,1.4-2.2,3.1-2.7,3.4c-1.1,0.7-2.6,0.3-3.2-0.8c-0.7-1.1-0.3-2.6,0.8-3.2c0.4-0.3,2.5-0.6,4.2-0.8c0.2,0,0.5-0.2,0.6-0.4
	c0.1-0.2,0.1-0.5,0-0.7l-3.5-5.7l4.7-2.9c0.2,1.2,0.5,3,0.9,3.7c0.5,0.9,1.4,1.5,2.4,1.7c1,0.2,2,0.1,2.9-0.4
	c0.9-0.5,1.5-1.4,1.7-2.4c0.2-1,0.1-2-0.4-2.9c-0.4-0.7-1.9-1.8-2.9-2.5l4.7-2.9C53.3,35.9,50.9,45.7,43.6,50.6"/>
<path class="particle0" d="M36.3,27.2c0-0.8-0.7-2.5-1.2-3.6h6.3c0.4,0,0.7-0.3,0.7-0.7c0-10.2-8.3-18.6-18.6-18.6C13.3,4.4,5,12.7,5,22.9
	c0,10.2,8.3,18.6,18.6,18.6c0.4,0,0.7-0.3,0.7-0.7v-7.4c0-0.3-0.1-0.5-0.3-0.6c-0.2-0.1-0.5-0.2-0.7,0c-1.5,0.7-3.5,1.5-4,1.5
	c-1.3,0-2.4-1.1-2.4-2.4c0-1.3,1.1-2.4,2.4-2.4c0.5,0,2.5,0.8,4,1.5c0.2,0.1,0.5,0.1,0.7,0c0.2-0.1,0.3-0.4,0.3-0.6v-6.7h5.6
	c-0.5,1.1-1.2,2.8-1.2,3.6c0,2.1,1.7,3.8,3.8,3.8C34.6,31.1,36.3,29.3,36.3,27.2 M22.8,5.8v6.7c0,0.2,0.1,0.5,0.3,0.6
	c0.1,0,0.1,0.1,0.2,0.1c0,0,0,0,0,0c0.1,0,0.1,0,0.2,0c0,0,0.1,0,0.1,0c0,0,0.1,0,0.1,0c0.1,0,0.1,0,0.2-0.1c0,0,0.3-0.2,0.8-0.4
	c0.3-0.1,0.6-0.3,1-0.4c0.2-0.1,0.5-0.2,0.7-0.3c0.3-0.1,0.7-0.2,1-0.3c0.4-0.1,0.5-0.1,0.6-0.1c0.2,0,0.5,0,0.7,0.1
	c0.1,0,0.1,0.1,0.2,0.1c0.6,0.2,1,0.7,1.3,1.3c0,0.1,0.1,0.1,0.1,0.2c0.1,0.2,0.1,0.5,0.1,0.7c0,0.2,0,0.3,0,0.5
	c0,0.2-0.1,0.4-0.2,0.6c-0.1,0.1-0.1,0.2-0.2,0.3c-0.1,0.1-0.1,0.1-0.2,0.2c-0.1,0.1-0.1,0.1-0.2,0.2c-0.1,0.1-0.2,0.1-0.3,0.2
	c-0.4,0.2-0.8,0.3-1.2,0.3c-0.5,0-2.5-0.8-4-1.5c-0.2-0.1-0.5-0.1-0.7,0c-0.2,0.1-0.3,0.4-0.3,0.6v6.7h-5.6c0.5-1.1,1.2-2.8,1.2-3.6
	c0-2.1-1.7-3.8-3.8-3.8s-3.8,1.7-3.8,3.8c0,0.8,0.7,2.5,1.2,3.6H6.4C6.8,13.3,14,6.2,22.8,5.8 M22.8,29.2C21.7,28.7,20,28,19.2,28
	c-2.1,0-3.8,1.7-3.8,3.8c0,2.1,1.7,3.8,3.8,3.8c0.8,0,2.5-0.7,3.6-1.2V40c-8.9-0.4-16-7.5-16.4-16.4h6.7c0.2,0,0.5-0.1,0.6-0.3
	c0.1-0.2,0.2-0.5,0-0.7c-0.7-1.5-1.5-3.5-1.5-4c0-1.3,1.1-2.4,2.4-2.4s2.4,1.1,2.4,2.4c0,0.5-0.8,2.5-1.5,4c-0.1,0.2-0.1,0.5,0,0.7
	c0.1,0.2,0.4,0.3,0.6,0.3h6.7V29.2z M30.1,27.2c0-0.5,0.8-2.5,1.5-4c0.1-0.2,0.1-0.5,0-0.7c-0.1-0.2-0.4-0.3-0.6-0.3h-6.7v-5.6
	c1.1,0.5,2.8,1.2,3.6,1.2c0.7,0,1.4-0.2,1.9-0.5c0.1-0.1,0.3-0.2,0.4-0.3c0.1-0.1,0.2-0.2,0.3-0.3c0.1-0.1,0.2-0.2,0.3-0.3
	c0.1-0.2,0.3-0.4,0.4-0.5c0.2-0.3,0.3-0.7,0.4-1c0.1-0.2,0.1-0.5,0.1-0.8c0-0.4-0.1-0.8-0.2-1.1c0-0.1-0.1-0.2-0.1-0.3
	c-0.4-0.9-1.1-1.6-2-2c-0.1,0-0.2-0.1-0.4-0.1c-0.4-0.1-0.7-0.2-1.1-0.2c-0.2,0-0.6,0.1-1,0.2c-0.3,0.1-0.7,0.2-1.1,0.4
	c-0.3,0.1-0.5,0.2-0.8,0.3c-0.3,0.1-0.5,0.2-0.8,0.3V5.8c8.9,0.4,16,7.5,16.4,16.4H34c-0.2,0-0.5,0.1-0.6,0.3
	c-0.1,0.2-0.1,0.5,0,0.7c0.7,1.5,1.5,3.5,1.5,4c0,1.3-1.1,2.4-2.4,2.4C31.1,29.6,30.1,28.5,30.1,27.2"/>
</svg>
