<?xml version="1.0" encoding="utf-8"?>
<!-- Generator: Adobe Illustrator 22.1.0, SVG Export Plug-In . SVG Version: 6.00 Build 0)  -->
<svg version="1.1" xmlns="http://www.w3.org/2000/svg" xmlns:xlink="http://www.w3.org/1999/xlink" x="0px" y="0px"
	 viewBox="0 0 423 501.6" style="enable-background:new 0 0 423 501.6;" xml:space="preserve">
<style type="text/css">
	.particle0{opacity:0.2;fill:#007EFF;enable-background:new    ;}
	.particle1{opacity:0.3;fill:#007EFF;enable-background:new    ;}
	.particle2{fill:#007EFF;}
</style>
<g id="cubo1">
	<g class="line-1_3_">
		<path class="particle0" d="M213.5,473.5c7.8,0,7.8-12.1,0-12.1C205.7,461.4,205.7,473.5,213.5,473.5L213.5,473.5z"/>
		<path class="particle0" d="M242.1,459.1c7.7,0,7.7-12,0-12C234.4,447.2,234.4,459.1,242.1,459.1L242.1,459.1z"/>
		<path class="particle0" d="M191.8,489.5c11.5,0,11.5-17.9,0-17.9C180.2,471.5,180.2,489.5,191.8,489.5L191.8,489.5z"/>
		<path class="particle0" d="M251.4,453.8c11.7,0,11.7-18.1,0-18.1S239.7,453.8,251.4,453.8L251.4,453.8z"/>
		<path class="particle0" d="M258.9,447.9c11.7,0,11.7-18.2,0-18.2C247.2,429.7,247.2,447.9,258.9,447.9L258.9,447.9z"/>
		<path class="particle0" d="M222.7,473.3c11.6,0,11.6-18,0-18C211.1,455.3,211.1,473.3,222.7,473.3L222.7,473.3z"/>
		<path class="particle0" d="M209.4,483c11.5,0,11.5-17.8,0-17.8S197.9,483,209.4,483L209.4,483z"/>
		<path class="particle1" d="M254.9,443.4c5.6,0,5.6-8.6,0-8.6C249.3,434.8,249.3,443.4,254.9,443.4L254.9,443.4z"/>
		<path class="particle1" d="M193.2,486.1c5.8,0,5.8-9,0-9S187.4,486.1,193.2,486.1L193.2,486.1z"/>
		<path class="particle1" d="M203.6,479.4c5.8,0,5.8-9,0-9S197.7,479.4,203.6,479.4L203.6,479.4z"/>
		<path class="particle1" d="M215.2,471.9c5.8,0,5.8-9,0-9C209.4,462.9,209.4,471.9,215.2,471.9L215.2,471.9z"/>
		<path class="particle1" d="M223.1,467.1c5.8,0,5.8-9.1,0-9.1S217.3,467.1,223.1,467.1L223.1,467.1z"/>
		<path class="particle1" d="M233.4,461.7c5.7,0,5.7-8.9,0-8.9S227.7,461.7,233.4,461.7L233.4,461.7z"/>
		<path class="particle1" d="M244.8,454.7c5.8,0,5.8-9,0-9C238.9,445.6,238.9,454.7,244.8,454.7L244.8,454.7z"/>
		<path class="particle1" d="M186.7,491.5c7.2,0,7.2-11.2,0-11.2S179.5,491.5,186.7,491.5L186.7,491.5z"/>
		<path class="particle2" d="M187.9,483.6c2,0,2-3.1,0-3.1C185.9,480.5,185.9,483.6,187.9,483.6L187.9,483.6z"/>
		<path class="particle2" d="M197.7,477.6c1.9,0,1.9-3.1,0-3.1C195.7,474.5,195.7,477.6,197.7,477.6L197.7,477.6z"/>
		<path class="particle2" d="M232.8,458.6c2,0,2-3.1,0-3.1C230.9,455.4,230.9,458.6,232.8,458.6L232.8,458.6z"/>
		<path class="particle2" d="M245.9,449.9c1.9,0,1.9-3,0-3S244.1,449.9,245.9,449.9L245.9,449.9z"/>
		<path class="particle2" d="M257.3,443.2c2.2,0,2.2-3.4,0-3.4C255.1,439.8,255.1,443.2,257.3,443.2L257.3,443.2z"/>
		<path class="particle2" d="M207.2,471.7c2,0,2-3.2,0-3.2C205.2,468.5,205.2,471.7,207.2,471.7L207.2,471.7z"/>
	</g>
	<g class="line-3_3_">
		<path class="particle0" d="M182.6,403.8c8.9,0,8.9-13.8,0-13.8C173.7,390,173.7,403.8,182.6,403.8L182.6,403.8z"/>
		<path class="particle0" d="M184.9,459.6c7.5,0,7.5-11.7,0-11.7C177.3,447.9,177.3,459.6,184.9,459.6L184.9,459.6z"/>
		<path class="particle0" d="M183.4,437.6c7.6,0,7.6-11.9,0-11.9S175.8,437.6,183.4,437.6L183.4,437.6z"/>
		<path class="particle0" d="M183,418.2c7.6,0,7.6-11.9,0-11.9C175.4,406.3,175.4,418.2,183,418.2L183,418.2z"/>
		<path class="particle0" d="M182,414.1c11.7,0,11.7-18.2,0-18.2C170.3,395.9,170.3,414.1,182,414.1L182,414.1z"/>
		<path class="particle0" d="M182.6,454.2c11.7,0,11.7-18.1,0-18.1S170.9,454.2,182.6,454.2L182.6,454.2z"/>
		<path class="particle0" d="M185.2,491.3c11.4,0,11.4-17.7,0-17.7C173.8,473.6,173.8,491.3,185.2,491.3L185.2,491.3z"/>
		<path class="particle0" d="M183.4,427.9c11.6,0,11.6-17.9,0-17.9C171.9,410,171.9,427.9,183.4,427.9L183.4,427.9z"/>
		<path class="particle1" d="M184,480.5c6.3,0,6.3-9.8,0-9.8S177.7,480.5,184,480.5L184,480.5z"/>
		<path class="particle1" d="M184,466.7c5.8,0,5.8-9,0-9S178.2,466.7,184,466.7L184,466.7z"/>
		<path class="particle1" d="M184.6,457c5.8,0,5.8-9,0-9S178.8,457,184.6,457L184.6,457z"/>
		<path class="particle1" d="M183.4,441.8c5.8,0,5.8-8.9,0-8.9S177.7,441.8,183.4,441.8L183.4,441.8z"/>
		<path class="particle1" d="M182.8,433.3c5.9,0,5.9-9.2,0-9.2S176.9,433.3,182.8,433.3L182.8,433.3z"/>
		<path class="particle1" d="M181.3,418.4c5.9,0,5.9-9.2,0-9.2C175.4,409.2,175.4,418.4,181.3,418.4L181.3,418.4z"/>
		<path class="particle1" d="M182.6,405.1c6.3,0,6.3-9.8,0-9.8C176.3,395.3,176.3,405.1,182.6,405.1L182.6,405.1z"/>
		<path class="particle1" d="M175.9,407.1c5.7,0,5.7-8.8,0-8.8C170.3,398.3,170.3,407.1,175.9,407.1L175.9,407.1z"/>
		<path class="particle2" d="M183.1,415.7c2,0,2-3.2,0-3.2C181,412.5,181,415.7,183.1,415.7L183.1,415.7z"/>
		<path class="particle2" d="M182.5,443.4c2.1,0,2.1-3.3,0-3.3C180.4,440.2,180.4,443.4,182.5,443.4L182.5,443.4z"/>
		<path class="particle2" d="M184.9,469.1c2.1,0,2.1-3.3,0-3.3C182.8,465.8,182.8,469.1,184.9,469.1L184.9,469.1z"/>
		<path class="particle2" d="M183.4,454.4c1.9,0,1.9-3,0-3C181.5,451.3,181.5,454.4,183.4,454.4L183.4,454.4z"/>
	</g>
	<g class="line-4_3_">
		<path class="particle0" d="M133,374.8c7.7,0,7.7-12,0-12S125.3,374.8,133,374.8L133,374.8z"/>
		<path class="particle0" d="M155.7,387.4c7.7,0,7.7-12.1,0-12.1C147.9,375.3,147.9,387.4,155.7,387.4L155.7,387.4z"/>
		<path class="particle0" d="M166.1,393.6c7.7,0,7.7-11.9,0-11.9S158.4,393.6,166.1,393.6L166.1,393.6z"/>
		<path class="particle0" d="M108.4,364.5c11.8,0,11.8-18.3,0-18.3C96.7,346.3,96.7,364.5,108.4,364.5L108.4,364.5z"/>
		<path class="particle0" d="M177.9,404.9c11.7,0,11.7-18.2,0-18.2C166.2,386.6,166.2,404.9,177.9,404.9L177.9,404.9z"/>
		<path class="particle1" d="M182.8,405c6.4,0,6.4-10,0-10S176.3,405,182.8,405L182.8,405z"/>
		<path class="particle1" d="M105,357.9c6.2,0,6.2-9.6,0-9.6S98.9,357.9,105,357.9L105,357.9z"/>
		<path class="particle1" d="M172.4,396c5.8,0,5.8-8.9,0-8.9S166.6,396,172.4,396L172.4,396z"/>
		<path class="particle1" d="M142.9,379.3c5.9,0,5.9-9.1,0-9.1C137,370.2,137,379.3,142.9,379.3L142.9,379.3z"/>
		<path class="particle1" d="M119,364.9c5.5,0,5.5-8.5,0-8.5C113.6,356.5,113.6,364.9,119,364.9L119,364.9z"/>
		<path class="particle1" d="M165.2,388.8c5.8,0,5.8-9,0-9C159.4,379.8,159.4,388.8,165.2,388.8L165.2,388.8z"/>
		<path class="particle1" d="M141.6,377.5c5.8,0,5.8-9,0-9C135.8,368.5,135.8,377.5,141.6,377.5L141.6,377.5z"/>
		<path class="particle1" d="M135.2,371.5c0.3,0,0.7,0,1,0c1.2,0,2.3-0.5,3.1-1.3s1.4-2,1.3-3.1c-0.1-1.2-0.4-2.3-1.3-3.1
			c-0.9-0.8-1.9-1.3-3.1-1.3c-0.3,0-0.7,0-1,0c-1.2,0-2.3,0.5-3.1,1.3s-1.4,2-1.3,3.1c0.1,1.2,0.4,2.3,1.3,3.1
			C133,371,134.1,371.5,135.2,371.5L135.2,371.5z"/>
		<path class="particle1" d="M150,381.6c5.8,0,5.8-9,0-9S144.3,381.6,150,381.6L150,381.6z"/>
		<path class="particle1" d="M123.7,367.1c0.3,0,0.7,0,1,0c1.2,0,2.3-0.5,3.1-1.3c0.8-0.8,1.4-2,1.3-3.1c-0.1-1.2-0.4-2.3-1.3-3.1
			c-0.9-0.8-1.9-1.3-3.1-1.3c-0.3,0-0.7,0-1,0c-1.2,0-2.3,0.5-3.1,1.3c-0.8,0.8-1.4,2-1.3,3.1c0.1,1.2,0.4,2.3,1.3,3.1
			C121.4,366.6,122.5,367.1,123.7,367.1L123.7,367.1z"/>
		<path class="particle1" d="M126.2,370.6c5.8,0,5.8-9,0-9S120.4,370.6,126.2,370.6L126.2,370.6z"/>
		<path class="particle2" d="M116.2,359.5c1.7,0,1.7-2.7,0-2.7C114.5,356.8,114.5,359.5,116.2,359.5L116.2,359.5z"/>
		<path class="particle2" d="M108.3,354.9c1.9,0,1.9-3.1,0-3.1C106.4,351.8,106.4,354.9,108.3,354.9L108.3,354.9z"/>
		<path class="particle2" d="M133.9,369.2c2,0,2-3.1,0-3.1C131.9,366.1,131.9,369.2,133.9,369.2L133.9,369.2z"/>
		<path class="particle2" d="M124.6,365.3c1.8,0,1.8-2.9,0-2.9C122.8,362.4,122.8,365.3,124.6,365.3L124.6,365.3z"/>
		<path class="particle2" d="M151.6,379.3c1.9,0,1.9-3,0-3C149.7,376.2,149.7,379.3,151.6,379.3L151.6,379.3z"/>
		<path class="particle2" d="M171.2,393c2,0,2-3.1,0-3.1C169.2,389.9,169.2,393,171.2,393L171.2,393z"/>
		<path class="particle2" d="M159.8,385.5c1.9,0,1.9-3,0-3C157.9,382.5,157.9,385.5,159.8,385.5L159.8,385.5z"/>
		<path class="particle2" d="M141.6,375.3c1.9,0,1.9-2.9,0-2.9C139.8,372.4,139.8,375.3,141.6,375.3L141.6,375.3z"/>
	</g>
	<g class="line-5_3_">
		<path class="particle0" d="M201.8,394.2c7.8,0,7.8-12.1,0-12.1S194,394.2,201.8,394.2L201.8,394.2z"/>
		<path class="particle0" d="M220.9,383c7.9,0,7.9-12.3,0-12.3C213,370.7,213,383,220.9,383L220.9,383z"/>
		<path class="particle0" d="M245.9,367.6c7.8,0,7.8-12.2,0-12.2C238.1,355.4,238.1,367.6,245.9,367.6L245.9,367.6z"/>
		<path class="particle0" d="M201.6,391c4.1,0,4.1-6.2,0-6.2C197.5,384.8,197.5,391,201.6,391L201.6,391z"/>
		<path class="particle0" d="M224.5,379.4c4,0,4-6.2,0-6.2C220.5,373.2,220.5,379.4,224.5,379.4L224.5,379.4z"/>
		<path class="particle0" d="M186.6,404c11.6,0,11.6-18,0-18C175,386,175,404,186.6,404L186.6,404z"/>
		<path class="particle0" d="M194.9,402.5c11.6,0,11.6-18,0-18C183.3,384.5,183.3,402.5,194.9,402.5L194.9,402.5z"/>
		<path class="particle0" d="M214,390.9c11.5,0,11.5-17.8,0-17.8C202.5,373.1,202.5,390.9,214,390.9L214,390.9z"/>
		<path class="particle0" d="M232.3,378.7c11.7,0,11.7-18.1,0-18.1S220.6,378.7,232.3,378.7L232.3,378.7z"/>
		<path class="particle1" d="M237.9,371.2c5.7,0,5.7-8.9,0-8.9S232.2,371.2,237.9,371.2L237.9,371.2z"/>
		<path class="particle1" d="M246,365.2c6,0,6-9.4,0-9.4S240,365.2,246,365.2L246,365.2z"/>
		<path class="particle1" d="M256.4,361.1c5.8,0,5.8-9,0-9S250.6,361.1,256.4,361.1L256.4,361.1z"/>
		<path class="particle2" d="M259.1,355.8c2,0,2-3.1,0-3.1C257.1,352.6,257.1,355.8,259.1,355.8L259.1,355.8z"/>
		<path class="particle2" d="M184.9,397.9c2.1,0,2.1-3.3,0-3.3C182.8,394.6,182.8,397.9,184.9,397.9L184.9,397.9z"/>
		<path class="particle2" d="M231.1,371.2c2,0,2-3.1,0-3.1S229.1,371.2,231.1,371.2L231.1,371.2z"/>
		<path class="particle2" d="M209.3,384.7c2,0,2-3.2,0-3.2C207.3,381.5,207.3,384.7,209.3,384.7L209.3,384.7z"/>
		<path class="particle2" d="M197.4,392c2.2,0,2.2-3.5,0-3.5C195.2,388.5,195.2,392,197.4,392L197.4,392z"/>
	</g>
	<g class="line-6_3_">
		<path class="particle0" d="M259.7,417.3c7.6,0,7.6-11.8,0-11.8C252.1,405.5,252.1,417.3,259.7,417.3L259.7,417.3z"/>
		<path class="particle0" d="M260.3,389c7.6,0,7.6-11.8,0-11.8C252.7,377.2,252.7,389,260.3,389L260.3,389z"/>
		<path class="particle0" d="M258.2,364.4c7.7,0,7.7-11.9,0-11.9C250.5,352.4,250.5,364.4,258.2,364.4L258.2,364.4z"/>
		<path class="particle0" d="M259.7,429.9c7.7,0,7.7-12,0-12C252,417.9,252,429.9,259.7,429.9L259.7,429.9z"/>
		<path class="particle0" d="M258.8,447.9c11.7,0,11.7-18.2,0-18.2C247.1,429.7,247.1,447.9,258.8,447.9L258.8,447.9z"/>
		<path class="particle0" d="M258.5,414.5c11.7,0,11.7-18.1,0-18.1S246.8,414.5,258.5,414.5L258.5,414.5z"/>
		<path class="particle0" d="M258.2,368.3c11.6,0,11.6-18,0-18C246.6,350.3,246.6,368.3,258.2,368.3L258.2,368.3z"/>
		<path class="particle1" d="M261.1,435c5.9,0,5.9-9.1,0-9.1C255.3,425.9,255.3,435,261.1,435L261.1,435z"/>
		<path class="particle1" d="M259.1,424.6c5.9,0,5.9-9.1,0-9.1C253.2,415.5,253.2,424.6,259.1,424.6L259.1,424.6z"/>
		<path class="particle1" d="M259.7,414.9c5.7,0,5.7-8.8,0-8.8C254,406.1,254,414.9,259.7,414.9L259.7,414.9z"/>
		<path class="particle1" d="M258.1,406.2c5.9,0,5.9-9.1,0-9.1C252.2,397.2,252.2,406.2,258.1,406.2L258.1,406.2z"/>
		<path class="particle1" d="M260.3,396.5c5.8,0,5.8-9,0-9S254.5,396.5,260.3,396.5L260.3,396.5z"/>
		<path class="particle1" d="M259.4,388.5c5.8,0,5.8-9,0-9C253.6,379.5,253.6,388.5,259.4,388.5L259.4,388.5z"/>
		<path class="particle1" d="M260.5,381.6c5.7,0,5.7-8.8,0-8.8C254.9,372.7,254.9,381.6,260.5,381.6L260.5,381.6z"/>
		<path class="particle1" d="M259.4,371.2c5.8,0,5.8-9,0-9C253.6,362.2,253.6,371.2,259.4,371.2L259.4,371.2z"/>
		<path class="particle2" d="M258.8,432.7c2,0,2-3.2,0-3.2S256.7,432.7,258.8,432.7L258.8,432.7z"/>
		<path class="particle2" d="M261.1,400.5c2,0,2-3.1,0-3.1C259.2,397.3,259.2,400.5,261.1,400.5L261.1,400.5z"/>
		<path class="particle2" d="M260.6,373.9c1.9,0,1.9-3,0-3C258.7,370.9,258.7,373.9,260.6,373.9L260.6,373.9z"/>
		<path class="particle2" d="M259.7,389.2c1.9,0,1.9-3.1,0-3.1S257.7,389.2,259.7,389.2L259.7,389.2z"/>
		<path class="particle2" d="M260.3,419.2c1.9,0,1.9-3.1,0-3.1C258.3,416.1,258.3,419.2,260.3,419.2L260.3,419.2z"/>
	</g>
	<g class="line-8_3_">
		<path class="particle0" d="M184,316.7c7.7,0,7.7-12.1,0-12.1S176.2,316.7,184,316.7L184,316.7z"/>
		<path class="particle0" d="M168.5,324.1c7.6,0,7.6-11.9,0-11.9S160.9,324.1,168.5,324.1L168.5,324.1z"/>
		<path class="particle0" d="M156.3,333c7.9,0,7.9-12.2,0-12.2C148.4,320.7,148.4,333,156.3,333L156.3,333z"/>
		<path class="particle0" d="M137.8,341.5c7.8,0,7.8-12.1,0-12.1S130,341.5,137.8,341.5L137.8,341.5z"/>
		<path class="particle0" d="M124.7,351.6c7.7,0,7.7-12.1,0-12.1S116.9,351.6,124.7,351.6L124.7,351.6z"/>
		<path class="particle0" d="M182.6,324.6c11.7,0,11.7-18.2,0-18.2S170.9,324.6,182.6,324.6L182.6,324.6z"/>
		<path class="particle0" d="M119,358.4c11.8,0,11.8-18.3,0-18.3C107.2,340.2,107.2,358.4,119,358.4L119,358.4z"/>
		<path class="particle0" d="M132.8,350.1c12.1,0,12.1-18.7,0-18.7C120.8,331.4,120.8,350.1,132.8,350.1L132.8,350.1z"/>
		<path class="particle1" d="M117.4,352.2c0.3-0.2,0.7-0.3,0.9-0.5c0.9-0.5,1.7-1.6,2-2.5c0.3-1,0.2-2.3-0.5-3.3c-0.6-0.9-1.4-1.7-2.5-2
			s-2.2-0.1-3.3,0.5c-0.3,0.2-0.7,0.3-0.9,0.5c-0.9,0.5-1.7,1.6-2,2.5c-0.3,1-0.2,2.3,0.5,3.3c0.6,0.9,1.4,1.7,2.5,2
			C115.3,352.9,116.3,352.7,117.4,352.2L117.4,352.2z"/>
		<path class="particle1" d="M141.4,337.4c5.6,0,5.6-8.7,0-8.7S135.8,337.4,141.4,337.4L141.4,337.4z"/>
		<path class="particle1" d="M162.2,328c5.9,0,5.9-9.2,0-9.2S156.3,328,162.2,328L162.2,328z"/>
		<path class="particle1" d="M170.7,322.9c5.7,0,5.7-8.9,0-8.9S164.9,322.9,170.7,322.9L170.7,322.9z"/>
		<path class="particle1" d="M138.7,335.4c6,0,6-9.3,0-9.3S132.7,335.4,138.7,335.4L138.7,335.4z"/>
		<path class="particle1" d="M151.2,333.1c5.8,0,5.8-9,0-9C145.4,324.1,145.4,333.1,151.2,333.1L151.2,333.1z"/>
		<path class="particle1" d="M178.3,317.3c5.8,0,5.8-9,0-9C172.5,308.3,172.5,317.3,178.3,317.3L178.3,317.3z"/>
		<path class="particle2" d="M167.3,320.1c2,0,2-3.2,0-3.2C165.3,316.8,165.3,320.1,167.3,320.1L167.3,320.1z"/>
		<path class="particle2" d="M144.7,333.1c2,0,2-3.1,0-3.1C142.7,330,142.7,333.1,144.7,333.1L144.7,333.1z"/>
		<path class="particle2" d="M128.9,343c1.9,0,1.9-3,0-3C127,340,127,343,128.9,343L128.9,343z"/>
		<path class="particle2" d="M133.1,347.1c1.9,0,1.9-3,0-3C131.2,344.1,131.2,347.1,133.1,347.1L133.1,347.1z"/>
		<path class="particle2" d="M118.2,347.9c1.8,0,1.8-2.9,0-2.9C116.4,345,116.4,347.9,118.2,347.9L118.2,347.9z"/>
	</g>
	<g class="line-9_3_">
		<path class="particle0" d="M234.9,345c7.6,0,7.6-11.9,0-11.9C227.3,333.1,227.3,345,234.9,345L234.9,345z"/>
		<path class="particle0" d="M220,332.9c4.7,0,4.7-7.3,0-7.3C215.3,325.6,215.3,332.9,220,332.9L220,332.9z"/>
		<path class="particle0" d="M201.4,326.2c7.6,0,7.6-11.9,0-11.9C193.8,314.3,193.8,326.2,201.4,326.2L201.4,326.2z"/>
		<path class="particle0" d="M213.3,337.1c11.8,0,11.8-18.3,0-18.3C201.4,318.8,201.4,337.1,213.3,337.1L213.3,337.1z"/>
		<path class="particle1" d="M253.1,354.9c5.9,0,5.9-9.1,0-9.1S247.2,354.9,253.1,354.9L253.1,354.9z"/>
		<path class="particle1" d="M242.6,348.4c5.9,0,5.9-9.2,0-9.2S236.7,348.4,242.6,348.4L242.6,348.4z"/>
		<path class="particle1" d="M228.7,340.6c5.9,0,5.9-9.2,0-9.2S222.8,340.6,228.7,340.6L228.7,340.6z"/>
		<path class="particle1" d="M217.5,335.6c7.5,0,7.5-11.6,0-11.6C210,324,210,335.6,217.5,335.6L217.5,335.6z"/>
		<path class="particle1" d="M203.3,326.5c5.7,0,5.7-8.8,0-8.8S197.7,326.5,203.3,326.5L203.3,326.5z"/>
		<path class="particle1" d="M192.6,320.2c5.9,0,5.9-9.2,0-9.2C186.7,311.1,186.7,320.2,192.6,320.2L192.6,320.2z"/>
		<path class="particle1" d="M184.3,316.1c7.3,0,7.3-11.4,0-11.4C176.9,304.7,176.9,316.1,184.3,316.1L184.3,316.1z"/>
		<path class="particle2" d="M184.9,311.9c1.9,0,1.9-3.1,0-3.1C182.9,308.9,182.9,311.9,184.9,311.9L184.9,311.9z"/>
		<path class="particle2" d="M192.9,317.3c1.9,0,1.9-3,0-3C191,314.3,191,317.3,192.9,317.3L192.9,317.3z"/>
		<path class="particle2" d="M222.1,332.3c2.1,0,2.1-3.3,0-3.3C220,329,220,332.3,222.1,332.3L222.1,332.3z"/>
		<path class="particle2" d="M208.7,325.7c2,0,2-3.2,0-3.2C206.7,322.5,206.7,325.7,208.7,325.7L208.7,325.7z"/>
		<path class="particle2" d="M246.8,348.1c2,0,2-3.2,0-3.2C244.8,344.9,244.8,348.1,246.8,348.1L246.8,348.1z"/>
	</g>
</g>
<g id="cubo2">
	<g class="line-1_2_">
		<path class="particle0" d="M359.5,329c7.8,0,7.8-12.1,0-12.1C351.8,316.9,351.8,329,359.5,329L359.5,329z"/>
		<path class="particle0" d="M388.1,314.6c7.7,0,7.7-12,0-12C380.4,302.6,380.4,314.6,388.1,314.6L388.1,314.6z"/>
		<path class="particle0" d="M337.8,344.9c11.5,0,11.5-17.9,0-17.9C326.3,327,326.3,344.9,337.8,344.9L337.8,344.9z"/>
		<path class="particle0" d="M397.4,309.3c11.7,0,11.7-18.1,0-18.1S385.7,309.3,397.4,309.3L397.4,309.3z"/>
		<path class="particle0" d="M404.9,303.4c11.7,0,11.7-18.2,0-18.2S393.2,303.4,404.9,303.4L404.9,303.4z"/>
		<path class="particle0" d="M368.7,328.8c11.6,0,11.6-18,0-18C357.1,310.8,357.1,328.8,368.7,328.8L368.7,328.8z"/>
		<path class="particle0" d="M355.4,338.5c11.5,0,11.5-17.8,0-17.8C343.9,320.7,343.9,338.5,355.4,338.5L355.4,338.5z"/>
		<path class="particle1" d="M400.9,298.9c5.6,0,5.6-8.6,0-8.6C395.4,290.3,395.4,298.9,400.9,298.9L400.9,298.9z"/>
		<path class="particle1" d="M339.3,341.6c5.8,0,5.8-9,0-9C333.5,332.7,333.5,341.6,339.3,341.6L339.3,341.6z"/>
		<path class="particle1" d="M349.6,334.9c5.8,0,5.8-9,0-9S343.8,334.9,349.6,334.9L349.6,334.9z"/>
		<path class="particle1" d="M361.2,327.4c5.8,0,5.8-9,0-9C355.4,318.4,355.4,327.4,361.2,327.4L361.2,327.4z"/>
		<path class="particle1" d="M369.2,322.6c5.8,0,5.8-9.1,0-9.1C363.3,313.5,363.3,322.6,369.2,322.6L369.2,322.6z"/>
		<path class="particle1" d="M379.5,317.2c5.7,0,5.7-8.9,0-8.9C373.7,308.3,373.7,317.2,379.5,317.2L379.5,317.2z"/>
		<path class="particle1" d="M390.8,310.2c5.8,0,5.8-9,0-9S385,310.2,390.8,310.2L390.8,310.2z"/>
		<path class="particle1" d="M332.8,347c7.2,0,7.2-11.2,0-11.2S325.6,347,332.8,347L332.8,347z"/>
		<path class="particle2" d="M333.9,339.1c2,0,2-3.1,0-3.1C331.9,336,331.9,339.1,333.9,339.1L333.9,339.1z"/>
		<path class="particle2" d="M343.7,333.1c1.9,0,1.9-3.1,0-3.1C341.8,330,341.8,333.1,343.7,333.1L343.7,333.1z"/>
		<path class="particle2" d="M378.9,314.1c2,0,2-3.1,0-3.1C376.9,310.9,376.9,314.1,378.9,314.1L378.9,314.1z"/>
		<path class="particle2" d="M392,305.3c1.9,0,1.9-3,0-3S390.1,305.3,392,305.3L392,305.3z"/>
		<path class="particle2" d="M403.3,298.7c2.2,0,2.2-3.4,0-3.4C401.1,295.3,401.1,298.7,403.3,298.7L403.3,298.7z"/>
		<path class="particle2" d="M353.3,327.2c2,0,2-3.2,0-3.2C351.2,324,351.2,327.2,353.3,327.2L353.3,327.2z"/>
	</g>
	<g class="line-3_2_">
		<path class="particle0" d="M328.7,259.3c8.9,0,8.9-13.8,0-13.8S319.7,259.3,328.7,259.3L328.7,259.3z"/>
		<path class="particle0" d="M330.9,315.1c7.5,0,7.5-11.7,0-11.7C323.4,303.4,323.4,315.1,330.9,315.1L330.9,315.1z"/>
		<path class="particle0" d="M329.5,293.1c7.6,0,7.6-11.9,0-11.9C321.9,281.2,321.9,293.1,329.5,293.1L329.5,293.1z"/>
		<path class="particle0" d="M329,273.7c7.6,0,7.6-11.9,0-11.9S321.4,273.7,329,273.7L329,273.7z"/>
		<path class="particle0" d="M328,269.6c11.7,0,11.7-18.2,0-18.2C316.3,251.4,316.3,269.6,328,269.6L328,269.6z"/>
		<path class="particle0" d="M328.6,309.7c11.7,0,11.7-18.1,0-18.1C316.9,291.6,316.9,309.7,328.6,309.7L328.6,309.7z"/>
		<path class="particle0" d="M331.2,346.8c11.4,0,11.4-17.7,0-17.7S319.8,346.8,331.2,346.8L331.2,346.8z"/>
		<path class="particle0" d="M329.5,283.4c11.6,0,11.6-17.9,0-17.9C317.9,265.4,317.9,283.4,329.5,283.4L329.5,283.4z"/>
		<path class="particle1" d="M330,336c6.3,0,6.3-9.8,0-9.8C323.7,326.2,323.7,336,330,336L330,336z"/>
		<path class="particle1" d="M330,322.2c5.8,0,5.8-9,0-9S324.3,322.2,330,322.2L330,322.2z"/>
		<path class="particle1" d="M330.6,312.5c5.8,0,5.8-9,0-9S324.8,312.5,330.6,312.5L330.6,312.5z"/>
		<path class="particle1" d="M329.5,297.3c5.8,0,5.8-8.9,0-8.9C323.7,288.4,323.7,297.3,329.5,297.3L329.5,297.3z"/>
		<path class="particle1" d="M328.8,288.8c5.9,0,5.9-9.2,0-9.2C322.9,279.6,322.9,288.8,328.8,288.8L328.8,288.8z"/>
		<path class="particle1" d="M327.3,273.9c5.9,0,5.9-9.2,0-9.2S321.4,273.9,327.3,273.9L327.3,273.9z"/>
		<path class="particle1" d="M328.7,260.6c6.3,0,6.3-9.8,0-9.8S322.4,260.6,328.7,260.6L328.7,260.6z"/>
		<path class="particle1" d="M322,262.6c5.7,0,5.7-8.8,0-8.8S316.3,262.6,322,262.6L322,262.6z"/>
		<path class="particle2" d="M329.1,271.2c2,0,2-3.2,0-3.2C327.1,267.9,327.1,271.2,329.1,271.2L329.1,271.2z"/>
		<path class="particle2" d="M328.5,298.9c2.1,0,2.1-3.3,0-3.3C326.5,295.7,326.5,298.9,328.5,298.9L328.5,298.9z"/>
		<path class="particle2" d="M330.9,324.6c2.1,0,2.1-3.3,0-3.3C328.8,321.3,328.8,324.6,330.9,324.6L330.9,324.6z"/>
		<path class="particle2" d="M329.5,309.8c1.9,0,1.9-3,0-3C327.6,306.8,327.6,309.8,329.5,309.8L329.5,309.8z"/>
	</g>
	<g class="line-4_2_">
		<path class="particle0" d="M279.1,230.3c7.7,0,7.7-12,0-12C271.4,218.3,271.4,230.3,279.1,230.3L279.1,230.3z"/>
		<path class="particle0" d="M301.7,242.8c7.7,0,7.7-12.1,0-12.1S294,242.8,301.7,242.8L301.7,242.8z"/>
		<path class="particle0" d="M312.1,249.1c7.7,0,7.7-11.9,0-11.9S304.5,249.1,312.1,249.1L312.1,249.1z"/>
		<path class="particle0" d="M254.5,220c11.8,0,11.8-18.3,0-18.3C242.7,201.7,242.7,220,254.5,220L254.5,220z"/>
		<path class="particle0" d="M324,260.4c11.7,0,11.7-18.2,0-18.2C312.2,242.1,312.2,260.4,324,260.4L324,260.4z"/>
		<path class="particle1" d="M328.8,260.5c6.4,0,6.4-10,0-10C322.4,250.5,322.4,260.5,328.8,260.5L328.8,260.5z"/>
		<path class="particle1" d="M251.1,213.3c6.2,0,6.2-9.6,0-9.6S244.9,213.3,251.1,213.3L251.1,213.3z"/>
		<path class="particle1" d="M318.4,251.5c5.8,0,5.8-8.9,0-8.9S312.6,251.5,318.4,251.5L318.4,251.5z"/>
		<path class="particle1" d="M288.9,234.8c5.9,0,5.9-9.1,0-9.1S283,234.8,288.9,234.8L288.9,234.8z"/>
		<path class="particle1" d="M265.1,220.4c5.5,0,5.5-8.5,0-8.5C259.6,212,259.6,220.4,265.1,220.4L265.1,220.4z"/>
		<path class="particle1" d="M311.2,244.3c5.8,0,5.8-9,0-9S305.4,244.3,311.2,244.3L311.2,244.3z"/>
		<path class="particle1" d="M287.7,233c5.8,0,5.8-9,0-9C281.8,224,281.8,233,287.7,233L287.7,233z"/>
		<path class="particle1" d="M281.3,227c0.3,0,0.7,0,1,0c1.2,0,2.3-0.5,3.1-1.3s1.4-2,1.3-3.1c-0.1-1.2-0.4-2.3-1.3-3.1
			c-0.9-0.8-1.9-1.3-3.1-1.3c-0.3,0-0.7,0-1,0c-1.2,0-2.3,0.5-3.1,1.3s-1.4,2-1.3,3.1c0.1,1.2,0.4,2.3,1.3,3.1
			C279.1,226.5,280.1,227,281.3,227L281.3,227z"/>
		<path class="particle1" d="M296.1,237.1c5.8,0,5.8-9,0-9S290.3,237.1,296.1,237.1L296.1,237.1z"/>
		<path class="particle1" d="M269.7,222.6c0.3,0,0.7,0,1,0c1.2,0,2.3-0.5,3.1-1.3c0.8-0.8,1.4-2,1.3-3.1c-0.1-1.2-0.4-2.3-1.3-3.1
			c-0.9-0.8-1.9-1.3-3.1-1.3c-0.3,0-0.7,0-1,0c-1.2,0-2.3,0.5-3.1,1.3c-0.8,0.8-1.4,2-1.3,3.1c0.1,1.2,0.4,2.3,1.3,3.1
			C267.5,222.1,268.6,222.6,269.7,222.6L269.7,222.6z"/>
		<path class="particle1" d="M272.2,226.1c5.8,0,5.8-9,0-9C266.4,217.1,266.4,226.1,272.2,226.1L272.2,226.1z"/>
		<path class="particle2" d="M262.3,215c1.7,0,1.7-2.7,0-2.7C260.6,212.3,260.6,215,262.3,215L262.3,215z"/>
		<path class="particle2" d="M254.3,210.4c1.9,0,1.9-3.1,0-3.1C252.4,207.3,252.4,210.4,254.3,210.4L254.3,210.4z"/>
		<path class="particle2" d="M280,224.7c2,0,2-3.1,0-3.1C278,221.6,278,224.7,280,224.7L280,224.7z"/>
		<path class="particle2" d="M270.7,220.8c1.8,0,1.8-2.9,0-2.9C268.8,217.8,268.8,220.8,270.7,220.8L270.7,220.8z"/>
		<path class="particle2" d="M297.6,234.8c1.9,0,1.9-3,0-3C295.7,231.7,295.7,234.8,297.6,234.8L297.6,234.8z"/>
		<path class="particle2" d="M317.2,248.5c2,0,2-3.1,0-3.1C315.3,245.4,315.3,248.5,317.2,248.5L317.2,248.5z"/>
		<path class="particle2" d="M305.9,241c1.9,0,1.9-3,0-3C304,238,304,241,305.9,241L305.9,241z"/>
		<path class="particle2" d="M287.7,230.8c1.9,0,1.9-2.9,0-2.9C285.8,227.9,285.8,230.8,287.7,230.8L287.7,230.8z"/>
	</g>
	<g class="line-5_2_">
		<path class="particle0" d="M347.8,249.7c7.8,0,7.8-12.1,0-12.1S340.1,249.7,347.8,249.7L347.8,249.7z"/>
		<path class="particle0" d="M367,238.5c7.9,0,7.9-12.3,0-12.3C359.1,226.2,359.1,238.5,367,238.5L367,238.5z"/>
		<path class="particle0" d="M392,223.1c7.8,0,7.8-12.2,0-12.2C384.2,210.9,384.2,223.1,392,223.1L392,223.1z"/>
		<path class="particle0" d="M347.6,246.5c4.1,0,4.1-6.2,0-6.2S343.5,246.5,347.6,246.5L347.6,246.5z"/>
		<path class="particle0" d="M370.5,234.9c4,0,4-6.2,0-6.2S366.5,234.9,370.5,234.9L370.5,234.9z"/>
		<path class="particle0" d="M332.6,259.5c11.6,0,11.6-18,0-18C321,241.5,321,259.5,332.6,259.5L332.6,259.5z"/>
		<path class="particle0" d="M341,258c11.6,0,11.6-18,0-18C329.4,240,329.4,258,341,258L341,258z"/>
		<path class="particle0" d="M360.1,246.4c11.5,0,11.5-17.8,0-17.8S348.6,246.4,360.1,246.4L360.1,246.4z"/>
		<path class="particle0" d="M378.3,234.2c11.7,0,11.7-18.1,0-18.1C366.7,216.1,366.7,234.2,378.3,234.2L378.3,234.2z"/>
		<path class="particle1" d="M383.9,226.7c5.7,0,5.7-8.9,0-8.9S378.2,226.7,383.9,226.7L383.9,226.7z"/>
		<path class="particle1" d="M392.1,220.7c6,0,6-9.4,0-9.4C386,211.3,386,220.7,392.1,220.7L392.1,220.7z"/>
		<path class="particle1" d="M402.4,216.6c5.8,0,5.8-9,0-9S396.6,216.6,402.4,216.6L402.4,216.6z"/>
		<path class="particle2" d="M405.1,211.3c2,0,2-3.1,0-3.1C403.1,208.1,403.1,211.3,405.1,211.3L405.1,211.3z"/>
		<path class="particle2" d="M331,253.4c2.1,0,2.1-3.3,0-3.3C328.8,250,328.8,253.4,331,253.4L331,253.4z"/>
		<path class="particle2" d="M377.1,226.7c2,0,2-3.1,0-3.1S375.1,226.7,377.1,226.7L377.1,226.7z"/>
		<path class="particle2" d="M355.3,240.2c2,0,2-3.2,0-3.2S353.3,240.2,355.3,240.2L355.3,240.2z"/>
		<path class="particle2" d="M343.4,247.5c2.2,0,2.2-3.5,0-3.5C341.2,244,341.2,247.5,343.4,247.5L343.4,247.5z"/>
	</g>
	<g class="line-6_2_">
		<path class="particle0" d="M405.7,272.8c7.6,0,7.6-11.8,0-11.8C398.1,261,398.1,272.8,405.7,272.8L405.7,272.8z"/>
		<path class="particle0" d="M406.3,244.5c7.6,0,7.6-11.8,0-11.8C398.7,232.7,398.7,244.5,406.3,244.5L406.3,244.5z"/>
		<path class="particle0" d="M404.2,219.9c7.7,0,7.7-11.9,0-11.9C396.5,207.9,396.5,219.9,404.2,219.9L404.2,219.9z"/>
		<path class="particle0" d="M405.7,285.4c7.7,0,7.7-12,0-12C398,273.4,398,285.4,405.7,285.4L405.7,285.4z"/>
		<path class="particle0" d="M404.8,303.4c11.7,0,11.7-18.2,0-18.2C393.1,285.2,393.1,303.4,404.8,303.4L404.8,303.4z"/>
		<path class="particle0" d="M404.5,270c11.7,0,11.7-18.1,0-18.1S392.9,270,404.5,270L404.5,270z"/>
		<path class="particle0" d="M404.2,223.8c11.6,0,11.6-18,0-18C392.6,205.8,392.6,223.8,404.2,223.8L404.2,223.8z"/>
		<path class="particle1" d="M407.2,290.5c5.9,0,5.9-9.1,0-9.1C401.3,281.4,401.3,290.5,407.2,290.5L407.2,290.5z"/>
		<path class="particle1" d="M405.1,280.1c5.9,0,5.9-9.1,0-9.1C399.2,271,399.2,280.1,405.1,280.1L405.1,280.1z"/>
		<path class="particle1" d="M405.7,270.4c5.7,0,5.7-8.8,0-8.8C400,261.6,400,270.4,405.7,270.4L405.7,270.4z"/>
		<path class="particle1" d="M404.1,261.7c5.9,0,5.9-9.1,0-9.1S398.3,261.7,404.1,261.7L404.1,261.7z"/>
		<path class="particle1" d="M406.3,252c5.8,0,5.8-9,0-9S400.5,252,406.3,252L406.3,252z"/>
		<path class="particle1" d="M405.4,244c5.8,0,5.8-9,0-9C399.7,235,399.7,244,405.4,244L405.4,244z"/>
		<path class="particle1" d="M406.6,237.1c5.7,0,5.7-8.8,0-8.8C400.9,228.2,400.9,237.1,406.6,237.1L406.6,237.1z"/>
		<path class="particle1" d="M405.4,226.7c5.8,0,5.8-9,0-9S399.6,226.7,405.4,226.7L405.4,226.7z"/>
		<path class="particle2" d="M404.8,288.2c2,0,2-3.2,0-3.2S402.8,288.2,404.8,288.2L404.8,288.2z"/>
		<path class="particle2" d="M407.2,256c2,0,2-3.1,0-3.1C405.2,252.8,405.2,256,407.2,256L407.2,256z"/>
		<path class="particle2" d="M406.7,229.4c1.9,0,1.9-3,0-3C404.8,226.4,404.8,229.4,406.7,229.4L406.7,229.4z"/>
		<path class="particle2" d="M405.7,244.7c1.9,0,1.9-3.1,0-3.1S403.8,244.7,405.7,244.7L405.7,244.7z"/>
		<path class="particle2" d="M406.3,274.7c1.9,0,1.9-3.1,0-3.1C404.4,271.6,404.4,274.7,406.3,274.7L406.3,274.7z"/>
	</g>
	<g class="line-8_2_">
		<path class="particle0" d="M330,172.2c7.7,0,7.7-12.1,0-12.1S322.3,172.2,330,172.2L330,172.2z"/>
		<path class="particle0" d="M314.5,179.6c7.6,0,7.6-11.9,0-11.9C306.9,167.7,306.9,179.6,314.5,179.6L314.5,179.6z"/>
		<path class="particle0" d="M302.3,188.5c7.9,0,7.9-12.2,0-12.2S294.5,188.5,302.3,188.5L302.3,188.5z"/>
		<path class="particle0" d="M283.8,197c7.8,0,7.8-12.1,0-12.1S276.1,197,283.8,197L283.8,197z"/>
		<path class="particle0" d="M270.7,207.1c7.7,0,7.7-12.1,0-12.1C263,195,263,207.1,270.7,207.1L270.7,207.1z"/>
		<path class="particle0" d="M328.7,180.1c11.7,0,11.7-18.2,0-18.2S317,180.1,328.7,180.1L328.7,180.1z"/>
		<path class="particle0" d="M265,213.9c11.8,0,11.8-18.3,0-18.3C253.3,195.7,253.3,213.9,265,213.9L265,213.9z"/>
		<path class="particle0" d="M278.9,205.6c12.1,0,12.1-18.7,0-18.7C266.8,186.9,266.8,205.6,278.9,205.6L278.9,205.6z"/>
		<path class="particle1" d="M263.5,207.7c0.3-0.2,0.7-0.3,0.9-0.5c0.9-0.5,1.7-1.6,2-2.5c0.3-1,0.2-2.3-0.5-3.3c-0.6-0.9-1.4-1.7-2.5-2
			c-1.1-0.3-2.2-0.1-3.3,0.5c-0.3,0.2-0.7,0.3-0.9,0.5c-0.9,0.5-1.7,1.6-2,2.5c-0.3,1-0.2,2.3,0.5,3.3c0.6,0.9,1.4,1.7,2.5,2
			C261.3,208.3,262.4,208.2,263.5,207.7L263.5,207.7z"/>
		<path class="particle1" d="M287.4,192.9c5.6,0,5.6-8.7,0-8.7S281.8,192.9,287.4,192.9L287.4,192.9z"/>
		<path class="particle1" d="M308.3,183.5c5.9,0,5.9-9.2,0-9.2C302.4,174.3,302.4,183.5,308.3,183.5L308.3,183.5z"/>
		<path class="particle1" d="M316.7,178.4c5.7,0,5.7-8.9,0-8.9C311,169.5,311,178.4,316.7,178.4L316.7,178.4z"/>
		<path class="particle1" d="M284.7,190.9c6,0,6-9.3,0-9.3S278.7,190.9,284.7,190.9L284.7,190.9z"/>
		<path class="particle1" d="M297.3,188.6c5.8,0,5.8-9,0-9C291.4,179.6,291.4,188.6,297.3,188.6L297.3,188.6z"/>
		<path class="particle1" d="M324.4,172.8c5.8,0,5.8-9,0-9S318.6,172.8,324.4,172.8L324.4,172.8z"/>
		<path class="particle2" d="M313.3,175.6c2,0,2-3.2,0-3.2C311.3,172.3,311.3,175.6,313.3,175.6L313.3,175.6z"/>
		<path class="particle2" d="M290.7,188.6c2,0,2-3.1,0-3.1C288.7,185.5,288.7,188.6,290.7,188.6L290.7,188.6z"/>
		<path class="particle2" d="M274.9,198.5c1.9,0,1.9-3,0-3C273,195.5,273,198.5,274.9,198.5L274.9,198.5z"/>
		<path class="particle2" d="M279.1,202.5c1.9,0,1.9-3,0-3C277.3,199.6,277.3,202.5,279.1,202.5L279.1,202.5z"/>
		<path class="particle2" d="M264.2,203.4c1.8,0,1.8-2.9,0-2.9C262.4,200.5,262.4,203.4,264.2,203.4L264.2,203.4z"/>
	</g>
	<g class="line-9_2_">
		<path class="particle0" d="M381,200.5c7.6,0,7.6-11.9,0-11.9C373.3,188.6,373.3,200.5,381,200.5L381,200.5z"/>
		<path class="particle0" d="M366,188.4c4.7,0,4.7-7.3,0-7.3C361.3,181.1,361.3,188.4,366,188.4L366,188.4z"/>
		<path class="particle0" d="M347.5,181.7c7.6,0,7.6-11.9,0-11.9S339.8,181.7,347.5,181.7L347.5,181.7z"/>
		<path class="particle0" d="M359.3,192.6c11.8,0,11.8-18.3,0-18.3S347.5,192.6,359.3,192.6L359.3,192.6z"/>
		<path class="particle1" d="M399.1,210.4c5.9,0,5.9-9.1,0-9.1C393.3,201.3,393.3,210.4,399.1,210.4L399.1,210.4z"/>
		<path class="particle1" d="M388.7,203.9c5.9,0,5.9-9.2,0-9.2S382.8,203.9,388.7,203.9L388.7,203.9z"/>
		<path class="particle1" d="M374.7,196.1c5.9,0,5.9-9.2,0-9.2S368.8,196.1,374.7,196.1L374.7,196.1z"/>
		<path class="particle1" d="M363.5,191.1c7.5,0,7.5-11.6,0-11.6S356.1,191.1,363.5,191.1L363.5,191.1z"/>
		<path class="particle1" d="M349.4,181.9c5.7,0,5.7-8.8,0-8.8C343.7,173.1,343.7,181.9,349.4,181.9L349.4,181.9z"/>
		<path class="particle1" d="M338.7,175.7c5.9,0,5.9-9.2,0-9.2S332.8,175.7,338.7,175.7L338.7,175.7z"/>
		<path class="particle1" d="M330.3,171.6c7.3,0,7.3-11.4,0-11.4C323,160.2,323,171.6,330.3,171.6L330.3,171.6z"/>
		<path class="particle2" d="M330.9,167.4c1.9,0,1.9-3.1,0-3.1C329,164.4,329,167.4,330.9,167.4L330.9,167.4z"/>
		<path class="particle2" d="M339,172.8c1.9,0,1.9-3,0-3C337,169.8,337,172.8,339,172.8L339,172.8z"/>
		<path class="particle2" d="M368.2,187.8c2.1,0,2.1-3.3,0-3.3C366.1,184.5,366.1,187.8,368.2,187.8L368.2,187.8z"/>
		<path class="particle2" d="M354.8,181.2c2,0,2-3.2,0-3.2S352.7,181.2,354.8,181.2L354.8,181.2z"/>
		<path class="particle2" d="M392.9,203.6c2,0,2-3.2,0-3.2S390.9,203.6,392.9,203.6L392.9,203.6z"/>
	</g>
</g>
<g id="cubo3">
	<g class="line-1_1_">
		<path class="particle0" d="M150.7,184c7.8,0,7.8-12.1,0-12.1C142.9,171.9,142.9,184,150.7,184L150.7,184z"/>
		<path class="particle0" d="M179.3,169.6c7.7,0,7.7-12,0-12C171.6,157.6,171.6,169.6,179.3,169.6L179.3,169.6z"/>
		<path class="particle0" d="M129,199.9c11.5,0,11.5-17.9,0-17.9C117.5,182,117.5,199.9,129,199.9L129,199.9z"/>
		<path class="particle0" d="M188.6,164.3c11.7,0,11.7-18.1,0-18.1C176.9,146.2,176.9,164.3,188.6,164.3L188.6,164.3z"/>
		<path class="particle0" d="M196.1,158.4c11.7,0,11.7-18.2,0-18.2S184.4,158.4,196.1,158.4L196.1,158.4z"/>
		<path class="particle0" d="M159.9,183.8c11.6,0,11.6-18,0-18C148.3,165.8,148.3,183.8,159.9,183.8L159.9,183.8z"/>
		<path class="particle0" d="M146.6,193.5c11.5,0,11.5-17.8,0-17.8S135.1,193.5,146.6,193.5L146.6,193.5z"/>
		<path class="particle1" d="M192.1,153.9c5.6,0,5.6-8.6,0-8.6C186.6,145.3,186.6,153.9,192.1,153.9L192.1,153.9z"/>
		<path class="particle1" d="M130.4,196.6c5.8,0,5.8-9,0-9C124.7,187.7,124.7,196.6,130.4,196.6L130.4,196.6z"/>
		<path class="particle1" d="M140.8,189.9c5.8,0,5.8-9,0-9S135,189.9,140.8,189.9L140.8,189.9z"/>
		<path class="particle1" d="M152.4,182.4c5.8,0,5.8-9,0-9C146.6,173.4,146.6,182.4,152.4,182.4L152.4,182.4z"/>
		<path class="particle1" d="M160.4,177.6c5.8,0,5.8-9.1,0-9.1C154.5,168.5,154.5,177.6,160.4,177.6L160.4,177.6z"/>
		<path class="particle1" d="M170.7,172.2c5.7,0,5.7-8.9,0-8.9S164.9,172.2,170.7,172.2L170.7,172.2z"/>
		<path class="particle1" d="M182,165.1c5.8,0,5.8-9,0-9C176.2,156.1,176.2,165.1,182,165.1L182,165.1z"/>
		<path class="particle1" d="M124,202c7.2,0,7.2-11.2,0-11.2C116.7,190.8,116.7,202,124,202L124,202z"/>
		<path class="particle2" d="M125.1,194.1c2,0,2-3.1,0-3.1C123.1,191,123.1,194.1,125.1,194.1L125.1,194.1z"/>
		<path class="particle2" d="M134.9,188.1c1.9,0,1.9-3.1,0-3.1C133,185,133,188.1,134.9,188.1L134.9,188.1z"/>
		<path class="particle2" d="M170.1,169.1c2,0,2-3.1,0-3.1S168.1,169.1,170.1,169.1L170.1,169.1z"/>
		<path class="particle2" d="M183.2,160.3c1.9,0,1.9-3,0-3C181.3,157.4,181.3,160.3,183.2,160.3L183.2,160.3z"/>
		<path class="particle2" d="M194.5,153.7c2.2,0,2.2-3.4,0-3.4C192.3,150.3,192.3,153.7,194.5,153.7L194.5,153.7z"/>
		<path class="particle2" d="M144.5,182.2c2,0,2-3.2,0-3.2C142.4,179,142.4,182.2,144.5,182.2L144.5,182.2z"/>
	</g>
	<g class="line-3_1_">
		<path class="particle0" d="M119.8,114.2c8.9,0,8.9-13.8,0-13.8S110.9,114.2,119.8,114.2L119.8,114.2z"/>
		<path class="particle0" d="M122.1,170.1c7.5,0,7.5-11.7,0-11.7C114.6,158.3,114.6,170.1,122.1,170.1L122.1,170.1z"/>
		<path class="particle0" d="M120.7,148.1c7.6,0,7.6-11.9,0-11.9S113,148.1,120.7,148.1L120.7,148.1z"/>
		<path class="particle0" d="M120.2,128.6c7.6,0,7.6-11.9,0-11.9C112.6,116.8,112.6,128.6,120.2,128.6L120.2,128.6z"/>
		<path class="particle0" d="M119.2,124.6c11.7,0,11.7-18.2,0-18.2C107.5,106.4,107.5,124.6,119.2,124.6L119.2,124.6z"/>
		<path class="particle0" d="M119.8,164.7c11.7,0,11.7-18.1,0-18.1S108.1,164.7,119.8,164.7L119.8,164.7z"/>
		<path class="particle0" d="M122.4,201.8c11.4,0,11.4-17.7,0-17.7C111,184.1,111,201.8,122.4,201.8L122.4,201.8z"/>
		<path class="particle0" d="M120.7,138.4c11.6,0,11.6-17.9,0-17.9C109.1,120.4,109.1,138.4,120.7,138.4L120.7,138.4z"/>
		<path class="particle1" d="M121.2,191c6.3,0,6.3-9.8,0-9.8C114.9,181.2,114.9,191,121.2,191L121.2,191z"/>
		<path class="particle1" d="M121.2,177.2c5.8,0,5.8-9,0-9C115.4,168.2,115.4,177.2,121.2,177.2L121.2,177.2z"/>
		<path class="particle1" d="M121.8,167.5c5.8,0,5.8-9,0-9S116,167.5,121.8,167.5L121.8,167.5z"/>
		<path class="particle1" d="M120.7,152.3c5.8,0,5.8-8.9,0-8.9C114.9,143.4,114.9,152.3,120.7,152.3L120.7,152.3z"/>
		<path class="particle1" d="M120,143.8c5.9,0,5.9-9.2,0-9.2C114.1,134.6,114.1,143.8,120,143.8L120,143.8z"/>
		<path class="particle1" d="M118.5,128.9c5.9,0,5.9-9.2,0-9.2S112.6,128.9,118.5,128.9L118.5,128.9z"/>
		<path class="particle1" d="M119.8,115.5c6.3,0,6.3-9.8,0-9.8S113.6,115.5,119.8,115.5L119.8,115.5z"/>
		<path class="particle1" d="M113.2,117.6c5.7,0,5.7-8.8,0-8.8S107.5,117.6,113.2,117.6L113.2,117.6z"/>
		<path class="particle2" d="M120.3,126.2c2,0,2-3.2,0-3.2C118.3,122.9,118.3,126.2,120.3,126.2L120.3,126.2z"/>
		<path class="particle2" d="M119.7,153.9c2.1,0,2.1-3.3,0-3.3C117.7,150.7,117.7,153.9,119.7,153.9L119.7,153.9z"/>
		<path class="particle2" d="M122.1,179.6c2.1,0,2.1-3.3,0-3.3C120,176.3,120,179.6,122.1,179.6L122.1,179.6z"/>
		<path class="particle2" d="M120.7,164.8c1.9,0,1.9-3,0-3C118.7,161.8,118.7,164.8,120.7,164.8L120.7,164.8z"/>
	</g>
	<g class="line-4_1_">
		<path class="particle0" d="M70.3,85.3c7.7,0,7.7-12,0-12S62.6,85.3,70.3,85.3L70.3,85.3z"/>
		<path class="particle0" d="M92.9,97.8c7.7,0,7.7-12.1,0-12.1S85.2,97.8,92.9,97.8L92.9,97.8z"/>
		<path class="particle0" d="M103.3,104c7.7,0,7.7-11.9,0-11.9S95.7,104,103.3,104L103.3,104z"/>
		<path class="particle0" d="M45.7,75c11.8,0,11.8-18.3,0-18.3C33.9,56.7,33.9,75,45.7,75L45.7,75z"/>
		<path class="particle0" d="M115.2,115.3c11.7,0,11.7-18.2,0-18.2C103.4,97.1,103.4,115.3,115.2,115.3L115.2,115.3z"/>
		<path class="particle1" d="M120,115.5c6.4,0,6.4-10,0-10C113.6,105.5,113.6,115.5,120,115.5L120,115.5z"/>
		<path class="particle1" d="M42.3,68.3c6.2,0,6.2-9.6,0-9.6S36.1,68.3,42.3,68.3L42.3,68.3z"/>
		<path class="particle1" d="M109.6,106.5c5.8,0,5.8-8.9,0-8.9S103.8,106.5,109.6,106.5L109.6,106.5z"/>
		<path class="particle1" d="M80.1,89.8c5.9,0,5.9-9.1,0-9.1C74.2,80.7,74.2,89.8,80.1,89.8L80.1,89.8z"/>
		<path class="particle1" d="M56.3,75.4c5.5,0,5.5-8.5,0-8.5S50.8,75.4,56.3,75.4L56.3,75.4z"/>
		<path class="particle1" d="M102.4,99.3c5.8,0,5.8-9,0-9C96.6,90.3,96.6,99.3,102.4,99.3L102.4,99.3z"/>
		<path class="particle1" d="M78.8,88c5.8,0,5.8-9,0-9S73,88,78.8,88L78.8,88z"/>
		<path class="particle1" d="M72.5,82c0.3,0,0.7,0,1,0c1.2,0,2.3-0.5,3.1-1.3s1.4-2,1.3-3.1c-0.1-1.2-0.4-2.3-1.3-3.1
			c-0.9-0.8-1.9-1.3-3.1-1.3c-0.3,0-0.7,0-1,0c-1.2,0-2.3,0.5-3.1,1.3s-1.4,2-1.3,3.1c0.1,1.2,0.4,2.3,1.3,3.1
			C70.2,81.5,71.3,82,72.5,82L72.5,82z"/>
		<path class="particle1" d="M87.3,92.1c5.8,0,5.8-9,0-9S81.5,92.1,87.3,92.1L87.3,92.1z"/>
		<path class="particle1" d="M60.9,77.6c0.3,0,0.7,0,1,0c1.2,0,2.3-0.5,3.1-1.3s1.4-2,1.3-3.1c-0.1-1.2-0.4-2.3-1.3-3.1
			c-0.9-0.8-1.9-1.3-3.1-1.3c-0.3,0-0.7,0-1,0c-1.2,0-2.3,0.5-3.1,1.3c-0.8,0.8-1.4,2-1.3,3.1c0.1,1.2,0.4,2.3,1.3,3.1
			C58.7,77.1,59.7,77.6,60.9,77.6L60.9,77.6z"/>
		<path class="particle1" d="M63.4,81.1c5.8,0,5.8-9,0-9S57.6,81.1,63.4,81.1L63.4,81.1z"/>
		<path class="particle2" d="M53.4,70c1.7,0,1.7-2.7,0-2.7C51.8,67.3,51.8,70,53.4,70L53.4,70z"/>
		<path class="particle2" d="M45.5,65.3c1.9,0,1.9-3.1,0-3.1C43.6,62.3,43.6,65.3,45.5,65.3L45.5,65.3z"/>
		<path class="particle2" d="M71.2,79.7c2,0,2-3.1,0-3.1C69.2,76.5,69.2,79.7,71.2,79.7L71.2,79.7z"/>
		<path class="particle2" d="M61.9,75.8c1.8,0,1.8-2.9,0-2.9C60,72.8,60,75.8,61.9,75.8L61.9,75.8z"/>
		<path class="particle2" d="M88.8,89.7c1.9,0,1.9-3,0-3C86.9,86.7,86.9,89.7,88.8,89.7L88.8,89.7z"/>
		<path class="particle2" d="M108.4,103.5c2,0,2-3.1,0-3.1C106.5,100.4,106.5,103.5,108.4,103.5L108.4,103.5z"/>
		<path class="particle2" d="M97.1,96c1.9,0,1.9-3,0-3C95.2,93,95.2,96,97.1,96L97.1,96z"/>
		<path class="particle2" d="M78.9,85.8c1.9,0,1.9-2.9,0-2.9C77,82.9,77,85.8,78.9,85.8L78.9,85.8z"/>
	</g>
	<g class="line-5_1_">
		<path class="particle0" d="M139,104.6c7.8,0,7.8-12.1,0-12.1S131.3,104.6,139,104.6L139,104.6z"/>
		<path class="particle0" d="M158.2,93.5c7.9,0,7.9-12.3,0-12.3C150.3,81.2,150.3,93.5,158.2,93.5L158.2,93.5z"/>
		<path class="particle0" d="M183.2,78.1c7.8,0,7.8-12.2,0-12.2C175.4,65.9,175.4,78.1,183.2,78.1L183.2,78.1z"/>
		<path class="particle0" d="M138.8,101.5c4.1,0,4.1-6.2,0-6.2C134.7,95.2,134.7,101.5,138.8,101.5L138.8,101.5z"/>
		<path class="particle0" d="M161.7,89.8c4,0,4-6.2,0-6.2C157.7,83.6,157.7,89.8,161.7,89.8L161.7,89.8z"/>
		<path class="particle0" d="M123.8,114.5c11.6,0,11.6-18,0-18C112.2,96.5,112.2,114.5,123.8,114.5L123.8,114.5z"/>
		<path class="particle0" d="M132.2,113c11.6,0,11.6-18,0-18C120.6,95,120.6,113,132.2,113L132.2,113z"/>
		<path class="particle0" d="M151.2,101.4c11.5,0,11.5-17.8,0-17.8C139.8,83.6,139.8,101.4,151.2,101.4L151.2,101.4z"/>
		<path class="particle0" d="M169.5,89.2c11.7,0,11.7-18.1,0-18.1S157.9,89.2,169.5,89.2L169.5,89.2z"/>
		<path class="particle1" d="M175.1,81.6c5.7,0,5.7-8.9,0-8.9S169.4,81.6,175.1,81.6L175.1,81.6z"/>
		<path class="particle1" d="M183.3,75.6c6,0,6-9.4,0-9.4S177.2,75.6,183.3,75.6L183.3,75.6z"/>
		<path class="particle1" d="M193.6,71.6c5.8,0,5.8-9,0-9C187.8,62.6,187.8,71.6,193.6,71.6L193.6,71.6z"/>
		<path class="particle2" d="M196.3,66.3c2,0,2-3.1,0-3.1C194.3,63.1,194.3,66.3,196.3,66.3L196.3,66.3z"/>
		<path class="particle2" d="M122.2,108.4c2.1,0,2.1-3.3,0-3.3C120,105,120,108.4,122.2,108.4L122.2,108.4z"/>
		<path class="particle2" d="M168.3,81.7c2,0,2-3.1,0-3.1C166.3,78.6,166.3,81.7,168.3,81.7L168.3,81.7z"/>
		<path class="particle2" d="M146.5,95.2c2,0,2-3.2,0-3.2C144.5,92,144.5,95.2,146.5,95.2L146.5,95.2z"/>
		<path class="particle2" d="M134.6,102.5c2.2,0,2.2-3.5,0-3.5C132.4,99,132.4,102.5,134.6,102.5L134.6,102.5z"/>
	</g>
	<g class="line-6_1_">
		<path class="particle0" d="M196.9,127.8c7.6,0,7.6-11.8,0-11.8C189.3,116,189.3,127.8,196.9,127.8L196.9,127.8z"/>
		<path class="particle0" d="M197.5,99.5c7.6,0,7.6-11.8,0-11.8C189.9,87.7,189.9,99.5,197.5,99.5L197.5,99.5z"/>
		<path class="particle0" d="M195.4,74.8c7.7,0,7.7-11.9,0-11.9C187.7,62.9,187.7,74.8,195.4,74.8L195.4,74.8z"/>
		<path class="particle0" d="M196.9,140.4c7.7,0,7.7-12,0-12C189.2,128.4,189.2,140.4,196.9,140.4L196.9,140.4z"/>
		<path class="particle0" d="M196,158.4c11.7,0,11.7-18.2,0-18.2C184.3,140.2,184.3,158.4,196,158.4L196,158.4z"/>
		<path class="particle0" d="M195.7,125c11.7,0,11.7-18.1,0-18.1C184.1,106.8,184.1,125,195.7,125L195.7,125z"/>
		<path class="particle0" d="M195.4,78.8c11.6,0,11.6-18,0-18S183.8,78.8,195.4,78.8L195.4,78.8z"/>
		<path class="particle1" d="M198.4,145.5c5.9,0,5.9-9.1,0-9.1S192.5,145.5,198.4,145.5L198.4,145.5z"/>
		<path class="particle1" d="M196.3,135.1c5.9,0,5.9-9.1,0-9.1C190.4,126,190.4,135.1,196.3,135.1L196.3,135.1z"/>
		<path class="particle1" d="M196.9,125.4c5.7,0,5.7-8.8,0-8.8C191.2,116.6,191.2,125.4,196.9,125.4L196.9,125.4z"/>
		<path class="particle1" d="M195.3,116.7c5.9,0,5.9-9.1,0-9.1S189.5,116.7,195.3,116.7L195.3,116.7z"/>
		<path class="particle1" d="M197.5,107c5.8,0,5.8-9,0-9C191.7,98.1,191.7,107,197.5,107L197.5,107z"/>
		<path class="particle1" d="M196.6,99c5.8,0,5.8-9,0-9S190.9,99,196.6,99L196.6,99z"/>
		<path class="particle1" d="M197.8,92.1c5.7,0,5.7-8.8,0-8.8S192.1,92.1,197.8,92.1L197.8,92.1z"/>
		<path class="particle1" d="M196.6,81.7c5.8,0,5.8-9,0-9C190.8,72.7,190.8,81.7,196.6,81.7L196.6,81.7z"/>
		<path class="particle2" d="M196,143.2c2,0,2-3.2,0-3.2S193.9,143.2,196,143.2L196,143.2z"/>
		<path class="particle2" d="M198.4,111c2,0,2-3.1,0-3.1S196.4,111,198.4,111L198.4,111z"/>
		<path class="particle2" d="M197.9,84.4c1.9,0,1.9-3,0-3C196,81.4,196,84.4,197.9,84.4L197.9,84.4z"/>
		<path class="particle2" d="M196.9,99.7c1.9,0,1.9-3.1,0-3.1C195,96.6,195,99.7,196.9,99.7L196.9,99.7z"/>
		<path class="particle2" d="M197.5,129.7c1.9,0,1.9-3.1,0-3.1S195.5,129.7,197.5,129.7L197.5,129.7z"/>
	</g>
	<g class="line-8_1_">
		<path class="particle0" d="M121.2,27.2c7.7,0,7.7-12.1,0-12.1S113.5,27.2,121.2,27.2L121.2,27.2z"/>
		<path class="particle0" d="M105.7,34.6c7.6,0,7.6-11.9,0-11.9S98.1,34.6,105.7,34.6L105.7,34.6z"/>
		<path class="particle0" d="M93.5,43.5c7.9,0,7.9-12.2,0-12.2S85.7,43.5,93.5,43.5L93.5,43.5z"/>
		<path class="particle0" d="M75,52c7.8,0,7.8-12.1,0-12.1S67.3,52,75,52L75,52z"/>
		<path class="particle0" d="M61.9,62.1c7.7,0,7.7-12.1,0-12.1S54.2,62.1,61.9,62.1L61.9,62.1z"/>
		<path class="particle0" d="M119.9,35.1c11.7,0,11.7-18.2,0-18.2S108.2,35.1,119.9,35.1L119.9,35.1z"/>
		<path class="particle0" d="M56.2,68.9c11.8,0,11.8-18.3,0-18.3C44.5,50.6,44.5,68.9,56.2,68.9L56.2,68.9z"/>
		<path class="particle0" d="M70.1,60.6c12.1,0,12.1-18.7,0-18.7C58,41.9,58,60.6,70.1,60.6L70.1,60.6z"/>
		<path class="particle1" d="M54.7,62.7c0.3-0.2,0.7-0.3,0.9-0.5c0.9-0.5,1.7-1.6,2-2.5c0.3-1,0.2-2.3-0.5-3.3c-0.6-0.9-1.4-1.7-2.5-2
			c-1.1-0.3-2.2-0.1-3.3,0.5c-0.3,0.2-0.7,0.3-0.9,0.5c-0.9,0.5-1.7,1.6-2,2.5c-0.3,1-0.2,2.3,0.5,3.3c0.6,0.9,1.4,1.7,2.5,2
			C52.5,63.3,53.5,63.1,54.7,62.7L54.7,62.7z"/>
		<path class="particle1" d="M78.6,47.9c5.6,0,5.6-8.7,0-8.7S73,47.9,78.6,47.9L78.6,47.9z"/>
		<path class="particle1" d="M99.5,38.4c5.9,0,5.9-9.2,0-9.2C93.5,29.3,93.5,38.4,99.5,38.4L99.5,38.4z"/>
		<path class="particle1" d="M107.9,33.4c5.7,0,5.7-8.9,0-8.9C102.2,24.5,102.2,33.4,107.9,33.4L107.9,33.4z"/>
		<path class="particle1" d="M75.9,45.9c6,0,6-9.3,0-9.3C69.9,36.6,69.9,45.9,75.9,45.9L75.9,45.9z"/>
		<path class="particle1" d="M88.4,43.6c5.8,0,5.8-9,0-9S82.6,43.6,88.4,43.6L88.4,43.6z"/>
		<path class="particle1" d="M115.6,27.8c5.8,0,5.8-9,0-9C109.8,18.8,109.8,27.8,115.6,27.8L115.6,27.8z"/>
		<path class="particle2" d="M104.5,30.6c2,0,2-3.2,0-3.2C102.5,27.3,102.5,30.6,104.5,30.6L104.5,30.6z"/>
		<path class="particle2" d="M81.9,43.6c2,0,2-3.1,0-3.1C79.9,40.5,79.9,43.6,81.9,43.6L81.9,43.6z"/>
		<path class="particle2" d="M66.1,53.4c1.9,0,1.9-3,0-3C64.2,50.5,64.2,53.4,66.1,53.4L66.1,53.4z"/>
		<path class="particle2" d="M70.3,57.5c1.9,0,1.9-3,0-3C68.5,54.6,68.5,57.5,70.3,57.5L70.3,57.5z"/>
		<path class="particle2" d="M55.4,58.4c1.8,0,1.8-2.9,0-2.9C53.6,55.5,53.6,58.4,55.4,58.4L55.4,58.4z"/>
	</g>
	<g class="line-9_1_">
		<path class="particle0" d="M172.2,55.5c7.6,0,7.6-11.9,0-11.9C164.5,43.6,164.5,55.5,172.2,55.5L172.2,55.5z"/>
		<path class="particle0" d="M157.2,43.4c4.7,0,4.7-7.3,0-7.3C152.5,36.1,152.5,43.4,157.2,43.4L157.2,43.4z"/>
		<path class="particle0" d="M138.7,36.7c7.6,0,7.6-11.9,0-11.9C131,24.8,131,36.7,138.7,36.7L138.7,36.7z"/>
		<path class="particle0" d="M150.5,47.6c11.8,0,11.8-18.3,0-18.3S138.7,47.6,150.5,47.6L150.5,47.6z"/>
		<path class="particle1" d="M190.3,65.4c5.9,0,5.9-9.1,0-9.1S184.4,65.4,190.3,65.4L190.3,65.4z"/>
		<path class="particle1" d="M179.9,58.9c5.9,0,5.9-9.2,0-9.2S173.9,58.9,179.9,58.9L179.9,58.9z"/>
		<path class="particle1" d="M165.9,51.1c5.9,0,5.9-9.2,0-9.2S160,51.1,165.9,51.1L165.9,51.1z"/>
		<path class="particle1" d="M154.7,46.1c7.5,0,7.5-11.6,0-11.6C147.3,34.5,147.3,46.1,154.7,46.1L154.7,46.1z"/>
		<path class="particle1" d="M140.6,36.9c5.7,0,5.7-8.8,0-8.8S134.9,36.9,140.6,36.9L140.6,36.9z"/>
		<path class="particle1" d="M129.9,30.7c5.9,0,5.9-9.2,0-9.2C123.9,21.5,123.9,30.7,129.9,30.7L129.9,30.7z"/>
		<path class="particle1" d="M121.5,26.6c7.3,0,7.3-11.4,0-11.4C114.2,15.2,114.2,26.6,121.5,26.6L121.5,26.6z"/>
		<path class="particle2" d="M122.1,22.4c1.9,0,1.9-3.1,0-3.1C120.2,19.4,120.2,22.4,122.1,22.4L122.1,22.4z"/>
		<path class="particle2" d="M130.2,27.8c1.9,0,1.9-3,0-3C128.2,24.7,128.2,27.8,130.2,27.8L130.2,27.8z"/>
		<path class="particle2" d="M159.3,42.8c2.1,0,2.1-3.3,0-3.3C157.3,39.5,157.3,42.8,159.3,42.8L159.3,42.8z"/>
		<path class="particle2" d="M145.9,36.2c2,0,2-3.2,0-3.2C143.9,33,143.9,36.2,145.9,36.2L145.9,36.2z"/>
		<path class="particle2" d="M184.1,58.5c2,0,2-3.2,0-3.2C182.1,55.4,182.1,58.5,184.1,58.5L184.1,58.5z"/>
	</g>
</g>
</svg>
