<?xml version="1.0" encoding="utf-8"?>
<!-- Generator: Adobe Illustrator 22.1.0, SVG Export Plug-In . SVG Version: 6.00 Build 0)  -->
<svg version="1.1" id="Layer_1" xmlns="http://www.w3.org/2000/svg" xmlns:xlink="http://www.w3.org/1999/xlink" x="0px" y="0px"
	 viewBox="0 0 44.3 51" style="enable-background:new 0 0 44.3 51;" xml:space="preserve">
<style type="text/css">
	.st0{opacity:0.8;}
	.st1{clip-path:url(#SVGID_2_);fill:#FFFFFF;}
</style>
<g class="st0">
	<g>
		<defs>
			<rect id="SVGID_1_" x="2.5" y="3.1" width="40.1" height="45"/>
		</defs>
		<clipPath id="SVGID_2_">
			<use xlink:href="#SVGID_1_"  style="overflow:visible;"/>
		</clipPath>
		<path class="st1" d="M29.6,16.6C29.5,16.6,29.5,16.6,29.6,16.6l-1.5,1.1c-0.3,0.2-0.4,0.7-0.1,1c0.1,0.2,0.3,0.3,0.6,0.3
			c0.1,0,0.3,0,0.4-0.1l0,0c-0.7,2.3-2.8,4-5.4,4c-1.7,0-3.3-0.8-4.4-2.1c-0.2-0.3-0.7-0.3-1-0.1c-0.3,0.2-0.3,0.7-0.1,1
			c1.3,1.7,3.3,2.6,5.5,2.6c3.3,0,6-2.2,6.8-5.2l0,0c0.1,0.2,0.3,0.3,0.6,0.3c0.1,0,0.3,0,0.4-0.1c0.3-0.2,0.4-0.7,0.1-1l-1.1-1.4
			c0,0,0,0,0,0c0,0-0.1-0.1-0.1-0.1c0,0-0.1-0.1-0.1-0.1c0,0-0.1,0-0.1,0c0,0-0.1,0-0.1,0c0,0,0,0,0,0c0,0-0.1,0-0.1,0
			c0,0-0.1,0-0.1,0C29.6,16.5,29.6,16.5,29.6,16.6"/>
		<path class="st1" d="M42.6,22.1c0-3.6-2.8-6.7-6.4-7c-0.4-6.7-5.9-12-12.6-12c-5.2,0-9.7,3.2-11.7,7.7h-0.3c-5,0-9.1,4.1-9.1,9.1
			c0,3.8,2.3,7.1,5.6,8.4v2.2c-2.8,0.3-4.9,2.7-4.9,5.6c0,3.1,2.5,5.6,5.6,5.6c3.1,0,5.6-2.5,5.6-5.6c0-2.9-2.2-5.2-4.9-5.6v-1.7
			c0.7,0.2,1.4,0.3,2.1,0.3h9.8v5c-3.5,0.4-6.3,3.4-6.3,7c0,3.9,3.2,7,7,7s7-3.2,7-7c0-3.6-2.8-6.6-6.3-7v-5h11.9v1.4
			c-2.8,0.3-4.9,2.7-4.9,5.6c0,3.1,2.5,5.6,5.6,5.6c3.1,0,5.6-2.5,5.6-5.6c0-2.9-2.2-5.2-4.9-5.6v-1.5
			C39.8,28.7,42.6,25.7,42.6,22.1 M13,36.1c0,2.3-1.9,4.2-4.2,4.2c-2.3,0-4.2-1.9-4.2-4.2c0-2.3,1.9-4.2,4.2-4.2
			C11.1,31.9,13,33.8,13,36.1 M27.8,41.1c0,3.1-2.5,5.6-5.6,5.6c-3.1,0-5.6-2.5-5.6-5.6c0-3.1,2.5-5.6,5.6-5.6
			C25.3,35.4,27.8,38,27.8,41.1 M3.9,20c0-4.2,3.4-7.6,7.5-7.7c-0.3,1.1-0.5,2.3-0.5,3.5c0,0.4,0.3,0.7,0.7,0.7
			c0.4,0,0.7-0.3,0.7-0.7c0-6.2,5-11.3,11.2-11.3s11.2,5,11.2,11.3c0,0.4,0.3,0.7,0.7,0.7h0c3.1,0,5.6,2.5,5.6,5.6
			c0,3.1-2.5,5.6-5.6,5.6H11.6C7.4,27.7,3.9,24.2,3.9,20 M39.7,36.1c0,2.3-1.9,4.2-4.2,4.2c-2.3,0-4.2-1.9-4.2-4.2
			c0-2.3,1.9-4.2,4.2-4.2C37.9,31.9,39.7,33.8,39.7,36.1"/>
		<path class="st1" d="M23.8,43c0.1,0.1,0.3,0.2,0.5,0.2c0.2,0,0.4-0.1,0.5-0.2l1.4-1.4c0,0,0,0,0,0c0.1-0.1,0.2-0.3,0.2-0.5
			c0-0.2-0.1-0.4-0.2-0.5c0,0,0,0,0,0l-1.4-1.4c-0.3-0.3-0.7-0.3-1,0c-0.3,0.3-0.3,0.7,0,1l0.9,0.9L23.8,42
			C23.5,42.2,23.5,42.7,23.8,43"/>
		<path class="st1" d="M20.6,39.2c-0.3-0.3-0.7-0.3-1,0l-1.4,1.4c0,0,0,0,0,0C18,40.7,18,40.9,18,41.1c0,0.2,0.1,0.4,0.2,0.5
			c0,0,0,0,0,0l1.4,1.4c0.1,0.1,0.3,0.2,0.5,0.2s0.4-0.1,0.5-0.2c0.3-0.3,0.3-0.7,0-1l-0.9-0.9l0.9-0.9
			C20.8,39.9,20.8,39.4,20.6,39.2"/>
		<path class="st1" d="M21.3,44.6c0.1,0,0.1,0,0.2,0c0.3,0,0.6-0.2,0.7-0.5l1.4-5.6c0.1-0.4-0.1-0.8-0.5-0.9
			c-0.4-0.1-0.8,0.1-0.9,0.5l-1.4,5.6C20.7,44.1,20.9,44.5,21.3,44.6"/>
		<path class="st1" d="M37.1,37.3c0.1,0.1,0.3,0.2,0.5,0.2s0.4-0.1,0.5-0.2l0.7-0.7c0,0,0,0,0,0c0.1-0.1,0.2-0.3,0.2-0.5
			c0-0.2-0.1-0.4-0.2-0.5c0,0,0,0,0,0l-0.7-0.7c-0.3-0.3-0.7-0.3-1,0c-0.3,0.3-0.3,0.7,0,1l0.2,0.2l-0.2,0.2
			C36.9,36.6,36.9,37.1,37.1,37.3"/>
		<path class="st1" d="M33.9,34.9c-0.3-0.3-0.7-0.3-1,0l-0.7,0.7c0,0,0,0,0,0C32.1,35.8,32,36,32,36.1c0,0.2,0.1,0.4,0.2,0.5
			c0,0,0,0,0,0l0.7,0.7c0.1,0.1,0.3,0.2,0.5,0.2s0.4-0.1,0.5-0.2c0.3-0.3,0.3-0.7,0-1l-0.2-0.2l0.2-0.2
			C34.2,35.7,34.2,35.2,33.9,34.9"/>
		<path class="st1" d="M35.2,34.6l-0.7,2.8c-0.1,0.4,0.1,0.8,0.5,0.9c0.1,0,0.1,0,0.2,0c0.3,0,0.6-0.2,0.7-0.5l0.7-2.8
			c0.1-0.4-0.1-0.8-0.5-0.9C35.7,34,35.3,34.2,35.2,34.6"/>
		<path class="st1" d="M10.4,37.3c0.1,0.1,0.3,0.2,0.5,0.2c0.2,0,0.4-0.1,0.5-0.2l0.7-0.7c0,0,0,0,0,0c0.1-0.1,0.2-0.3,0.2-0.5
			c0-0.2-0.1-0.4-0.2-0.5c0,0,0,0,0,0l-0.7-0.7c-0.3-0.3-0.7-0.3-1,0c-0.3,0.3-0.3,0.7,0,1l0.2,0.2l-0.2,0.2
			C10.1,36.6,10.1,37.1,10.4,37.3"/>
		<path class="st1" d="M7.2,34.9c-0.3-0.3-0.7-0.3-1,0l-0.7,0.7c0,0,0,0,0,0c-0.1,0.1-0.2,0.3-0.2,0.5c0,0.2,0.1,0.4,0.2,0.5
			c0,0,0,0,0,0l0.7,0.7c0.1,0.1,0.3,0.2,0.5,0.2c0.2,0,0.4-0.1,0.5-0.2c0.3-0.3,0.3-0.7,0-1L7,36.1l0.2-0.2
			C7.5,35.7,7.5,35.2,7.2,34.9"/>
		<path class="st1" d="M8.5,34.6l-0.7,2.8c-0.1,0.4,0.1,0.8,0.5,0.9c0.1,0,0.1,0,0.2,0c0.3,0,0.6-0.2,0.7-0.5l0.7-2.8
			c0.1-0.4-0.1-0.8-0.5-0.9C9,34,8.6,34.2,8.5,34.6"/>
		<path class="st1" d="M16.7,17.6L16.7,17.6L16.7,17.6C16.7,17.6,16.7,17.6,16.7,17.6c0.1,0.1,0.1,0.1,0.2,0.2c0,0,0,0,0.1,0
			c0,0,0,0,0,0c0.1,0,0.2,0.1,0.3,0.1h0c0.1,0,0.1,0,0.2,0c0,0,0,0,0,0c0,0,0,0,0,0c0,0,0.1,0,0.1,0c0,0,0.1,0,0.1,0c0,0,0,0,0,0
			l1.4-1.1c0.3-0.2,0.4-0.7,0.1-1c-0.2-0.3-0.7-0.4-1-0.1l0,0c0.7-2.3,2.8-4,5.4-4c1.7,0,3.3,0.8,4.4,2.1c0.2,0.3,0.7,0.3,1,0.1
			c0.3-0.2,0.3-0.7,0.1-1c-1.3-1.7-3.3-2.6-5.5-2.6c-3.3,0-6,2.2-6.8,5.2l0,0c-0.2-0.3-0.7-0.4-1-0.1c-0.3,0.2-0.4,0.7-0.1,1
			L16.7,17.6z"/>
	</g>
</g>
</svg>
