<?xml version="1.0" encoding="utf-8"?>
<!-- Generator: Adobe Illustrator 22.1.0, SVG Export Plug-In . SVG Version: 6.00 Build 0)  -->
<svg version="1.1" id="Layer_1" xmlns="http://www.w3.org/2000/svg" xmlns:xlink="http://www.w3.org/1999/xlink" x="0px" y="0px"
	 viewBox="0 0 49 47.7" style="enable-background:new 0 0 49 47.7;" xml:space="preserve">
<style type="text/css">
	.st0{opacity:0.8;}
	.st1{clip-path:url(#SVGID_2_);fill:#FFFFFF;}
</style>
<g class="st0">
	<g>
		<defs>
			<rect id="SVGID_1_" x="2" y="1.6" width="45" height="45"/>
		</defs>
		<clipPath id="SVGID_2_">
			<use xlink:href="#SVGID_1_"  style="overflow:visible;"/>
		</clipPath>
		<path class="st1" d="M19.5,36.8c4,0,7.8-1.3,10.8-3.7l2.2,2.2l-0.5,0.5c-0.3,0.3-0.3,0.7,0,1l8.8,8.8c0.7,0.7,1.5,1,2.5,1
			c0.9,0,1.8-0.4,2.5-1c0.7-0.7,1-1.5,1-2.5s-0.4-1.8-1-2.5h0l-8.8-8.8c-0.3-0.3-0.7-0.3-1,0l-0.5,0.5l-2.2-2.2
			c5.4-6.9,5-16.9-1.4-23.3c-3.3-3.3-7.7-5.1-12.4-5.1c-4.7,0-9.1,1.8-12.4,5.1C3.8,10.1,2,14.5,2,19.2c0,4.7,1.8,9.1,5.1,12.4
			C10.4,35,14.8,36.8,19.5,36.8 M44.9,44.6c-0.8,0.8-2.2,0.8-3,0l-8.3-8.3l0.5-0.5h0c0,0,0,0,0,0l2-2c0,0,0,0,0,0c0,0,0,0,0,0
			l0.5-0.5l8.3,8.4h0c0.4,0.4,0.6,0.9,0.6,1.5C45.5,43.7,45.3,44.2,44.9,44.6 M34.6,33.3l-1,1l-2.1-2.1c0.2-0.2,0.3-0.3,0.5-0.5
			c0.2-0.2,0.3-0.3,0.5-0.5L34.6,33.3z M8.1,7.8C11.1,4.7,15.2,3,19.5,3c4.3,0,8.4,1.7,11.4,4.7c6.3,6.3,6.3,16.6,0,22.9
			c-3.1,3.1-7.1,4.7-11.4,4.7c-4.3,0-8.4-1.7-11.4-4.7C5,27.6,3.4,23.5,3.4,19.2C3.4,14.9,5,10.8,8.1,7.8"/>
		<path class="st1" d="M19.5,30.5c6.2,0,11.3-5,11.3-11.3C30.8,13,25.7,8,19.5,8C13.3,8,8.3,13,8.3,19.2
			C8.3,25.4,13.3,30.5,19.5,30.5 M19.5,9.4c5.4,0,9.8,4.4,9.8,9.8c0,5.4-4.4,9.8-9.8,9.8c-5.4,0-9.8-4.4-9.8-9.8
			C9.7,13.8,14.1,9.4,19.5,9.4"/>
	</g>
</g>
</svg>
