<?xml version="1.0" encoding="utf-8"?>
<!-- Generator: Adobe Illustrator 22.1.0, SVG Export Plug-In . SVG Version: 6.00 Build 0)  -->
<svg version="1.1" id="Layer_1" xmlns="http://www.w3.org/2000/svg" xmlns:xlink="http://www.w3.org/1999/xlink" x="0px" y="0px"
	 viewBox="0 0 51 48.9" style="enable-background:new 0 0 51 48.9;" xml:space="preserve">
<style type="text/css">
	.st0{opacity:0.8;}
	.st1{clip-path:url(#SVGID_2_);fill:#FFFFFF;}
</style>
<g class="st0">
	<g>
		<defs>
			<rect id="SVGID_1_" x="2" y="2.4" width="45.7" height="45"/>
		</defs>
		<clipPath id="SVGID_2_">
			<use xlink:href="#SVGID_1_"  style="overflow:visible;"/>
		</clipPath>
		<path class="st1" d="M35.6,26.7V11c0,0,0,0,0-0.1v-0.7c0-1.2-1-2.1-2.1-2.1H16.3c-1.2,0-2.1,1-2.1,2.1v1.4c0,0,0,0,0,0.1v14.9
			c0,0.4,0.3,0.7,0.7,0.7h20C35.3,27.4,35.6,27.1,35.6,26.7 M16.3,9.5h17.1c0.4,0,0.7,0.3,0.7,0.7H15.6C15.6,9.9,15.9,9.5,16.3,9.5
			 M15.6,26V11.7h18.6v0c0,0,0,0,0,0.1V26H15.6z"/>
		<path class="st1" d="M32,13.1H17.7c-0.4,0-0.7,0.3-0.7,0.7v5.7c0,0.4,0.3,0.7,0.7,0.7H32c0.4,0,0.7-0.3,0.7-0.7v-5.7
			C32.7,13.4,32.4,13.1,32,13.1 M31.3,18.8H18.5v-4.3h12.9V18.8z"/>
		<path class="st1" d="M32,21H17.7c-0.4,0-0.7,0.3-0.7,0.7c0,0.4,0.3,0.7,0.7,0.7H32c0.4,0,0.7-0.3,0.7-0.7C32.7,21.3,32.4,21,32,21
			"/>
		<path class="st1" d="M32,23.1H17.7c-0.4,0-0.7,0.3-0.7,0.7s0.3,0.7,0.7,0.7H32c0.4,0,0.7-0.3,0.7-0.7S32.4,23.1,32,23.1"/>
		<path class="st1" d="M20.6,17.4h8.6c0.4,0,0.7-0.3,0.7-0.7c0-0.4-0.3-0.7-0.7-0.7h-8.6c-0.4,0-0.7,0.3-0.7,0.7
			C19.9,17.1,20.2,17.4,20.6,17.4"/>
		<path class="st1" d="M24.9,28.1L24.9,28.1c-0.4,0-0.7,0.3-0.7,0.7l0,4L24,32.6c-0.3-0.3-0.7-0.3-1,0c-0.3,0.3-0.3,0.7,0,1l1.4,1.4
			c0.1,0.1,0.3,0.2,0.5,0.2c0,0,0,0,0,0s0,0,0,0c0,0,0.1,0,0.1,0c0,0,0.1,0,0.1,0c0.1,0,0.2-0.1,0.3-0.2l1.4-1.4
			c0.3-0.3,0.3-0.7,0-1s-0.7-0.3-1,0l-0.2,0.2l0-4C25.6,28.4,25.3,28.1,24.9,28.1"/>
		<path class="st1" d="M27.7,7.4c0.4,0,0.7-0.3,0.7-0.7V3.8c0-0.2-0.1-0.5-0.3-0.6c-0.2-0.1-0.5-0.1-0.7,0l-1,0.5l-1.1-1.1
			c-0.1-0.1-0.3-0.2-0.5-0.2h0c-0.2,0-0.4,0.1-0.5,0.2l-1,1.1l-1-0.5c-0.2-0.1-0.5-0.1-0.7,0c-0.2,0.1-0.3,0.4-0.3,0.6v2.9
			c0,0.4,0.3,0.7,0.7,0.7H27.7z M22.7,4.9l0.4,0.2C23.5,5.3,23.8,5.2,24,5l0.9-0.9L25.8,5c0.2,0.2,0.6,0.3,0.8,0.1L27,5v1h-4.3V4.9z
			"/>
		<path class="st1" d="M14,28.3c-0.3-0.3-0.7-0.3-1,0l-3.1,3.1v-0.4c0-0.4-0.3-0.7-0.7-0.7c-0.4,0-0.7,0.3-0.7,0.7v2.2
			c0,0.1,0,0.2,0.1,0.3c0.1,0.2,0.2,0.3,0.4,0.4c0.1,0,0.2,0.1,0.3,0.1h2.1c0.4,0,0.7-0.3,0.7-0.7s-0.3-0.7-0.7-0.7h-0.4l3.1-3.1
			C14.3,29,14.3,28.6,14,28.3"/>
		<path class="st1" d="M38.5,33.1c0,0.4,0.3,0.7,0.7,0.7h2.1c0.1,0,0.2,0,0.3-0.1c0.2-0.1,0.3-0.2,0.4-0.4c0-0.1,0.1-0.2,0.1-0.3
			v-2.1c0-0.4-0.3-0.7-0.7-0.7c-0.4,0-0.7,0.3-0.7,0.7v0.4l-3.1-3.1c-0.3-0.3-0.7-0.3-1,0c-0.3,0.3-0.3,0.7,0,1l3.1,3.1h-0.4
			C38.8,32.4,38.5,32.7,38.5,33.1"/>
		<path class="st1" d="M2,45.9c0,0.4,0.3,0.7,0.7,0.7h12.8c0.4,0,0.7-0.3,0.7-0.7v-7.8c0,0,0,0,0-0.1v-0.7c0-1.2-1-2.1-2.1-2.1h-10
			c-1.2,0-2.1,1-2.1,2.1v1.4c0,0,0,0,0,0.1V45.9z M4.2,36.7h10c0.4,0,0.7,0.3,0.7,0.7H3.5C3.5,37,3.8,36.7,4.2,36.7 M3.5,45.2v-6.4
			h11.4v0c0,0,0,0,0,0.1v6.3H3.5z"/>
		<path class="st1" d="M32,46.7v-7.8c0,0,0,0,0-0.1v-0.7c0-1.2-1-2.1-2.1-2.1h-10c-1.2,0-2.1,1-2.1,2.1v1.4c0,0,0,0,0,0.1v7.1
			c0,0.4,0.3,0.7,0.7,0.7h12.8C31.7,47.4,32,47.1,32,46.7 M19.9,37.4h10c0.4,0,0.7,0.3,0.7,0.7H19.2C19.2,37.7,19.5,37.4,19.9,37.4
			 M19.2,45.9v-6.4h11.4v0c0,0,0,0,0,0.1v6.3H19.2z"/>
		<path class="st1" d="M47.7,37.4c0-1.2-1-2.1-2.1-2.1h-10c-1.2,0-2.1,1-2.1,2.1v1.4c0,0,0,0,0,0.1v7.1c0,0.4,0.3,0.7,0.7,0.7H47
			c0.4,0,0.7-0.3,0.7-0.7v-7.8c0,0,0,0,0-0.1V37.4z M35.6,36.7h10c0.4,0,0.7,0.3,0.7,0.7H34.9C34.9,37,35.2,36.7,35.6,36.7
			 M34.9,45.2v-6.4h11.4v0c0,0,0,0,0,0.1v6.3H34.9z"/>
		<path class="st1" d="M12.7,40.2H5.6c-0.4,0-0.7,0.3-0.7,0.7c0,0.4,0.3,0.7,0.7,0.7h7.1c0.4,0,0.7-0.3,0.7-0.7
			C13.5,40.5,13.1,40.2,12.7,40.2"/>
		<path class="st1" d="M12.7,42.4H5.6c-0.4,0-0.7,0.3-0.7,0.7s0.3,0.7,0.7,0.7h7.1c0.4,0,0.7-0.3,0.7-0.7S13.1,42.4,12.7,42.4"/>
		<path class="st1" d="M44.2,40.2H37c-0.4,0-0.7,0.3-0.7,0.7c0,0.4,0.3,0.7,0.7,0.7h7.1c0.4,0,0.7-0.3,0.7-0.7
			C44.9,40.5,44.6,40.2,44.2,40.2"/>
		<path class="st1" d="M44.2,42.4H37c-0.4,0-0.7,0.3-0.7,0.7s0.3,0.7,0.7,0.7h7.1c0.4,0,0.7-0.3,0.7-0.7S44.6,42.4,44.2,42.4"/>
		<path class="st1" d="M28.5,41h-7.1c-0.4,0-0.7,0.3-0.7,0.7c0,0.4,0.3,0.7,0.7,0.7h7.1c0.4,0,0.7-0.3,0.7-0.7
			C29.2,41.3,28.8,41,28.5,41"/>
		<path class="st1" d="M28.5,43.1h-7.1c-0.4,0-0.7,0.3-0.7,0.7s0.3,0.7,0.7,0.7h7.1c0.4,0,0.7-0.3,0.7-0.7S28.8,43.1,28.5,43.1"/>
	</g>
</g>
</svg>
