<?xml version="1.0" encoding="utf-8"?>
<!-- Generator: Adobe Illustrator 22.1.0, SVG Export Plug-In . SVG Version: 6.00 Build 0)  -->
<svg version="1.1" id="Layer_1" xmlns="http://www.w3.org/2000/svg" xmlns:xlink="http://www.w3.org/1999/xlink" x="0px" y="0px"
	 viewBox="0 0 39 50.3" style="enable-background:new 0 0 39 50.3;" xml:space="preserve">
<style type="text/css">
	.st0{opacity:0.8;}
	.st1{clip-path:url(#SVGID_2_);fill:#FFFFFF;}
</style>
<g class="st0">
	<g>
		<defs>
			<rect id="SVGID_1_" x="4.7" y="2.9" width="31.9" height="45"/>
		</defs>
		<clipPath id="SVGID_2_">
			<use xlink:href="#SVGID_1_"  style="overflow:visible;"/>
		</clipPath>
		<path class="st1" d="M30.1,34.9h-3.6v-3c3.5-2,5.8-5.8,5.8-10v-6.5c0-1.9-0.4-3.7-1.2-5.3c0-0.1,0-0.1-0.1-0.2
			c-2-4.1-6.2-6.9-11-6.9c-6.8,0-12.3,5.5-12.3,12.3v1.5c0,0,0,0.1,0,0.1c0,0,0,0.1,0,0.1c0,0,0,0.1,0.1,0.1c0,0,0,0.1,0.1,0.1
			c0,0,0.1,0.1,0.1,0.1c0,0,0.1,0.1,0.1,0.1c0,0,0.1,0,0.1,0.1c0,0,0.1,0,0.1,0c0.3,0,0.6,0.1,0.8,0.1v4.2c0,4.3,2.3,8,5.8,10v3
			l-3.6,0c-3.6,0-6.5,2.9-6.5,6.5l0,5.1c0,0.8,0.6,1.5,1.5,1.5h29c0.8,0,1.5-0.7,1.5-1.5v-5.1C36.6,37.8,33.7,34.9,30.1,34.9
			 M30.8,15.3v0.9c-1.1-1.1-2-1.8-3-2.1l2.3-2.6C30.5,12.7,30.8,14,30.8,15.3 M9.7,16.2C9.7,16.2,9.7,16.2,9.7,16.2
			c-0.2,0-0.5-0.1-0.7-0.1v-0.8c0-6,4.9-10.9,10.9-10.9c4.1,0,7.7,2.3,9.6,5.7l-3.4,3.7c-0.9,0-1.9,0.3-3,0.6c0,0,0,0,0,0
			c-0.3,0.1-0.6,0.2-0.9,0.3C19.5,15.7,15.8,16.9,9.7,16.2C9.8,16.2,9.8,16.2,9.7,16.2 M10.5,21.8v-4.1c1.2,0.1,2.2,0.1,3.2,0.1
			c0,0,1.8-0.1,1.8-0.1c3.1-0.3,5.3-1,7.2-1.6c0.2-0.1,0.5-0.2,0.7-0.2c0,0,2-0.5,2-0.5c0.1,0,0.3,0,0.4,0l0,0l0,0
			c1.7-0.2,3,0.5,5.1,3.1v3.4c0,5.6-4.6,10.2-10.2,10.2C15,32,10.5,27.4,10.5,21.8 M20.8,35.6C20.8,35.6,20.8,35.6,20.8,35.6
			c-0.1,0-0.1,0-0.2,0c-0.1,0-0.1,0-0.1,0c0,0,0,0,0,0l-2.6,0.6l-1.6-1.1v-2.6c1.3,0.5,2.8,0.9,4.4,0.9c1.5,0,3-0.3,4.4-0.9v2.6
			l-1.6,1.1L20.8,35.6z M21.7,37.3L21,38.5h-0.6l-0.7-1.2l1-0.3L21.7,37.3z M17.9,46.5H6.1l0-5.1c0-2.8,2.3-5.1,5.1-5.1l4.1,0l2,1.3
			c0,0,0.1,0,0.1,0c0,0,0,0,0.1,0c0.1,0,0.1,0,0.2,0c0.1,0,0.1,0,0.2,0l0.2-0.1l1,1.7L17.9,46.5z M19.3,46.5l1.2-6.5h0.2l1.2,6.5
			H19.3z M35.2,46.5H23.4l-1.3-7.1l1-1.7l0.2,0.1c0.1,0,0.1,0,0.2,0c0.1,0,0.1,0,0.2,0c0,0,0.1,0,0.1,0c0,0,0.1,0,0.1,0l2-1.3h4.1
			c2.8,0,5.1,2.3,5.1,5.1V46.5z"/>
	</g>
</g>
</svg>
