<?xml version="1.0" encoding="utf-8"?>
<!-- Generator: Adobe Illustrator 22.1.0, SVG Export Plug-In . SVG Version: 6.00 Build 0)  -->
<svg version="1.1" id="Layer_1" xmlns="http://www.w3.org/2000/svg" xmlns:xlink="http://www.w3.org/1999/xlink" x="0px" y="0px"
	 viewBox="0 0 47.7 50.3" style="enable-background:new 0 0 47.7 50.3;" xml:space="preserve">
<style type="text/css">
	.st0{opacity:0.8;}
	.st1{clip-path:url(#SVGID_2_);fill:#FFFFFF;}
</style>
<g class="st0">
	<g>
		<defs>
			<rect id="SVGID_1_" x="1.7" y="3.2" width="45" height="45"/>
		</defs>
		<clipPath id="SVGID_2_">
			<use xlink:href="#SVGID_1_"  style="overflow:visible;"/>
		</clipPath>
		<path class="st1" d="M10,44.6l-0.4,2.1H8.7c-0.4,0-0.7,0.3-0.7,0.7c0,0.4,0.3,0.7,0.7,0.7h9.8c0.4,0,0.7-0.3,0.7-0.7
			c0-0.4-0.3-0.7-0.7-0.7h-0.8l-0.4-2.1h6.2c1.2,0,2.1-0.9,2.1-2.1V27.8c0-1.2-0.9-2.1-2.1-2.1H3.8c-1.2,0-2.1,0.9-2.1,2.1v14.8
			c0,1.2,0.9,2.1,2.1,2.1H10z M16.3,46.8H11l0.4-2.1h4.5L16.3,46.8z M24.2,27.8v12.7h-19V27.1h18.3C23.9,27.1,24.2,27.4,24.2,27.8
			 M3.8,27.1v13.4H3.1V27.8C3.1,27.4,3.4,27.1,3.8,27.1 M3.1,42.5v-0.7h10.6c-0.4,0-0.7,0.3-0.7,0.7c0,0.4,0.3,0.7,0.7,0.7
			c0.4,0,0.7-0.3,0.7-0.7c0-0.4-0.3-0.7-0.7-0.7h10.5v0.7c0,0.4-0.3,0.7-0.7,0.7h-9.8H3.8C3.4,43.2,3.1,42.9,3.1,42.5"/>
		<path class="st1" d="M45.3,3.2H27c-0.8,0-1.4,0.6-1.4,1.4v5.6c0,0.3,0.1,0.5,0.2,0.7c-0.1,0.2-0.2,0.4-0.2,0.7v5.6
			c0,0.3,0.1,0.5,0.2,0.7c-0.1,0.2-0.2,0.4-0.2,0.7v5.6c0,0.8,0.6,1.4,1.4,1.4h18.3c0.8,0,1.4-0.6,1.4-1.4v-5.6
			c0-0.3-0.1-0.5-0.2-0.7c0.1-0.2,0.2-0.4,0.2-0.7v-5.6c0-0.3-0.1-0.5-0.2-0.7c0.1-0.2,0.2-0.4,0.2-0.7V4.6
			C46.7,3.8,46,3.2,45.3,3.2 M45.3,17.2H27v-5.6h18.3V17.2z M27,4.6h18.3l0,5.6H27V4.6z M45.3,24.3H27v-5.6h18.3V24.3z"/>
		<path class="st1" d="M29.8,5.3c-1.2,0-2.1,0.9-2.1,2.1c0,1.2,0.9,2.1,2.1,2.1c1.2,0,2.1-0.9,2.1-2.1C31.9,6.2,31,5.3,29.8,5.3
			 M29.8,8.1c-0.4,0-0.7-0.3-0.7-0.7c0-0.4,0.3-0.7,0.7-0.7c0.4,0,0.7,0.3,0.7,0.7C30.5,7.8,30.2,8.1,29.8,8.1"/>
		<path class="st1" d="M37.8,6c-0.3-0.2-0.8,0-0.9,0.3l-0.7,1.4c-0.2,0.3,0,0.8,0.3,0.9c0.1,0.1,0.2,0.1,0.3,0.1
			c0.3,0,0.5-0.1,0.6-0.4L38.2,7C38.3,6.6,38.2,6.2,37.8,6"/>
		<path class="st1" d="M40.6,6c-0.3-0.2-0.8,0-0.9,0.3L39,7.8c-0.2,0.3,0,0.8,0.3,0.9c0.1,0.1,0.2,0.1,0.3,0.1
			c0.3,0,0.5-0.1,0.6-0.4L41,7C41.1,6.6,41,6.2,40.6,6"/>
		<path class="st1" d="M43.5,6c-0.3-0.2-0.8,0-0.9,0.3l-0.7,1.4c-0.2,0.3,0,0.8,0.3,0.9c0.1,0.1,0.2,0.1,0.3,0.1
			c0.3,0,0.5-0.1,0.6-0.4L43.8,7C44,6.6,43.8,6.2,43.5,6"/>
		<path class="st1" d="M29.8,16.5c1.2,0,2.1-0.9,2.1-2.1c0-1.2-0.9-2.1-2.1-2.1c-1.2,0-2.1,0.9-2.1,2.1
			C27.7,15.6,28.6,16.5,29.8,16.5 M29.8,13.7c0.4,0,0.7,0.3,0.7,0.7c0,0.4-0.3,0.7-0.7,0.7c-0.4,0-0.7-0.3-0.7-0.7
			C29.1,14,29.4,13.7,29.8,13.7"/>
		<path class="st1" d="M36.5,15.7c0.1,0.1,0.2,0.1,0.3,0.1c0.3,0,0.5-0.1,0.6-0.4l0.7-1.4c0.2-0.3,0-0.8-0.3-0.9
			c-0.3-0.2-0.8,0-0.9,0.3l-0.7,1.4C36,15.1,36.2,15.6,36.5,15.7"/>
		<path class="st1" d="M39.3,15.7c0.1,0.1,0.2,0.1,0.3,0.1c0.3,0,0.5-0.1,0.6-0.4L41,14c0.2-0.3,0-0.8-0.3-0.9
			c-0.3-0.2-0.8,0-0.9,0.3L39,14.8C38.8,15.1,39,15.6,39.3,15.7"/>
		<path class="st1" d="M42.1,15.7c0.1,0.1,0.2,0.1,0.3,0.1c0.3,0,0.5-0.1,0.6-0.4l0.7-1.4c0.2-0.3,0-0.8-0.3-0.9
			c-0.3-0.2-0.8,0-0.9,0.3l-0.7,1.4C41.6,15.1,41.8,15.6,42.1,15.7"/>
		<path class="st1" d="M29.8,23.6c1.2,0,2.1-0.9,2.1-2.1c0-1.2-0.9-2.1-2.1-2.1c-1.2,0-2.1,0.9-2.1,2.1
			C27.7,22.6,28.6,23.6,29.8,23.6 M29.8,20.7c0.4,0,0.7,0.3,0.7,0.7c0,0.4-0.3,0.7-0.7,0.7c-0.4,0-0.7-0.3-0.7-0.7
			C29.1,21.1,29.4,20.7,29.8,20.7"/>
		<path class="st1" d="M36.5,22.8c0.1,0.1,0.2,0.1,0.3,0.1c0.3,0,0.5-0.1,0.6-0.4l0.7-1.4c0.2-0.3,0-0.8-0.3-0.9
			c-0.3-0.2-0.8,0-0.9,0.3l-0.7,1.4C36,22.2,36.2,22.6,36.5,22.8"/>
		<path class="st1" d="M39.3,22.8c0.1,0.1,0.2,0.1,0.3,0.1c0.3,0,0.5-0.1,0.6-0.4l0.7-1.4c0.2-0.3,0-0.8-0.3-0.9
			c-0.3-0.2-0.8,0-0.9,0.3L39,21.8C38.8,22.2,39,22.6,39.3,22.8"/>
		<path class="st1" d="M42.1,22.8c0.1,0.1,0.2,0.1,0.3,0.1c0.3,0,0.5-0.1,0.6-0.4l0.7-1.4c0.2-0.3,0-0.8-0.3-0.9
			c-0.3-0.2-0.8,0-0.9,0.3l-0.7,1.4C41.6,22.2,41.8,22.6,42.1,22.8"/>
		<path class="st1" d="M28.9,33.6c-0.3-0.3-0.7-0.3-1,0L26.5,35c-0.1,0.1-0.1,0.1-0.2,0.2c-0.1,0.2-0.1,0.4,0,0.5
			c0,0.1,0.1,0.2,0.2,0.2l1.4,1.4c0.1,0.1,0.3,0.2,0.5,0.2c0.2,0,0.4-0.1,0.5-0.2c0.3-0.3,0.3-0.7,0-1l-0.2-0.2h7.4c0,0,0,0,0,0
			c0.4,0,0.7-0.3,0.7-0.7v-8.4c0-0.4-0.3-0.7-0.7-0.7c-0.4,0-0.7,0.3-0.7,0.7v7.7h-6.7l0.2-0.2C29.2,34.3,29.2,33.9,28.9,33.6"/>
		<path class="st1" d="M12.9,15.1c-0.4,0-0.7,0.3-0.7,0.7v8.4c0,0.4,0.3,0.7,0.7,0.7c0.4,0,0.7-0.3,0.7-0.7v-7.7h8.9l-0.2,0.2
			c-0.3,0.3-0.3,0.7,0,1c0.1,0.1,0.3,0.2,0.5,0.2s0.4-0.1,0.5-0.2l1.4-1.4c0.1-0.1,0.1-0.1,0.2-0.2c0.1-0.2,0.1-0.4,0-0.5
			c0-0.1-0.1-0.2-0.2-0.2l-1.4-1.4c-0.3-0.3-0.7-0.3-1,0c-0.3,0.3-0.3,0.7,0,1l0.2,0.2H12.9L12.9,15.1z"/>
		<path class="st1" d="M6.6,29.2h2.1c0.4,0,0.7-0.3,0.7-0.7c0-0.4-0.3-0.7-0.7-0.7H6.6c-0.4,0-0.7,0.3-0.7,0.7
			C5.9,28.9,6.2,29.2,6.6,29.2"/>
		<path class="st1" d="M8.7,38.3H6.6c-0.4,0-0.7,0.3-0.7,0.7c0,0.4,0.3,0.7,0.7,0.7h2.1c0.4,0,0.7-0.3,0.7-0.7
			C9.4,38.6,9.1,38.3,8.7,38.3"/>
		<path class="st1" d="M12.2,36.2H7.3c-0.4,0-0.7,0.3-0.7,0.7c0,0.4,0.3,0.7,0.7,0.7h4.9c0.4,0,0.7-0.3,0.7-0.7
			C12.9,36.5,12.6,36.2,12.2,36.2"/>
		<path class="st1" d="M7.3,32.7c0,0.4,0.3,0.7,0.7,0.7h9.9c0.4,0,0.7-0.3,0.7-0.7c0-0.4-0.3-0.7-0.7-0.7H8
			C7.6,32,7.3,32.3,7.3,32.7"/>
		<path class="st1" d="M7.3,34.8c0,0.4,0.3,0.7,0.7,0.7h13.4c0.4,0,0.7-0.3,0.7-0.7c0-0.4-0.3-0.7-0.7-0.7H8
			C7.6,34.1,7.3,34.4,7.3,34.8"/>
		<path class="st1" d="M6.6,30.6c0,0.4,0.3,0.7,0.7,0.7H15c0.4,0,0.7-0.3,0.7-0.7c0-0.4-0.3-0.7-0.7-0.7H7.3
			C6.9,29.9,6.6,30.2,6.6,30.6"/>
	</g>
</g>
</svg>
