<?xml version="1.0" encoding="utf-8"?>
<!-- Generator: Adobe Illustrator 22.1.0, SVG Export Plug-In . SVG Version: 6.00 Build 0)  -->
<svg version="1.1" id="Layer_1" xmlns="http://www.w3.org/2000/svg" xmlns:xlink="http://www.w3.org/1999/xlink" x="0px" y="0px"
	 viewBox="0 0 40.7 53" style="enable-background:new 0 0 40.7 53;" xml:space="preserve">
<style type="text/css">
	.st0{opacity:0.8;}
	.st1{clip-path:url(#SVGID_2_);fill:#FFFFFF;}
</style>
<g class="st0">
	<g>
		<defs>
			<rect id="SVGID_1_" x="3.7" y="3.1" width="33.7" height="45"/>
		</defs>
		<clipPath id="SVGID_2_">
			<use xlink:href="#SVGID_1_"  style="overflow:visible;"/>
		</clipPath>
		<path class="st1" d="M35.4,15.8H5.8c-1.2,0-2.1,0.9-2.1,2.1v22.5c0,1.2,0.9,2.1,2.1,2.1H16l-0.8,2.1H15c-1.2,0-2.1,0.9-2.1,2.1
			v0.7c0,0.4,0.3,0.7,0.7,0.7h14.1c0.4,0,0.7-0.3,0.7-0.7v-0.7c0-1.2-0.9-2.1-2.1-2.1H26l-0.8-2.1h10.2c1.2,0,2.1-0.9,2.1-2.1V17.9
			C37.5,16.7,36.5,15.8,35.4,15.8 M5.1,20h0.7v18.3H5.1V20z M7.2,20h28.8v18.3H7.2V20z M5.8,17.2h0.7c-0.4,0-0.7,0.3-0.7,0.7
			c0,0.4,0.3,0.7,0.7,0.7c0.4,0,0.7-0.3,0.7-0.7c0-0.4-0.3-0.7-0.7-0.7h2c-0.4,0-0.7,0.3-0.7,0.7c0,0.4,0.3,0.7,0.7,0.7
			c0.4,0,0.7-0.3,0.7-0.7c0-0.4-0.3-0.7-0.7-0.7h2c-0.4,0-0.7,0.3-0.7,0.7c0,0.4,0.3,0.7,0.7,0.7c0.4,0,0.7-0.3,0.7-0.7
			c0-0.4-0.3-0.7-0.7-0.7h24.5c0.4,0,0.7,0.3,0.7,0.7v0.7H5.1v-0.7C5.1,17.5,5.4,17.2,5.8,17.2 M15,46h11.2c0.4,0,0.7,0.3,0.7,0.7
			H14.3C14.3,46.3,14.6,46,15,46 M24.5,44.6h-7.8l0.8-2.1h6.1L24.5,44.6z M35.4,41.1H24.1h0h-3.5h-3.5h0H5.8c-0.4,0-0.7-0.3-0.7-0.7
			v-0.7h15.5c-0.4,0-0.7,0.3-0.7,0.7s0.3,0.7,0.7,0.7c0.4,0,0.7-0.3,0.7-0.7s-0.3-0.7-0.7-0.7h15.4v0.7
			C36.1,40.8,35.7,41.1,35.4,41.1"/>
		<path class="st1" d="M20.6,12.2c1.9,0,3.5-1.6,3.5-3.5c0-1.9-1.6-3.5-3.5-3.5c-1.9,0-3.5,1.6-3.5,3.5
			C17.1,10.7,18.7,12.2,20.6,12.2 M20.6,6.6c1.2,0,2.1,0.9,2.1,2.1s-0.9,2.1-2.1,2.1c-1.2,0-2.1-0.9-2.1-2.1S19.4,6.6,20.6,6.6"/>
		<path class="st1" d="M20.6,14.4c3.6,0,6.8-2.1,8.3-5.3c0.1-0.2,0.1-0.4,0-0.6c-1.5-3.2-4.7-5.3-8.3-5.3c-3.6,0-6.8,2.1-8.3,5.3
			c-0.1,0.2-0.1,0.4,0,0.6C13.8,12.3,17,14.4,20.6,14.4 M20.6,4.5c2.9,0,5.6,1.6,6.9,4.2c-1.3,2.6-4,4.2-6.9,4.2
			c-2.9,0-5.6-1.6-6.9-4.2C15,6.2,17.7,4.5,20.6,4.5"/>
		<path class="st1" d="M9.3,22.8h12c0.4,0,0.7-0.3,0.7-0.7s-0.3-0.7-0.7-0.7h-12c-0.4,0-0.7,0.3-0.7,0.7S9,22.8,9.3,22.8"/>
		<path class="st1" d="M19.2,24.9c0-0.4-0.3-0.7-0.7-0.7h-7.7c-0.4,0-0.7,0.3-0.7,0.7c0,0.4,0.3,0.7,0.7,0.7h7.7
			C18.9,25.6,19.2,25.3,19.2,24.9"/>
		<path class="st1" d="M17.8,32.6h-7c-0.4,0-0.7,0.3-0.7,0.7s0.3,0.7,0.7,0.7h7c0.4,0,0.7-0.3,0.7-0.7S18.2,32.6,17.8,32.6"/>
		<path class="st1" d="M20.6,24.9c0,0.4,0.3,0.7,0.7,0.7h5.6c0.4,0,0.7-0.3,0.7-0.7c0-0.4-0.3-0.7-0.7-0.7h-5.6
			C20.9,24.2,20.6,24.5,20.6,24.9"/>
		<path class="st1" d="M13.6,35.4H9.3c-0.4,0-0.7,0.3-0.7,0.7c0,0.4,0.3,0.7,0.7,0.7h4.2c0.4,0,0.7-0.3,0.7-0.7
			C14.3,35.8,14,35.4,13.6,35.4"/>
		<path class="st1" d="M12.2,27c-0.4,0-0.7,0.3-0.7,0.7s0.3,0.7,0.7,0.7H15c0.4,0,0.7-0.3,0.7-0.7S15.4,27,15,27H12.2z"/>
		<path class="st1" d="M31.9,27H17.8c-0.4,0-0.7,0.3-0.7,0.7s0.3,0.7,0.7,0.7h14.1c0.4,0,0.7-0.3,0.7-0.7S32.2,27,31.9,27"/>
		<path class="st1" d="M29,29.8H12.2c-0.4,0-0.7,0.3-0.7,0.7s0.3,0.7,0.7,0.7H29c0.4,0,0.7-0.3,0.7-0.7S29.4,29.8,29,29.8"/>
	</g>
</g>
</svg>
