<?xml version="1.0" encoding="utf-8"?>
<!-- Generator: Adobe Illustrator 22.1.0, SVG Export Plug-In . SVG Version: 6.00 Build 0)  -->
<svg version="1.1" id="Layer_1" xmlns="http://www.w3.org/2000/svg" xmlns:xlink="http://www.w3.org/1999/xlink" x="0px" y="0px"
	 viewBox="0 0 35.2 47.1" style="enable-background:new 0 0 35.2 47.1;" xml:space="preserve">
<style type="text/css">
	.st0{opacity:0.8;}
	.st1{clip-path:url(#SVGID_2_);fill:#FFFFFF;}
</style>
<g class="st0">
	<g>
		<defs>
			<rect id="SVGID_1_" x="0.7" y="0.8" width="33.7" height="45"/>
		</defs>
		<clipPath id="SVGID_2_">
			<use xlink:href="#SVGID_1_"  style="overflow:visible;"/>
		</clipPath>
		<path class="st1" d="M26.7,31.8c4.8-3.1,7.7-8.4,7.7-14.2c0-9.3-7.6-16.9-16.9-16.9C8.2,0.8,0.7,8.4,0.7,17.7
			c0,5.8,2.9,11.1,7.7,14.2v2v2.8l0,0c-0.4,0-0.7,0.3-0.7,0.7C7.7,37.7,8,38,8.4,38h0v1.4l0,0c-0.4,0-0.7,0.3-0.7,0.7
			c0,0.4,0.3,0.7,0.7,0.7h0v0.7c0,0.2,0.1,0.4,0.2,0.5l1.4,1.4c0.1,0.1,0.3,0.2,0.5,0.2h3c0.9,1.3,2.4,2.1,4,2.1
			c1.6,0,3.1-0.8,4-2.1h3c0.2,0,0.4-0.1,0.5-0.2l1.4-1.4c0.1-0.1,0.2-0.3,0.2-0.5v-1.4l0,0c0.4,0,0.7-0.3,0.7-0.7
			c0-0.4-0.4-0.7-0.7-0.7v-1.4l0,0c0.4,0,0.7-0.3,0.7-0.7c0-0.4-0.4-0.7-0.7-0.7v-2.1V31.8z M2.1,17.7C2.1,9.1,9,2.2,17.5,2.2
			C26.1,2.2,33,9.1,33,17.7c0,5.4-2.8,10.4-7.4,13.2c-0.2,0.1-0.3,0.4-0.3,0.6v1.7H9.8v-1.7c0-0.2-0.1-0.5-0.3-0.6
			C4.8,28,2.1,23.1,2.1,17.7 M9.8,34.5h15.5V36L9.8,36.6V34.5z M17.5,44.4c-0.8,0-1.5-0.3-2.1-0.7h4.2
			C19.1,44.1,18.3,44.4,17.5,44.4 M25.3,41.3l-1,1H10.8l-1-1v-0.5l15.5-0.6V41.3z M25.3,38.8L9.8,39.4V38l15.5-0.6V38.8z"/>
		<path class="st1" d="M13.8,13.6c-0.3-0.3-0.7-0.3-1,0l-3.5,3.5c-0.3,0.3-0.3,0.7,0,1l3.5,3.5c0.1,0.1,0.3,0.2,0.5,0.2
			c0.2,0,0.4-0.1,0.5-0.2c0.3-0.3,0.3-0.7,0-1l-3-3l3-3C14.1,14.4,14.1,13.9,13.8,13.6"/>
		<path class="st1" d="M21.3,21.7c0.1,0.1,0.3,0.2,0.5,0.2c0.2,0,0.4-0.1,0.5-0.2l3.5-3.5c0.3-0.3,0.3-0.7,0-1l-3.5-3.5
			c-0.3-0.3-0.7-0.3-1,0c-0.3,0.3-0.3,0.7,0,1l3,3l-3,3C21,21,21,21.4,21.3,21.7"/>
		<path class="st1" d="M19.1,11.4c-0.4-0.1-0.8,0.1-0.9,0.5l-2.8,11.3c-0.1,0.4,0.1,0.8,0.5,0.9c0.1,0,0.1,0,0.2,0
			c0.3,0,0.6-0.2,0.7-0.5l2.8-11.3C19.7,11.8,19.5,11.5,19.1,11.4"/>
	</g>
</g>
</svg>
