<svg version="1.1" id="cubo" xmlns="http://www.w3.org/2000/svg" xmlns:xlink="http://www.w3.org/1999/xlink" x="0px" y="0px" viewBox="0 0 1920 1080" xml:space="preserve">
<style type="text/css">
	.particle0{opacity:0.2;fill:#007EFF;}
	.particle1{opacity:0.3;fill:#007EFF;}
	.particle2{fill:#007EFF;}
</style>
<g class="line-1">
	<path class="particle0" d="M244,314.8c7.7,0,7.7-12,0-12C236.3,302.8,236.3,314.8,244,314.8L244,314.8z"/>
	<path class="particle0" d="M292,290.8c7.7,0,7.7-12,0-12C284.3,278.8,284.3,290.8,292,290.8L292,290.8z"/>
	<path class="particle0" d="M207.6,339.7c11.6,0,11.6-18,0-18C196,321.7,196,339.7,207.6,339.7L207.6,339.7z"/>
	<path class="particle0" d="M307.6,279.7c11.6,0,11.6-18,0-18S296,279.7,307.6,279.7L307.6,279.7z"/>
	<path class="particle0" d="M320.2,269.7c11.6,0,11.6-18,0-18S308.6,269.7,320.2,269.7L320.2,269.7z"/>
	<path class="particle0" d="M259.6,312.4c11.6,0,11.6-18,0-18S248,312.4,259.6,312.4L259.6,312.4z"/>
	<path class="particle0" d="M236.9,329.1c11.6,0,11.6-18,0-18S225.3,329.1,236.9,329.1L236.9,329.1z"/>
	<path class="particle1" d="M313.5,265.8c5.8,0,5.8-9,0-9S307.7,265.8,313.5,265.8L313.5,265.8z"/>
	<path class="particle1" d="M210,337.3c5.8,0,5.8-9,0-9S204.2,337.3,210,337.3L210,337.3z"/>
	<path class="particle1" d="M227.5,325.8c5.8,0,5.8-9,0-9S221.7,325.8,227.5,325.8L227.5,325.8z"/>
	<path class="particle1" d="M247,313.3c5.8,0,5.8-9,0-9S241.2,313.3,247,313.3L247,313.3z"/>
	<path class="particle1" d="M260,304.8c5.8,0,5.8-9,0-9S254.2,304.8,260,304.8L260,304.8z"/>
	<path class="particle1" d="M277.5,296.3c5.8,0,5.8-9,0-9S271.7,296.3,277.5,296.3L277.5,296.3z"/>
	<path class="particle1" d="M296.5,284.3c5.8,0,5.8-9,0-9S290.7,284.3,296.5,284.3L296.5,284.3z"/>
	<path class="particle1" d="M196.5,341.8c5.8,0,5.8-9,0-9S190.7,341.8,196.5,341.8L196.5,341.8z"/>
	<path class="particle2" d="M201,334.8c1.9,0,1.9-3,0-3C199.1,331.8,199.1,334.8,201,334.8L201,334.8z"/>
	<path class="particle2" d="M217.5,324.8c1.9,0,1.9-3,0-3C215.6,321.8,215.6,324.8,217.5,324.8L217.5,324.8z"/>
	<path class="particle2" d="M276.5,292.8c1.9,0,1.9-3,0-3S274.6,292.8,276.5,292.8L276.5,292.8z"/>
	<path class="particle2" d="M298.5,278.3c1.9,0,1.9-3,0-3S296.6,278.3,298.5,278.3L298.5,278.3z"/>
	<path class="particle2" d="M317.5,266.8c1.9,0,1.9-3,0-3S315.6,266.8,317.5,266.8L317.5,266.8z"/>
	<path class="particle2" d="M233.5,314.8c1.9,0,1.9-3,0-3S231.6,314.8,233.5,314.8L233.5,314.8z"/>
</g>
<g class="line-2">
	<path class="particle0" d="M194.5,343.3c7.7,0,7.7-12,0-12S186.8,343.3,194.5,343.3L194.5,343.3z"/>
	<path class="particle0" d="M113.5,301.8c7.7,0,7.7-12,0-12S105.8,301.8,113.5,301.8L113.5,301.8z"/>
	<path class="particle0" d="M77.5,280.3c7.7,0,7.7-12,0-12S69.8,280.3,77.5,280.3L77.5,280.3z"/>
	<path class="particle0" d="M179.6,341.7c11.6,0,11.6-18,0-18C168,323.7,168,341.7,179.6,341.7L179.6,341.7z"/>
	<path class="particle0" d="M96.9,295.1c11.6,0,11.6-18,0-18C85.3,277.1,85.3,295.1,96.9,295.1L96.9,295.1z"/>
	<path class="particle0" d="M139.6,321.1c11.6,0,11.6-18,0-18C128,303.1,128,321.1,139.6,321.1L139.6,321.1z"/>
	<path class="particle0" d="M162.2,335.7c11.6,0,11.6-18,0-18S150.6,335.7,162.2,335.7L162.2,335.7z"/>
	<path class="particle1" d="M74,266.3c5.8,0,5.8-9,0-9S68.2,266.3,74,266.3L74,266.3z"/>
	<path class="particle1" d="M81.1,275.1c0.2,0.3,0.3,0.7,0.5,1c0.5,1,1.7,1.8,2.7,2.1c1.1,0.3,2.5,0.2,3.5-0.5c1-0.6,1.8-1.5,2.1-2.7
		s0.1-2.3-0.5-3.5c-0.2-0.3-0.3-0.7-0.5-1c-0.5-1-1.7-1.8-2.7-2.1c-1.1-0.3-2.5-0.2-3.5,0.5c-1,0.6-1.8,1.5-2.1,2.7
		C80.3,272.9,80.5,274,81.1,275.1L81.1,275.1z"/>
	<path class="particle1" d="M93.5,287.3c5.8,0,5.8-9,0-9S87.7,287.3,93.5,287.3L93.5,287.3z"/>
	<path class="particle1" d="M107,294.3c5.8,0,5.8-9,0-9S101.2,294.3,107,294.3L107,294.3z"/>
	<path class="particle1" d="M134,310.3c5.8,0,5.8-9,0-9S128.2,310.3,134,310.3L134,310.3z"/>
	<path class="particle1" d="M143.2,307.5c-0.4,0-1-0.4-1.1-0.7c-0.6-2.3-3.2-3.9-5.5-3.1c-2.2,0.5-3.7,2.9-3,5.3c0.9,3.4,3.8,6.3,7.2,7.1
		c2.3,0.5,5-0.7,5.5-3.1C146.8,310.7,145.4,307.8,143.2,307.5z"/>
	<path class="particle1" d="M168,330.3c5.8,0,5.8-9,0-9S162.2,330.3,168,330.3L168,330.3z"/>
	<path class="particle1" d="M173,337.3c5.8,0,5.8-9,0-9S167.2,337.3,173,337.3L173,337.3z"/>
	<path class="particle1" d="M158,322.3c5.8,0,5.8-9,0-9S152.2,322.3,158,322.3L158,322.3z"/>
	<path class="particle1" d="M69.9,258.6c0.2-0.3,0.3-0.7,0.5-1c0.5-1.1,0.8-2.3,0.5-3.5c-0.3-1-1.1-2.2-2.1-2.7c-1-0.6-2.3-0.8-3.5-0.5
		c-1.1,0.3-2.2,1-2.7,2.1c-0.2,0.3-0.3,0.7-0.5,1c-0.5,1.1-0.8,2.3-0.5,3.5c0.3,1,1.1,2.2,2.1,2.7c1,0.6,2.3,0.8,3.5,0.5
		C68.3,260.3,69.4,259.6,69.9,258.6L69.9,258.6z"/>
	<path class="particle2" d="M192.5,338.3c1.9,0,1.9-3,0-3C190.6,335.3,190.6,338.3,192.5,338.3L192.5,338.3z"/>
	<path class="particle2" d="M67.5,264.8c1.9,0,1.9-3,0-3C65.6,261.8,65.6,264.8,67.5,264.8L67.5,264.8z"/>
	<path id="_x3C_Path_x3E_" class="particle2" d="M110,289.3c1.9,0,1.9-3,0-3C108.1,286.3,108.1,289.3,110,289.3L110,289.3z"/>
	<path id="_x3C_Path_x3E__1_" class="particle2" d="M123.5,299.8c1.9,0,1.9-3,0-3C121.6,296.8,121.6,299.8,123.5,299.8L123.5,299.8z"/>
	<path id="_x3C_Path_x3E__2_" class="particle2" d="M157.5,318.3c1.9,0,1.9-3,0-3C155.6,315.3,155.6,318.3,157.5,318.3L157.5,318.3z"/>
	<path id="_x3C_Path_x3E__3_" class="particle2" d="M142.5,311.3c1.9,0,1.9-3,0-3C140.6,308.3,140.6,311.3,142.5,311.3L142.5,311.3z"/>
	<path id="_x3C_Path_x3E__4_" class="particle2" d="M86.5,275.3c1.9,0,1.9-3,0-3C84.6,272.3,84.6,275.3,86.5,275.3L86.5,275.3z"/>
	<path id="_x3C_Path_x3E__5_" class="particle2" d="M179,331.3c1.9,0,1.9-3,0-3S177.1,331.3,179,331.3"/>
</g>
<g class="line-3">
	<path class="particle0" d="M193.5,198.8c9.7,0,9.7-15,0-15S183.8,198.8,193.5,198.8L193.5,198.8z"/>
	<path class="particle0" d="M196,291.8c7.7,0,7.7-12,0-12S188.3,291.8,196,291.8L196,291.8z"/>
	<path class="particle0" d="M193.5,254.8c7.7,0,7.7-12,0-12S185.8,254.8,193.5,254.8L193.5,254.8z"/>
	<path class="particle0" d="M193,222.3c7.7,0,7.7-12,0-12S185.3,222.3,193,222.3L193,222.3z"/>
	<path class="particle0" d="M190.9,213.1c11.6,0,11.6-18,0-18C179.3,195.1,179.3,213.1,190.9,213.1L190.9,213.1z"/>
	<path class="particle0" d="M192.2,280.4c11.6,0,11.6-18,0-18S180.6,280.4,192.2,280.4L192.2,280.4z"/>
	<path class="particle0" d="M196.2,343.1c11.6,0,11.6-18,0-18S184.6,343.1,196.2,343.1L196.2,343.1z"/>
	<path class="particle0" d="M193.6,236.4c11.6,0,11.6-18,0-18C182,218.4,182,236.4,193.6,236.4L193.6,236.4z"/>
	<path class="particle1" d="M194.5,326.8c5.8,0,5.8-9,0-9S188.7,326.8,194.5,326.8L194.5,326.8z"/>
	<path class="particle1" d="M194.5,304.3c5.8,0,5.8-9,0-9S188.7,304.3,194.5,304.3L194.5,304.3z"/>
	<path class="particle1" d="M195.5,288.3c5.8,0,5.8-9,0-9S189.7,288.3,195.5,288.3L195.5,288.3z"/>
	<path class="particle1" d="M193.5,262.8c5.8,0,5.8-9,0-9S187.7,262.8,193.5,262.8L193.5,262.8z"/>
	<path class="particle1" d="M192.5,248.3c5.8,0,5.8-9,0-9S186.7,248.3,192.5,248.3L192.5,248.3z"/>
	<path class="particle1" d="M190,223.3c5.8,0,5.8-9,0-9S184.2,223.3,190,223.3L190,223.3z"/>
	<path class="particle1" d="M192.5,199.8c5.8,0,5.8-9,0-9S186.7,199.8,192.5,199.8L192.5,199.8z"/>
	<path class="particle1" d="M181,204.8c5.8,0,5.8-9,0-9S175.2,204.8,181,204.8L181,204.8z"/>
	<path class="particle2" d="M193,220.8c1.9,0,1.9-3,0-3C191.1,217.8,191.1,220.8,193,220.8L193,220.8z"/>
	<path class="particle2" d="M192,267.3c1.9,0,1.9-3,0-3C190.1,264.3,190.1,267.3,192,267.3L192,267.3z"/>
	<path class="particle2" d="M196,310.3c1.9,0,1.9-3,0-3C194.1,307.3,194.1,310.3,196,310.3L196,310.3z"/>
	<path id="_x3C_Path_x3E__6_" class="particle2" d="M193.5,285.8c1.9,0,1.9-3,0-3C191.6,282.8,191.6,285.8,193.5,285.8L193.5,285.8z"/>
</g>
<g class="line-4">
	<path class="particle0" d="M109,149.3c7.7,0,7.7-12,0-12S101.3,149.3,109,149.3L109,149.3z"/>
	<path class="particle0" d="M147,170.3c7.7,0,7.7-12,0-12S139.3,170.3,147,170.3L147,170.3z"/>
	<path class="particle0" d="M164.5,180.8c7.7,0,7.7-12,0-12S156.8,180.8,164.5,180.8L164.5,180.8z"/>
	<path class="particle0" d="M67.6,129.1c11.6,0,11.6-18,0-18C56,111.1,56,129.1,67.6,129.1L67.6,129.1z"/>
	<path class="particle0" d="M184.9,197.7c11.6,0,11.6-18,0-18C173.3,179.7,173.3,197.7,184.9,197.7L184.9,197.7z"/>
	<path class="particle1" d="M195,196.3c5.8,0,5.8-9,0-9S189.2,196.3,195,196.3L195,196.3z"/>
	<path class="particle1" d="M62,120.8c5.8,0,5.8-9,0-9S56.2,120.8,62,120.8L62,120.8z"/>
	<path class="particle1" d="M175,185.8c5.8,0,5.8-9,0-9S169.2,185.8,175,185.8L175,185.8z"/>
	<path class="particle1" d="M125.5,157.8c5.8,0,5.8-9,0-9S119.7,157.8,125.5,157.8L125.5,157.8z"/>
	<path class="particle1" d="M85,133.3c5.8,0,5.8-9,0-9S79.2,133.3,85,133.3L85,133.3z"/>
	<path class="particle1" d="M163,173.8c5.8,0,5.8-9,0-9S157.2,173.8,163,173.8L163,173.8z"/>
	<path class="particle1" d="M123.5,154.8c5.8,0,5.8-9,0-9S117.7,154.8,123.5,154.8L123.5,154.8z"/>
	<path class="particle1" d="M112.5,145.3c0.3,0,0.7,0,1,0c1.2,0,2.4-0.5,3.2-1.3s1.4-2.1,1.3-3.2c-0.1-1.2-0.4-2.4-1.3-3.2
		c-0.9-0.8-2-1.3-3.2-1.3c-0.3,0-0.7,0-1,0c-1.2,0-2.4,0.5-3.2,1.3s-1.4,2.1-1.3,3.2c0.1,1.2,0.4,2.4,1.3,3.2
		C110.2,144.8,111.3,145.3,112.5,145.3L112.5,145.3z"/>
	<path class="particle1" d="M137.5,161.8c5.8,0,5.8-9,0-9S131.7,161.8,137.5,161.8L137.5,161.8z"/>
	<path class="particle1" d="M93.5,137.3c0.3,0,0.7,0,1,0c1.2,0,2.4-0.5,3.2-1.3s1.4-2.1,1.3-3.2c-0.1-1.2-0.4-2.4-1.3-3.2
		c-0.9-0.8-2-1.3-3.2-1.3c-0.3,0-0.7,0-1,0c-1.2,0-2.4,0.5-3.2,1.3s-1.4,2.1-1.3,3.2c0.1,1.2,0.4,2.4,1.3,3.2
		C91.2,136.8,92.3,137.3,93.5,137.3L93.5,137.3z"/>
	<path class="particle1" d="M97.5,143.3c5.8,0,5.8-9,0-9S91.7,143.3,97.5,143.3L97.5,143.3z"/>
	<path class="particle2" d="M81,126.8c1.9,0,1.9-3,0-3C79.1,123.8,79.1,126.8,81,126.8L81,126.8z"/>
	<path class="particle2" d="M110.5,142.8c1.9,0,1.9-3,0-3C108.6,139.8,108.6,142.8,110.5,142.8L110.5,142.8z"/>
	<path class="particle2" d="M95,136.3c1.9,0,1.9-3,0-3C93.1,133.3,93.1,136.3,95,136.3L95,136.3z"/>
	<path class="particle2" d="M140,159.8c1.9,0,1.9-3,0-3C138.1,156.8,138.1,159.8,140,159.8L140,159.8z"/>
	<path class="particle2" d="M173,182.8c1.9,0,1.9-3,0-3C171.1,179.8,171.1,182.8,173,182.8L173,182.8z"/>
	<path class="particle2" d="M154,170.3c1.9,0,1.9-3,0-3C152.1,167.3,152.1,170.3,154,170.3L154,170.3z"/>
	<path class="particle2" d="M123.5,153.3c1.9,0,1.9-3,0-3C121.6,150.3,121.6,153.3,123.5,153.3L123.5,153.3z"/>
</g>
<g class="line-5">
	<path class="particle0" d="M224.5,181.3c7.7,0,7.7-12,0-12S216.8,181.3,224.5,181.3L224.5,181.3z"/>
	<path class="particle0" d="M256.5,162.8c7.7,0,7.7-12,0-12C248.8,150.8,248.8,162.8,256.5,162.8L256.5,162.8z"/>
	<path class="particle0" d="M298.5,137.3c7.7,0,7.7-12,0-12C290.8,125.3,290.8,137.3,298.5,137.3L298.5,137.3z"/>
	<path class="particle0" d="M224,178.3c3.9,0,3.9-6,0-6S220.1,178.3,224,178.3L224,178.3z"/>
	<path class="particle0" d="M262.5,158.8c3.9,0,3.9-6,0-6S258.6,158.8,262.5,158.8L262.5,158.8z"/>
	<path class="particle0" d="M198.9,196.4c11.6,0,11.6-18,0-18C187.3,178.4,187.3,196.4,198.9,196.4L198.9,196.4z"/>
	<path class="particle0" d="M212.9,193.7c11.6,0,11.6-18,0-18C201.3,175.7,201.3,193.7,212.9,193.7L212.9,193.7z"/>
	<path class="particle0" d="M244.9,174.4c11.6,0,11.6-18,0-18S233.3,174.4,244.9,174.4L244.9,174.4z"/>
	<path class="particle0" d="M275.6,153.7c11.6,0,11.6-18,0-18S264,153.7,275.6,153.7L275.6,153.7z"/>
	<path class="particle1" d="M285,144.3c5.8,0,5.8-9,0-9S279.2,144.3,285,144.3L285,144.3z"/>
	<path class="particle1" d="M298.5,133.8c5.8,0,5.8-9,0-9S292.7,133.8,298.5,133.8L298.5,133.8z"/>
	<path class="particle1" d="M316,127.3c5.8,0,5.8-9,0-9S310.2,127.3,316,127.3L316,127.3z"/>
	<path class="particle2" d="M320.5,120.3c1.9,0,1.9-3,0-3S318.6,120.3,320.5,120.3L320.5,120.3z"/>
	<path class="particle2" d="M196,190.8c1.9,0,1.9-3,0-3C194.1,187.8,194.1,190.8,196,190.8L196,190.8z"/>
	<path class="particle2" d="M273.5,146.3c1.9,0,1.9-3,0-3S271.6,146.3,273.5,146.3L273.5,146.3z"/>
	<path class="particle2" d="M237,168.8c1.9,0,1.9-3,0-3S235.1,168.8,237,168.8L237,168.8z"/>
	<path class="particle2" d="M217,180.8c1.9,0,1.9-3,0-3C215.1,177.8,215.1,180.8,217,180.8L217,180.8z"/>
</g>
<g class="line-6">
	<path class="particle0" d="M321.5,220.8c7.7,0,7.7-12,0-12C313.8,208.8,313.8,220.8,321.5,220.8L321.5,220.8z"/>
	<path class="particle0" d="M322.5,173.3c7.7,0,7.7-12,0-12C314.8,161.3,314.8,173.3,322.5,173.3L322.5,173.3z"/>
	<path class="particle0" d="M319,131.8c7.7,0,7.7-12,0-12C311.3,119.8,311.3,131.8,319,131.8L319,131.8z"/>
	<path class="particle0" d="M321.5,241.8c7.7,0,7.7-12,0-12C313.8,229.8,313.8,241.8,321.5,241.8L321.5,241.8z"/>
	<path class="particle0" d="M320,268.8c7.7,0,7.7-12,0-12C312.3,256.8,312.3,268.8,320,268.8L320,268.8z"/>
	<path class="particle0" d="M319.6,213.7c11.6,0,11.6-18,0-18S308,213.7,319.6,213.7L319.6,213.7z"/>
	<path class="particle0" d="M318.9,136.4c11.6,0,11.6-18,0-18S307.3,136.4,318.9,136.4L318.9,136.4z"/>
	<path class="particle1" d="M324,251.3c5.8,0,5.8-9,0-9S318.2,251.3,324,251.3L324,251.3z"/>
	<path class="particle1" d="M320.5,233.8c5.8,0,5.8-9,0-9S314.7,233.8,320.5,233.8L320.5,233.8z"/>
	<path class="particle1" d="M321.5,217.8c5.8,0,5.8-9,0-9S315.7,217.8,321.5,217.8L321.5,217.8z"/>
	<path class="particle1" d="M319,202.8c5.8,0,5.8-9,0-9S313.2,202.8,319,202.8L319,202.8z"/>
	<path class="particle1" d="M322.5,186.8c5.8,0,5.8-9,0-9S316.7,186.8,322.5,186.8L322.5,186.8z"/>
	<path class="particle1" d="M321.5,173.3c5.8,0,5.8-9,0-9S315.7,173.3,321.5,173.3L321.5,173.3z"/>
	<path class="particle1" d="M323,161.8c5.8,0,5.8-9,0-9S317.2,161.8,323,161.8L323,161.8z"/>
	<path class="particle1" d="M321,144.3c5.8,0,5.8-9,0-9S315.2,144.3,321,144.3L321,144.3z"/>
	<path class="particle2" d="M320,249.3c1.9,0,1.9-3,0-3S318.1,249.3,320,249.3L320,249.3z"/>
	<path class="particle2" d="M324,195.3c1.9,0,1.9-3,0-3S322.1,195.3,324,195.3L324,195.3z"/>
	<path class="particle2" d="M323,150.8c1.9,0,1.9-3,0-3S321.1,150.8,323,150.8L323,150.8z"/>
	<path class="particle2" d="M321.5,176.3c1.9,0,1.9-3,0-3S319.6,176.3,321.5,176.3L321.5,176.3z"/>
	<path class="particle2" d="M322.5,226.8c1.9,0,1.9-3,0-3S320.6,226.8,322.5,226.8L322.5,226.8z"/>
</g>
<g class="line-7">
	<path class="particle0" d="M71,125.3c7.7,0,7.7-12,0-12S63.3,125.3,71,125.3L71,125.3z"/>
	<path class="particle0" d="M65,235.8c7.7,0,7.7-12,0-12S57.3,235.8,65,235.8L65,235.8z"/>
	<path class="particle0" d="M64,149.8c7.7,0,7.7-12,0-12S56.3,149.8,64,149.8L64,149.8z"/>
	<path class="particle0" d="M63.6,254.4c11.6,0,11.6-18,0-18C52,236.4,52,254.4,63.6,254.4L63.6,254.4z"/>
	<path class="particle0" d="M67.6,203.7c11.6,0,11.6-18,0-18C56,185.7,56,203.7,67.6,203.7L67.6,203.7z"/>
	<path class="particle1" d="M69,228.8c5.8,0,5.8-9,0-9S63.2,228.8,69,228.8L69,228.8z"/>
	<path class="particle1" d="M62.5,208.3c5.8,0,5.8-9,0-9S56.7,208.3,62.5,208.3L62.5,208.3z"/>
	<path class="particle1" d="M65.5,182.3c5.8,0,5.8-9,0-9S59.7,182.3,65.5,182.3L65.5,182.3z"/>
	<path class="particle1" d="M67,162.8c5.8,0,5.8-9,0-9S61.2,162.8,67,162.8L67,162.8z"/>
	<path class="particle1" d="M66,140.3c5.8,0,5.8-9,0-9S60.2,140.3,66,140.3L66,140.3z"/>
	<path class="particle2" d="M67.5,118.8c1.9,0,1.9-3,0-3C65.6,115.8,65.6,118.8,67.5,118.8L67.5,118.8z"/>
	<path class="particle2" d="M64.5,143.3c1.9,0,1.9-3,0-3C62.6,140.3,62.6,143.3,64.5,143.3L64.5,143.3z"/>
	<path class="particle2" d="M65.5,158.3c1.9,0,1.9-3,0-3C63.6,155.3,63.6,158.3,65.5,158.3L65.5,158.3z"/>
	<path class="particle2" d="M67.5,198.8c1.9,0,1.9-3,0-3C65.6,195.8,65.6,198.8,67.5,198.8L67.5,198.8z"/>
	<path class="particle2" d="M67,173.8c1.9,0,1.9-3,0-3C65.1,170.8,65.1,173.8,67,173.8L67,173.8z"/>
	<path class="particle2" d="M64.5,216.8c1.9,0,1.9-3,0-3C62.6,213.8,62.6,216.8,64.5,216.8L64.5,216.8z"/>
	<path class="particle2" d="M66,249.3c1.9,0,1.9-3,0-3C64.1,246.3,64.1,249.3,66,249.3L66,249.3z"/>
</g>
<g class="line-8">
	<path class="particle0" d="M194.5,51.8c7.7,0,7.7-12,0-12S186.8,51.8,194.5,51.8L194.5,51.8z"/>
	<path class="particle0" d="M168.5,64.3c7.7,0,7.7-12,0-12S160.8,64.3,168.5,64.3L168.5,64.3z"/>
	<path class="particle0" d="M148,78.8c7.7,0,7.7-12,0-12S140.3,78.8,148,78.8L148,78.8z"/>
	<path class="particle0" d="M117,93.3c7.7,0,7.7-12,0-12S109.3,93.3,117,93.3L117,93.3z"/>
	<path class="particle0" d="M95,110.3c7.7,0,7.7-12,0-12S87.3,110.3,95,110.3L95,110.3z"/>
	<path class="particle0" d="M192.2,63.1c11.6,0,11.6-18,0-18S180.6,63.1,192.2,63.1L192.2,63.1z"/>
	<path class="particle0" d="M84.9,119.1c11.6,0,11.6-18,0-18C73.3,101.1,73.3,119.1,84.9,119.1L84.9,119.1z"/>
	<path class="particle0" d="M107.6,105.1c11.6,0,11.6-18,0-18C96,87.1,96,105.1,107.6,105.1L107.6,105.1z"/>
	<path class="particle1" d="M82.3,113.2c0.3-0.2,0.7-0.3,1-0.5c1-0.5,1.8-1.7,2.1-2.7c0.3-1.1,0.2-2.5-0.5-3.5c-0.6-1-1.5-1.8-2.7-2.1
		c-1.2-0.3-2.3-0.1-3.5,0.5c-0.3,0.2-0.7,0.3-1,0.5c-1,0.5-1.8,1.7-2.1,2.7c-0.3,1.1-0.2,2.5,0.5,3.5c0.6,1,1.5,1.8,2.7,2.1
		C80,113.9,81.1,113.7,82.3,113.2L82.3,113.2z"/>
	<path class="particle1" d="M123,87.8c5.8,0,5.8-9,0-9S117.2,87.8,123,87.8L123,87.8z"/>
	<path class="particle1" d="M158,71.3c5.8,0,5.8-9,0-9S152.2,71.3,158,71.3L158,71.3z"/>
	<path class="particle1" d="M172.5,63.3c5.8,0,5.8-9,0-9S166.7,63.3,172.5,63.3L172.5,63.3z"/>
	<path class="particle1" d="M118.5,83.8c5.8,0,5.8-9,0-9S112.7,83.8,118.5,83.8L118.5,83.8z"/>
	<path class="particle1" d="M139.5,80.3c5.8,0,5.8-9,0-9S133.7,80.3,139.5,80.3L139.5,80.3z"/>
	<path class="particle1" d="M185,53.8c5.8,0,5.8-9,0-9S179.2,53.8,185,53.8L185,53.8z"/>
	<path class="particle2" d="M166.5,60.3c1.9,0,1.9-3,0-3C164.6,57.3,164.6,60.3,166.5,60.3L166.5,60.3z"/>
	<path class="particle2" d="M128.5,82.3c1.9,0,1.9-3,0-3C126.6,79.3,126.6,82.3,128.5,82.3L128.5,82.3z"/>
	<path class="particle2" d="M102,98.8c1.9,0,1.9-3,0-3C100.1,95.8,100.1,98.8,102,98.8L102,98.8z"/>
	<path class="particle2" d="M84,107.3c1.9,0,1.9-3,0-3C82.1,104.3,82.1,107.3,84,107.3L84,107.3z"/>
</g>
<g class="line-9">
	<path class="particle0" d="M280,99.3c7.7,0,7.7-12,0-12C272.3,87.3,272.3,99.3,280,99.3L280,99.3z"/>
	<path class="particle0" d="M250.5,83.3c7.7,0,7.7-12,0-12C242.8,71.3,242.8,83.3,250.5,83.3L250.5,83.3z"/>
	<path class="particle0" d="M224,67.8c7.7,0,7.7-12,0-12S216.3,67.8,224,67.8L224,67.8z"/>
	<path class="particle0" d="M243.6,83.7c11.6,0,11.6-18,0-18S232,83.7,243.6,83.7L243.6,83.7z"/>
	<path class="particle1" d="M310.5,116.8c5.8,0,5.8-9,0-9S304.7,116.8,310.5,116.8L310.5,116.8z"/>
	<path class="particle1" d="M292.5,105.8c5.8,0,5.8-9,0-9S286.7,105.8,292.5,105.8L292.5,105.8z"/>
	<path class="particle1" d="M269.5,92.8c5.8,0,5.8-9,0-9S263.7,92.8,269.5,92.8L269.5,92.8z"/>
	<path class="particle1" d="M249,80.3c5.8,0,5.8-9,0-9S243.2,80.3,249,80.3L249,80.3z"/>
	<path class="particle1" d="M227,69.3c5.8,0,5.8-9,0-9S221.2,69.3,227,69.3L227,69.3z"/>
	<path class="particle1" d="M209,58.8c5.8,0,5.8-9,0-9S203.2,58.8,209,58.8L209,58.8z"/>
	<path class="particle1" d="M195,49.8c5.8,0,5.8-9,0-9S189.2,49.8,195,49.8L195,49.8z"/>
	<path class="particle2" d="M196,46.8c1.9,0,1.9-3,0-3C194.1,43.8,194.1,46.8,196,46.8L196,46.8z"/>
	<path class="particle2" d="M209.5,55.8c1.9,0,1.9-3,0-3C207.6,52.8,207.6,55.8,209.5,55.8L209.5,55.8z"/>
	<path class="particle2" d="M258.5,80.8c1.9,0,1.9-3,0-3S256.6,80.8,258.5,80.8L258.5,80.8z"/>
	<path class="particle2" d="M236,69.8c1.9,0,1.9-3,0-3S234.1,69.8,236,69.8L236,69.8z"/>
	<path class="particle2" d="M300,107.3c1.9,0,1.9-3,0-3S298.1,107.3,300,107.3L300,107.3z"/>
</g>
</svg>